G75*
%MOIN*%
%OFA0B0*%
%FSLAX25Y25*%
%IPPOS*%
%LPD*%
%AMOC8*
5,1,8,0,0,1.08239X$1,22.5*
%
%ADD10C,0.01600*%
%ADD11C,0.00000*%
D10*
X0002325Y0001800D02*
X0392325Y0001800D01*
X0392325Y0291800D01*
X0002325Y0291800D01*
X0002325Y0001800D01*
X0142325Y0016800D02*
X0142325Y0081800D01*
X0207325Y0081800D01*
X0207325Y0016800D01*
X0142325Y0016800D01*
D11*
X0020179Y0034428D02*
X0020181Y0034564D01*
X0020187Y0034699D01*
X0020197Y0034835D01*
X0020211Y0034970D01*
X0020229Y0035104D01*
X0020250Y0035238D01*
X0020276Y0035372D01*
X0020305Y0035504D01*
X0020339Y0035636D01*
X0020376Y0035767D01*
X0020417Y0035896D01*
X0020462Y0036024D01*
X0020510Y0036151D01*
X0020562Y0036276D01*
X0020618Y0036400D01*
X0020678Y0036522D01*
X0020741Y0036642D01*
X0020807Y0036761D01*
X0020877Y0036877D01*
X0020950Y0036992D01*
X0021027Y0037104D01*
X0021107Y0037213D01*
X0021190Y0037321D01*
X0021276Y0037426D01*
X0021365Y0037528D01*
X0021457Y0037628D01*
X0021552Y0037725D01*
X0021650Y0037819D01*
X0021750Y0037911D01*
X0021853Y0037999D01*
X0021959Y0038084D01*
X0022067Y0038167D01*
X0022177Y0038246D01*
X0022290Y0038321D01*
X0022405Y0038394D01*
X0022522Y0038463D01*
X0022641Y0038528D01*
X0022761Y0038590D01*
X0022884Y0038649D01*
X0023008Y0038704D01*
X0023134Y0038755D01*
X0023261Y0038803D01*
X0023389Y0038847D01*
X0023519Y0038887D01*
X0023650Y0038923D01*
X0023782Y0038955D01*
X0023914Y0038984D01*
X0024048Y0039009D01*
X0024182Y0039029D01*
X0024317Y0039046D01*
X0024452Y0039059D01*
X0024587Y0039068D01*
X0024723Y0039073D01*
X0024859Y0039074D01*
X0024995Y0039071D01*
X0025130Y0039064D01*
X0025266Y0039053D01*
X0025401Y0039038D01*
X0025535Y0039019D01*
X0025669Y0038997D01*
X0025802Y0038970D01*
X0025934Y0038940D01*
X0026066Y0038905D01*
X0026196Y0038867D01*
X0026325Y0038825D01*
X0026453Y0038779D01*
X0026579Y0038730D01*
X0026704Y0038677D01*
X0026828Y0038620D01*
X0026949Y0038560D01*
X0027069Y0038496D01*
X0027187Y0038429D01*
X0027303Y0038358D01*
X0027417Y0038284D01*
X0027528Y0038207D01*
X0027638Y0038126D01*
X0027744Y0038042D01*
X0027849Y0037955D01*
X0027951Y0037865D01*
X0028050Y0037773D01*
X0028146Y0037677D01*
X0028240Y0037579D01*
X0028330Y0037477D01*
X0028418Y0037374D01*
X0028502Y0037268D01*
X0028584Y0037159D01*
X0028662Y0037048D01*
X0028737Y0036935D01*
X0028808Y0036819D01*
X0028877Y0036702D01*
X0028941Y0036582D01*
X0029002Y0036461D01*
X0029060Y0036338D01*
X0029114Y0036214D01*
X0029164Y0036088D01*
X0029211Y0035960D01*
X0029254Y0035831D01*
X0029293Y0035701D01*
X0029328Y0035570D01*
X0029360Y0035438D01*
X0029387Y0035305D01*
X0029411Y0035172D01*
X0029431Y0035037D01*
X0029447Y0034902D01*
X0029459Y0034767D01*
X0029467Y0034632D01*
X0029471Y0034496D01*
X0029471Y0034360D01*
X0029467Y0034224D01*
X0029459Y0034089D01*
X0029447Y0033954D01*
X0029431Y0033819D01*
X0029411Y0033684D01*
X0029387Y0033551D01*
X0029360Y0033418D01*
X0029328Y0033286D01*
X0029293Y0033155D01*
X0029254Y0033025D01*
X0029211Y0032896D01*
X0029164Y0032768D01*
X0029114Y0032642D01*
X0029060Y0032518D01*
X0029002Y0032395D01*
X0028941Y0032274D01*
X0028877Y0032154D01*
X0028808Y0032037D01*
X0028737Y0031921D01*
X0028662Y0031808D01*
X0028584Y0031697D01*
X0028502Y0031588D01*
X0028418Y0031482D01*
X0028330Y0031379D01*
X0028240Y0031277D01*
X0028146Y0031179D01*
X0028050Y0031083D01*
X0027951Y0030991D01*
X0027849Y0030901D01*
X0027744Y0030814D01*
X0027638Y0030730D01*
X0027528Y0030649D01*
X0027417Y0030572D01*
X0027303Y0030498D01*
X0027187Y0030427D01*
X0027069Y0030360D01*
X0026949Y0030296D01*
X0026828Y0030236D01*
X0026704Y0030179D01*
X0026579Y0030126D01*
X0026453Y0030077D01*
X0026325Y0030031D01*
X0026196Y0029989D01*
X0026066Y0029951D01*
X0025934Y0029916D01*
X0025802Y0029886D01*
X0025669Y0029859D01*
X0025535Y0029837D01*
X0025401Y0029818D01*
X0025266Y0029803D01*
X0025130Y0029792D01*
X0024995Y0029785D01*
X0024859Y0029782D01*
X0024723Y0029783D01*
X0024587Y0029788D01*
X0024452Y0029797D01*
X0024317Y0029810D01*
X0024182Y0029827D01*
X0024048Y0029847D01*
X0023914Y0029872D01*
X0023782Y0029901D01*
X0023650Y0029933D01*
X0023519Y0029969D01*
X0023389Y0030009D01*
X0023261Y0030053D01*
X0023134Y0030101D01*
X0023008Y0030152D01*
X0022884Y0030207D01*
X0022761Y0030266D01*
X0022641Y0030328D01*
X0022522Y0030393D01*
X0022405Y0030462D01*
X0022290Y0030535D01*
X0022177Y0030610D01*
X0022067Y0030689D01*
X0021959Y0030772D01*
X0021853Y0030857D01*
X0021750Y0030945D01*
X0021650Y0031037D01*
X0021552Y0031131D01*
X0021457Y0031228D01*
X0021365Y0031328D01*
X0021276Y0031430D01*
X0021190Y0031535D01*
X0021107Y0031643D01*
X0021027Y0031752D01*
X0020950Y0031864D01*
X0020877Y0031979D01*
X0020807Y0032095D01*
X0020741Y0032214D01*
X0020678Y0032334D01*
X0020618Y0032456D01*
X0020562Y0032580D01*
X0020510Y0032705D01*
X0020462Y0032832D01*
X0020417Y0032960D01*
X0020376Y0033089D01*
X0020339Y0033220D01*
X0020305Y0033352D01*
X0020276Y0033484D01*
X0020250Y0033618D01*
X0020229Y0033752D01*
X0020211Y0033886D01*
X0020197Y0034021D01*
X0020187Y0034157D01*
X0020181Y0034292D01*
X0020179Y0034428D01*
X0011026Y0016800D02*
X0011028Y0016958D01*
X0011034Y0017116D01*
X0011044Y0017274D01*
X0011058Y0017432D01*
X0011076Y0017589D01*
X0011097Y0017746D01*
X0011123Y0017902D01*
X0011153Y0018058D01*
X0011186Y0018213D01*
X0011224Y0018366D01*
X0011265Y0018519D01*
X0011310Y0018671D01*
X0011359Y0018822D01*
X0011412Y0018971D01*
X0011468Y0019119D01*
X0011528Y0019265D01*
X0011592Y0019410D01*
X0011660Y0019553D01*
X0011731Y0019695D01*
X0011805Y0019835D01*
X0011883Y0019972D01*
X0011965Y0020108D01*
X0012049Y0020242D01*
X0012138Y0020373D01*
X0012229Y0020502D01*
X0012324Y0020629D01*
X0012421Y0020754D01*
X0012522Y0020876D01*
X0012626Y0020995D01*
X0012733Y0021112D01*
X0012843Y0021226D01*
X0012956Y0021337D01*
X0013071Y0021446D01*
X0013189Y0021551D01*
X0013310Y0021653D01*
X0013433Y0021753D01*
X0013559Y0021849D01*
X0013687Y0021942D01*
X0013817Y0022032D01*
X0013950Y0022118D01*
X0014085Y0022202D01*
X0014221Y0022281D01*
X0014360Y0022358D01*
X0014501Y0022430D01*
X0014643Y0022500D01*
X0014787Y0022565D01*
X0014933Y0022627D01*
X0015080Y0022685D01*
X0015229Y0022740D01*
X0015379Y0022791D01*
X0015530Y0022838D01*
X0015682Y0022881D01*
X0015835Y0022920D01*
X0015990Y0022956D01*
X0016145Y0022987D01*
X0016301Y0023015D01*
X0016457Y0023039D01*
X0016614Y0023059D01*
X0016772Y0023075D01*
X0016929Y0023087D01*
X0017088Y0023095D01*
X0017246Y0023099D01*
X0017404Y0023099D01*
X0017562Y0023095D01*
X0017721Y0023087D01*
X0017878Y0023075D01*
X0018036Y0023059D01*
X0018193Y0023039D01*
X0018349Y0023015D01*
X0018505Y0022987D01*
X0018660Y0022956D01*
X0018815Y0022920D01*
X0018968Y0022881D01*
X0019120Y0022838D01*
X0019271Y0022791D01*
X0019421Y0022740D01*
X0019570Y0022685D01*
X0019717Y0022627D01*
X0019863Y0022565D01*
X0020007Y0022500D01*
X0020149Y0022430D01*
X0020290Y0022358D01*
X0020429Y0022281D01*
X0020565Y0022202D01*
X0020700Y0022118D01*
X0020833Y0022032D01*
X0020963Y0021942D01*
X0021091Y0021849D01*
X0021217Y0021753D01*
X0021340Y0021653D01*
X0021461Y0021551D01*
X0021579Y0021446D01*
X0021694Y0021337D01*
X0021807Y0021226D01*
X0021917Y0021112D01*
X0022024Y0020995D01*
X0022128Y0020876D01*
X0022229Y0020754D01*
X0022326Y0020629D01*
X0022421Y0020502D01*
X0022512Y0020373D01*
X0022601Y0020242D01*
X0022685Y0020108D01*
X0022767Y0019972D01*
X0022845Y0019835D01*
X0022919Y0019695D01*
X0022990Y0019553D01*
X0023058Y0019410D01*
X0023122Y0019265D01*
X0023182Y0019119D01*
X0023238Y0018971D01*
X0023291Y0018822D01*
X0023340Y0018671D01*
X0023385Y0018519D01*
X0023426Y0018366D01*
X0023464Y0018213D01*
X0023497Y0018058D01*
X0023527Y0017902D01*
X0023553Y0017746D01*
X0023574Y0017589D01*
X0023592Y0017432D01*
X0023606Y0017274D01*
X0023616Y0017116D01*
X0023622Y0016958D01*
X0023624Y0016800D01*
X0023622Y0016642D01*
X0023616Y0016484D01*
X0023606Y0016326D01*
X0023592Y0016168D01*
X0023574Y0016011D01*
X0023553Y0015854D01*
X0023527Y0015698D01*
X0023497Y0015542D01*
X0023464Y0015387D01*
X0023426Y0015234D01*
X0023385Y0015081D01*
X0023340Y0014929D01*
X0023291Y0014778D01*
X0023238Y0014629D01*
X0023182Y0014481D01*
X0023122Y0014335D01*
X0023058Y0014190D01*
X0022990Y0014047D01*
X0022919Y0013905D01*
X0022845Y0013765D01*
X0022767Y0013628D01*
X0022685Y0013492D01*
X0022601Y0013358D01*
X0022512Y0013227D01*
X0022421Y0013098D01*
X0022326Y0012971D01*
X0022229Y0012846D01*
X0022128Y0012724D01*
X0022024Y0012605D01*
X0021917Y0012488D01*
X0021807Y0012374D01*
X0021694Y0012263D01*
X0021579Y0012154D01*
X0021461Y0012049D01*
X0021340Y0011947D01*
X0021217Y0011847D01*
X0021091Y0011751D01*
X0020963Y0011658D01*
X0020833Y0011568D01*
X0020700Y0011482D01*
X0020565Y0011398D01*
X0020429Y0011319D01*
X0020290Y0011242D01*
X0020149Y0011170D01*
X0020007Y0011100D01*
X0019863Y0011035D01*
X0019717Y0010973D01*
X0019570Y0010915D01*
X0019421Y0010860D01*
X0019271Y0010809D01*
X0019120Y0010762D01*
X0018968Y0010719D01*
X0018815Y0010680D01*
X0018660Y0010644D01*
X0018505Y0010613D01*
X0018349Y0010585D01*
X0018193Y0010561D01*
X0018036Y0010541D01*
X0017878Y0010525D01*
X0017721Y0010513D01*
X0017562Y0010505D01*
X0017404Y0010501D01*
X0017246Y0010501D01*
X0017088Y0010505D01*
X0016929Y0010513D01*
X0016772Y0010525D01*
X0016614Y0010541D01*
X0016457Y0010561D01*
X0016301Y0010585D01*
X0016145Y0010613D01*
X0015990Y0010644D01*
X0015835Y0010680D01*
X0015682Y0010719D01*
X0015530Y0010762D01*
X0015379Y0010809D01*
X0015229Y0010860D01*
X0015080Y0010915D01*
X0014933Y0010973D01*
X0014787Y0011035D01*
X0014643Y0011100D01*
X0014501Y0011170D01*
X0014360Y0011242D01*
X0014221Y0011319D01*
X0014085Y0011398D01*
X0013950Y0011482D01*
X0013817Y0011568D01*
X0013687Y0011658D01*
X0013559Y0011751D01*
X0013433Y0011847D01*
X0013310Y0011947D01*
X0013189Y0012049D01*
X0013071Y0012154D01*
X0012956Y0012263D01*
X0012843Y0012374D01*
X0012733Y0012488D01*
X0012626Y0012605D01*
X0012522Y0012724D01*
X0012421Y0012846D01*
X0012324Y0012971D01*
X0012229Y0013098D01*
X0012138Y0013227D01*
X0012049Y0013358D01*
X0011965Y0013492D01*
X0011883Y0013628D01*
X0011805Y0013765D01*
X0011731Y0013905D01*
X0011660Y0014047D01*
X0011592Y0014190D01*
X0011528Y0014335D01*
X0011468Y0014481D01*
X0011412Y0014629D01*
X0011359Y0014778D01*
X0011310Y0014929D01*
X0011265Y0015081D01*
X0011224Y0015234D01*
X0011186Y0015387D01*
X0011153Y0015542D01*
X0011123Y0015698D01*
X0011097Y0015854D01*
X0011076Y0016011D01*
X0011058Y0016168D01*
X0011044Y0016326D01*
X0011034Y0016484D01*
X0011028Y0016642D01*
X0011026Y0016800D01*
X0020179Y0081672D02*
X0020181Y0081808D01*
X0020187Y0081943D01*
X0020197Y0082079D01*
X0020211Y0082214D01*
X0020229Y0082348D01*
X0020250Y0082482D01*
X0020276Y0082616D01*
X0020305Y0082748D01*
X0020339Y0082880D01*
X0020376Y0083011D01*
X0020417Y0083140D01*
X0020462Y0083268D01*
X0020510Y0083395D01*
X0020562Y0083520D01*
X0020618Y0083644D01*
X0020678Y0083766D01*
X0020741Y0083886D01*
X0020807Y0084005D01*
X0020877Y0084121D01*
X0020950Y0084236D01*
X0021027Y0084348D01*
X0021107Y0084457D01*
X0021190Y0084565D01*
X0021276Y0084670D01*
X0021365Y0084772D01*
X0021457Y0084872D01*
X0021552Y0084969D01*
X0021650Y0085063D01*
X0021750Y0085155D01*
X0021853Y0085243D01*
X0021959Y0085328D01*
X0022067Y0085411D01*
X0022177Y0085490D01*
X0022290Y0085565D01*
X0022405Y0085638D01*
X0022522Y0085707D01*
X0022641Y0085772D01*
X0022761Y0085834D01*
X0022884Y0085893D01*
X0023008Y0085948D01*
X0023134Y0085999D01*
X0023261Y0086047D01*
X0023389Y0086091D01*
X0023519Y0086131D01*
X0023650Y0086167D01*
X0023782Y0086199D01*
X0023914Y0086228D01*
X0024048Y0086253D01*
X0024182Y0086273D01*
X0024317Y0086290D01*
X0024452Y0086303D01*
X0024587Y0086312D01*
X0024723Y0086317D01*
X0024859Y0086318D01*
X0024995Y0086315D01*
X0025130Y0086308D01*
X0025266Y0086297D01*
X0025401Y0086282D01*
X0025535Y0086263D01*
X0025669Y0086241D01*
X0025802Y0086214D01*
X0025934Y0086184D01*
X0026066Y0086149D01*
X0026196Y0086111D01*
X0026325Y0086069D01*
X0026453Y0086023D01*
X0026579Y0085974D01*
X0026704Y0085921D01*
X0026828Y0085864D01*
X0026949Y0085804D01*
X0027069Y0085740D01*
X0027187Y0085673D01*
X0027303Y0085602D01*
X0027417Y0085528D01*
X0027528Y0085451D01*
X0027638Y0085370D01*
X0027744Y0085286D01*
X0027849Y0085199D01*
X0027951Y0085109D01*
X0028050Y0085017D01*
X0028146Y0084921D01*
X0028240Y0084823D01*
X0028330Y0084721D01*
X0028418Y0084618D01*
X0028502Y0084512D01*
X0028584Y0084403D01*
X0028662Y0084292D01*
X0028737Y0084179D01*
X0028808Y0084063D01*
X0028877Y0083946D01*
X0028941Y0083826D01*
X0029002Y0083705D01*
X0029060Y0083582D01*
X0029114Y0083458D01*
X0029164Y0083332D01*
X0029211Y0083204D01*
X0029254Y0083075D01*
X0029293Y0082945D01*
X0029328Y0082814D01*
X0029360Y0082682D01*
X0029387Y0082549D01*
X0029411Y0082416D01*
X0029431Y0082281D01*
X0029447Y0082146D01*
X0029459Y0082011D01*
X0029467Y0081876D01*
X0029471Y0081740D01*
X0029471Y0081604D01*
X0029467Y0081468D01*
X0029459Y0081333D01*
X0029447Y0081198D01*
X0029431Y0081063D01*
X0029411Y0080928D01*
X0029387Y0080795D01*
X0029360Y0080662D01*
X0029328Y0080530D01*
X0029293Y0080399D01*
X0029254Y0080269D01*
X0029211Y0080140D01*
X0029164Y0080012D01*
X0029114Y0079886D01*
X0029060Y0079762D01*
X0029002Y0079639D01*
X0028941Y0079518D01*
X0028877Y0079398D01*
X0028808Y0079281D01*
X0028737Y0079165D01*
X0028662Y0079052D01*
X0028584Y0078941D01*
X0028502Y0078832D01*
X0028418Y0078726D01*
X0028330Y0078623D01*
X0028240Y0078521D01*
X0028146Y0078423D01*
X0028050Y0078327D01*
X0027951Y0078235D01*
X0027849Y0078145D01*
X0027744Y0078058D01*
X0027638Y0077974D01*
X0027528Y0077893D01*
X0027417Y0077816D01*
X0027303Y0077742D01*
X0027187Y0077671D01*
X0027069Y0077604D01*
X0026949Y0077540D01*
X0026828Y0077480D01*
X0026704Y0077423D01*
X0026579Y0077370D01*
X0026453Y0077321D01*
X0026325Y0077275D01*
X0026196Y0077233D01*
X0026066Y0077195D01*
X0025934Y0077160D01*
X0025802Y0077130D01*
X0025669Y0077103D01*
X0025535Y0077081D01*
X0025401Y0077062D01*
X0025266Y0077047D01*
X0025130Y0077036D01*
X0024995Y0077029D01*
X0024859Y0077026D01*
X0024723Y0077027D01*
X0024587Y0077032D01*
X0024452Y0077041D01*
X0024317Y0077054D01*
X0024182Y0077071D01*
X0024048Y0077091D01*
X0023914Y0077116D01*
X0023782Y0077145D01*
X0023650Y0077177D01*
X0023519Y0077213D01*
X0023389Y0077253D01*
X0023261Y0077297D01*
X0023134Y0077345D01*
X0023008Y0077396D01*
X0022884Y0077451D01*
X0022761Y0077510D01*
X0022641Y0077572D01*
X0022522Y0077637D01*
X0022405Y0077706D01*
X0022290Y0077779D01*
X0022177Y0077854D01*
X0022067Y0077933D01*
X0021959Y0078016D01*
X0021853Y0078101D01*
X0021750Y0078189D01*
X0021650Y0078281D01*
X0021552Y0078375D01*
X0021457Y0078472D01*
X0021365Y0078572D01*
X0021276Y0078674D01*
X0021190Y0078779D01*
X0021107Y0078887D01*
X0021027Y0078996D01*
X0020950Y0079108D01*
X0020877Y0079223D01*
X0020807Y0079339D01*
X0020741Y0079458D01*
X0020678Y0079578D01*
X0020618Y0079700D01*
X0020562Y0079824D01*
X0020510Y0079949D01*
X0020462Y0080076D01*
X0020417Y0080204D01*
X0020376Y0080333D01*
X0020339Y0080464D01*
X0020305Y0080596D01*
X0020276Y0080728D01*
X0020250Y0080862D01*
X0020229Y0080996D01*
X0020211Y0081130D01*
X0020197Y0081265D01*
X0020187Y0081401D01*
X0020181Y0081536D01*
X0020179Y0081672D01*
X0020179Y0093178D02*
X0020181Y0093314D01*
X0020187Y0093449D01*
X0020197Y0093585D01*
X0020211Y0093720D01*
X0020229Y0093854D01*
X0020250Y0093988D01*
X0020276Y0094122D01*
X0020305Y0094254D01*
X0020339Y0094386D01*
X0020376Y0094517D01*
X0020417Y0094646D01*
X0020462Y0094774D01*
X0020510Y0094901D01*
X0020562Y0095026D01*
X0020618Y0095150D01*
X0020678Y0095272D01*
X0020741Y0095392D01*
X0020807Y0095511D01*
X0020877Y0095627D01*
X0020950Y0095742D01*
X0021027Y0095854D01*
X0021107Y0095963D01*
X0021190Y0096071D01*
X0021276Y0096176D01*
X0021365Y0096278D01*
X0021457Y0096378D01*
X0021552Y0096475D01*
X0021650Y0096569D01*
X0021750Y0096661D01*
X0021853Y0096749D01*
X0021959Y0096834D01*
X0022067Y0096917D01*
X0022177Y0096996D01*
X0022290Y0097071D01*
X0022405Y0097144D01*
X0022522Y0097213D01*
X0022641Y0097278D01*
X0022761Y0097340D01*
X0022884Y0097399D01*
X0023008Y0097454D01*
X0023134Y0097505D01*
X0023261Y0097553D01*
X0023389Y0097597D01*
X0023519Y0097637D01*
X0023650Y0097673D01*
X0023782Y0097705D01*
X0023914Y0097734D01*
X0024048Y0097759D01*
X0024182Y0097779D01*
X0024317Y0097796D01*
X0024452Y0097809D01*
X0024587Y0097818D01*
X0024723Y0097823D01*
X0024859Y0097824D01*
X0024995Y0097821D01*
X0025130Y0097814D01*
X0025266Y0097803D01*
X0025401Y0097788D01*
X0025535Y0097769D01*
X0025669Y0097747D01*
X0025802Y0097720D01*
X0025934Y0097690D01*
X0026066Y0097655D01*
X0026196Y0097617D01*
X0026325Y0097575D01*
X0026453Y0097529D01*
X0026579Y0097480D01*
X0026704Y0097427D01*
X0026828Y0097370D01*
X0026949Y0097310D01*
X0027069Y0097246D01*
X0027187Y0097179D01*
X0027303Y0097108D01*
X0027417Y0097034D01*
X0027528Y0096957D01*
X0027638Y0096876D01*
X0027744Y0096792D01*
X0027849Y0096705D01*
X0027951Y0096615D01*
X0028050Y0096523D01*
X0028146Y0096427D01*
X0028240Y0096329D01*
X0028330Y0096227D01*
X0028418Y0096124D01*
X0028502Y0096018D01*
X0028584Y0095909D01*
X0028662Y0095798D01*
X0028737Y0095685D01*
X0028808Y0095569D01*
X0028877Y0095452D01*
X0028941Y0095332D01*
X0029002Y0095211D01*
X0029060Y0095088D01*
X0029114Y0094964D01*
X0029164Y0094838D01*
X0029211Y0094710D01*
X0029254Y0094581D01*
X0029293Y0094451D01*
X0029328Y0094320D01*
X0029360Y0094188D01*
X0029387Y0094055D01*
X0029411Y0093922D01*
X0029431Y0093787D01*
X0029447Y0093652D01*
X0029459Y0093517D01*
X0029467Y0093382D01*
X0029471Y0093246D01*
X0029471Y0093110D01*
X0029467Y0092974D01*
X0029459Y0092839D01*
X0029447Y0092704D01*
X0029431Y0092569D01*
X0029411Y0092434D01*
X0029387Y0092301D01*
X0029360Y0092168D01*
X0029328Y0092036D01*
X0029293Y0091905D01*
X0029254Y0091775D01*
X0029211Y0091646D01*
X0029164Y0091518D01*
X0029114Y0091392D01*
X0029060Y0091268D01*
X0029002Y0091145D01*
X0028941Y0091024D01*
X0028877Y0090904D01*
X0028808Y0090787D01*
X0028737Y0090671D01*
X0028662Y0090558D01*
X0028584Y0090447D01*
X0028502Y0090338D01*
X0028418Y0090232D01*
X0028330Y0090129D01*
X0028240Y0090027D01*
X0028146Y0089929D01*
X0028050Y0089833D01*
X0027951Y0089741D01*
X0027849Y0089651D01*
X0027744Y0089564D01*
X0027638Y0089480D01*
X0027528Y0089399D01*
X0027417Y0089322D01*
X0027303Y0089248D01*
X0027187Y0089177D01*
X0027069Y0089110D01*
X0026949Y0089046D01*
X0026828Y0088986D01*
X0026704Y0088929D01*
X0026579Y0088876D01*
X0026453Y0088827D01*
X0026325Y0088781D01*
X0026196Y0088739D01*
X0026066Y0088701D01*
X0025934Y0088666D01*
X0025802Y0088636D01*
X0025669Y0088609D01*
X0025535Y0088587D01*
X0025401Y0088568D01*
X0025266Y0088553D01*
X0025130Y0088542D01*
X0024995Y0088535D01*
X0024859Y0088532D01*
X0024723Y0088533D01*
X0024587Y0088538D01*
X0024452Y0088547D01*
X0024317Y0088560D01*
X0024182Y0088577D01*
X0024048Y0088597D01*
X0023914Y0088622D01*
X0023782Y0088651D01*
X0023650Y0088683D01*
X0023519Y0088719D01*
X0023389Y0088759D01*
X0023261Y0088803D01*
X0023134Y0088851D01*
X0023008Y0088902D01*
X0022884Y0088957D01*
X0022761Y0089016D01*
X0022641Y0089078D01*
X0022522Y0089143D01*
X0022405Y0089212D01*
X0022290Y0089285D01*
X0022177Y0089360D01*
X0022067Y0089439D01*
X0021959Y0089522D01*
X0021853Y0089607D01*
X0021750Y0089695D01*
X0021650Y0089787D01*
X0021552Y0089881D01*
X0021457Y0089978D01*
X0021365Y0090078D01*
X0021276Y0090180D01*
X0021190Y0090285D01*
X0021107Y0090393D01*
X0021027Y0090502D01*
X0020950Y0090614D01*
X0020877Y0090729D01*
X0020807Y0090845D01*
X0020741Y0090964D01*
X0020678Y0091084D01*
X0020618Y0091206D01*
X0020562Y0091330D01*
X0020510Y0091455D01*
X0020462Y0091582D01*
X0020417Y0091710D01*
X0020376Y0091839D01*
X0020339Y0091970D01*
X0020305Y0092102D01*
X0020276Y0092234D01*
X0020250Y0092368D01*
X0020229Y0092502D01*
X0020211Y0092636D01*
X0020197Y0092771D01*
X0020187Y0092907D01*
X0020181Y0093042D01*
X0020179Y0093178D01*
X0020179Y0140422D02*
X0020181Y0140558D01*
X0020187Y0140693D01*
X0020197Y0140829D01*
X0020211Y0140964D01*
X0020229Y0141098D01*
X0020250Y0141232D01*
X0020276Y0141366D01*
X0020305Y0141498D01*
X0020339Y0141630D01*
X0020376Y0141761D01*
X0020417Y0141890D01*
X0020462Y0142018D01*
X0020510Y0142145D01*
X0020562Y0142270D01*
X0020618Y0142394D01*
X0020678Y0142516D01*
X0020741Y0142636D01*
X0020807Y0142755D01*
X0020877Y0142871D01*
X0020950Y0142986D01*
X0021027Y0143098D01*
X0021107Y0143207D01*
X0021190Y0143315D01*
X0021276Y0143420D01*
X0021365Y0143522D01*
X0021457Y0143622D01*
X0021552Y0143719D01*
X0021650Y0143813D01*
X0021750Y0143905D01*
X0021853Y0143993D01*
X0021959Y0144078D01*
X0022067Y0144161D01*
X0022177Y0144240D01*
X0022290Y0144315D01*
X0022405Y0144388D01*
X0022522Y0144457D01*
X0022641Y0144522D01*
X0022761Y0144584D01*
X0022884Y0144643D01*
X0023008Y0144698D01*
X0023134Y0144749D01*
X0023261Y0144797D01*
X0023389Y0144841D01*
X0023519Y0144881D01*
X0023650Y0144917D01*
X0023782Y0144949D01*
X0023914Y0144978D01*
X0024048Y0145003D01*
X0024182Y0145023D01*
X0024317Y0145040D01*
X0024452Y0145053D01*
X0024587Y0145062D01*
X0024723Y0145067D01*
X0024859Y0145068D01*
X0024995Y0145065D01*
X0025130Y0145058D01*
X0025266Y0145047D01*
X0025401Y0145032D01*
X0025535Y0145013D01*
X0025669Y0144991D01*
X0025802Y0144964D01*
X0025934Y0144934D01*
X0026066Y0144899D01*
X0026196Y0144861D01*
X0026325Y0144819D01*
X0026453Y0144773D01*
X0026579Y0144724D01*
X0026704Y0144671D01*
X0026828Y0144614D01*
X0026949Y0144554D01*
X0027069Y0144490D01*
X0027187Y0144423D01*
X0027303Y0144352D01*
X0027417Y0144278D01*
X0027528Y0144201D01*
X0027638Y0144120D01*
X0027744Y0144036D01*
X0027849Y0143949D01*
X0027951Y0143859D01*
X0028050Y0143767D01*
X0028146Y0143671D01*
X0028240Y0143573D01*
X0028330Y0143471D01*
X0028418Y0143368D01*
X0028502Y0143262D01*
X0028584Y0143153D01*
X0028662Y0143042D01*
X0028737Y0142929D01*
X0028808Y0142813D01*
X0028877Y0142696D01*
X0028941Y0142576D01*
X0029002Y0142455D01*
X0029060Y0142332D01*
X0029114Y0142208D01*
X0029164Y0142082D01*
X0029211Y0141954D01*
X0029254Y0141825D01*
X0029293Y0141695D01*
X0029328Y0141564D01*
X0029360Y0141432D01*
X0029387Y0141299D01*
X0029411Y0141166D01*
X0029431Y0141031D01*
X0029447Y0140896D01*
X0029459Y0140761D01*
X0029467Y0140626D01*
X0029471Y0140490D01*
X0029471Y0140354D01*
X0029467Y0140218D01*
X0029459Y0140083D01*
X0029447Y0139948D01*
X0029431Y0139813D01*
X0029411Y0139678D01*
X0029387Y0139545D01*
X0029360Y0139412D01*
X0029328Y0139280D01*
X0029293Y0139149D01*
X0029254Y0139019D01*
X0029211Y0138890D01*
X0029164Y0138762D01*
X0029114Y0138636D01*
X0029060Y0138512D01*
X0029002Y0138389D01*
X0028941Y0138268D01*
X0028877Y0138148D01*
X0028808Y0138031D01*
X0028737Y0137915D01*
X0028662Y0137802D01*
X0028584Y0137691D01*
X0028502Y0137582D01*
X0028418Y0137476D01*
X0028330Y0137373D01*
X0028240Y0137271D01*
X0028146Y0137173D01*
X0028050Y0137077D01*
X0027951Y0136985D01*
X0027849Y0136895D01*
X0027744Y0136808D01*
X0027638Y0136724D01*
X0027528Y0136643D01*
X0027417Y0136566D01*
X0027303Y0136492D01*
X0027187Y0136421D01*
X0027069Y0136354D01*
X0026949Y0136290D01*
X0026828Y0136230D01*
X0026704Y0136173D01*
X0026579Y0136120D01*
X0026453Y0136071D01*
X0026325Y0136025D01*
X0026196Y0135983D01*
X0026066Y0135945D01*
X0025934Y0135910D01*
X0025802Y0135880D01*
X0025669Y0135853D01*
X0025535Y0135831D01*
X0025401Y0135812D01*
X0025266Y0135797D01*
X0025130Y0135786D01*
X0024995Y0135779D01*
X0024859Y0135776D01*
X0024723Y0135777D01*
X0024587Y0135782D01*
X0024452Y0135791D01*
X0024317Y0135804D01*
X0024182Y0135821D01*
X0024048Y0135841D01*
X0023914Y0135866D01*
X0023782Y0135895D01*
X0023650Y0135927D01*
X0023519Y0135963D01*
X0023389Y0136003D01*
X0023261Y0136047D01*
X0023134Y0136095D01*
X0023008Y0136146D01*
X0022884Y0136201D01*
X0022761Y0136260D01*
X0022641Y0136322D01*
X0022522Y0136387D01*
X0022405Y0136456D01*
X0022290Y0136529D01*
X0022177Y0136604D01*
X0022067Y0136683D01*
X0021959Y0136766D01*
X0021853Y0136851D01*
X0021750Y0136939D01*
X0021650Y0137031D01*
X0021552Y0137125D01*
X0021457Y0137222D01*
X0021365Y0137322D01*
X0021276Y0137424D01*
X0021190Y0137529D01*
X0021107Y0137637D01*
X0021027Y0137746D01*
X0020950Y0137858D01*
X0020877Y0137973D01*
X0020807Y0138089D01*
X0020741Y0138208D01*
X0020678Y0138328D01*
X0020618Y0138450D01*
X0020562Y0138574D01*
X0020510Y0138699D01*
X0020462Y0138826D01*
X0020417Y0138954D01*
X0020376Y0139083D01*
X0020339Y0139214D01*
X0020305Y0139346D01*
X0020276Y0139478D01*
X0020250Y0139612D01*
X0020229Y0139746D01*
X0020211Y0139880D01*
X0020197Y0140015D01*
X0020187Y0140151D01*
X0020181Y0140286D01*
X0020179Y0140422D01*
X0042995Y0150776D02*
X0042997Y0150934D01*
X0043003Y0151092D01*
X0043013Y0151250D01*
X0043027Y0151408D01*
X0043045Y0151565D01*
X0043066Y0151722D01*
X0043092Y0151878D01*
X0043122Y0152034D01*
X0043155Y0152189D01*
X0043193Y0152342D01*
X0043234Y0152495D01*
X0043279Y0152647D01*
X0043328Y0152798D01*
X0043381Y0152947D01*
X0043437Y0153095D01*
X0043497Y0153241D01*
X0043561Y0153386D01*
X0043629Y0153529D01*
X0043700Y0153671D01*
X0043774Y0153811D01*
X0043852Y0153948D01*
X0043934Y0154084D01*
X0044018Y0154218D01*
X0044107Y0154349D01*
X0044198Y0154478D01*
X0044293Y0154605D01*
X0044390Y0154730D01*
X0044491Y0154852D01*
X0044595Y0154971D01*
X0044702Y0155088D01*
X0044812Y0155202D01*
X0044925Y0155313D01*
X0045040Y0155422D01*
X0045158Y0155527D01*
X0045279Y0155629D01*
X0045402Y0155729D01*
X0045528Y0155825D01*
X0045656Y0155918D01*
X0045786Y0156008D01*
X0045919Y0156094D01*
X0046054Y0156178D01*
X0046190Y0156257D01*
X0046329Y0156334D01*
X0046470Y0156406D01*
X0046612Y0156476D01*
X0046756Y0156541D01*
X0046902Y0156603D01*
X0047049Y0156661D01*
X0047198Y0156716D01*
X0047348Y0156767D01*
X0047499Y0156814D01*
X0047651Y0156857D01*
X0047804Y0156896D01*
X0047959Y0156932D01*
X0048114Y0156963D01*
X0048270Y0156991D01*
X0048426Y0157015D01*
X0048583Y0157035D01*
X0048741Y0157051D01*
X0048898Y0157063D01*
X0049057Y0157071D01*
X0049215Y0157075D01*
X0049373Y0157075D01*
X0049531Y0157071D01*
X0049690Y0157063D01*
X0049847Y0157051D01*
X0050005Y0157035D01*
X0050162Y0157015D01*
X0050318Y0156991D01*
X0050474Y0156963D01*
X0050629Y0156932D01*
X0050784Y0156896D01*
X0050937Y0156857D01*
X0051089Y0156814D01*
X0051240Y0156767D01*
X0051390Y0156716D01*
X0051539Y0156661D01*
X0051686Y0156603D01*
X0051832Y0156541D01*
X0051976Y0156476D01*
X0052118Y0156406D01*
X0052259Y0156334D01*
X0052398Y0156257D01*
X0052534Y0156178D01*
X0052669Y0156094D01*
X0052802Y0156008D01*
X0052932Y0155918D01*
X0053060Y0155825D01*
X0053186Y0155729D01*
X0053309Y0155629D01*
X0053430Y0155527D01*
X0053548Y0155422D01*
X0053663Y0155313D01*
X0053776Y0155202D01*
X0053886Y0155088D01*
X0053993Y0154971D01*
X0054097Y0154852D01*
X0054198Y0154730D01*
X0054295Y0154605D01*
X0054390Y0154478D01*
X0054481Y0154349D01*
X0054570Y0154218D01*
X0054654Y0154084D01*
X0054736Y0153948D01*
X0054814Y0153811D01*
X0054888Y0153671D01*
X0054959Y0153529D01*
X0055027Y0153386D01*
X0055091Y0153241D01*
X0055151Y0153095D01*
X0055207Y0152947D01*
X0055260Y0152798D01*
X0055309Y0152647D01*
X0055354Y0152495D01*
X0055395Y0152342D01*
X0055433Y0152189D01*
X0055466Y0152034D01*
X0055496Y0151878D01*
X0055522Y0151722D01*
X0055543Y0151565D01*
X0055561Y0151408D01*
X0055575Y0151250D01*
X0055585Y0151092D01*
X0055591Y0150934D01*
X0055593Y0150776D01*
X0055591Y0150618D01*
X0055585Y0150460D01*
X0055575Y0150302D01*
X0055561Y0150144D01*
X0055543Y0149987D01*
X0055522Y0149830D01*
X0055496Y0149674D01*
X0055466Y0149518D01*
X0055433Y0149363D01*
X0055395Y0149210D01*
X0055354Y0149057D01*
X0055309Y0148905D01*
X0055260Y0148754D01*
X0055207Y0148605D01*
X0055151Y0148457D01*
X0055091Y0148311D01*
X0055027Y0148166D01*
X0054959Y0148023D01*
X0054888Y0147881D01*
X0054814Y0147741D01*
X0054736Y0147604D01*
X0054654Y0147468D01*
X0054570Y0147334D01*
X0054481Y0147203D01*
X0054390Y0147074D01*
X0054295Y0146947D01*
X0054198Y0146822D01*
X0054097Y0146700D01*
X0053993Y0146581D01*
X0053886Y0146464D01*
X0053776Y0146350D01*
X0053663Y0146239D01*
X0053548Y0146130D01*
X0053430Y0146025D01*
X0053309Y0145923D01*
X0053186Y0145823D01*
X0053060Y0145727D01*
X0052932Y0145634D01*
X0052802Y0145544D01*
X0052669Y0145458D01*
X0052534Y0145374D01*
X0052398Y0145295D01*
X0052259Y0145218D01*
X0052118Y0145146D01*
X0051976Y0145076D01*
X0051832Y0145011D01*
X0051686Y0144949D01*
X0051539Y0144891D01*
X0051390Y0144836D01*
X0051240Y0144785D01*
X0051089Y0144738D01*
X0050937Y0144695D01*
X0050784Y0144656D01*
X0050629Y0144620D01*
X0050474Y0144589D01*
X0050318Y0144561D01*
X0050162Y0144537D01*
X0050005Y0144517D01*
X0049847Y0144501D01*
X0049690Y0144489D01*
X0049531Y0144481D01*
X0049373Y0144477D01*
X0049215Y0144477D01*
X0049057Y0144481D01*
X0048898Y0144489D01*
X0048741Y0144501D01*
X0048583Y0144517D01*
X0048426Y0144537D01*
X0048270Y0144561D01*
X0048114Y0144589D01*
X0047959Y0144620D01*
X0047804Y0144656D01*
X0047651Y0144695D01*
X0047499Y0144738D01*
X0047348Y0144785D01*
X0047198Y0144836D01*
X0047049Y0144891D01*
X0046902Y0144949D01*
X0046756Y0145011D01*
X0046612Y0145076D01*
X0046470Y0145146D01*
X0046329Y0145218D01*
X0046190Y0145295D01*
X0046054Y0145374D01*
X0045919Y0145458D01*
X0045786Y0145544D01*
X0045656Y0145634D01*
X0045528Y0145727D01*
X0045402Y0145823D01*
X0045279Y0145923D01*
X0045158Y0146025D01*
X0045040Y0146130D01*
X0044925Y0146239D01*
X0044812Y0146350D01*
X0044702Y0146464D01*
X0044595Y0146581D01*
X0044491Y0146700D01*
X0044390Y0146822D01*
X0044293Y0146947D01*
X0044198Y0147074D01*
X0044107Y0147203D01*
X0044018Y0147334D01*
X0043934Y0147468D01*
X0043852Y0147604D01*
X0043774Y0147741D01*
X0043700Y0147881D01*
X0043629Y0148023D01*
X0043561Y0148166D01*
X0043497Y0148311D01*
X0043437Y0148457D01*
X0043381Y0148605D01*
X0043328Y0148754D01*
X0043279Y0148905D01*
X0043234Y0149057D01*
X0043193Y0149210D01*
X0043155Y0149363D01*
X0043122Y0149518D01*
X0043092Y0149674D01*
X0043066Y0149830D01*
X0043045Y0149987D01*
X0043027Y0150144D01*
X0043013Y0150302D01*
X0043003Y0150460D01*
X0042997Y0150618D01*
X0042995Y0150776D01*
X0103075Y0150300D02*
X0103077Y0150383D01*
X0103083Y0150466D01*
X0103093Y0150549D01*
X0103107Y0150631D01*
X0103124Y0150713D01*
X0103146Y0150793D01*
X0103171Y0150872D01*
X0103200Y0150950D01*
X0103233Y0151027D01*
X0103270Y0151102D01*
X0103309Y0151175D01*
X0103353Y0151246D01*
X0103399Y0151315D01*
X0103449Y0151382D01*
X0103502Y0151446D01*
X0103558Y0151508D01*
X0103617Y0151567D01*
X0103679Y0151623D01*
X0103743Y0151676D01*
X0103810Y0151726D01*
X0103879Y0151772D01*
X0103950Y0151816D01*
X0104023Y0151855D01*
X0104098Y0151892D01*
X0104175Y0151925D01*
X0104253Y0151954D01*
X0104332Y0151979D01*
X0104412Y0152001D01*
X0104494Y0152018D01*
X0104576Y0152032D01*
X0104659Y0152042D01*
X0104742Y0152048D01*
X0104825Y0152050D01*
X0104908Y0152048D01*
X0104991Y0152042D01*
X0105074Y0152032D01*
X0105156Y0152018D01*
X0105238Y0152001D01*
X0105318Y0151979D01*
X0105397Y0151954D01*
X0105475Y0151925D01*
X0105552Y0151892D01*
X0105627Y0151855D01*
X0105700Y0151816D01*
X0105771Y0151772D01*
X0105840Y0151726D01*
X0105907Y0151676D01*
X0105971Y0151623D01*
X0106033Y0151567D01*
X0106092Y0151508D01*
X0106148Y0151446D01*
X0106201Y0151382D01*
X0106251Y0151315D01*
X0106297Y0151246D01*
X0106341Y0151175D01*
X0106380Y0151102D01*
X0106417Y0151027D01*
X0106450Y0150950D01*
X0106479Y0150872D01*
X0106504Y0150793D01*
X0106526Y0150713D01*
X0106543Y0150631D01*
X0106557Y0150549D01*
X0106567Y0150466D01*
X0106573Y0150383D01*
X0106575Y0150300D01*
X0106573Y0150217D01*
X0106567Y0150134D01*
X0106557Y0150051D01*
X0106543Y0149969D01*
X0106526Y0149887D01*
X0106504Y0149807D01*
X0106479Y0149728D01*
X0106450Y0149650D01*
X0106417Y0149573D01*
X0106380Y0149498D01*
X0106341Y0149425D01*
X0106297Y0149354D01*
X0106251Y0149285D01*
X0106201Y0149218D01*
X0106148Y0149154D01*
X0106092Y0149092D01*
X0106033Y0149033D01*
X0105971Y0148977D01*
X0105907Y0148924D01*
X0105840Y0148874D01*
X0105771Y0148828D01*
X0105700Y0148784D01*
X0105627Y0148745D01*
X0105552Y0148708D01*
X0105475Y0148675D01*
X0105397Y0148646D01*
X0105318Y0148621D01*
X0105238Y0148599D01*
X0105156Y0148582D01*
X0105074Y0148568D01*
X0104991Y0148558D01*
X0104908Y0148552D01*
X0104825Y0148550D01*
X0104742Y0148552D01*
X0104659Y0148558D01*
X0104576Y0148568D01*
X0104494Y0148582D01*
X0104412Y0148599D01*
X0104332Y0148621D01*
X0104253Y0148646D01*
X0104175Y0148675D01*
X0104098Y0148708D01*
X0104023Y0148745D01*
X0103950Y0148784D01*
X0103879Y0148828D01*
X0103810Y0148874D01*
X0103743Y0148924D01*
X0103679Y0148977D01*
X0103617Y0149033D01*
X0103558Y0149092D01*
X0103502Y0149154D01*
X0103449Y0149218D01*
X0103399Y0149285D01*
X0103353Y0149354D01*
X0103309Y0149425D01*
X0103270Y0149498D01*
X0103233Y0149573D01*
X0103200Y0149650D01*
X0103171Y0149728D01*
X0103146Y0149807D01*
X0103124Y0149887D01*
X0103107Y0149969D01*
X0103093Y0150051D01*
X0103083Y0150134D01*
X0103077Y0150217D01*
X0103075Y0150300D01*
X0103075Y0158300D02*
X0103077Y0158383D01*
X0103083Y0158466D01*
X0103093Y0158549D01*
X0103107Y0158631D01*
X0103124Y0158713D01*
X0103146Y0158793D01*
X0103171Y0158872D01*
X0103200Y0158950D01*
X0103233Y0159027D01*
X0103270Y0159102D01*
X0103309Y0159175D01*
X0103353Y0159246D01*
X0103399Y0159315D01*
X0103449Y0159382D01*
X0103502Y0159446D01*
X0103558Y0159508D01*
X0103617Y0159567D01*
X0103679Y0159623D01*
X0103743Y0159676D01*
X0103810Y0159726D01*
X0103879Y0159772D01*
X0103950Y0159816D01*
X0104023Y0159855D01*
X0104098Y0159892D01*
X0104175Y0159925D01*
X0104253Y0159954D01*
X0104332Y0159979D01*
X0104412Y0160001D01*
X0104494Y0160018D01*
X0104576Y0160032D01*
X0104659Y0160042D01*
X0104742Y0160048D01*
X0104825Y0160050D01*
X0104908Y0160048D01*
X0104991Y0160042D01*
X0105074Y0160032D01*
X0105156Y0160018D01*
X0105238Y0160001D01*
X0105318Y0159979D01*
X0105397Y0159954D01*
X0105475Y0159925D01*
X0105552Y0159892D01*
X0105627Y0159855D01*
X0105700Y0159816D01*
X0105771Y0159772D01*
X0105840Y0159726D01*
X0105907Y0159676D01*
X0105971Y0159623D01*
X0106033Y0159567D01*
X0106092Y0159508D01*
X0106148Y0159446D01*
X0106201Y0159382D01*
X0106251Y0159315D01*
X0106297Y0159246D01*
X0106341Y0159175D01*
X0106380Y0159102D01*
X0106417Y0159027D01*
X0106450Y0158950D01*
X0106479Y0158872D01*
X0106504Y0158793D01*
X0106526Y0158713D01*
X0106543Y0158631D01*
X0106557Y0158549D01*
X0106567Y0158466D01*
X0106573Y0158383D01*
X0106575Y0158300D01*
X0106573Y0158217D01*
X0106567Y0158134D01*
X0106557Y0158051D01*
X0106543Y0157969D01*
X0106526Y0157887D01*
X0106504Y0157807D01*
X0106479Y0157728D01*
X0106450Y0157650D01*
X0106417Y0157573D01*
X0106380Y0157498D01*
X0106341Y0157425D01*
X0106297Y0157354D01*
X0106251Y0157285D01*
X0106201Y0157218D01*
X0106148Y0157154D01*
X0106092Y0157092D01*
X0106033Y0157033D01*
X0105971Y0156977D01*
X0105907Y0156924D01*
X0105840Y0156874D01*
X0105771Y0156828D01*
X0105700Y0156784D01*
X0105627Y0156745D01*
X0105552Y0156708D01*
X0105475Y0156675D01*
X0105397Y0156646D01*
X0105318Y0156621D01*
X0105238Y0156599D01*
X0105156Y0156582D01*
X0105074Y0156568D01*
X0104991Y0156558D01*
X0104908Y0156552D01*
X0104825Y0156550D01*
X0104742Y0156552D01*
X0104659Y0156558D01*
X0104576Y0156568D01*
X0104494Y0156582D01*
X0104412Y0156599D01*
X0104332Y0156621D01*
X0104253Y0156646D01*
X0104175Y0156675D01*
X0104098Y0156708D01*
X0104023Y0156745D01*
X0103950Y0156784D01*
X0103879Y0156828D01*
X0103810Y0156874D01*
X0103743Y0156924D01*
X0103679Y0156977D01*
X0103617Y0157033D01*
X0103558Y0157092D01*
X0103502Y0157154D01*
X0103449Y0157218D01*
X0103399Y0157285D01*
X0103353Y0157354D01*
X0103309Y0157425D01*
X0103270Y0157498D01*
X0103233Y0157573D01*
X0103200Y0157650D01*
X0103171Y0157728D01*
X0103146Y0157807D01*
X0103124Y0157887D01*
X0103107Y0157969D01*
X0103093Y0158051D01*
X0103083Y0158134D01*
X0103077Y0158217D01*
X0103075Y0158300D01*
X0123075Y0154300D02*
X0123077Y0154383D01*
X0123083Y0154466D01*
X0123093Y0154549D01*
X0123107Y0154631D01*
X0123124Y0154713D01*
X0123146Y0154793D01*
X0123171Y0154872D01*
X0123200Y0154950D01*
X0123233Y0155027D01*
X0123270Y0155102D01*
X0123309Y0155175D01*
X0123353Y0155246D01*
X0123399Y0155315D01*
X0123449Y0155382D01*
X0123502Y0155446D01*
X0123558Y0155508D01*
X0123617Y0155567D01*
X0123679Y0155623D01*
X0123743Y0155676D01*
X0123810Y0155726D01*
X0123879Y0155772D01*
X0123950Y0155816D01*
X0124023Y0155855D01*
X0124098Y0155892D01*
X0124175Y0155925D01*
X0124253Y0155954D01*
X0124332Y0155979D01*
X0124412Y0156001D01*
X0124494Y0156018D01*
X0124576Y0156032D01*
X0124659Y0156042D01*
X0124742Y0156048D01*
X0124825Y0156050D01*
X0124908Y0156048D01*
X0124991Y0156042D01*
X0125074Y0156032D01*
X0125156Y0156018D01*
X0125238Y0156001D01*
X0125318Y0155979D01*
X0125397Y0155954D01*
X0125475Y0155925D01*
X0125552Y0155892D01*
X0125627Y0155855D01*
X0125700Y0155816D01*
X0125771Y0155772D01*
X0125840Y0155726D01*
X0125907Y0155676D01*
X0125971Y0155623D01*
X0126033Y0155567D01*
X0126092Y0155508D01*
X0126148Y0155446D01*
X0126201Y0155382D01*
X0126251Y0155315D01*
X0126297Y0155246D01*
X0126341Y0155175D01*
X0126380Y0155102D01*
X0126417Y0155027D01*
X0126450Y0154950D01*
X0126479Y0154872D01*
X0126504Y0154793D01*
X0126526Y0154713D01*
X0126543Y0154631D01*
X0126557Y0154549D01*
X0126567Y0154466D01*
X0126573Y0154383D01*
X0126575Y0154300D01*
X0126573Y0154217D01*
X0126567Y0154134D01*
X0126557Y0154051D01*
X0126543Y0153969D01*
X0126526Y0153887D01*
X0126504Y0153807D01*
X0126479Y0153728D01*
X0126450Y0153650D01*
X0126417Y0153573D01*
X0126380Y0153498D01*
X0126341Y0153425D01*
X0126297Y0153354D01*
X0126251Y0153285D01*
X0126201Y0153218D01*
X0126148Y0153154D01*
X0126092Y0153092D01*
X0126033Y0153033D01*
X0125971Y0152977D01*
X0125907Y0152924D01*
X0125840Y0152874D01*
X0125771Y0152828D01*
X0125700Y0152784D01*
X0125627Y0152745D01*
X0125552Y0152708D01*
X0125475Y0152675D01*
X0125397Y0152646D01*
X0125318Y0152621D01*
X0125238Y0152599D01*
X0125156Y0152582D01*
X0125074Y0152568D01*
X0124991Y0152558D01*
X0124908Y0152552D01*
X0124825Y0152550D01*
X0124742Y0152552D01*
X0124659Y0152558D01*
X0124576Y0152568D01*
X0124494Y0152582D01*
X0124412Y0152599D01*
X0124332Y0152621D01*
X0124253Y0152646D01*
X0124175Y0152675D01*
X0124098Y0152708D01*
X0124023Y0152745D01*
X0123950Y0152784D01*
X0123879Y0152828D01*
X0123810Y0152874D01*
X0123743Y0152924D01*
X0123679Y0152977D01*
X0123617Y0153033D01*
X0123558Y0153092D01*
X0123502Y0153154D01*
X0123449Y0153218D01*
X0123399Y0153285D01*
X0123353Y0153354D01*
X0123309Y0153425D01*
X0123270Y0153498D01*
X0123233Y0153573D01*
X0123200Y0153650D01*
X0123171Y0153728D01*
X0123146Y0153807D01*
X0123124Y0153887D01*
X0123107Y0153969D01*
X0123093Y0154051D01*
X0123083Y0154134D01*
X0123077Y0154217D01*
X0123075Y0154300D01*
X0042995Y0272824D02*
X0042997Y0272982D01*
X0043003Y0273140D01*
X0043013Y0273298D01*
X0043027Y0273456D01*
X0043045Y0273613D01*
X0043066Y0273770D01*
X0043092Y0273926D01*
X0043122Y0274082D01*
X0043155Y0274237D01*
X0043193Y0274390D01*
X0043234Y0274543D01*
X0043279Y0274695D01*
X0043328Y0274846D01*
X0043381Y0274995D01*
X0043437Y0275143D01*
X0043497Y0275289D01*
X0043561Y0275434D01*
X0043629Y0275577D01*
X0043700Y0275719D01*
X0043774Y0275859D01*
X0043852Y0275996D01*
X0043934Y0276132D01*
X0044018Y0276266D01*
X0044107Y0276397D01*
X0044198Y0276526D01*
X0044293Y0276653D01*
X0044390Y0276778D01*
X0044491Y0276900D01*
X0044595Y0277019D01*
X0044702Y0277136D01*
X0044812Y0277250D01*
X0044925Y0277361D01*
X0045040Y0277470D01*
X0045158Y0277575D01*
X0045279Y0277677D01*
X0045402Y0277777D01*
X0045528Y0277873D01*
X0045656Y0277966D01*
X0045786Y0278056D01*
X0045919Y0278142D01*
X0046054Y0278226D01*
X0046190Y0278305D01*
X0046329Y0278382D01*
X0046470Y0278454D01*
X0046612Y0278524D01*
X0046756Y0278589D01*
X0046902Y0278651D01*
X0047049Y0278709D01*
X0047198Y0278764D01*
X0047348Y0278815D01*
X0047499Y0278862D01*
X0047651Y0278905D01*
X0047804Y0278944D01*
X0047959Y0278980D01*
X0048114Y0279011D01*
X0048270Y0279039D01*
X0048426Y0279063D01*
X0048583Y0279083D01*
X0048741Y0279099D01*
X0048898Y0279111D01*
X0049057Y0279119D01*
X0049215Y0279123D01*
X0049373Y0279123D01*
X0049531Y0279119D01*
X0049690Y0279111D01*
X0049847Y0279099D01*
X0050005Y0279083D01*
X0050162Y0279063D01*
X0050318Y0279039D01*
X0050474Y0279011D01*
X0050629Y0278980D01*
X0050784Y0278944D01*
X0050937Y0278905D01*
X0051089Y0278862D01*
X0051240Y0278815D01*
X0051390Y0278764D01*
X0051539Y0278709D01*
X0051686Y0278651D01*
X0051832Y0278589D01*
X0051976Y0278524D01*
X0052118Y0278454D01*
X0052259Y0278382D01*
X0052398Y0278305D01*
X0052534Y0278226D01*
X0052669Y0278142D01*
X0052802Y0278056D01*
X0052932Y0277966D01*
X0053060Y0277873D01*
X0053186Y0277777D01*
X0053309Y0277677D01*
X0053430Y0277575D01*
X0053548Y0277470D01*
X0053663Y0277361D01*
X0053776Y0277250D01*
X0053886Y0277136D01*
X0053993Y0277019D01*
X0054097Y0276900D01*
X0054198Y0276778D01*
X0054295Y0276653D01*
X0054390Y0276526D01*
X0054481Y0276397D01*
X0054570Y0276266D01*
X0054654Y0276132D01*
X0054736Y0275996D01*
X0054814Y0275859D01*
X0054888Y0275719D01*
X0054959Y0275577D01*
X0055027Y0275434D01*
X0055091Y0275289D01*
X0055151Y0275143D01*
X0055207Y0274995D01*
X0055260Y0274846D01*
X0055309Y0274695D01*
X0055354Y0274543D01*
X0055395Y0274390D01*
X0055433Y0274237D01*
X0055466Y0274082D01*
X0055496Y0273926D01*
X0055522Y0273770D01*
X0055543Y0273613D01*
X0055561Y0273456D01*
X0055575Y0273298D01*
X0055585Y0273140D01*
X0055591Y0272982D01*
X0055593Y0272824D01*
X0055591Y0272666D01*
X0055585Y0272508D01*
X0055575Y0272350D01*
X0055561Y0272192D01*
X0055543Y0272035D01*
X0055522Y0271878D01*
X0055496Y0271722D01*
X0055466Y0271566D01*
X0055433Y0271411D01*
X0055395Y0271258D01*
X0055354Y0271105D01*
X0055309Y0270953D01*
X0055260Y0270802D01*
X0055207Y0270653D01*
X0055151Y0270505D01*
X0055091Y0270359D01*
X0055027Y0270214D01*
X0054959Y0270071D01*
X0054888Y0269929D01*
X0054814Y0269789D01*
X0054736Y0269652D01*
X0054654Y0269516D01*
X0054570Y0269382D01*
X0054481Y0269251D01*
X0054390Y0269122D01*
X0054295Y0268995D01*
X0054198Y0268870D01*
X0054097Y0268748D01*
X0053993Y0268629D01*
X0053886Y0268512D01*
X0053776Y0268398D01*
X0053663Y0268287D01*
X0053548Y0268178D01*
X0053430Y0268073D01*
X0053309Y0267971D01*
X0053186Y0267871D01*
X0053060Y0267775D01*
X0052932Y0267682D01*
X0052802Y0267592D01*
X0052669Y0267506D01*
X0052534Y0267422D01*
X0052398Y0267343D01*
X0052259Y0267266D01*
X0052118Y0267194D01*
X0051976Y0267124D01*
X0051832Y0267059D01*
X0051686Y0266997D01*
X0051539Y0266939D01*
X0051390Y0266884D01*
X0051240Y0266833D01*
X0051089Y0266786D01*
X0050937Y0266743D01*
X0050784Y0266704D01*
X0050629Y0266668D01*
X0050474Y0266637D01*
X0050318Y0266609D01*
X0050162Y0266585D01*
X0050005Y0266565D01*
X0049847Y0266549D01*
X0049690Y0266537D01*
X0049531Y0266529D01*
X0049373Y0266525D01*
X0049215Y0266525D01*
X0049057Y0266529D01*
X0048898Y0266537D01*
X0048741Y0266549D01*
X0048583Y0266565D01*
X0048426Y0266585D01*
X0048270Y0266609D01*
X0048114Y0266637D01*
X0047959Y0266668D01*
X0047804Y0266704D01*
X0047651Y0266743D01*
X0047499Y0266786D01*
X0047348Y0266833D01*
X0047198Y0266884D01*
X0047049Y0266939D01*
X0046902Y0266997D01*
X0046756Y0267059D01*
X0046612Y0267124D01*
X0046470Y0267194D01*
X0046329Y0267266D01*
X0046190Y0267343D01*
X0046054Y0267422D01*
X0045919Y0267506D01*
X0045786Y0267592D01*
X0045656Y0267682D01*
X0045528Y0267775D01*
X0045402Y0267871D01*
X0045279Y0267971D01*
X0045158Y0268073D01*
X0045040Y0268178D01*
X0044925Y0268287D01*
X0044812Y0268398D01*
X0044702Y0268512D01*
X0044595Y0268629D01*
X0044491Y0268748D01*
X0044390Y0268870D01*
X0044293Y0268995D01*
X0044198Y0269122D01*
X0044107Y0269251D01*
X0044018Y0269382D01*
X0043934Y0269516D01*
X0043852Y0269652D01*
X0043774Y0269789D01*
X0043700Y0269929D01*
X0043629Y0270071D01*
X0043561Y0270214D01*
X0043497Y0270359D01*
X0043437Y0270505D01*
X0043381Y0270653D01*
X0043328Y0270802D01*
X0043279Y0270953D01*
X0043234Y0271105D01*
X0043193Y0271258D01*
X0043155Y0271411D01*
X0043122Y0271566D01*
X0043092Y0271722D01*
X0043066Y0271878D01*
X0043045Y0272035D01*
X0043027Y0272192D01*
X0043013Y0272350D01*
X0043003Y0272508D01*
X0042997Y0272666D01*
X0042995Y0272824D01*
X0011026Y0276800D02*
X0011028Y0276958D01*
X0011034Y0277116D01*
X0011044Y0277274D01*
X0011058Y0277432D01*
X0011076Y0277589D01*
X0011097Y0277746D01*
X0011123Y0277902D01*
X0011153Y0278058D01*
X0011186Y0278213D01*
X0011224Y0278366D01*
X0011265Y0278519D01*
X0011310Y0278671D01*
X0011359Y0278822D01*
X0011412Y0278971D01*
X0011468Y0279119D01*
X0011528Y0279265D01*
X0011592Y0279410D01*
X0011660Y0279553D01*
X0011731Y0279695D01*
X0011805Y0279835D01*
X0011883Y0279972D01*
X0011965Y0280108D01*
X0012049Y0280242D01*
X0012138Y0280373D01*
X0012229Y0280502D01*
X0012324Y0280629D01*
X0012421Y0280754D01*
X0012522Y0280876D01*
X0012626Y0280995D01*
X0012733Y0281112D01*
X0012843Y0281226D01*
X0012956Y0281337D01*
X0013071Y0281446D01*
X0013189Y0281551D01*
X0013310Y0281653D01*
X0013433Y0281753D01*
X0013559Y0281849D01*
X0013687Y0281942D01*
X0013817Y0282032D01*
X0013950Y0282118D01*
X0014085Y0282202D01*
X0014221Y0282281D01*
X0014360Y0282358D01*
X0014501Y0282430D01*
X0014643Y0282500D01*
X0014787Y0282565D01*
X0014933Y0282627D01*
X0015080Y0282685D01*
X0015229Y0282740D01*
X0015379Y0282791D01*
X0015530Y0282838D01*
X0015682Y0282881D01*
X0015835Y0282920D01*
X0015990Y0282956D01*
X0016145Y0282987D01*
X0016301Y0283015D01*
X0016457Y0283039D01*
X0016614Y0283059D01*
X0016772Y0283075D01*
X0016929Y0283087D01*
X0017088Y0283095D01*
X0017246Y0283099D01*
X0017404Y0283099D01*
X0017562Y0283095D01*
X0017721Y0283087D01*
X0017878Y0283075D01*
X0018036Y0283059D01*
X0018193Y0283039D01*
X0018349Y0283015D01*
X0018505Y0282987D01*
X0018660Y0282956D01*
X0018815Y0282920D01*
X0018968Y0282881D01*
X0019120Y0282838D01*
X0019271Y0282791D01*
X0019421Y0282740D01*
X0019570Y0282685D01*
X0019717Y0282627D01*
X0019863Y0282565D01*
X0020007Y0282500D01*
X0020149Y0282430D01*
X0020290Y0282358D01*
X0020429Y0282281D01*
X0020565Y0282202D01*
X0020700Y0282118D01*
X0020833Y0282032D01*
X0020963Y0281942D01*
X0021091Y0281849D01*
X0021217Y0281753D01*
X0021340Y0281653D01*
X0021461Y0281551D01*
X0021579Y0281446D01*
X0021694Y0281337D01*
X0021807Y0281226D01*
X0021917Y0281112D01*
X0022024Y0280995D01*
X0022128Y0280876D01*
X0022229Y0280754D01*
X0022326Y0280629D01*
X0022421Y0280502D01*
X0022512Y0280373D01*
X0022601Y0280242D01*
X0022685Y0280108D01*
X0022767Y0279972D01*
X0022845Y0279835D01*
X0022919Y0279695D01*
X0022990Y0279553D01*
X0023058Y0279410D01*
X0023122Y0279265D01*
X0023182Y0279119D01*
X0023238Y0278971D01*
X0023291Y0278822D01*
X0023340Y0278671D01*
X0023385Y0278519D01*
X0023426Y0278366D01*
X0023464Y0278213D01*
X0023497Y0278058D01*
X0023527Y0277902D01*
X0023553Y0277746D01*
X0023574Y0277589D01*
X0023592Y0277432D01*
X0023606Y0277274D01*
X0023616Y0277116D01*
X0023622Y0276958D01*
X0023624Y0276800D01*
X0023622Y0276642D01*
X0023616Y0276484D01*
X0023606Y0276326D01*
X0023592Y0276168D01*
X0023574Y0276011D01*
X0023553Y0275854D01*
X0023527Y0275698D01*
X0023497Y0275542D01*
X0023464Y0275387D01*
X0023426Y0275234D01*
X0023385Y0275081D01*
X0023340Y0274929D01*
X0023291Y0274778D01*
X0023238Y0274629D01*
X0023182Y0274481D01*
X0023122Y0274335D01*
X0023058Y0274190D01*
X0022990Y0274047D01*
X0022919Y0273905D01*
X0022845Y0273765D01*
X0022767Y0273628D01*
X0022685Y0273492D01*
X0022601Y0273358D01*
X0022512Y0273227D01*
X0022421Y0273098D01*
X0022326Y0272971D01*
X0022229Y0272846D01*
X0022128Y0272724D01*
X0022024Y0272605D01*
X0021917Y0272488D01*
X0021807Y0272374D01*
X0021694Y0272263D01*
X0021579Y0272154D01*
X0021461Y0272049D01*
X0021340Y0271947D01*
X0021217Y0271847D01*
X0021091Y0271751D01*
X0020963Y0271658D01*
X0020833Y0271568D01*
X0020700Y0271482D01*
X0020565Y0271398D01*
X0020429Y0271319D01*
X0020290Y0271242D01*
X0020149Y0271170D01*
X0020007Y0271100D01*
X0019863Y0271035D01*
X0019717Y0270973D01*
X0019570Y0270915D01*
X0019421Y0270860D01*
X0019271Y0270809D01*
X0019120Y0270762D01*
X0018968Y0270719D01*
X0018815Y0270680D01*
X0018660Y0270644D01*
X0018505Y0270613D01*
X0018349Y0270585D01*
X0018193Y0270561D01*
X0018036Y0270541D01*
X0017878Y0270525D01*
X0017721Y0270513D01*
X0017562Y0270505D01*
X0017404Y0270501D01*
X0017246Y0270501D01*
X0017088Y0270505D01*
X0016929Y0270513D01*
X0016772Y0270525D01*
X0016614Y0270541D01*
X0016457Y0270561D01*
X0016301Y0270585D01*
X0016145Y0270613D01*
X0015990Y0270644D01*
X0015835Y0270680D01*
X0015682Y0270719D01*
X0015530Y0270762D01*
X0015379Y0270809D01*
X0015229Y0270860D01*
X0015080Y0270915D01*
X0014933Y0270973D01*
X0014787Y0271035D01*
X0014643Y0271100D01*
X0014501Y0271170D01*
X0014360Y0271242D01*
X0014221Y0271319D01*
X0014085Y0271398D01*
X0013950Y0271482D01*
X0013817Y0271568D01*
X0013687Y0271658D01*
X0013559Y0271751D01*
X0013433Y0271847D01*
X0013310Y0271947D01*
X0013189Y0272049D01*
X0013071Y0272154D01*
X0012956Y0272263D01*
X0012843Y0272374D01*
X0012733Y0272488D01*
X0012626Y0272605D01*
X0012522Y0272724D01*
X0012421Y0272846D01*
X0012324Y0272971D01*
X0012229Y0273098D01*
X0012138Y0273227D01*
X0012049Y0273358D01*
X0011965Y0273492D01*
X0011883Y0273628D01*
X0011805Y0273765D01*
X0011731Y0273905D01*
X0011660Y0274047D01*
X0011592Y0274190D01*
X0011528Y0274335D01*
X0011468Y0274481D01*
X0011412Y0274629D01*
X0011359Y0274778D01*
X0011310Y0274929D01*
X0011265Y0275081D01*
X0011224Y0275234D01*
X0011186Y0275387D01*
X0011153Y0275542D01*
X0011123Y0275698D01*
X0011097Y0275854D01*
X0011076Y0276011D01*
X0011058Y0276168D01*
X0011044Y0276326D01*
X0011034Y0276484D01*
X0011028Y0276642D01*
X0011026Y0276800D01*
X0329176Y0094930D02*
X0329176Y0092174D01*
X0329175Y0092174D02*
X0329177Y0092097D01*
X0329183Y0092020D01*
X0329192Y0091943D01*
X0329205Y0091867D01*
X0329222Y0091791D01*
X0329243Y0091717D01*
X0329267Y0091643D01*
X0329295Y0091571D01*
X0329326Y0091501D01*
X0329361Y0091432D01*
X0329399Y0091364D01*
X0329440Y0091299D01*
X0329485Y0091236D01*
X0329533Y0091175D01*
X0329583Y0091116D01*
X0329636Y0091060D01*
X0329692Y0091007D01*
X0329751Y0090957D01*
X0329812Y0090909D01*
X0329875Y0090864D01*
X0329940Y0090823D01*
X0330008Y0090785D01*
X0330077Y0090750D01*
X0330147Y0090719D01*
X0330219Y0090691D01*
X0330293Y0090667D01*
X0330367Y0090646D01*
X0330443Y0090629D01*
X0330519Y0090616D01*
X0330596Y0090607D01*
X0330673Y0090601D01*
X0330750Y0090599D01*
X0330827Y0090601D01*
X0330904Y0090607D01*
X0330981Y0090616D01*
X0331057Y0090629D01*
X0331133Y0090646D01*
X0331207Y0090667D01*
X0331281Y0090691D01*
X0331353Y0090719D01*
X0331423Y0090750D01*
X0331492Y0090785D01*
X0331560Y0090823D01*
X0331625Y0090864D01*
X0331688Y0090909D01*
X0331749Y0090957D01*
X0331808Y0091007D01*
X0331864Y0091060D01*
X0331917Y0091116D01*
X0331967Y0091175D01*
X0332015Y0091236D01*
X0332060Y0091299D01*
X0332101Y0091364D01*
X0332139Y0091432D01*
X0332174Y0091501D01*
X0332205Y0091571D01*
X0332233Y0091643D01*
X0332257Y0091717D01*
X0332278Y0091791D01*
X0332295Y0091867D01*
X0332308Y0091943D01*
X0332317Y0092020D01*
X0332323Y0092097D01*
X0332325Y0092174D01*
X0332325Y0094930D01*
X0330750Y0096505D02*
X0330673Y0096503D01*
X0330596Y0096497D01*
X0330519Y0096488D01*
X0330443Y0096475D01*
X0330367Y0096458D01*
X0330293Y0096437D01*
X0330219Y0096413D01*
X0330147Y0096385D01*
X0330077Y0096354D01*
X0330008Y0096319D01*
X0329940Y0096281D01*
X0329875Y0096240D01*
X0329812Y0096195D01*
X0329751Y0096147D01*
X0329692Y0096097D01*
X0329636Y0096044D01*
X0329583Y0095988D01*
X0329533Y0095929D01*
X0329485Y0095868D01*
X0329440Y0095805D01*
X0329399Y0095740D01*
X0329361Y0095672D01*
X0329326Y0095603D01*
X0329295Y0095533D01*
X0329267Y0095461D01*
X0329243Y0095387D01*
X0329222Y0095313D01*
X0329205Y0095237D01*
X0329192Y0095161D01*
X0329183Y0095084D01*
X0329177Y0095007D01*
X0329175Y0094930D01*
X0330750Y0096505D02*
X0330827Y0096503D01*
X0330904Y0096497D01*
X0330981Y0096488D01*
X0331057Y0096475D01*
X0331133Y0096458D01*
X0331207Y0096437D01*
X0331281Y0096413D01*
X0331353Y0096385D01*
X0331423Y0096354D01*
X0331492Y0096319D01*
X0331560Y0096281D01*
X0331625Y0096240D01*
X0331688Y0096195D01*
X0331749Y0096147D01*
X0331808Y0096097D01*
X0331864Y0096044D01*
X0331917Y0095988D01*
X0331967Y0095929D01*
X0332015Y0095868D01*
X0332060Y0095805D01*
X0332101Y0095740D01*
X0332139Y0095672D01*
X0332174Y0095603D01*
X0332205Y0095533D01*
X0332233Y0095461D01*
X0332257Y0095387D01*
X0332278Y0095313D01*
X0332295Y0095237D01*
X0332308Y0095161D01*
X0332317Y0095084D01*
X0332323Y0095007D01*
X0332325Y0094930D01*
X0359687Y0092961D02*
X0362443Y0092961D01*
X0364018Y0091387D02*
X0364016Y0091310D01*
X0364010Y0091233D01*
X0364001Y0091156D01*
X0363988Y0091080D01*
X0363971Y0091004D01*
X0363950Y0090930D01*
X0363926Y0090856D01*
X0363898Y0090784D01*
X0363867Y0090714D01*
X0363832Y0090645D01*
X0363794Y0090577D01*
X0363753Y0090512D01*
X0363708Y0090449D01*
X0363660Y0090388D01*
X0363610Y0090329D01*
X0363557Y0090273D01*
X0363501Y0090220D01*
X0363442Y0090170D01*
X0363381Y0090122D01*
X0363318Y0090077D01*
X0363253Y0090036D01*
X0363185Y0089998D01*
X0363116Y0089963D01*
X0363046Y0089932D01*
X0362974Y0089904D01*
X0362900Y0089880D01*
X0362826Y0089859D01*
X0362750Y0089842D01*
X0362674Y0089829D01*
X0362597Y0089820D01*
X0362520Y0089814D01*
X0362443Y0089812D01*
X0359687Y0089812D01*
X0359610Y0089814D01*
X0359533Y0089820D01*
X0359456Y0089829D01*
X0359380Y0089842D01*
X0359304Y0089859D01*
X0359230Y0089880D01*
X0359156Y0089904D01*
X0359084Y0089932D01*
X0359014Y0089963D01*
X0358945Y0089998D01*
X0358877Y0090036D01*
X0358812Y0090077D01*
X0358749Y0090122D01*
X0358688Y0090170D01*
X0358629Y0090220D01*
X0358573Y0090273D01*
X0358520Y0090329D01*
X0358470Y0090388D01*
X0358422Y0090449D01*
X0358377Y0090512D01*
X0358336Y0090577D01*
X0358298Y0090645D01*
X0358263Y0090714D01*
X0358232Y0090784D01*
X0358204Y0090856D01*
X0358180Y0090930D01*
X0358159Y0091004D01*
X0358142Y0091080D01*
X0358129Y0091156D01*
X0358120Y0091233D01*
X0358114Y0091310D01*
X0358112Y0091387D01*
X0358114Y0091464D01*
X0358120Y0091541D01*
X0358129Y0091618D01*
X0358142Y0091694D01*
X0358159Y0091770D01*
X0358180Y0091844D01*
X0358204Y0091918D01*
X0358232Y0091990D01*
X0358263Y0092060D01*
X0358298Y0092129D01*
X0358336Y0092197D01*
X0358377Y0092262D01*
X0358422Y0092325D01*
X0358470Y0092386D01*
X0358520Y0092445D01*
X0358573Y0092501D01*
X0358629Y0092554D01*
X0358688Y0092604D01*
X0358749Y0092652D01*
X0358812Y0092697D01*
X0358877Y0092738D01*
X0358945Y0092776D01*
X0359014Y0092811D01*
X0359084Y0092842D01*
X0359156Y0092870D01*
X0359230Y0092894D01*
X0359304Y0092915D01*
X0359380Y0092932D01*
X0359456Y0092945D01*
X0359533Y0092954D01*
X0359610Y0092960D01*
X0359687Y0092962D01*
X0362443Y0092962D02*
X0362520Y0092960D01*
X0362597Y0092954D01*
X0362674Y0092945D01*
X0362750Y0092932D01*
X0362826Y0092915D01*
X0362900Y0092894D01*
X0362974Y0092870D01*
X0363046Y0092842D01*
X0363116Y0092811D01*
X0363185Y0092776D01*
X0363253Y0092738D01*
X0363318Y0092697D01*
X0363381Y0092652D01*
X0363442Y0092604D01*
X0363501Y0092554D01*
X0363557Y0092501D01*
X0363610Y0092445D01*
X0363660Y0092386D01*
X0363708Y0092325D01*
X0363753Y0092262D01*
X0363794Y0092197D01*
X0363832Y0092129D01*
X0363867Y0092060D01*
X0363898Y0091990D01*
X0363926Y0091918D01*
X0363950Y0091844D01*
X0363971Y0091770D01*
X0363988Y0091694D01*
X0364001Y0091618D01*
X0364010Y0091541D01*
X0364016Y0091464D01*
X0364018Y0091387D01*
X0372483Y0107922D02*
X0372483Y0110678D01*
X0372482Y0110678D02*
X0372484Y0110755D01*
X0372490Y0110832D01*
X0372499Y0110909D01*
X0372512Y0110985D01*
X0372529Y0111061D01*
X0372550Y0111135D01*
X0372574Y0111209D01*
X0372602Y0111281D01*
X0372633Y0111351D01*
X0372668Y0111420D01*
X0372706Y0111488D01*
X0372747Y0111553D01*
X0372792Y0111616D01*
X0372840Y0111677D01*
X0372890Y0111736D01*
X0372943Y0111792D01*
X0372999Y0111845D01*
X0373058Y0111895D01*
X0373119Y0111943D01*
X0373182Y0111988D01*
X0373247Y0112029D01*
X0373315Y0112067D01*
X0373384Y0112102D01*
X0373454Y0112133D01*
X0373526Y0112161D01*
X0373600Y0112185D01*
X0373674Y0112206D01*
X0373750Y0112223D01*
X0373826Y0112236D01*
X0373903Y0112245D01*
X0373980Y0112251D01*
X0374057Y0112253D01*
X0374134Y0112251D01*
X0374211Y0112245D01*
X0374288Y0112236D01*
X0374364Y0112223D01*
X0374440Y0112206D01*
X0374514Y0112185D01*
X0374588Y0112161D01*
X0374660Y0112133D01*
X0374730Y0112102D01*
X0374799Y0112067D01*
X0374867Y0112029D01*
X0374932Y0111988D01*
X0374995Y0111943D01*
X0375056Y0111895D01*
X0375115Y0111845D01*
X0375171Y0111792D01*
X0375224Y0111736D01*
X0375274Y0111677D01*
X0375322Y0111616D01*
X0375367Y0111553D01*
X0375408Y0111488D01*
X0375446Y0111420D01*
X0375481Y0111351D01*
X0375512Y0111281D01*
X0375540Y0111209D01*
X0375564Y0111135D01*
X0375585Y0111061D01*
X0375602Y0110985D01*
X0375615Y0110909D01*
X0375624Y0110832D01*
X0375630Y0110755D01*
X0375632Y0110678D01*
X0375632Y0107922D01*
X0374057Y0106347D02*
X0373980Y0106349D01*
X0373903Y0106355D01*
X0373826Y0106364D01*
X0373750Y0106377D01*
X0373674Y0106394D01*
X0373600Y0106415D01*
X0373526Y0106439D01*
X0373454Y0106467D01*
X0373384Y0106498D01*
X0373315Y0106533D01*
X0373247Y0106571D01*
X0373182Y0106612D01*
X0373119Y0106657D01*
X0373058Y0106705D01*
X0372999Y0106755D01*
X0372943Y0106808D01*
X0372890Y0106864D01*
X0372840Y0106923D01*
X0372792Y0106984D01*
X0372747Y0107047D01*
X0372706Y0107112D01*
X0372668Y0107180D01*
X0372633Y0107249D01*
X0372602Y0107319D01*
X0372574Y0107391D01*
X0372550Y0107465D01*
X0372529Y0107539D01*
X0372512Y0107615D01*
X0372499Y0107691D01*
X0372490Y0107768D01*
X0372484Y0107845D01*
X0372482Y0107922D01*
X0374057Y0106347D02*
X0374134Y0106349D01*
X0374211Y0106355D01*
X0374288Y0106364D01*
X0374364Y0106377D01*
X0374440Y0106394D01*
X0374514Y0106415D01*
X0374588Y0106439D01*
X0374660Y0106467D01*
X0374730Y0106498D01*
X0374799Y0106533D01*
X0374867Y0106571D01*
X0374932Y0106612D01*
X0374995Y0106657D01*
X0375056Y0106705D01*
X0375115Y0106755D01*
X0375171Y0106808D01*
X0375224Y0106864D01*
X0375274Y0106923D01*
X0375322Y0106984D01*
X0375367Y0107047D01*
X0375408Y0107112D01*
X0375446Y0107180D01*
X0375481Y0107249D01*
X0375512Y0107319D01*
X0375540Y0107391D01*
X0375564Y0107465D01*
X0375585Y0107539D01*
X0375602Y0107615D01*
X0375615Y0107691D01*
X0375624Y0107768D01*
X0375630Y0107845D01*
X0375632Y0107922D01*
X0350239Y0118158D02*
X0347483Y0118158D01*
X0347406Y0118160D01*
X0347329Y0118166D01*
X0347252Y0118175D01*
X0347176Y0118188D01*
X0347100Y0118205D01*
X0347026Y0118226D01*
X0346952Y0118250D01*
X0346880Y0118278D01*
X0346810Y0118309D01*
X0346741Y0118344D01*
X0346673Y0118382D01*
X0346608Y0118423D01*
X0346545Y0118468D01*
X0346484Y0118516D01*
X0346425Y0118566D01*
X0346369Y0118619D01*
X0346316Y0118675D01*
X0346266Y0118734D01*
X0346218Y0118795D01*
X0346173Y0118858D01*
X0346132Y0118923D01*
X0346094Y0118991D01*
X0346059Y0119060D01*
X0346028Y0119130D01*
X0346000Y0119202D01*
X0345976Y0119276D01*
X0345955Y0119350D01*
X0345938Y0119426D01*
X0345925Y0119502D01*
X0345916Y0119579D01*
X0345910Y0119656D01*
X0345908Y0119733D01*
X0345910Y0119810D01*
X0345916Y0119887D01*
X0345925Y0119964D01*
X0345938Y0120040D01*
X0345955Y0120116D01*
X0345976Y0120190D01*
X0346000Y0120264D01*
X0346028Y0120336D01*
X0346059Y0120406D01*
X0346094Y0120475D01*
X0346132Y0120543D01*
X0346173Y0120608D01*
X0346218Y0120671D01*
X0346266Y0120732D01*
X0346316Y0120791D01*
X0346369Y0120847D01*
X0346425Y0120900D01*
X0346484Y0120950D01*
X0346545Y0120998D01*
X0346608Y0121043D01*
X0346673Y0121084D01*
X0346741Y0121122D01*
X0346810Y0121157D01*
X0346880Y0121188D01*
X0346952Y0121216D01*
X0347026Y0121240D01*
X0347100Y0121261D01*
X0347176Y0121278D01*
X0347252Y0121291D01*
X0347329Y0121300D01*
X0347406Y0121306D01*
X0347483Y0121308D01*
X0350239Y0121308D01*
X0351814Y0119733D02*
X0351812Y0119656D01*
X0351806Y0119579D01*
X0351797Y0119502D01*
X0351784Y0119426D01*
X0351767Y0119350D01*
X0351746Y0119276D01*
X0351722Y0119202D01*
X0351694Y0119130D01*
X0351663Y0119060D01*
X0351628Y0118991D01*
X0351590Y0118923D01*
X0351549Y0118858D01*
X0351504Y0118795D01*
X0351456Y0118734D01*
X0351406Y0118675D01*
X0351353Y0118619D01*
X0351297Y0118566D01*
X0351238Y0118516D01*
X0351177Y0118468D01*
X0351114Y0118423D01*
X0351049Y0118382D01*
X0350981Y0118344D01*
X0350912Y0118309D01*
X0350842Y0118278D01*
X0350770Y0118250D01*
X0350696Y0118226D01*
X0350622Y0118205D01*
X0350546Y0118188D01*
X0350470Y0118175D01*
X0350393Y0118166D01*
X0350316Y0118160D01*
X0350239Y0118158D01*
X0351814Y0119733D02*
X0351812Y0119810D01*
X0351806Y0119887D01*
X0351797Y0119964D01*
X0351784Y0120040D01*
X0351767Y0120116D01*
X0351746Y0120190D01*
X0351722Y0120264D01*
X0351694Y0120336D01*
X0351663Y0120406D01*
X0351628Y0120475D01*
X0351590Y0120543D01*
X0351549Y0120608D01*
X0351504Y0120671D01*
X0351456Y0120732D01*
X0351406Y0120791D01*
X0351353Y0120847D01*
X0351297Y0120900D01*
X0351238Y0120950D01*
X0351177Y0120998D01*
X0351114Y0121043D01*
X0351049Y0121084D01*
X0350981Y0121122D01*
X0350912Y0121157D01*
X0350842Y0121188D01*
X0350770Y0121216D01*
X0350696Y0121240D01*
X0350622Y0121261D01*
X0350546Y0121278D01*
X0350470Y0121291D01*
X0350393Y0121300D01*
X0350316Y0121306D01*
X0350239Y0121308D01*
X0344727Y0127607D02*
X0341971Y0127607D01*
X0341894Y0127609D01*
X0341817Y0127615D01*
X0341740Y0127624D01*
X0341664Y0127637D01*
X0341588Y0127654D01*
X0341514Y0127675D01*
X0341440Y0127699D01*
X0341368Y0127727D01*
X0341298Y0127758D01*
X0341229Y0127793D01*
X0341161Y0127831D01*
X0341096Y0127872D01*
X0341033Y0127917D01*
X0340972Y0127965D01*
X0340913Y0128015D01*
X0340857Y0128068D01*
X0340804Y0128124D01*
X0340754Y0128183D01*
X0340706Y0128244D01*
X0340661Y0128307D01*
X0340620Y0128372D01*
X0340582Y0128440D01*
X0340547Y0128509D01*
X0340516Y0128579D01*
X0340488Y0128651D01*
X0340464Y0128725D01*
X0340443Y0128799D01*
X0340426Y0128875D01*
X0340413Y0128951D01*
X0340404Y0129028D01*
X0340398Y0129105D01*
X0340396Y0129182D01*
X0340398Y0129259D01*
X0340404Y0129336D01*
X0340413Y0129413D01*
X0340426Y0129489D01*
X0340443Y0129565D01*
X0340464Y0129639D01*
X0340488Y0129713D01*
X0340516Y0129785D01*
X0340547Y0129855D01*
X0340582Y0129924D01*
X0340620Y0129992D01*
X0340661Y0130057D01*
X0340706Y0130120D01*
X0340754Y0130181D01*
X0340804Y0130240D01*
X0340857Y0130296D01*
X0340913Y0130349D01*
X0340972Y0130399D01*
X0341033Y0130447D01*
X0341096Y0130492D01*
X0341161Y0130533D01*
X0341229Y0130571D01*
X0341298Y0130606D01*
X0341368Y0130637D01*
X0341440Y0130665D01*
X0341514Y0130689D01*
X0341588Y0130710D01*
X0341664Y0130727D01*
X0341740Y0130740D01*
X0341817Y0130749D01*
X0341894Y0130755D01*
X0341971Y0130757D01*
X0344727Y0130757D01*
X0346302Y0129182D02*
X0346300Y0129105D01*
X0346294Y0129028D01*
X0346285Y0128951D01*
X0346272Y0128875D01*
X0346255Y0128799D01*
X0346234Y0128725D01*
X0346210Y0128651D01*
X0346182Y0128579D01*
X0346151Y0128509D01*
X0346116Y0128440D01*
X0346078Y0128372D01*
X0346037Y0128307D01*
X0345992Y0128244D01*
X0345944Y0128183D01*
X0345894Y0128124D01*
X0345841Y0128068D01*
X0345785Y0128015D01*
X0345726Y0127965D01*
X0345665Y0127917D01*
X0345602Y0127872D01*
X0345537Y0127831D01*
X0345469Y0127793D01*
X0345400Y0127758D01*
X0345330Y0127727D01*
X0345258Y0127699D01*
X0345184Y0127675D01*
X0345110Y0127654D01*
X0345034Y0127637D01*
X0344958Y0127624D01*
X0344881Y0127615D01*
X0344804Y0127609D01*
X0344727Y0127607D01*
X0346302Y0129182D02*
X0346300Y0129259D01*
X0346294Y0129336D01*
X0346285Y0129413D01*
X0346272Y0129489D01*
X0346255Y0129565D01*
X0346234Y0129639D01*
X0346210Y0129713D01*
X0346182Y0129785D01*
X0346151Y0129855D01*
X0346116Y0129924D01*
X0346078Y0129992D01*
X0346037Y0130057D01*
X0345992Y0130120D01*
X0345944Y0130181D01*
X0345894Y0130240D01*
X0345841Y0130296D01*
X0345785Y0130349D01*
X0345726Y0130399D01*
X0345665Y0130447D01*
X0345602Y0130492D01*
X0345537Y0130533D01*
X0345469Y0130571D01*
X0345400Y0130606D01*
X0345330Y0130637D01*
X0345258Y0130665D01*
X0345184Y0130689D01*
X0345110Y0130710D01*
X0345034Y0130727D01*
X0344958Y0130740D01*
X0344881Y0130749D01*
X0344804Y0130755D01*
X0344727Y0130757D01*
X0339058Y0150776D02*
X0339060Y0150934D01*
X0339066Y0151092D01*
X0339076Y0151250D01*
X0339090Y0151408D01*
X0339108Y0151565D01*
X0339129Y0151722D01*
X0339155Y0151878D01*
X0339185Y0152034D01*
X0339218Y0152189D01*
X0339256Y0152342D01*
X0339297Y0152495D01*
X0339342Y0152647D01*
X0339391Y0152798D01*
X0339444Y0152947D01*
X0339500Y0153095D01*
X0339560Y0153241D01*
X0339624Y0153386D01*
X0339692Y0153529D01*
X0339763Y0153671D01*
X0339837Y0153811D01*
X0339915Y0153948D01*
X0339997Y0154084D01*
X0340081Y0154218D01*
X0340170Y0154349D01*
X0340261Y0154478D01*
X0340356Y0154605D01*
X0340453Y0154730D01*
X0340554Y0154852D01*
X0340658Y0154971D01*
X0340765Y0155088D01*
X0340875Y0155202D01*
X0340988Y0155313D01*
X0341103Y0155422D01*
X0341221Y0155527D01*
X0341342Y0155629D01*
X0341465Y0155729D01*
X0341591Y0155825D01*
X0341719Y0155918D01*
X0341849Y0156008D01*
X0341982Y0156094D01*
X0342117Y0156178D01*
X0342253Y0156257D01*
X0342392Y0156334D01*
X0342533Y0156406D01*
X0342675Y0156476D01*
X0342819Y0156541D01*
X0342965Y0156603D01*
X0343112Y0156661D01*
X0343261Y0156716D01*
X0343411Y0156767D01*
X0343562Y0156814D01*
X0343714Y0156857D01*
X0343867Y0156896D01*
X0344022Y0156932D01*
X0344177Y0156963D01*
X0344333Y0156991D01*
X0344489Y0157015D01*
X0344646Y0157035D01*
X0344804Y0157051D01*
X0344961Y0157063D01*
X0345120Y0157071D01*
X0345278Y0157075D01*
X0345436Y0157075D01*
X0345594Y0157071D01*
X0345753Y0157063D01*
X0345910Y0157051D01*
X0346068Y0157035D01*
X0346225Y0157015D01*
X0346381Y0156991D01*
X0346537Y0156963D01*
X0346692Y0156932D01*
X0346847Y0156896D01*
X0347000Y0156857D01*
X0347152Y0156814D01*
X0347303Y0156767D01*
X0347453Y0156716D01*
X0347602Y0156661D01*
X0347749Y0156603D01*
X0347895Y0156541D01*
X0348039Y0156476D01*
X0348181Y0156406D01*
X0348322Y0156334D01*
X0348461Y0156257D01*
X0348597Y0156178D01*
X0348732Y0156094D01*
X0348865Y0156008D01*
X0348995Y0155918D01*
X0349123Y0155825D01*
X0349249Y0155729D01*
X0349372Y0155629D01*
X0349493Y0155527D01*
X0349611Y0155422D01*
X0349726Y0155313D01*
X0349839Y0155202D01*
X0349949Y0155088D01*
X0350056Y0154971D01*
X0350160Y0154852D01*
X0350261Y0154730D01*
X0350358Y0154605D01*
X0350453Y0154478D01*
X0350544Y0154349D01*
X0350633Y0154218D01*
X0350717Y0154084D01*
X0350799Y0153948D01*
X0350877Y0153811D01*
X0350951Y0153671D01*
X0351022Y0153529D01*
X0351090Y0153386D01*
X0351154Y0153241D01*
X0351214Y0153095D01*
X0351270Y0152947D01*
X0351323Y0152798D01*
X0351372Y0152647D01*
X0351417Y0152495D01*
X0351458Y0152342D01*
X0351496Y0152189D01*
X0351529Y0152034D01*
X0351559Y0151878D01*
X0351585Y0151722D01*
X0351606Y0151565D01*
X0351624Y0151408D01*
X0351638Y0151250D01*
X0351648Y0151092D01*
X0351654Y0150934D01*
X0351656Y0150776D01*
X0351654Y0150618D01*
X0351648Y0150460D01*
X0351638Y0150302D01*
X0351624Y0150144D01*
X0351606Y0149987D01*
X0351585Y0149830D01*
X0351559Y0149674D01*
X0351529Y0149518D01*
X0351496Y0149363D01*
X0351458Y0149210D01*
X0351417Y0149057D01*
X0351372Y0148905D01*
X0351323Y0148754D01*
X0351270Y0148605D01*
X0351214Y0148457D01*
X0351154Y0148311D01*
X0351090Y0148166D01*
X0351022Y0148023D01*
X0350951Y0147881D01*
X0350877Y0147741D01*
X0350799Y0147604D01*
X0350717Y0147468D01*
X0350633Y0147334D01*
X0350544Y0147203D01*
X0350453Y0147074D01*
X0350358Y0146947D01*
X0350261Y0146822D01*
X0350160Y0146700D01*
X0350056Y0146581D01*
X0349949Y0146464D01*
X0349839Y0146350D01*
X0349726Y0146239D01*
X0349611Y0146130D01*
X0349493Y0146025D01*
X0349372Y0145923D01*
X0349249Y0145823D01*
X0349123Y0145727D01*
X0348995Y0145634D01*
X0348865Y0145544D01*
X0348732Y0145458D01*
X0348597Y0145374D01*
X0348461Y0145295D01*
X0348322Y0145218D01*
X0348181Y0145146D01*
X0348039Y0145076D01*
X0347895Y0145011D01*
X0347749Y0144949D01*
X0347602Y0144891D01*
X0347453Y0144836D01*
X0347303Y0144785D01*
X0347152Y0144738D01*
X0347000Y0144695D01*
X0346847Y0144656D01*
X0346692Y0144620D01*
X0346537Y0144589D01*
X0346381Y0144561D01*
X0346225Y0144537D01*
X0346068Y0144517D01*
X0345910Y0144501D01*
X0345753Y0144489D01*
X0345594Y0144481D01*
X0345436Y0144477D01*
X0345278Y0144477D01*
X0345120Y0144481D01*
X0344961Y0144489D01*
X0344804Y0144501D01*
X0344646Y0144517D01*
X0344489Y0144537D01*
X0344333Y0144561D01*
X0344177Y0144589D01*
X0344022Y0144620D01*
X0343867Y0144656D01*
X0343714Y0144695D01*
X0343562Y0144738D01*
X0343411Y0144785D01*
X0343261Y0144836D01*
X0343112Y0144891D01*
X0342965Y0144949D01*
X0342819Y0145011D01*
X0342675Y0145076D01*
X0342533Y0145146D01*
X0342392Y0145218D01*
X0342253Y0145295D01*
X0342117Y0145374D01*
X0341982Y0145458D01*
X0341849Y0145544D01*
X0341719Y0145634D01*
X0341591Y0145727D01*
X0341465Y0145823D01*
X0341342Y0145923D01*
X0341221Y0146025D01*
X0341103Y0146130D01*
X0340988Y0146239D01*
X0340875Y0146350D01*
X0340765Y0146464D01*
X0340658Y0146581D01*
X0340554Y0146700D01*
X0340453Y0146822D01*
X0340356Y0146947D01*
X0340261Y0147074D01*
X0340170Y0147203D01*
X0340081Y0147334D01*
X0339997Y0147468D01*
X0339915Y0147604D01*
X0339837Y0147741D01*
X0339763Y0147881D01*
X0339692Y0148023D01*
X0339624Y0148166D01*
X0339560Y0148311D01*
X0339500Y0148457D01*
X0339444Y0148605D01*
X0339391Y0148754D01*
X0339342Y0148905D01*
X0339297Y0149057D01*
X0339256Y0149210D01*
X0339218Y0149363D01*
X0339185Y0149518D01*
X0339155Y0149674D01*
X0339129Y0149830D01*
X0339108Y0149987D01*
X0339090Y0150144D01*
X0339076Y0150302D01*
X0339066Y0150460D01*
X0339060Y0150618D01*
X0339058Y0150776D01*
X0370553Y0163139D02*
X0370555Y0163223D01*
X0370561Y0163306D01*
X0370571Y0163389D01*
X0370585Y0163472D01*
X0370602Y0163554D01*
X0370624Y0163635D01*
X0370649Y0163714D01*
X0370678Y0163793D01*
X0370711Y0163870D01*
X0370747Y0163945D01*
X0370787Y0164019D01*
X0370830Y0164091D01*
X0370877Y0164160D01*
X0370927Y0164227D01*
X0370980Y0164292D01*
X0371036Y0164354D01*
X0371094Y0164414D01*
X0371156Y0164471D01*
X0371220Y0164524D01*
X0371287Y0164575D01*
X0371356Y0164622D01*
X0371427Y0164667D01*
X0371500Y0164707D01*
X0371575Y0164744D01*
X0371652Y0164778D01*
X0371730Y0164808D01*
X0371809Y0164834D01*
X0371890Y0164857D01*
X0371972Y0164875D01*
X0372054Y0164890D01*
X0372137Y0164901D01*
X0372220Y0164908D01*
X0372304Y0164911D01*
X0372388Y0164910D01*
X0372471Y0164905D01*
X0372555Y0164896D01*
X0372637Y0164883D01*
X0372719Y0164867D01*
X0372800Y0164846D01*
X0372881Y0164822D01*
X0372959Y0164794D01*
X0373037Y0164762D01*
X0373113Y0164726D01*
X0373187Y0164687D01*
X0373259Y0164645D01*
X0373329Y0164599D01*
X0373397Y0164550D01*
X0373462Y0164498D01*
X0373525Y0164443D01*
X0373585Y0164385D01*
X0373643Y0164324D01*
X0373697Y0164260D01*
X0373749Y0164194D01*
X0373797Y0164126D01*
X0373842Y0164055D01*
X0373883Y0163982D01*
X0373922Y0163908D01*
X0373956Y0163832D01*
X0373987Y0163754D01*
X0374014Y0163675D01*
X0374038Y0163594D01*
X0374057Y0163513D01*
X0374073Y0163431D01*
X0374085Y0163348D01*
X0374093Y0163264D01*
X0374097Y0163181D01*
X0374097Y0163097D01*
X0374093Y0163014D01*
X0374085Y0162930D01*
X0374073Y0162847D01*
X0374057Y0162765D01*
X0374038Y0162684D01*
X0374014Y0162603D01*
X0373987Y0162524D01*
X0373956Y0162446D01*
X0373922Y0162370D01*
X0373883Y0162296D01*
X0373842Y0162223D01*
X0373797Y0162152D01*
X0373749Y0162084D01*
X0373697Y0162018D01*
X0373643Y0161954D01*
X0373585Y0161893D01*
X0373525Y0161835D01*
X0373462Y0161780D01*
X0373397Y0161728D01*
X0373329Y0161679D01*
X0373259Y0161633D01*
X0373187Y0161591D01*
X0373113Y0161552D01*
X0373037Y0161516D01*
X0372959Y0161484D01*
X0372881Y0161456D01*
X0372800Y0161432D01*
X0372719Y0161411D01*
X0372637Y0161395D01*
X0372555Y0161382D01*
X0372471Y0161373D01*
X0372388Y0161368D01*
X0372304Y0161367D01*
X0372220Y0161370D01*
X0372137Y0161377D01*
X0372054Y0161388D01*
X0371972Y0161403D01*
X0371890Y0161421D01*
X0371809Y0161444D01*
X0371730Y0161470D01*
X0371652Y0161500D01*
X0371575Y0161534D01*
X0371500Y0161571D01*
X0371427Y0161611D01*
X0371356Y0161656D01*
X0371287Y0161703D01*
X0371220Y0161754D01*
X0371156Y0161807D01*
X0371094Y0161864D01*
X0371036Y0161924D01*
X0370980Y0161986D01*
X0370927Y0162051D01*
X0370877Y0162118D01*
X0370830Y0162187D01*
X0370787Y0162259D01*
X0370747Y0162333D01*
X0370711Y0162408D01*
X0370678Y0162485D01*
X0370649Y0162564D01*
X0370624Y0162643D01*
X0370602Y0162724D01*
X0370585Y0162806D01*
X0370571Y0162889D01*
X0370561Y0162972D01*
X0370555Y0163055D01*
X0370553Y0163139D01*
X0370553Y0180461D02*
X0370555Y0180545D01*
X0370561Y0180628D01*
X0370571Y0180711D01*
X0370585Y0180794D01*
X0370602Y0180876D01*
X0370624Y0180957D01*
X0370649Y0181036D01*
X0370678Y0181115D01*
X0370711Y0181192D01*
X0370747Y0181267D01*
X0370787Y0181341D01*
X0370830Y0181413D01*
X0370877Y0181482D01*
X0370927Y0181549D01*
X0370980Y0181614D01*
X0371036Y0181676D01*
X0371094Y0181736D01*
X0371156Y0181793D01*
X0371220Y0181846D01*
X0371287Y0181897D01*
X0371356Y0181944D01*
X0371427Y0181989D01*
X0371500Y0182029D01*
X0371575Y0182066D01*
X0371652Y0182100D01*
X0371730Y0182130D01*
X0371809Y0182156D01*
X0371890Y0182179D01*
X0371972Y0182197D01*
X0372054Y0182212D01*
X0372137Y0182223D01*
X0372220Y0182230D01*
X0372304Y0182233D01*
X0372388Y0182232D01*
X0372471Y0182227D01*
X0372555Y0182218D01*
X0372637Y0182205D01*
X0372719Y0182189D01*
X0372800Y0182168D01*
X0372881Y0182144D01*
X0372959Y0182116D01*
X0373037Y0182084D01*
X0373113Y0182048D01*
X0373187Y0182009D01*
X0373259Y0181967D01*
X0373329Y0181921D01*
X0373397Y0181872D01*
X0373462Y0181820D01*
X0373525Y0181765D01*
X0373585Y0181707D01*
X0373643Y0181646D01*
X0373697Y0181582D01*
X0373749Y0181516D01*
X0373797Y0181448D01*
X0373842Y0181377D01*
X0373883Y0181304D01*
X0373922Y0181230D01*
X0373956Y0181154D01*
X0373987Y0181076D01*
X0374014Y0180997D01*
X0374038Y0180916D01*
X0374057Y0180835D01*
X0374073Y0180753D01*
X0374085Y0180670D01*
X0374093Y0180586D01*
X0374097Y0180503D01*
X0374097Y0180419D01*
X0374093Y0180336D01*
X0374085Y0180252D01*
X0374073Y0180169D01*
X0374057Y0180087D01*
X0374038Y0180006D01*
X0374014Y0179925D01*
X0373987Y0179846D01*
X0373956Y0179768D01*
X0373922Y0179692D01*
X0373883Y0179618D01*
X0373842Y0179545D01*
X0373797Y0179474D01*
X0373749Y0179406D01*
X0373697Y0179340D01*
X0373643Y0179276D01*
X0373585Y0179215D01*
X0373525Y0179157D01*
X0373462Y0179102D01*
X0373397Y0179050D01*
X0373329Y0179001D01*
X0373259Y0178955D01*
X0373187Y0178913D01*
X0373113Y0178874D01*
X0373037Y0178838D01*
X0372959Y0178806D01*
X0372881Y0178778D01*
X0372800Y0178754D01*
X0372719Y0178733D01*
X0372637Y0178717D01*
X0372555Y0178704D01*
X0372471Y0178695D01*
X0372388Y0178690D01*
X0372304Y0178689D01*
X0372220Y0178692D01*
X0372137Y0178699D01*
X0372054Y0178710D01*
X0371972Y0178725D01*
X0371890Y0178743D01*
X0371809Y0178766D01*
X0371730Y0178792D01*
X0371652Y0178822D01*
X0371575Y0178856D01*
X0371500Y0178893D01*
X0371427Y0178933D01*
X0371356Y0178978D01*
X0371287Y0179025D01*
X0371220Y0179076D01*
X0371156Y0179129D01*
X0371094Y0179186D01*
X0371036Y0179246D01*
X0370980Y0179308D01*
X0370927Y0179373D01*
X0370877Y0179440D01*
X0370830Y0179509D01*
X0370787Y0179581D01*
X0370747Y0179655D01*
X0370711Y0179730D01*
X0370678Y0179807D01*
X0370649Y0179886D01*
X0370624Y0179965D01*
X0370602Y0180046D01*
X0370585Y0180128D01*
X0370571Y0180211D01*
X0370561Y0180294D01*
X0370555Y0180377D01*
X0370553Y0180461D01*
X0367679Y0208178D02*
X0367681Y0208314D01*
X0367687Y0208449D01*
X0367697Y0208585D01*
X0367711Y0208720D01*
X0367729Y0208854D01*
X0367750Y0208988D01*
X0367776Y0209122D01*
X0367805Y0209254D01*
X0367839Y0209386D01*
X0367876Y0209517D01*
X0367917Y0209646D01*
X0367962Y0209774D01*
X0368010Y0209901D01*
X0368062Y0210026D01*
X0368118Y0210150D01*
X0368178Y0210272D01*
X0368241Y0210392D01*
X0368307Y0210511D01*
X0368377Y0210627D01*
X0368450Y0210742D01*
X0368527Y0210854D01*
X0368607Y0210963D01*
X0368690Y0211071D01*
X0368776Y0211176D01*
X0368865Y0211278D01*
X0368957Y0211378D01*
X0369052Y0211475D01*
X0369150Y0211569D01*
X0369250Y0211661D01*
X0369353Y0211749D01*
X0369459Y0211834D01*
X0369567Y0211917D01*
X0369677Y0211996D01*
X0369790Y0212071D01*
X0369905Y0212144D01*
X0370022Y0212213D01*
X0370141Y0212278D01*
X0370261Y0212340D01*
X0370384Y0212399D01*
X0370508Y0212454D01*
X0370634Y0212505D01*
X0370761Y0212553D01*
X0370889Y0212597D01*
X0371019Y0212637D01*
X0371150Y0212673D01*
X0371282Y0212705D01*
X0371414Y0212734D01*
X0371548Y0212759D01*
X0371682Y0212779D01*
X0371817Y0212796D01*
X0371952Y0212809D01*
X0372087Y0212818D01*
X0372223Y0212823D01*
X0372359Y0212824D01*
X0372495Y0212821D01*
X0372630Y0212814D01*
X0372766Y0212803D01*
X0372901Y0212788D01*
X0373035Y0212769D01*
X0373169Y0212747D01*
X0373302Y0212720D01*
X0373434Y0212690D01*
X0373566Y0212655D01*
X0373696Y0212617D01*
X0373825Y0212575D01*
X0373953Y0212529D01*
X0374079Y0212480D01*
X0374204Y0212427D01*
X0374328Y0212370D01*
X0374449Y0212310D01*
X0374569Y0212246D01*
X0374687Y0212179D01*
X0374803Y0212108D01*
X0374917Y0212034D01*
X0375028Y0211957D01*
X0375138Y0211876D01*
X0375244Y0211792D01*
X0375349Y0211705D01*
X0375451Y0211615D01*
X0375550Y0211523D01*
X0375646Y0211427D01*
X0375740Y0211329D01*
X0375830Y0211227D01*
X0375918Y0211124D01*
X0376002Y0211018D01*
X0376084Y0210909D01*
X0376162Y0210798D01*
X0376237Y0210685D01*
X0376308Y0210569D01*
X0376377Y0210452D01*
X0376441Y0210332D01*
X0376502Y0210211D01*
X0376560Y0210088D01*
X0376614Y0209964D01*
X0376664Y0209838D01*
X0376711Y0209710D01*
X0376754Y0209581D01*
X0376793Y0209451D01*
X0376828Y0209320D01*
X0376860Y0209188D01*
X0376887Y0209055D01*
X0376911Y0208922D01*
X0376931Y0208787D01*
X0376947Y0208652D01*
X0376959Y0208517D01*
X0376967Y0208382D01*
X0376971Y0208246D01*
X0376971Y0208110D01*
X0376967Y0207974D01*
X0376959Y0207839D01*
X0376947Y0207704D01*
X0376931Y0207569D01*
X0376911Y0207434D01*
X0376887Y0207301D01*
X0376860Y0207168D01*
X0376828Y0207036D01*
X0376793Y0206905D01*
X0376754Y0206775D01*
X0376711Y0206646D01*
X0376664Y0206518D01*
X0376614Y0206392D01*
X0376560Y0206268D01*
X0376502Y0206145D01*
X0376441Y0206024D01*
X0376377Y0205904D01*
X0376308Y0205787D01*
X0376237Y0205671D01*
X0376162Y0205558D01*
X0376084Y0205447D01*
X0376002Y0205338D01*
X0375918Y0205232D01*
X0375830Y0205129D01*
X0375740Y0205027D01*
X0375646Y0204929D01*
X0375550Y0204833D01*
X0375451Y0204741D01*
X0375349Y0204651D01*
X0375244Y0204564D01*
X0375138Y0204480D01*
X0375028Y0204399D01*
X0374917Y0204322D01*
X0374803Y0204248D01*
X0374687Y0204177D01*
X0374569Y0204110D01*
X0374449Y0204046D01*
X0374328Y0203986D01*
X0374204Y0203929D01*
X0374079Y0203876D01*
X0373953Y0203827D01*
X0373825Y0203781D01*
X0373696Y0203739D01*
X0373566Y0203701D01*
X0373434Y0203666D01*
X0373302Y0203636D01*
X0373169Y0203609D01*
X0373035Y0203587D01*
X0372901Y0203568D01*
X0372766Y0203553D01*
X0372630Y0203542D01*
X0372495Y0203535D01*
X0372359Y0203532D01*
X0372223Y0203533D01*
X0372087Y0203538D01*
X0371952Y0203547D01*
X0371817Y0203560D01*
X0371682Y0203577D01*
X0371548Y0203597D01*
X0371414Y0203622D01*
X0371282Y0203651D01*
X0371150Y0203683D01*
X0371019Y0203719D01*
X0370889Y0203759D01*
X0370761Y0203803D01*
X0370634Y0203851D01*
X0370508Y0203902D01*
X0370384Y0203957D01*
X0370261Y0204016D01*
X0370141Y0204078D01*
X0370022Y0204143D01*
X0369905Y0204212D01*
X0369790Y0204285D01*
X0369677Y0204360D01*
X0369567Y0204439D01*
X0369459Y0204522D01*
X0369353Y0204607D01*
X0369250Y0204695D01*
X0369150Y0204787D01*
X0369052Y0204881D01*
X0368957Y0204978D01*
X0368865Y0205078D01*
X0368776Y0205180D01*
X0368690Y0205285D01*
X0368607Y0205393D01*
X0368527Y0205502D01*
X0368450Y0205614D01*
X0368377Y0205729D01*
X0368307Y0205845D01*
X0368241Y0205964D01*
X0368178Y0206084D01*
X0368118Y0206206D01*
X0368062Y0206330D01*
X0368010Y0206455D01*
X0367962Y0206582D01*
X0367917Y0206710D01*
X0367876Y0206839D01*
X0367839Y0206970D01*
X0367805Y0207102D01*
X0367776Y0207234D01*
X0367750Y0207368D01*
X0367729Y0207502D01*
X0367711Y0207636D01*
X0367697Y0207771D01*
X0367687Y0207907D01*
X0367681Y0208042D01*
X0367679Y0208178D01*
X0367679Y0255422D02*
X0367681Y0255558D01*
X0367687Y0255693D01*
X0367697Y0255829D01*
X0367711Y0255964D01*
X0367729Y0256098D01*
X0367750Y0256232D01*
X0367776Y0256366D01*
X0367805Y0256498D01*
X0367839Y0256630D01*
X0367876Y0256761D01*
X0367917Y0256890D01*
X0367962Y0257018D01*
X0368010Y0257145D01*
X0368062Y0257270D01*
X0368118Y0257394D01*
X0368178Y0257516D01*
X0368241Y0257636D01*
X0368307Y0257755D01*
X0368377Y0257871D01*
X0368450Y0257986D01*
X0368527Y0258098D01*
X0368607Y0258207D01*
X0368690Y0258315D01*
X0368776Y0258420D01*
X0368865Y0258522D01*
X0368957Y0258622D01*
X0369052Y0258719D01*
X0369150Y0258813D01*
X0369250Y0258905D01*
X0369353Y0258993D01*
X0369459Y0259078D01*
X0369567Y0259161D01*
X0369677Y0259240D01*
X0369790Y0259315D01*
X0369905Y0259388D01*
X0370022Y0259457D01*
X0370141Y0259522D01*
X0370261Y0259584D01*
X0370384Y0259643D01*
X0370508Y0259698D01*
X0370634Y0259749D01*
X0370761Y0259797D01*
X0370889Y0259841D01*
X0371019Y0259881D01*
X0371150Y0259917D01*
X0371282Y0259949D01*
X0371414Y0259978D01*
X0371548Y0260003D01*
X0371682Y0260023D01*
X0371817Y0260040D01*
X0371952Y0260053D01*
X0372087Y0260062D01*
X0372223Y0260067D01*
X0372359Y0260068D01*
X0372495Y0260065D01*
X0372630Y0260058D01*
X0372766Y0260047D01*
X0372901Y0260032D01*
X0373035Y0260013D01*
X0373169Y0259991D01*
X0373302Y0259964D01*
X0373434Y0259934D01*
X0373566Y0259899D01*
X0373696Y0259861D01*
X0373825Y0259819D01*
X0373953Y0259773D01*
X0374079Y0259724D01*
X0374204Y0259671D01*
X0374328Y0259614D01*
X0374449Y0259554D01*
X0374569Y0259490D01*
X0374687Y0259423D01*
X0374803Y0259352D01*
X0374917Y0259278D01*
X0375028Y0259201D01*
X0375138Y0259120D01*
X0375244Y0259036D01*
X0375349Y0258949D01*
X0375451Y0258859D01*
X0375550Y0258767D01*
X0375646Y0258671D01*
X0375740Y0258573D01*
X0375830Y0258471D01*
X0375918Y0258368D01*
X0376002Y0258262D01*
X0376084Y0258153D01*
X0376162Y0258042D01*
X0376237Y0257929D01*
X0376308Y0257813D01*
X0376377Y0257696D01*
X0376441Y0257576D01*
X0376502Y0257455D01*
X0376560Y0257332D01*
X0376614Y0257208D01*
X0376664Y0257082D01*
X0376711Y0256954D01*
X0376754Y0256825D01*
X0376793Y0256695D01*
X0376828Y0256564D01*
X0376860Y0256432D01*
X0376887Y0256299D01*
X0376911Y0256166D01*
X0376931Y0256031D01*
X0376947Y0255896D01*
X0376959Y0255761D01*
X0376967Y0255626D01*
X0376971Y0255490D01*
X0376971Y0255354D01*
X0376967Y0255218D01*
X0376959Y0255083D01*
X0376947Y0254948D01*
X0376931Y0254813D01*
X0376911Y0254678D01*
X0376887Y0254545D01*
X0376860Y0254412D01*
X0376828Y0254280D01*
X0376793Y0254149D01*
X0376754Y0254019D01*
X0376711Y0253890D01*
X0376664Y0253762D01*
X0376614Y0253636D01*
X0376560Y0253512D01*
X0376502Y0253389D01*
X0376441Y0253268D01*
X0376377Y0253148D01*
X0376308Y0253031D01*
X0376237Y0252915D01*
X0376162Y0252802D01*
X0376084Y0252691D01*
X0376002Y0252582D01*
X0375918Y0252476D01*
X0375830Y0252373D01*
X0375740Y0252271D01*
X0375646Y0252173D01*
X0375550Y0252077D01*
X0375451Y0251985D01*
X0375349Y0251895D01*
X0375244Y0251808D01*
X0375138Y0251724D01*
X0375028Y0251643D01*
X0374917Y0251566D01*
X0374803Y0251492D01*
X0374687Y0251421D01*
X0374569Y0251354D01*
X0374449Y0251290D01*
X0374328Y0251230D01*
X0374204Y0251173D01*
X0374079Y0251120D01*
X0373953Y0251071D01*
X0373825Y0251025D01*
X0373696Y0250983D01*
X0373566Y0250945D01*
X0373434Y0250910D01*
X0373302Y0250880D01*
X0373169Y0250853D01*
X0373035Y0250831D01*
X0372901Y0250812D01*
X0372766Y0250797D01*
X0372630Y0250786D01*
X0372495Y0250779D01*
X0372359Y0250776D01*
X0372223Y0250777D01*
X0372087Y0250782D01*
X0371952Y0250791D01*
X0371817Y0250804D01*
X0371682Y0250821D01*
X0371548Y0250841D01*
X0371414Y0250866D01*
X0371282Y0250895D01*
X0371150Y0250927D01*
X0371019Y0250963D01*
X0370889Y0251003D01*
X0370761Y0251047D01*
X0370634Y0251095D01*
X0370508Y0251146D01*
X0370384Y0251201D01*
X0370261Y0251260D01*
X0370141Y0251322D01*
X0370022Y0251387D01*
X0369905Y0251456D01*
X0369790Y0251529D01*
X0369677Y0251604D01*
X0369567Y0251683D01*
X0369459Y0251766D01*
X0369353Y0251851D01*
X0369250Y0251939D01*
X0369150Y0252031D01*
X0369052Y0252125D01*
X0368957Y0252222D01*
X0368865Y0252322D01*
X0368776Y0252424D01*
X0368690Y0252529D01*
X0368607Y0252637D01*
X0368527Y0252746D01*
X0368450Y0252858D01*
X0368377Y0252973D01*
X0368307Y0253089D01*
X0368241Y0253208D01*
X0368178Y0253328D01*
X0368118Y0253450D01*
X0368062Y0253574D01*
X0368010Y0253699D01*
X0367962Y0253826D01*
X0367917Y0253954D01*
X0367876Y0254083D01*
X0367839Y0254214D01*
X0367805Y0254346D01*
X0367776Y0254478D01*
X0367750Y0254612D01*
X0367729Y0254746D01*
X0367711Y0254880D01*
X0367697Y0255015D01*
X0367687Y0255151D01*
X0367681Y0255286D01*
X0367679Y0255422D01*
X0339058Y0272824D02*
X0339060Y0272982D01*
X0339066Y0273140D01*
X0339076Y0273298D01*
X0339090Y0273456D01*
X0339108Y0273613D01*
X0339129Y0273770D01*
X0339155Y0273926D01*
X0339185Y0274082D01*
X0339218Y0274237D01*
X0339256Y0274390D01*
X0339297Y0274543D01*
X0339342Y0274695D01*
X0339391Y0274846D01*
X0339444Y0274995D01*
X0339500Y0275143D01*
X0339560Y0275289D01*
X0339624Y0275434D01*
X0339692Y0275577D01*
X0339763Y0275719D01*
X0339837Y0275859D01*
X0339915Y0275996D01*
X0339997Y0276132D01*
X0340081Y0276266D01*
X0340170Y0276397D01*
X0340261Y0276526D01*
X0340356Y0276653D01*
X0340453Y0276778D01*
X0340554Y0276900D01*
X0340658Y0277019D01*
X0340765Y0277136D01*
X0340875Y0277250D01*
X0340988Y0277361D01*
X0341103Y0277470D01*
X0341221Y0277575D01*
X0341342Y0277677D01*
X0341465Y0277777D01*
X0341591Y0277873D01*
X0341719Y0277966D01*
X0341849Y0278056D01*
X0341982Y0278142D01*
X0342117Y0278226D01*
X0342253Y0278305D01*
X0342392Y0278382D01*
X0342533Y0278454D01*
X0342675Y0278524D01*
X0342819Y0278589D01*
X0342965Y0278651D01*
X0343112Y0278709D01*
X0343261Y0278764D01*
X0343411Y0278815D01*
X0343562Y0278862D01*
X0343714Y0278905D01*
X0343867Y0278944D01*
X0344022Y0278980D01*
X0344177Y0279011D01*
X0344333Y0279039D01*
X0344489Y0279063D01*
X0344646Y0279083D01*
X0344804Y0279099D01*
X0344961Y0279111D01*
X0345120Y0279119D01*
X0345278Y0279123D01*
X0345436Y0279123D01*
X0345594Y0279119D01*
X0345753Y0279111D01*
X0345910Y0279099D01*
X0346068Y0279083D01*
X0346225Y0279063D01*
X0346381Y0279039D01*
X0346537Y0279011D01*
X0346692Y0278980D01*
X0346847Y0278944D01*
X0347000Y0278905D01*
X0347152Y0278862D01*
X0347303Y0278815D01*
X0347453Y0278764D01*
X0347602Y0278709D01*
X0347749Y0278651D01*
X0347895Y0278589D01*
X0348039Y0278524D01*
X0348181Y0278454D01*
X0348322Y0278382D01*
X0348461Y0278305D01*
X0348597Y0278226D01*
X0348732Y0278142D01*
X0348865Y0278056D01*
X0348995Y0277966D01*
X0349123Y0277873D01*
X0349249Y0277777D01*
X0349372Y0277677D01*
X0349493Y0277575D01*
X0349611Y0277470D01*
X0349726Y0277361D01*
X0349839Y0277250D01*
X0349949Y0277136D01*
X0350056Y0277019D01*
X0350160Y0276900D01*
X0350261Y0276778D01*
X0350358Y0276653D01*
X0350453Y0276526D01*
X0350544Y0276397D01*
X0350633Y0276266D01*
X0350717Y0276132D01*
X0350799Y0275996D01*
X0350877Y0275859D01*
X0350951Y0275719D01*
X0351022Y0275577D01*
X0351090Y0275434D01*
X0351154Y0275289D01*
X0351214Y0275143D01*
X0351270Y0274995D01*
X0351323Y0274846D01*
X0351372Y0274695D01*
X0351417Y0274543D01*
X0351458Y0274390D01*
X0351496Y0274237D01*
X0351529Y0274082D01*
X0351559Y0273926D01*
X0351585Y0273770D01*
X0351606Y0273613D01*
X0351624Y0273456D01*
X0351638Y0273298D01*
X0351648Y0273140D01*
X0351654Y0272982D01*
X0351656Y0272824D01*
X0351654Y0272666D01*
X0351648Y0272508D01*
X0351638Y0272350D01*
X0351624Y0272192D01*
X0351606Y0272035D01*
X0351585Y0271878D01*
X0351559Y0271722D01*
X0351529Y0271566D01*
X0351496Y0271411D01*
X0351458Y0271258D01*
X0351417Y0271105D01*
X0351372Y0270953D01*
X0351323Y0270802D01*
X0351270Y0270653D01*
X0351214Y0270505D01*
X0351154Y0270359D01*
X0351090Y0270214D01*
X0351022Y0270071D01*
X0350951Y0269929D01*
X0350877Y0269789D01*
X0350799Y0269652D01*
X0350717Y0269516D01*
X0350633Y0269382D01*
X0350544Y0269251D01*
X0350453Y0269122D01*
X0350358Y0268995D01*
X0350261Y0268870D01*
X0350160Y0268748D01*
X0350056Y0268629D01*
X0349949Y0268512D01*
X0349839Y0268398D01*
X0349726Y0268287D01*
X0349611Y0268178D01*
X0349493Y0268073D01*
X0349372Y0267971D01*
X0349249Y0267871D01*
X0349123Y0267775D01*
X0348995Y0267682D01*
X0348865Y0267592D01*
X0348732Y0267506D01*
X0348597Y0267422D01*
X0348461Y0267343D01*
X0348322Y0267266D01*
X0348181Y0267194D01*
X0348039Y0267124D01*
X0347895Y0267059D01*
X0347749Y0266997D01*
X0347602Y0266939D01*
X0347453Y0266884D01*
X0347303Y0266833D01*
X0347152Y0266786D01*
X0347000Y0266743D01*
X0346847Y0266704D01*
X0346692Y0266668D01*
X0346537Y0266637D01*
X0346381Y0266609D01*
X0346225Y0266585D01*
X0346068Y0266565D01*
X0345910Y0266549D01*
X0345753Y0266537D01*
X0345594Y0266529D01*
X0345436Y0266525D01*
X0345278Y0266525D01*
X0345120Y0266529D01*
X0344961Y0266537D01*
X0344804Y0266549D01*
X0344646Y0266565D01*
X0344489Y0266585D01*
X0344333Y0266609D01*
X0344177Y0266637D01*
X0344022Y0266668D01*
X0343867Y0266704D01*
X0343714Y0266743D01*
X0343562Y0266786D01*
X0343411Y0266833D01*
X0343261Y0266884D01*
X0343112Y0266939D01*
X0342965Y0266997D01*
X0342819Y0267059D01*
X0342675Y0267124D01*
X0342533Y0267194D01*
X0342392Y0267266D01*
X0342253Y0267343D01*
X0342117Y0267422D01*
X0341982Y0267506D01*
X0341849Y0267592D01*
X0341719Y0267682D01*
X0341591Y0267775D01*
X0341465Y0267871D01*
X0341342Y0267971D01*
X0341221Y0268073D01*
X0341103Y0268178D01*
X0340988Y0268287D01*
X0340875Y0268398D01*
X0340765Y0268512D01*
X0340658Y0268629D01*
X0340554Y0268748D01*
X0340453Y0268870D01*
X0340356Y0268995D01*
X0340261Y0269122D01*
X0340170Y0269251D01*
X0340081Y0269382D01*
X0339997Y0269516D01*
X0339915Y0269652D01*
X0339837Y0269789D01*
X0339763Y0269929D01*
X0339692Y0270071D01*
X0339624Y0270214D01*
X0339560Y0270359D01*
X0339500Y0270505D01*
X0339444Y0270653D01*
X0339391Y0270802D01*
X0339342Y0270953D01*
X0339297Y0271105D01*
X0339256Y0271258D01*
X0339218Y0271411D01*
X0339185Y0271566D01*
X0339155Y0271722D01*
X0339129Y0271878D01*
X0339108Y0272035D01*
X0339090Y0272192D01*
X0339076Y0272350D01*
X0339066Y0272508D01*
X0339060Y0272666D01*
X0339058Y0272824D01*
X0371026Y0276800D02*
X0371028Y0276958D01*
X0371034Y0277116D01*
X0371044Y0277274D01*
X0371058Y0277432D01*
X0371076Y0277589D01*
X0371097Y0277746D01*
X0371123Y0277902D01*
X0371153Y0278058D01*
X0371186Y0278213D01*
X0371224Y0278366D01*
X0371265Y0278519D01*
X0371310Y0278671D01*
X0371359Y0278822D01*
X0371412Y0278971D01*
X0371468Y0279119D01*
X0371528Y0279265D01*
X0371592Y0279410D01*
X0371660Y0279553D01*
X0371731Y0279695D01*
X0371805Y0279835D01*
X0371883Y0279972D01*
X0371965Y0280108D01*
X0372049Y0280242D01*
X0372138Y0280373D01*
X0372229Y0280502D01*
X0372324Y0280629D01*
X0372421Y0280754D01*
X0372522Y0280876D01*
X0372626Y0280995D01*
X0372733Y0281112D01*
X0372843Y0281226D01*
X0372956Y0281337D01*
X0373071Y0281446D01*
X0373189Y0281551D01*
X0373310Y0281653D01*
X0373433Y0281753D01*
X0373559Y0281849D01*
X0373687Y0281942D01*
X0373817Y0282032D01*
X0373950Y0282118D01*
X0374085Y0282202D01*
X0374221Y0282281D01*
X0374360Y0282358D01*
X0374501Y0282430D01*
X0374643Y0282500D01*
X0374787Y0282565D01*
X0374933Y0282627D01*
X0375080Y0282685D01*
X0375229Y0282740D01*
X0375379Y0282791D01*
X0375530Y0282838D01*
X0375682Y0282881D01*
X0375835Y0282920D01*
X0375990Y0282956D01*
X0376145Y0282987D01*
X0376301Y0283015D01*
X0376457Y0283039D01*
X0376614Y0283059D01*
X0376772Y0283075D01*
X0376929Y0283087D01*
X0377088Y0283095D01*
X0377246Y0283099D01*
X0377404Y0283099D01*
X0377562Y0283095D01*
X0377721Y0283087D01*
X0377878Y0283075D01*
X0378036Y0283059D01*
X0378193Y0283039D01*
X0378349Y0283015D01*
X0378505Y0282987D01*
X0378660Y0282956D01*
X0378815Y0282920D01*
X0378968Y0282881D01*
X0379120Y0282838D01*
X0379271Y0282791D01*
X0379421Y0282740D01*
X0379570Y0282685D01*
X0379717Y0282627D01*
X0379863Y0282565D01*
X0380007Y0282500D01*
X0380149Y0282430D01*
X0380290Y0282358D01*
X0380429Y0282281D01*
X0380565Y0282202D01*
X0380700Y0282118D01*
X0380833Y0282032D01*
X0380963Y0281942D01*
X0381091Y0281849D01*
X0381217Y0281753D01*
X0381340Y0281653D01*
X0381461Y0281551D01*
X0381579Y0281446D01*
X0381694Y0281337D01*
X0381807Y0281226D01*
X0381917Y0281112D01*
X0382024Y0280995D01*
X0382128Y0280876D01*
X0382229Y0280754D01*
X0382326Y0280629D01*
X0382421Y0280502D01*
X0382512Y0280373D01*
X0382601Y0280242D01*
X0382685Y0280108D01*
X0382767Y0279972D01*
X0382845Y0279835D01*
X0382919Y0279695D01*
X0382990Y0279553D01*
X0383058Y0279410D01*
X0383122Y0279265D01*
X0383182Y0279119D01*
X0383238Y0278971D01*
X0383291Y0278822D01*
X0383340Y0278671D01*
X0383385Y0278519D01*
X0383426Y0278366D01*
X0383464Y0278213D01*
X0383497Y0278058D01*
X0383527Y0277902D01*
X0383553Y0277746D01*
X0383574Y0277589D01*
X0383592Y0277432D01*
X0383606Y0277274D01*
X0383616Y0277116D01*
X0383622Y0276958D01*
X0383624Y0276800D01*
X0383622Y0276642D01*
X0383616Y0276484D01*
X0383606Y0276326D01*
X0383592Y0276168D01*
X0383574Y0276011D01*
X0383553Y0275854D01*
X0383527Y0275698D01*
X0383497Y0275542D01*
X0383464Y0275387D01*
X0383426Y0275234D01*
X0383385Y0275081D01*
X0383340Y0274929D01*
X0383291Y0274778D01*
X0383238Y0274629D01*
X0383182Y0274481D01*
X0383122Y0274335D01*
X0383058Y0274190D01*
X0382990Y0274047D01*
X0382919Y0273905D01*
X0382845Y0273765D01*
X0382767Y0273628D01*
X0382685Y0273492D01*
X0382601Y0273358D01*
X0382512Y0273227D01*
X0382421Y0273098D01*
X0382326Y0272971D01*
X0382229Y0272846D01*
X0382128Y0272724D01*
X0382024Y0272605D01*
X0381917Y0272488D01*
X0381807Y0272374D01*
X0381694Y0272263D01*
X0381579Y0272154D01*
X0381461Y0272049D01*
X0381340Y0271947D01*
X0381217Y0271847D01*
X0381091Y0271751D01*
X0380963Y0271658D01*
X0380833Y0271568D01*
X0380700Y0271482D01*
X0380565Y0271398D01*
X0380429Y0271319D01*
X0380290Y0271242D01*
X0380149Y0271170D01*
X0380007Y0271100D01*
X0379863Y0271035D01*
X0379717Y0270973D01*
X0379570Y0270915D01*
X0379421Y0270860D01*
X0379271Y0270809D01*
X0379120Y0270762D01*
X0378968Y0270719D01*
X0378815Y0270680D01*
X0378660Y0270644D01*
X0378505Y0270613D01*
X0378349Y0270585D01*
X0378193Y0270561D01*
X0378036Y0270541D01*
X0377878Y0270525D01*
X0377721Y0270513D01*
X0377562Y0270505D01*
X0377404Y0270501D01*
X0377246Y0270501D01*
X0377088Y0270505D01*
X0376929Y0270513D01*
X0376772Y0270525D01*
X0376614Y0270541D01*
X0376457Y0270561D01*
X0376301Y0270585D01*
X0376145Y0270613D01*
X0375990Y0270644D01*
X0375835Y0270680D01*
X0375682Y0270719D01*
X0375530Y0270762D01*
X0375379Y0270809D01*
X0375229Y0270860D01*
X0375080Y0270915D01*
X0374933Y0270973D01*
X0374787Y0271035D01*
X0374643Y0271100D01*
X0374501Y0271170D01*
X0374360Y0271242D01*
X0374221Y0271319D01*
X0374085Y0271398D01*
X0373950Y0271482D01*
X0373817Y0271568D01*
X0373687Y0271658D01*
X0373559Y0271751D01*
X0373433Y0271847D01*
X0373310Y0271947D01*
X0373189Y0272049D01*
X0373071Y0272154D01*
X0372956Y0272263D01*
X0372843Y0272374D01*
X0372733Y0272488D01*
X0372626Y0272605D01*
X0372522Y0272724D01*
X0372421Y0272846D01*
X0372324Y0272971D01*
X0372229Y0273098D01*
X0372138Y0273227D01*
X0372049Y0273358D01*
X0371965Y0273492D01*
X0371883Y0273628D01*
X0371805Y0273765D01*
X0371731Y0273905D01*
X0371660Y0274047D01*
X0371592Y0274190D01*
X0371528Y0274335D01*
X0371468Y0274481D01*
X0371412Y0274629D01*
X0371359Y0274778D01*
X0371310Y0274929D01*
X0371265Y0275081D01*
X0371224Y0275234D01*
X0371186Y0275387D01*
X0371153Y0275542D01*
X0371123Y0275698D01*
X0371097Y0275854D01*
X0371076Y0276011D01*
X0371058Y0276168D01*
X0371044Y0276326D01*
X0371034Y0276484D01*
X0371028Y0276642D01*
X0371026Y0276800D01*
X0371026Y0016800D02*
X0371028Y0016958D01*
X0371034Y0017116D01*
X0371044Y0017274D01*
X0371058Y0017432D01*
X0371076Y0017589D01*
X0371097Y0017746D01*
X0371123Y0017902D01*
X0371153Y0018058D01*
X0371186Y0018213D01*
X0371224Y0018366D01*
X0371265Y0018519D01*
X0371310Y0018671D01*
X0371359Y0018822D01*
X0371412Y0018971D01*
X0371468Y0019119D01*
X0371528Y0019265D01*
X0371592Y0019410D01*
X0371660Y0019553D01*
X0371731Y0019695D01*
X0371805Y0019835D01*
X0371883Y0019972D01*
X0371965Y0020108D01*
X0372049Y0020242D01*
X0372138Y0020373D01*
X0372229Y0020502D01*
X0372324Y0020629D01*
X0372421Y0020754D01*
X0372522Y0020876D01*
X0372626Y0020995D01*
X0372733Y0021112D01*
X0372843Y0021226D01*
X0372956Y0021337D01*
X0373071Y0021446D01*
X0373189Y0021551D01*
X0373310Y0021653D01*
X0373433Y0021753D01*
X0373559Y0021849D01*
X0373687Y0021942D01*
X0373817Y0022032D01*
X0373950Y0022118D01*
X0374085Y0022202D01*
X0374221Y0022281D01*
X0374360Y0022358D01*
X0374501Y0022430D01*
X0374643Y0022500D01*
X0374787Y0022565D01*
X0374933Y0022627D01*
X0375080Y0022685D01*
X0375229Y0022740D01*
X0375379Y0022791D01*
X0375530Y0022838D01*
X0375682Y0022881D01*
X0375835Y0022920D01*
X0375990Y0022956D01*
X0376145Y0022987D01*
X0376301Y0023015D01*
X0376457Y0023039D01*
X0376614Y0023059D01*
X0376772Y0023075D01*
X0376929Y0023087D01*
X0377088Y0023095D01*
X0377246Y0023099D01*
X0377404Y0023099D01*
X0377562Y0023095D01*
X0377721Y0023087D01*
X0377878Y0023075D01*
X0378036Y0023059D01*
X0378193Y0023039D01*
X0378349Y0023015D01*
X0378505Y0022987D01*
X0378660Y0022956D01*
X0378815Y0022920D01*
X0378968Y0022881D01*
X0379120Y0022838D01*
X0379271Y0022791D01*
X0379421Y0022740D01*
X0379570Y0022685D01*
X0379717Y0022627D01*
X0379863Y0022565D01*
X0380007Y0022500D01*
X0380149Y0022430D01*
X0380290Y0022358D01*
X0380429Y0022281D01*
X0380565Y0022202D01*
X0380700Y0022118D01*
X0380833Y0022032D01*
X0380963Y0021942D01*
X0381091Y0021849D01*
X0381217Y0021753D01*
X0381340Y0021653D01*
X0381461Y0021551D01*
X0381579Y0021446D01*
X0381694Y0021337D01*
X0381807Y0021226D01*
X0381917Y0021112D01*
X0382024Y0020995D01*
X0382128Y0020876D01*
X0382229Y0020754D01*
X0382326Y0020629D01*
X0382421Y0020502D01*
X0382512Y0020373D01*
X0382601Y0020242D01*
X0382685Y0020108D01*
X0382767Y0019972D01*
X0382845Y0019835D01*
X0382919Y0019695D01*
X0382990Y0019553D01*
X0383058Y0019410D01*
X0383122Y0019265D01*
X0383182Y0019119D01*
X0383238Y0018971D01*
X0383291Y0018822D01*
X0383340Y0018671D01*
X0383385Y0018519D01*
X0383426Y0018366D01*
X0383464Y0018213D01*
X0383497Y0018058D01*
X0383527Y0017902D01*
X0383553Y0017746D01*
X0383574Y0017589D01*
X0383592Y0017432D01*
X0383606Y0017274D01*
X0383616Y0017116D01*
X0383622Y0016958D01*
X0383624Y0016800D01*
X0383622Y0016642D01*
X0383616Y0016484D01*
X0383606Y0016326D01*
X0383592Y0016168D01*
X0383574Y0016011D01*
X0383553Y0015854D01*
X0383527Y0015698D01*
X0383497Y0015542D01*
X0383464Y0015387D01*
X0383426Y0015234D01*
X0383385Y0015081D01*
X0383340Y0014929D01*
X0383291Y0014778D01*
X0383238Y0014629D01*
X0383182Y0014481D01*
X0383122Y0014335D01*
X0383058Y0014190D01*
X0382990Y0014047D01*
X0382919Y0013905D01*
X0382845Y0013765D01*
X0382767Y0013628D01*
X0382685Y0013492D01*
X0382601Y0013358D01*
X0382512Y0013227D01*
X0382421Y0013098D01*
X0382326Y0012971D01*
X0382229Y0012846D01*
X0382128Y0012724D01*
X0382024Y0012605D01*
X0381917Y0012488D01*
X0381807Y0012374D01*
X0381694Y0012263D01*
X0381579Y0012154D01*
X0381461Y0012049D01*
X0381340Y0011947D01*
X0381217Y0011847D01*
X0381091Y0011751D01*
X0380963Y0011658D01*
X0380833Y0011568D01*
X0380700Y0011482D01*
X0380565Y0011398D01*
X0380429Y0011319D01*
X0380290Y0011242D01*
X0380149Y0011170D01*
X0380007Y0011100D01*
X0379863Y0011035D01*
X0379717Y0010973D01*
X0379570Y0010915D01*
X0379421Y0010860D01*
X0379271Y0010809D01*
X0379120Y0010762D01*
X0378968Y0010719D01*
X0378815Y0010680D01*
X0378660Y0010644D01*
X0378505Y0010613D01*
X0378349Y0010585D01*
X0378193Y0010561D01*
X0378036Y0010541D01*
X0377878Y0010525D01*
X0377721Y0010513D01*
X0377562Y0010505D01*
X0377404Y0010501D01*
X0377246Y0010501D01*
X0377088Y0010505D01*
X0376929Y0010513D01*
X0376772Y0010525D01*
X0376614Y0010541D01*
X0376457Y0010561D01*
X0376301Y0010585D01*
X0376145Y0010613D01*
X0375990Y0010644D01*
X0375835Y0010680D01*
X0375682Y0010719D01*
X0375530Y0010762D01*
X0375379Y0010809D01*
X0375229Y0010860D01*
X0375080Y0010915D01*
X0374933Y0010973D01*
X0374787Y0011035D01*
X0374643Y0011100D01*
X0374501Y0011170D01*
X0374360Y0011242D01*
X0374221Y0011319D01*
X0374085Y0011398D01*
X0373950Y0011482D01*
X0373817Y0011568D01*
X0373687Y0011658D01*
X0373559Y0011751D01*
X0373433Y0011847D01*
X0373310Y0011947D01*
X0373189Y0012049D01*
X0373071Y0012154D01*
X0372956Y0012263D01*
X0372843Y0012374D01*
X0372733Y0012488D01*
X0372626Y0012605D01*
X0372522Y0012724D01*
X0372421Y0012846D01*
X0372324Y0012971D01*
X0372229Y0013098D01*
X0372138Y0013227D01*
X0372049Y0013358D01*
X0371965Y0013492D01*
X0371883Y0013628D01*
X0371805Y0013765D01*
X0371731Y0013905D01*
X0371660Y0014047D01*
X0371592Y0014190D01*
X0371528Y0014335D01*
X0371468Y0014481D01*
X0371412Y0014629D01*
X0371359Y0014778D01*
X0371310Y0014929D01*
X0371265Y0015081D01*
X0371224Y0015234D01*
X0371186Y0015387D01*
X0371153Y0015542D01*
X0371123Y0015698D01*
X0371097Y0015854D01*
X0371076Y0016011D01*
X0371058Y0016168D01*
X0371044Y0016326D01*
X0371034Y0016484D01*
X0371028Y0016642D01*
X0371026Y0016800D01*
M02*
