%
M48
M72
T01C0.01200
T02C0.01378
T03C0.01969
T04C0.02362
T05C0.02756
T06C0.03150
T07C0.03200
T08C0.03500
T09C0.03543
T10C0.03600
T11C0.03937
T12C0.04000
T13C0.04724
T14C0.09291
T15C0.11024
T16C0.12598
%
T01
X85975Y126800
X129825Y134300
X127325Y161800
X134825Y166250
X122325Y179300
X114825Y166250
X108925Y163000
X89825Y166125
X86650Y188150
X117375Y195500
X136575Y211300
X141775Y214300
X154925Y209300
X158725Y204950
X188565Y214398
X199825Y184300
X180825Y169050
X219825Y131800
X219825Y127900
X219825Y124000
X242275Y124000
X242275Y127900
X242275Y131800
X349825Y161800
X297325Y241800
X140875Y232550
X85975Y215450
X67325Y224300
T02
X52325Y186800
X45748Y185223
X104565Y138050
X111326Y141454
X129825Y143050
X137898Y139300
X140487Y122579
X147325Y106800
X117325Y121800
X109825Y121800
X87325Y121800
X112325Y96800
X102325Y91800
X104825Y69300
X129825Y34300
X235298Y91251
X237325Y94300
X237325Y99300
X259825Y89300
X294825Y99300
X294825Y106800
X219825Y136800
X214825Y194300
X214825Y223727
X129825Y229300
T03
X149825Y154300
T04
X187325Y234300
X307325Y194300
T05
X277950Y218050
X282325Y249300
X289825Y276800
X312325Y276800
X239825Y261800
X256065Y173517
X257325Y151800
X322325Y109300
X257325Y57861
X257325Y52237
X257325Y46613
X257325Y40989
X79825Y176800
T06
X43880Y126800
X33880Y122863
X33880Y114831
X43880Y118769
X43880Y110737
X33880Y106800
X43880Y68050
X33880Y64113
X33880Y56081
X43880Y60019
X43880Y51987
X33880Y48050
X33546Y234300
X22325Y244300
X33546Y254300
X330750Y93552
X361065Y91387
X374057Y109300
X348861Y119733
X343349Y129182
X353270Y221800
X363270Y225737
X353270Y229831
X363270Y233769
X353270Y237863
X363270Y241800
T07
X179825Y136800
X169825Y136800
X169825Y124300
X179825Y124300
T08
X124825Y154300
X104825Y150300
X104825Y158300
T09
X372325Y163139
X372325Y180461
T10
X297325Y151800
X287325Y151800
X262325Y266800
X252325Y266800
X37325Y211800
X27325Y211800
X27325Y201800
X37325Y201800
X37325Y191800
X27325Y191800
X289825Y29300
X289825Y19300
T11
X122325Y41300
X122325Y49300
X122325Y57300
T12
X121341Y272824
X111341Y272824
X101341Y272824
X91341Y272824
X81341Y272824
X71341Y272824
X131341Y272824
X141341Y272824
X151341Y272824
X161341Y272824
X171341Y272824
X181341Y272824
X191341Y272824
X201341Y272824
X211341Y272824
X221341Y272824
T13
X307325Y61643
X307325Y51800
X307325Y41957
X364412Y41957
X364412Y61643
T14
X372325Y208178
X372325Y255422
X24825Y140422
X24825Y93178
X24825Y81672
X24825Y34428
T15
X336853Y27194
X336853Y76406
T16
X17325Y16800
X49294Y150776
X49294Y272824
X17325Y276800
X345357Y272824
X377325Y276800
X345357Y150776
X377325Y16800
M30
