G75*
%MOIN*%
%OFA0B0*%
%FSLAX25Y25*%
%IPPOS*%
%LPD*%
%AMOC8*
5,1,8,0,0,1.08239X$1,22.5*
%
%ADD10C,0.12998*%
%ADD11C,0.03900*%
%ADD12C,0.03943*%
%ADD13R,0.15424X0.15424*%
%ADD14R,0.07487X0.07487*%
%ADD15C,0.04534*%
%ADD16R,0.06400X0.06400*%
%ADD17C,0.06400*%
%ADD18C,0.05518*%
%ADD19C,0.09691*%
%ADD20C,0.07800*%
%ADD21R,0.06306X0.06306*%
%ADD22OC8,0.05200*%
%ADD23C,0.05800*%
%ADD24OC8,0.05800*%
%ADD25C,0.05124*%
%ADD26C,0.05800*%
%ADD27C,0.05124*%
%ADD28R,0.04534X0.04534*%
D10*
X0017325Y0016800D03*
X0049294Y0150776D03*
X0049294Y0272824D03*
X0017325Y0276800D03*
X0345357Y0272824D03*
X0377325Y0276800D03*
X0345357Y0150776D03*
X0377325Y0016800D03*
D11*
X0124825Y0154300D03*
X0104825Y0150300D03*
X0104825Y0158300D03*
D12*
X0372325Y0163139D03*
X0372325Y0180461D03*
D13*
X0336853Y0076406D03*
X0336853Y0027194D03*
D14*
X0364412Y0041957D03*
X0364412Y0061643D03*
X0307325Y0061643D03*
X0307325Y0051800D03*
X0307325Y0041957D03*
D15*
X0259392Y0040989D02*
X0255258Y0040989D01*
X0255258Y0046613D02*
X0259392Y0046613D01*
X0259392Y0052237D02*
X0255258Y0052237D01*
X0255258Y0057861D02*
X0259392Y0057861D01*
D16*
X0071341Y0272824D03*
D17*
X0081341Y0272824D03*
X0091341Y0272824D03*
X0101341Y0272824D03*
X0111341Y0272824D03*
X0121341Y0272824D03*
X0131341Y0272824D03*
X0141341Y0272824D03*
X0151341Y0272824D03*
X0161341Y0272824D03*
X0171341Y0272824D03*
X0181341Y0272824D03*
X0191341Y0272824D03*
X0201341Y0272824D03*
X0211341Y0272824D03*
X0221341Y0272824D03*
D18*
X0353270Y0237863D03*
X0363270Y0241800D03*
X0363270Y0233769D03*
X0353270Y0229831D03*
X0363270Y0225737D03*
X0353270Y0221800D03*
X0043880Y0126800D03*
X0033880Y0122863D03*
X0033880Y0114831D03*
X0043880Y0118769D03*
X0043880Y0110737D03*
X0033880Y0106800D03*
X0043880Y0068050D03*
X0033880Y0064113D03*
X0033880Y0056081D03*
X0043880Y0060019D03*
X0043880Y0051987D03*
X0033880Y0048050D03*
D19*
X0024825Y0034428D03*
X0024825Y0081672D03*
X0024825Y0093178D03*
X0024825Y0140422D03*
X0372325Y0208178D03*
X0372325Y0255422D03*
D20*
X0179825Y0136800D03*
X0169825Y0136800D03*
D21*
X0122325Y0057300D03*
X0122325Y0049300D03*
X0122325Y0041300D03*
D22*
X0169825Y0124300D03*
X0179825Y0124300D03*
D23*
X0027325Y0191800D03*
D24*
X0037325Y0191800D03*
X0037325Y0201800D03*
X0027325Y0201800D03*
X0027325Y0211800D03*
X0037325Y0211800D03*
D25*
X0033546Y0234300D03*
X0022325Y0244300D03*
X0033546Y0254300D03*
D26*
X0252325Y0264100D02*
X0252325Y0269500D01*
X0262325Y0269500D02*
X0262325Y0264100D01*
X0287325Y0154500D02*
X0287325Y0149100D01*
X0297325Y0149100D02*
X0297325Y0154500D01*
X0292525Y0029300D02*
X0287125Y0029300D01*
X0287125Y0019300D02*
X0292525Y0019300D01*
D27*
X0330750Y0091190D02*
X0330750Y0095914D01*
X0358703Y0091387D02*
X0363428Y0091387D01*
X0374057Y0106938D02*
X0374057Y0111662D01*
X0351223Y0119733D02*
X0346498Y0119733D01*
X0345711Y0129182D02*
X0340987Y0129182D01*
D28*
X0322325Y0109300D03*
X0257325Y0151800D03*
X0256065Y0173517D03*
X0277950Y0218050D03*
X0282325Y0249300D03*
X0289825Y0276800D03*
X0312325Y0276800D03*
X0239825Y0261800D03*
X0079825Y0176800D03*
M02*
