G75*
%MOIN*%
%OFA0B0*%
%FSLAX25Y25*%
%IPPOS*%
%LPD*%
%AMOC8*
5,1,8,0,0,1.08239X$1,22.5*
%
%ADD10C,0.00600*%
%ADD11C,0.00400*%
%ADD12C,0.00300*%
%ADD13C,0.00800*%
%ADD14C,0.01000*%
%ADD15C,0.00500*%
%ADD16R,0.00591X0.01181*%
%ADD17R,0.01181X0.01181*%
%ADD18C,0.00200*%
%ADD19C,0.00100*%
%ADD20R,0.05000X0.30000*%
%ADD21R,0.01000X0.02000*%
%ADD22R,0.00500X0.01500*%
%ADD23R,0.01000X0.01000*%
%ADD24C,0.01575*%
D10*
X0030444Y0008168D02*
X0031512Y0007100D01*
X0033647Y0007100D01*
X0034715Y0008168D01*
X0030444Y0012438D01*
X0030444Y0008168D01*
X0034715Y0008168D02*
X0034715Y0012438D01*
X0033647Y0013505D01*
X0031512Y0013505D01*
X0030444Y0012438D01*
X0036870Y0008168D02*
X0036870Y0007100D01*
X0037938Y0007100D01*
X0037938Y0008168D01*
X0036870Y0008168D01*
X0040113Y0008168D02*
X0041180Y0007100D01*
X0043315Y0007100D01*
X0044383Y0008168D01*
X0040113Y0012438D01*
X0040113Y0008168D01*
X0044383Y0008168D02*
X0044383Y0012438D01*
X0043315Y0013505D01*
X0041180Y0013505D01*
X0040113Y0012438D01*
X0046538Y0008168D02*
X0046538Y0007100D01*
X0047606Y0007100D01*
X0047606Y0008168D01*
X0046538Y0008168D01*
X0049781Y0007100D02*
X0054051Y0007100D01*
X0051916Y0007100D02*
X0051916Y0013505D01*
X0054051Y0011370D01*
X0056226Y0011370D02*
X0058362Y0007100D01*
X0060497Y0011370D01*
X0069117Y0012438D02*
X0069117Y0008168D01*
X0070185Y0007100D01*
X0072320Y0007100D01*
X0073388Y0008168D01*
X0073388Y0012438D01*
X0072320Y0013505D01*
X0070185Y0013505D01*
X0069117Y0012438D01*
X0075563Y0012438D02*
X0075563Y0010303D01*
X0076631Y0009235D01*
X0079833Y0009235D01*
X0077698Y0009235D02*
X0075563Y0007100D01*
X0079833Y0007100D02*
X0079833Y0013505D01*
X0076631Y0013505D01*
X0075563Y0012438D01*
X0082008Y0012438D02*
X0082008Y0010303D01*
X0083076Y0009235D01*
X0086279Y0009235D01*
X0086279Y0007100D02*
X0086279Y0013505D01*
X0083076Y0013505D01*
X0082008Y0012438D01*
X0094893Y0011370D02*
X0095960Y0011370D01*
X0098096Y0009235D01*
X0098096Y0007100D02*
X0098096Y0011370D01*
X0100271Y0010303D02*
X0100271Y0009235D01*
X0104541Y0009235D01*
X0104541Y0008168D02*
X0104541Y0010303D01*
X0103473Y0011370D01*
X0101338Y0011370D01*
X0100271Y0010303D01*
X0101338Y0007100D02*
X0103473Y0007100D01*
X0104541Y0008168D01*
X0106703Y0007100D02*
X0107770Y0008168D01*
X0107770Y0012438D01*
X0106703Y0011370D02*
X0108838Y0011370D01*
X0111013Y0010303D02*
X0111013Y0009235D01*
X0115284Y0009235D01*
X0115284Y0008168D02*
X0115284Y0010303D01*
X0114216Y0011370D01*
X0112081Y0011370D01*
X0111013Y0010303D01*
X0112081Y0007100D02*
X0114216Y0007100D01*
X0115284Y0008168D01*
X0117459Y0007100D02*
X0117459Y0010303D01*
X0118526Y0011370D01*
X0119594Y0010303D01*
X0119594Y0007100D01*
X0121729Y0007100D02*
X0121729Y0011370D01*
X0120661Y0011370D01*
X0119594Y0010303D01*
X0123904Y0010303D02*
X0123904Y0008168D01*
X0124972Y0007100D01*
X0127107Y0007100D01*
X0128174Y0008168D01*
X0128174Y0010303D01*
X0127107Y0011370D01*
X0124972Y0011370D01*
X0123904Y0010303D01*
X0130336Y0011370D02*
X0132471Y0011370D01*
X0131404Y0012438D02*
X0131404Y0008168D01*
X0130336Y0007100D01*
X0134647Y0008168D02*
X0134647Y0010303D01*
X0135714Y0011370D01*
X0137849Y0011370D01*
X0138917Y0010303D01*
X0138917Y0008168D01*
X0137849Y0007100D01*
X0135714Y0007100D01*
X0134647Y0008168D01*
X0141092Y0007100D02*
X0141092Y0010303D01*
X0142160Y0011370D01*
X0144295Y0011370D01*
X0145362Y0010303D01*
X0147538Y0010303D02*
X0147538Y0008168D01*
X0148605Y0007100D01*
X0151808Y0007100D01*
X0151808Y0004965D02*
X0151808Y0011370D01*
X0148605Y0011370D01*
X0147538Y0010303D01*
X0145362Y0013505D02*
X0145362Y0007100D01*
X0153983Y0008168D02*
X0153983Y0010303D01*
X0155051Y0011370D01*
X0157186Y0011370D01*
X0158253Y0010303D01*
X0158253Y0008168D01*
X0157186Y0007100D01*
X0155051Y0007100D01*
X0153983Y0008168D01*
X0160422Y0011370D02*
X0161490Y0011370D01*
X0163625Y0009235D01*
X0163625Y0007100D02*
X0163625Y0011370D01*
X0165787Y0011370D02*
X0167922Y0011370D01*
X0166854Y0012438D02*
X0166854Y0008168D01*
X0165787Y0007100D01*
X0170097Y0007100D02*
X0173300Y0007100D01*
X0174367Y0008168D01*
X0174367Y0010303D01*
X0173300Y0011370D01*
X0170097Y0011370D01*
X0176542Y0010303D02*
X0176542Y0009235D01*
X0180813Y0009235D01*
X0180813Y0008168D02*
X0180813Y0010303D01*
X0179745Y0011370D01*
X0177610Y0011370D01*
X0176542Y0010303D01*
X0177610Y0007100D02*
X0179745Y0007100D01*
X0180813Y0008168D01*
X0182988Y0008168D02*
X0184055Y0007100D01*
X0187258Y0007100D01*
X0187258Y0004965D02*
X0187258Y0011370D01*
X0184055Y0011370D01*
X0182988Y0010303D01*
X0182988Y0008168D01*
X0189433Y0008168D02*
X0190501Y0009235D01*
X0192636Y0009235D01*
X0193704Y0010303D01*
X0192636Y0011370D01*
X0189433Y0011370D01*
X0189433Y0008168D02*
X0190501Y0007100D01*
X0193704Y0007100D01*
X0202324Y0009235D02*
X0206595Y0009235D01*
X0206595Y0008168D02*
X0206595Y0010303D01*
X0205527Y0011370D01*
X0203392Y0011370D01*
X0202324Y0010303D01*
X0202324Y0009235D01*
X0203392Y0007100D02*
X0205527Y0007100D01*
X0206595Y0008168D01*
X0208757Y0007100D02*
X0210892Y0007100D01*
X0209824Y0007100D02*
X0209824Y0013505D01*
X0210892Y0013505D01*
X0213067Y0010303D02*
X0213067Y0008168D01*
X0214134Y0007100D01*
X0217337Y0007100D01*
X0217337Y0004965D02*
X0217337Y0011370D01*
X0214134Y0011370D01*
X0213067Y0010303D01*
X0219512Y0010303D02*
X0219512Y0007100D01*
X0221648Y0007100D02*
X0221648Y0010303D01*
X0220580Y0011370D01*
X0219512Y0010303D01*
X0221648Y0010303D02*
X0222715Y0011370D01*
X0223783Y0011370D01*
X0223783Y0007100D01*
X0225945Y0007100D02*
X0228080Y0007100D01*
X0227012Y0007100D02*
X0227012Y0011370D01*
X0228080Y0011370D01*
X0227012Y0013505D02*
X0227012Y0014573D01*
X0230255Y0012438D02*
X0231322Y0013505D01*
X0233458Y0013505D01*
X0234525Y0012438D01*
X0234525Y0011370D01*
X0233458Y0010303D01*
X0231322Y0010303D01*
X0230255Y0009235D01*
X0230255Y0008168D01*
X0231322Y0007100D01*
X0233458Y0007100D01*
X0234525Y0008168D01*
X0248338Y0079400D02*
X0266313Y0079400D01*
X0266313Y0099200D01*
X0248338Y0099200D01*
X0248338Y0079400D01*
X0250725Y0082900D02*
X0250727Y0082984D01*
X0250733Y0083069D01*
X0250743Y0083152D01*
X0250757Y0083236D01*
X0250774Y0083318D01*
X0250796Y0083400D01*
X0250821Y0083480D01*
X0250850Y0083559D01*
X0250883Y0083637D01*
X0250919Y0083713D01*
X0250959Y0083788D01*
X0251003Y0083860D01*
X0251049Y0083931D01*
X0251099Y0083999D01*
X0251152Y0084064D01*
X0251208Y0084127D01*
X0251267Y0084188D01*
X0251329Y0084245D01*
X0251393Y0084300D01*
X0251460Y0084351D01*
X0251529Y0084400D01*
X0251601Y0084445D01*
X0251674Y0084486D01*
X0251749Y0084524D01*
X0251826Y0084559D01*
X0251905Y0084590D01*
X0251985Y0084617D01*
X0252066Y0084640D01*
X0252148Y0084660D01*
X0252231Y0084676D01*
X0252314Y0084688D01*
X0252399Y0084696D01*
X0252483Y0084700D01*
X0252567Y0084700D01*
X0252651Y0084696D01*
X0252736Y0084688D01*
X0252819Y0084676D01*
X0252902Y0084660D01*
X0252984Y0084640D01*
X0253065Y0084617D01*
X0253145Y0084590D01*
X0253224Y0084559D01*
X0253301Y0084524D01*
X0253376Y0084486D01*
X0253449Y0084445D01*
X0253521Y0084400D01*
X0253590Y0084351D01*
X0253657Y0084300D01*
X0253721Y0084245D01*
X0253783Y0084188D01*
X0253842Y0084127D01*
X0253898Y0084064D01*
X0253951Y0083999D01*
X0254001Y0083931D01*
X0254047Y0083860D01*
X0254091Y0083788D01*
X0254131Y0083713D01*
X0254167Y0083637D01*
X0254200Y0083559D01*
X0254229Y0083480D01*
X0254254Y0083400D01*
X0254276Y0083318D01*
X0254293Y0083236D01*
X0254307Y0083152D01*
X0254317Y0083069D01*
X0254323Y0082984D01*
X0254325Y0082900D01*
X0254323Y0082816D01*
X0254317Y0082731D01*
X0254307Y0082648D01*
X0254293Y0082564D01*
X0254276Y0082482D01*
X0254254Y0082400D01*
X0254229Y0082320D01*
X0254200Y0082241D01*
X0254167Y0082163D01*
X0254131Y0082087D01*
X0254091Y0082012D01*
X0254047Y0081940D01*
X0254001Y0081869D01*
X0253951Y0081801D01*
X0253898Y0081736D01*
X0253842Y0081673D01*
X0253783Y0081612D01*
X0253721Y0081555D01*
X0253657Y0081500D01*
X0253590Y0081449D01*
X0253521Y0081400D01*
X0253449Y0081355D01*
X0253376Y0081314D01*
X0253301Y0081276D01*
X0253224Y0081241D01*
X0253145Y0081210D01*
X0253065Y0081183D01*
X0252984Y0081160D01*
X0252902Y0081140D01*
X0252819Y0081124D01*
X0252736Y0081112D01*
X0252651Y0081104D01*
X0252567Y0081100D01*
X0252483Y0081100D01*
X0252399Y0081104D01*
X0252314Y0081112D01*
X0252231Y0081124D01*
X0252148Y0081140D01*
X0252066Y0081160D01*
X0251985Y0081183D01*
X0251905Y0081210D01*
X0251826Y0081241D01*
X0251749Y0081276D01*
X0251674Y0081314D01*
X0251601Y0081355D01*
X0251529Y0081400D01*
X0251460Y0081449D01*
X0251393Y0081500D01*
X0251329Y0081555D01*
X0251267Y0081612D01*
X0251208Y0081673D01*
X0251152Y0081736D01*
X0251099Y0081801D01*
X0251049Y0081869D01*
X0251003Y0081940D01*
X0250959Y0082012D01*
X0250919Y0082087D01*
X0250883Y0082163D01*
X0250850Y0082241D01*
X0250821Y0082320D01*
X0250796Y0082400D01*
X0250774Y0082482D01*
X0250757Y0082564D01*
X0250743Y0082648D01*
X0250733Y0082731D01*
X0250727Y0082816D01*
X0250725Y0082900D01*
X0174825Y0130300D02*
X0174671Y0130298D01*
X0174517Y0130292D01*
X0174363Y0130282D01*
X0174209Y0130268D01*
X0174056Y0130251D01*
X0173904Y0130229D01*
X0173752Y0130203D01*
X0173600Y0130174D01*
X0173450Y0130140D01*
X0173300Y0130103D01*
X0173152Y0130062D01*
X0173004Y0130017D01*
X0172858Y0129968D01*
X0172713Y0129916D01*
X0172570Y0129860D01*
X0172427Y0129800D01*
X0172287Y0129737D01*
X0172148Y0129670D01*
X0172011Y0129599D01*
X0171876Y0129525D01*
X0171743Y0129448D01*
X0171611Y0129367D01*
X0171482Y0129283D01*
X0171355Y0129195D01*
X0171231Y0129104D01*
X0171109Y0129011D01*
X0170989Y0128913D01*
X0170872Y0128813D01*
X0170757Y0128710D01*
X0170645Y0128604D01*
X0170536Y0128496D01*
X0170430Y0128384D01*
X0170326Y0128270D01*
X0170226Y0128153D01*
X0170128Y0128034D01*
X0170034Y0127912D01*
X0169943Y0127787D01*
X0174825Y0118300D02*
X0174977Y0118302D01*
X0175128Y0118308D01*
X0175279Y0118317D01*
X0175431Y0118331D01*
X0175581Y0118348D01*
X0175731Y0118369D01*
X0175881Y0118394D01*
X0176030Y0118422D01*
X0176178Y0118455D01*
X0176325Y0118491D01*
X0176472Y0118530D01*
X0176617Y0118574D01*
X0176761Y0118621D01*
X0176904Y0118672D01*
X0177045Y0118726D01*
X0177186Y0118784D01*
X0177324Y0118845D01*
X0177461Y0118910D01*
X0177597Y0118979D01*
X0177730Y0119050D01*
X0177862Y0119125D01*
X0177992Y0119204D01*
X0178119Y0119285D01*
X0178245Y0119370D01*
X0178369Y0119458D01*
X0178490Y0119549D01*
X0178609Y0119643D01*
X0178725Y0119741D01*
X0178839Y0119841D01*
X0178951Y0119943D01*
X0179059Y0120049D01*
X0179165Y0120157D01*
X0179269Y0120268D01*
X0179369Y0120382D01*
X0179467Y0120498D01*
X0179561Y0120617D01*
X0174825Y0118300D02*
X0174673Y0118302D01*
X0174522Y0118308D01*
X0174371Y0118317D01*
X0174219Y0118331D01*
X0174069Y0118348D01*
X0173919Y0118369D01*
X0173769Y0118394D01*
X0173620Y0118422D01*
X0173472Y0118455D01*
X0173325Y0118491D01*
X0173178Y0118530D01*
X0173033Y0118574D01*
X0172889Y0118621D01*
X0172746Y0118672D01*
X0172605Y0118726D01*
X0172464Y0118784D01*
X0172326Y0118845D01*
X0172189Y0118910D01*
X0172053Y0118979D01*
X0171920Y0119050D01*
X0171788Y0119125D01*
X0171658Y0119204D01*
X0171531Y0119285D01*
X0171405Y0119370D01*
X0171281Y0119458D01*
X0171160Y0119549D01*
X0171041Y0119643D01*
X0170925Y0119741D01*
X0170811Y0119841D01*
X0170699Y0119943D01*
X0170591Y0120049D01*
X0170485Y0120157D01*
X0170381Y0120268D01*
X0170281Y0120382D01*
X0170183Y0120498D01*
X0170089Y0120617D01*
X0174825Y0130300D02*
X0174975Y0130298D01*
X0175126Y0130292D01*
X0175276Y0130283D01*
X0175425Y0130270D01*
X0175575Y0130253D01*
X0175724Y0130232D01*
X0175872Y0130208D01*
X0176020Y0130180D01*
X0176167Y0130148D01*
X0176313Y0130113D01*
X0176458Y0130073D01*
X0176602Y0130031D01*
X0176745Y0129984D01*
X0176887Y0129934D01*
X0177028Y0129881D01*
X0177167Y0129824D01*
X0177305Y0129764D01*
X0177441Y0129700D01*
X0177575Y0129633D01*
X0177708Y0129562D01*
X0177839Y0129488D01*
X0177968Y0129411D01*
X0178095Y0129330D01*
X0178220Y0129247D01*
X0178343Y0129160D01*
X0178464Y0129071D01*
X0178582Y0128978D01*
X0178698Y0128882D01*
X0178812Y0128784D01*
X0178923Y0128683D01*
X0179032Y0128578D01*
X0179137Y0128472D01*
X0179241Y0128362D01*
X0179341Y0128250D01*
X0179439Y0128136D01*
X0179533Y0128019D01*
X0179625Y0127900D01*
X0164825Y0136800D02*
X0164828Y0137045D01*
X0164837Y0137291D01*
X0164852Y0137536D01*
X0164873Y0137780D01*
X0164900Y0138024D01*
X0164933Y0138267D01*
X0164972Y0138510D01*
X0165017Y0138751D01*
X0165068Y0138991D01*
X0165125Y0139230D01*
X0165187Y0139467D01*
X0165256Y0139703D01*
X0165330Y0139937D01*
X0165410Y0140169D01*
X0165495Y0140399D01*
X0165586Y0140627D01*
X0165683Y0140852D01*
X0165785Y0141076D01*
X0165893Y0141296D01*
X0166006Y0141514D01*
X0166124Y0141729D01*
X0166248Y0141941D01*
X0166376Y0142150D01*
X0166510Y0142356D01*
X0166649Y0142558D01*
X0166793Y0142757D01*
X0166942Y0142952D01*
X0167095Y0143144D01*
X0167253Y0143332D01*
X0167415Y0143516D01*
X0167583Y0143695D01*
X0167754Y0143871D01*
X0167930Y0144042D01*
X0168109Y0144210D01*
X0168293Y0144372D01*
X0168481Y0144530D01*
X0168673Y0144683D01*
X0168868Y0144832D01*
X0169067Y0144976D01*
X0169269Y0145115D01*
X0169475Y0145249D01*
X0169684Y0145377D01*
X0169896Y0145501D01*
X0170111Y0145619D01*
X0170329Y0145732D01*
X0170549Y0145840D01*
X0170773Y0145942D01*
X0170998Y0146039D01*
X0171226Y0146130D01*
X0171456Y0146215D01*
X0171688Y0146295D01*
X0171922Y0146369D01*
X0172158Y0146438D01*
X0172395Y0146500D01*
X0172634Y0146557D01*
X0172874Y0146608D01*
X0173115Y0146653D01*
X0173358Y0146692D01*
X0173601Y0146725D01*
X0173845Y0146752D01*
X0174089Y0146773D01*
X0174334Y0146788D01*
X0174580Y0146797D01*
X0174825Y0146800D01*
X0175070Y0146797D01*
X0175316Y0146788D01*
X0175561Y0146773D01*
X0175805Y0146752D01*
X0176049Y0146725D01*
X0176292Y0146692D01*
X0176535Y0146653D01*
X0176776Y0146608D01*
X0177016Y0146557D01*
X0177255Y0146500D01*
X0177492Y0146438D01*
X0177728Y0146369D01*
X0177962Y0146295D01*
X0178194Y0146215D01*
X0178424Y0146130D01*
X0178652Y0146039D01*
X0178877Y0145942D01*
X0179101Y0145840D01*
X0179321Y0145732D01*
X0179539Y0145619D01*
X0179754Y0145501D01*
X0179966Y0145377D01*
X0180175Y0145249D01*
X0180381Y0145115D01*
X0180583Y0144976D01*
X0180782Y0144832D01*
X0180977Y0144683D01*
X0181169Y0144530D01*
X0181357Y0144372D01*
X0181541Y0144210D01*
X0181720Y0144042D01*
X0181896Y0143871D01*
X0182067Y0143695D01*
X0182235Y0143516D01*
X0182397Y0143332D01*
X0182555Y0143144D01*
X0182708Y0142952D01*
X0182857Y0142757D01*
X0183001Y0142558D01*
X0183140Y0142356D01*
X0183274Y0142150D01*
X0183402Y0141941D01*
X0183526Y0141729D01*
X0183644Y0141514D01*
X0183757Y0141296D01*
X0183865Y0141076D01*
X0183967Y0140852D01*
X0184064Y0140627D01*
X0184155Y0140399D01*
X0184240Y0140169D01*
X0184320Y0139937D01*
X0184394Y0139703D01*
X0184463Y0139467D01*
X0184525Y0139230D01*
X0184582Y0138991D01*
X0184633Y0138751D01*
X0184678Y0138510D01*
X0184717Y0138267D01*
X0184750Y0138024D01*
X0184777Y0137780D01*
X0184798Y0137536D01*
X0184813Y0137291D01*
X0184822Y0137045D01*
X0184825Y0136800D01*
X0184822Y0136555D01*
X0184813Y0136309D01*
X0184798Y0136064D01*
X0184777Y0135820D01*
X0184750Y0135576D01*
X0184717Y0135333D01*
X0184678Y0135090D01*
X0184633Y0134849D01*
X0184582Y0134609D01*
X0184525Y0134370D01*
X0184463Y0134133D01*
X0184394Y0133897D01*
X0184320Y0133663D01*
X0184240Y0133431D01*
X0184155Y0133201D01*
X0184064Y0132973D01*
X0183967Y0132748D01*
X0183865Y0132524D01*
X0183757Y0132304D01*
X0183644Y0132086D01*
X0183526Y0131871D01*
X0183402Y0131659D01*
X0183274Y0131450D01*
X0183140Y0131244D01*
X0183001Y0131042D01*
X0182857Y0130843D01*
X0182708Y0130648D01*
X0182555Y0130456D01*
X0182397Y0130268D01*
X0182235Y0130084D01*
X0182067Y0129905D01*
X0181896Y0129729D01*
X0181720Y0129558D01*
X0181541Y0129390D01*
X0181357Y0129228D01*
X0181169Y0129070D01*
X0180977Y0128917D01*
X0180782Y0128768D01*
X0180583Y0128624D01*
X0180381Y0128485D01*
X0180175Y0128351D01*
X0179966Y0128223D01*
X0179754Y0128099D01*
X0179539Y0127981D01*
X0179321Y0127868D01*
X0179101Y0127760D01*
X0178877Y0127658D01*
X0178652Y0127561D01*
X0178424Y0127470D01*
X0178194Y0127385D01*
X0177962Y0127305D01*
X0177728Y0127231D01*
X0177492Y0127162D01*
X0177255Y0127100D01*
X0177016Y0127043D01*
X0176776Y0126992D01*
X0176535Y0126947D01*
X0176292Y0126908D01*
X0176049Y0126875D01*
X0175805Y0126848D01*
X0175561Y0126827D01*
X0175316Y0126812D01*
X0175070Y0126803D01*
X0174825Y0126800D01*
X0174580Y0126803D01*
X0174334Y0126812D01*
X0174089Y0126827D01*
X0173845Y0126848D01*
X0173601Y0126875D01*
X0173358Y0126908D01*
X0173115Y0126947D01*
X0172874Y0126992D01*
X0172634Y0127043D01*
X0172395Y0127100D01*
X0172158Y0127162D01*
X0171922Y0127231D01*
X0171688Y0127305D01*
X0171456Y0127385D01*
X0171226Y0127470D01*
X0170998Y0127561D01*
X0170773Y0127658D01*
X0170549Y0127760D01*
X0170329Y0127868D01*
X0170111Y0127981D01*
X0169896Y0128099D01*
X0169684Y0128223D01*
X0169475Y0128351D01*
X0169269Y0128485D01*
X0169067Y0128624D01*
X0168868Y0128768D01*
X0168673Y0128917D01*
X0168481Y0129070D01*
X0168293Y0129228D01*
X0168109Y0129390D01*
X0167930Y0129558D01*
X0167754Y0129729D01*
X0167583Y0129905D01*
X0167415Y0130084D01*
X0167253Y0130268D01*
X0167095Y0130456D01*
X0166942Y0130648D01*
X0166793Y0130843D01*
X0166649Y0131042D01*
X0166510Y0131244D01*
X0166376Y0131450D01*
X0166248Y0131659D01*
X0166124Y0131871D01*
X0166006Y0132086D01*
X0165893Y0132304D01*
X0165785Y0132524D01*
X0165683Y0132748D01*
X0165586Y0132973D01*
X0165495Y0133201D01*
X0165410Y0133431D01*
X0165330Y0133663D01*
X0165256Y0133897D01*
X0165187Y0134133D01*
X0165125Y0134370D01*
X0165068Y0134609D01*
X0165017Y0134849D01*
X0164972Y0135090D01*
X0164933Y0135333D01*
X0164900Y0135576D01*
X0164873Y0135820D01*
X0164852Y0136064D01*
X0164837Y0136309D01*
X0164828Y0136555D01*
X0164825Y0136800D01*
X0111624Y0108898D02*
X0111624Y0087202D01*
X0088026Y0087202D02*
X0088026Y0108898D01*
X0046125Y0176800D02*
X0040825Y0176800D01*
X0034825Y0176800D01*
X0029825Y0176800D01*
X0023825Y0176800D01*
X0018625Y0176800D01*
X0018625Y0180300D01*
X0018625Y0186800D01*
X0018625Y0216800D01*
X0018625Y0223300D01*
X0018625Y0226700D01*
X0023825Y0226700D01*
X0029825Y0226700D01*
X0034825Y0226700D01*
X0040825Y0226700D01*
X0046125Y0226700D01*
X0046125Y0223300D01*
X0046125Y0216800D01*
X0046125Y0186800D01*
X0046125Y0180300D01*
X0046125Y0176800D01*
X0046125Y0180300D02*
X0040825Y0180300D01*
X0040825Y0176800D01*
X0034825Y0176800D02*
X0034825Y0180300D01*
X0029825Y0180300D01*
X0029825Y0176800D01*
X0028728Y0182600D02*
X0030530Y0184402D01*
X0025125Y0184402D01*
X0025125Y0186203D02*
X0025125Y0182600D01*
X0023825Y0180300D02*
X0018625Y0180300D01*
X0023825Y0180300D02*
X0023825Y0176800D01*
X0018625Y0186800D02*
X0015925Y0186800D01*
X0015925Y0216800D01*
X0018625Y0216800D01*
X0018625Y0223300D02*
X0023825Y0223300D01*
X0023825Y0226700D01*
X0019924Y0231308D02*
X0047443Y0231308D01*
X0047443Y0257292D01*
X0019924Y0257292D01*
X0019924Y0231308D01*
X0029825Y0226700D02*
X0029825Y0223300D01*
X0034825Y0223300D01*
X0034825Y0226700D01*
X0040825Y0226700D02*
X0040825Y0223300D01*
X0046125Y0223300D01*
X0046125Y0216800D02*
X0069825Y0216800D01*
X0064825Y0201800D01*
X0069825Y0186800D01*
X0046125Y0186800D01*
X0023125Y0190100D02*
X0019825Y0191800D01*
X0020825Y0191800D01*
X0019825Y0191800D02*
X0023125Y0193500D01*
X0023125Y0190100D01*
X0132757Y0190301D02*
X0133825Y0189233D01*
X0132757Y0190301D02*
X0132757Y0192436D01*
X0133825Y0193503D01*
X0134892Y0193503D01*
X0135960Y0192436D01*
X0135960Y0191368D01*
X0135960Y0192436D02*
X0137028Y0193503D01*
X0138095Y0193503D01*
X0139163Y0192436D01*
X0139163Y0190301D01*
X0138095Y0189233D01*
X0138095Y0195679D02*
X0139163Y0196746D01*
X0139163Y0198881D01*
X0138095Y0199949D01*
X0137028Y0199949D01*
X0132757Y0195679D01*
X0132757Y0199949D01*
X0133825Y0202124D02*
X0132757Y0203192D01*
X0132757Y0205327D01*
X0133825Y0206394D01*
X0139163Y0206394D01*
X0135960Y0208570D02*
X0135960Y0212840D01*
X0139163Y0211772D02*
X0135960Y0208570D01*
X0132757Y0211772D02*
X0139163Y0211772D01*
X0139163Y0202124D02*
X0133825Y0202124D01*
X0286725Y0184400D02*
X0286725Y0181200D01*
X0286725Y0184400D02*
X0288925Y0184400D01*
X0295725Y0184400D02*
X0297925Y0184400D01*
X0297925Y0181200D01*
D11*
X0301705Y0197500D02*
X0301238Y0197967D01*
X0301238Y0198434D01*
X0301705Y0198901D01*
X0302172Y0198901D01*
X0301705Y0198901D02*
X0301238Y0199368D01*
X0301238Y0199835D01*
X0301705Y0200302D01*
X0302639Y0200302D01*
X0303106Y0199835D01*
X0303106Y0197967D02*
X0302639Y0197500D01*
X0301705Y0197500D01*
X0310338Y0197463D02*
X0312206Y0197463D01*
X0310338Y0199331D01*
X0310338Y0199798D01*
X0310805Y0200265D01*
X0311739Y0200265D01*
X0312206Y0199798D01*
X0318850Y0197500D02*
X0320718Y0197500D01*
X0319784Y0197500D02*
X0319784Y0200302D01*
X0320718Y0199368D01*
X0328516Y0191348D02*
X0329283Y0192115D01*
X0330818Y0192115D01*
X0331585Y0191348D01*
X0333120Y0191348D02*
X0333887Y0192115D01*
X0335422Y0192115D01*
X0336189Y0191348D01*
X0333120Y0191348D02*
X0333120Y0190581D01*
X0336189Y0187511D01*
X0333120Y0187511D01*
X0331585Y0187511D02*
X0328516Y0190581D01*
X0328516Y0191348D01*
X0328516Y0187511D02*
X0331585Y0187511D01*
X0358631Y0183654D02*
X0358631Y0179771D01*
X0358837Y0179772D02*
X0366194Y0179772D01*
X0368238Y0178954D02*
X0368238Y0164647D01*
X0368240Y0164592D01*
X0368246Y0164536D01*
X0368255Y0164481D01*
X0368268Y0164427D01*
X0368285Y0164374D01*
X0368306Y0164322D01*
X0368330Y0164271D01*
X0368357Y0164223D01*
X0368387Y0164176D01*
X0368421Y0164131D01*
X0368458Y0164089D01*
X0368497Y0164050D01*
X0368539Y0164013D01*
X0368584Y0163979D01*
X0368631Y0163949D01*
X0368679Y0163922D01*
X0368730Y0163898D01*
X0368782Y0163877D01*
X0368835Y0163860D01*
X0368889Y0163847D01*
X0368944Y0163838D01*
X0369000Y0163832D01*
X0369055Y0163830D01*
X0369056Y0163830D02*
X0369118Y0163832D01*
X0369179Y0163838D01*
X0369240Y0163847D01*
X0369301Y0163860D01*
X0369360Y0163877D01*
X0369418Y0163897D01*
X0369475Y0163920D01*
X0369531Y0163947D01*
X0369585Y0163978D01*
X0369636Y0164011D01*
X0369686Y0164048D01*
X0369733Y0164087D01*
X0369778Y0164130D01*
X0369821Y0164175D01*
X0369860Y0164222D01*
X0369897Y0164272D01*
X0369930Y0164323D01*
X0369961Y0164377D01*
X0369988Y0164433D01*
X0370011Y0164490D01*
X0370031Y0164548D01*
X0370048Y0164607D01*
X0370061Y0164668D01*
X0370070Y0164729D01*
X0370076Y0164790D01*
X0370078Y0164852D01*
X0370078Y0164851D02*
X0370078Y0178749D01*
X0370077Y0178749D02*
X0370075Y0178811D01*
X0370070Y0178873D01*
X0370060Y0178934D01*
X0370047Y0178994D01*
X0370031Y0179053D01*
X0370011Y0179112D01*
X0369987Y0179169D01*
X0369960Y0179224D01*
X0369930Y0179278D01*
X0369896Y0179330D01*
X0369859Y0179379D01*
X0369820Y0179427D01*
X0369778Y0179472D01*
X0369733Y0179514D01*
X0369685Y0179553D01*
X0369636Y0179590D01*
X0369584Y0179624D01*
X0369530Y0179654D01*
X0369475Y0179681D01*
X0369418Y0179705D01*
X0369359Y0179725D01*
X0369300Y0179741D01*
X0369240Y0179754D01*
X0369179Y0179764D01*
X0369117Y0179769D01*
X0369055Y0179771D01*
X0369056Y0179771D02*
X0369056Y0179771D01*
X0369055Y0179771D02*
X0369000Y0179769D01*
X0368944Y0179763D01*
X0368889Y0179754D01*
X0368835Y0179741D01*
X0368782Y0179724D01*
X0368730Y0179703D01*
X0368679Y0179679D01*
X0368631Y0179652D01*
X0368584Y0179622D01*
X0368539Y0179588D01*
X0368497Y0179551D01*
X0368458Y0179512D01*
X0368421Y0179470D01*
X0368387Y0179425D01*
X0368357Y0179378D01*
X0368330Y0179330D01*
X0368306Y0179279D01*
X0368285Y0179227D01*
X0368268Y0179174D01*
X0368255Y0179120D01*
X0368246Y0179065D01*
X0368240Y0179009D01*
X0368238Y0178954D01*
X0373552Y0175070D02*
X0373552Y0168531D01*
X0373557Y0168474D01*
X0373566Y0168417D01*
X0373579Y0168361D01*
X0373595Y0168305D01*
X0373615Y0168251D01*
X0373638Y0168199D01*
X0373665Y0168148D01*
X0373695Y0168099D01*
X0373729Y0168052D01*
X0373765Y0168008D01*
X0373804Y0167966D01*
X0373846Y0167926D01*
X0373891Y0167890D01*
X0373938Y0167857D01*
X0373987Y0167826D01*
X0374038Y0167800D01*
X0374090Y0167776D01*
X0374144Y0167756D01*
X0374199Y0167740D01*
X0374255Y0167727D01*
X0374312Y0167718D01*
X0374369Y0167713D01*
X0390311Y0166896D01*
X0390367Y0166898D01*
X0390422Y0166904D01*
X0390477Y0166913D01*
X0390531Y0166926D01*
X0390585Y0166943D01*
X0390636Y0166964D01*
X0390687Y0166988D01*
X0390736Y0167015D01*
X0390782Y0167046D01*
X0390827Y0167079D01*
X0390869Y0167116D01*
X0390908Y0167155D01*
X0390945Y0167197D01*
X0390978Y0167242D01*
X0391009Y0167288D01*
X0391036Y0167337D01*
X0391060Y0167388D01*
X0391081Y0167439D01*
X0391098Y0167493D01*
X0391111Y0167547D01*
X0391120Y0167602D01*
X0391126Y0167657D01*
X0391128Y0167713D01*
X0391126Y0167769D01*
X0391120Y0167824D01*
X0391111Y0167879D01*
X0391098Y0167933D01*
X0391081Y0167987D01*
X0391060Y0168038D01*
X0391036Y0168089D01*
X0391009Y0168138D01*
X0390978Y0168184D01*
X0390945Y0168229D01*
X0390908Y0168271D01*
X0390869Y0168310D01*
X0390827Y0168347D01*
X0390782Y0168380D01*
X0390736Y0168411D01*
X0390687Y0168438D01*
X0390636Y0168462D01*
X0390585Y0168483D01*
X0390531Y0168500D01*
X0390477Y0168513D01*
X0390422Y0168522D01*
X0390367Y0168528D01*
X0390311Y0168530D01*
X0390311Y0168531D02*
X0376822Y0169348D01*
X0376822Y0174254D01*
X0376822Y0174253D02*
X0390311Y0175070D01*
X0390367Y0175072D01*
X0390422Y0175078D01*
X0390477Y0175087D01*
X0390531Y0175100D01*
X0390585Y0175117D01*
X0390636Y0175138D01*
X0390687Y0175162D01*
X0390736Y0175189D01*
X0390782Y0175220D01*
X0390827Y0175253D01*
X0390869Y0175290D01*
X0390908Y0175329D01*
X0390945Y0175371D01*
X0390978Y0175416D01*
X0391009Y0175462D01*
X0391036Y0175511D01*
X0391060Y0175562D01*
X0391081Y0175613D01*
X0391098Y0175667D01*
X0391111Y0175721D01*
X0391120Y0175776D01*
X0391126Y0175831D01*
X0391128Y0175887D01*
X0391129Y0175888D02*
X0391129Y0175887D01*
X0391128Y0175888D02*
X0391126Y0175944D01*
X0391120Y0175999D01*
X0391111Y0176054D01*
X0391098Y0176108D01*
X0391081Y0176162D01*
X0391060Y0176213D01*
X0391036Y0176264D01*
X0391009Y0176313D01*
X0390978Y0176359D01*
X0390945Y0176404D01*
X0390908Y0176446D01*
X0390869Y0176485D01*
X0390827Y0176522D01*
X0390782Y0176555D01*
X0390736Y0176586D01*
X0390687Y0176613D01*
X0390636Y0176637D01*
X0390585Y0176658D01*
X0390531Y0176675D01*
X0390477Y0176688D01*
X0390422Y0176697D01*
X0390367Y0176703D01*
X0390311Y0176705D01*
X0374369Y0175888D01*
X0374370Y0175888D02*
X0374312Y0175883D01*
X0374256Y0175874D01*
X0374199Y0175861D01*
X0374144Y0175845D01*
X0374090Y0175825D01*
X0374038Y0175802D01*
X0373987Y0175775D01*
X0373938Y0175744D01*
X0373891Y0175711D01*
X0373847Y0175675D01*
X0373804Y0175635D01*
X0373765Y0175593D01*
X0373729Y0175549D01*
X0373695Y0175502D01*
X0373665Y0175453D01*
X0373638Y0175402D01*
X0373615Y0175349D01*
X0373595Y0175295D01*
X0373579Y0175240D01*
X0373566Y0175184D01*
X0373557Y0175127D01*
X0373552Y0175070D01*
X0379479Y0177727D02*
X0379479Y0178545D01*
X0388881Y0179567D01*
X0388881Y0181611D01*
X0379479Y0182632D01*
X0379479Y0183450D01*
X0390311Y0182632D01*
X0390377Y0182625D01*
X0390442Y0182614D01*
X0390507Y0182600D01*
X0390570Y0182582D01*
X0390633Y0182560D01*
X0390694Y0182535D01*
X0390754Y0182507D01*
X0390812Y0182475D01*
X0390868Y0182439D01*
X0390922Y0182401D01*
X0390973Y0182360D01*
X0391022Y0182316D01*
X0391069Y0182269D01*
X0391113Y0182219D01*
X0391154Y0182167D01*
X0391192Y0182113D01*
X0391227Y0182057D01*
X0391258Y0181999D01*
X0391286Y0181939D01*
X0391311Y0181877D01*
X0391332Y0181815D01*
X0391332Y0179566D02*
X0391311Y0179504D01*
X0391286Y0179442D01*
X0391258Y0179382D01*
X0391227Y0179324D01*
X0391192Y0179268D01*
X0391154Y0179214D01*
X0391113Y0179162D01*
X0391069Y0179112D01*
X0391022Y0179065D01*
X0390973Y0179021D01*
X0390922Y0178980D01*
X0390868Y0178942D01*
X0390812Y0178906D01*
X0390754Y0178874D01*
X0390694Y0178846D01*
X0390633Y0178821D01*
X0390570Y0178799D01*
X0390507Y0178781D01*
X0390442Y0178767D01*
X0390377Y0178756D01*
X0390311Y0178749D01*
X0379479Y0177727D01*
X0391332Y0179567D02*
X0391366Y0179682D01*
X0391396Y0179799D01*
X0391422Y0179916D01*
X0391444Y0180034D01*
X0391463Y0180152D01*
X0391478Y0180272D01*
X0391489Y0180391D01*
X0391497Y0180511D01*
X0391501Y0180631D01*
X0391501Y0180751D01*
X0391497Y0180871D01*
X0391489Y0180991D01*
X0391478Y0181110D01*
X0391463Y0181230D01*
X0391444Y0181348D01*
X0391422Y0181466D01*
X0391396Y0181583D01*
X0391366Y0181700D01*
X0391332Y0181815D01*
X0389706Y0186924D02*
X0395625Y0186924D01*
X0395625Y0156676D01*
X0395625Y0156676D01*
X0389706Y0156676D01*
X0390311Y0160969D02*
X0379479Y0160151D01*
X0379479Y0160969D01*
X0388881Y0161990D01*
X0388881Y0164034D01*
X0379479Y0165056D01*
X0379479Y0165874D01*
X0390311Y0164852D01*
X0390311Y0164851D02*
X0390377Y0164844D01*
X0390442Y0164833D01*
X0390507Y0164819D01*
X0390570Y0164801D01*
X0390633Y0164779D01*
X0390694Y0164754D01*
X0390754Y0164726D01*
X0390812Y0164694D01*
X0390868Y0164658D01*
X0390922Y0164620D01*
X0390973Y0164579D01*
X0391022Y0164535D01*
X0391069Y0164488D01*
X0391113Y0164438D01*
X0391154Y0164386D01*
X0391192Y0164332D01*
X0391227Y0164276D01*
X0391258Y0164218D01*
X0391286Y0164158D01*
X0391311Y0164096D01*
X0391332Y0164034D01*
X0391332Y0161786D02*
X0391311Y0161724D01*
X0391286Y0161662D01*
X0391258Y0161602D01*
X0391227Y0161544D01*
X0391192Y0161488D01*
X0391154Y0161434D01*
X0391113Y0161382D01*
X0391069Y0161332D01*
X0391022Y0161285D01*
X0390973Y0161241D01*
X0390922Y0161200D01*
X0390868Y0161162D01*
X0390812Y0161126D01*
X0390754Y0161094D01*
X0390694Y0161066D01*
X0390633Y0161041D01*
X0390570Y0161019D01*
X0390507Y0161001D01*
X0390442Y0160987D01*
X0390377Y0160976D01*
X0390311Y0160969D01*
X0391332Y0161786D02*
X0391366Y0161901D01*
X0391396Y0162018D01*
X0391422Y0162135D01*
X0391444Y0162253D01*
X0391463Y0162371D01*
X0391478Y0162491D01*
X0391489Y0162610D01*
X0391497Y0162730D01*
X0391501Y0162850D01*
X0391501Y0162970D01*
X0391497Y0163090D01*
X0391489Y0163210D01*
X0391478Y0163329D01*
X0391463Y0163449D01*
X0391444Y0163567D01*
X0391422Y0163685D01*
X0391396Y0163802D01*
X0391366Y0163919D01*
X0391332Y0164034D01*
X0378556Y0156676D02*
X0369464Y0156676D01*
X0369465Y0156676D02*
X0369521Y0156674D01*
X0369576Y0156668D01*
X0369631Y0156659D01*
X0369685Y0156646D01*
X0369739Y0156629D01*
X0369790Y0156608D01*
X0369841Y0156584D01*
X0369890Y0156557D01*
X0369936Y0156526D01*
X0369981Y0156493D01*
X0370023Y0156456D01*
X0370062Y0156417D01*
X0370099Y0156375D01*
X0370132Y0156330D01*
X0370163Y0156284D01*
X0370190Y0156235D01*
X0370214Y0156184D01*
X0370235Y0156133D01*
X0370252Y0156079D01*
X0370265Y0156025D01*
X0370274Y0155970D01*
X0370280Y0155915D01*
X0370282Y0155859D01*
X0370282Y0155246D01*
X0369675Y0149104D02*
X0369675Y0145267D01*
X0368908Y0144500D01*
X0367373Y0144500D01*
X0366606Y0145267D01*
X0366606Y0149104D01*
X0365071Y0148337D02*
X0365071Y0147569D01*
X0364304Y0146802D01*
X0362769Y0146802D01*
X0362002Y0146035D01*
X0362002Y0145267D01*
X0362769Y0144500D01*
X0364304Y0144500D01*
X0365071Y0145267D01*
X0365071Y0148337D02*
X0364304Y0149104D01*
X0362769Y0149104D01*
X0362002Y0148337D01*
X0360467Y0149104D02*
X0358165Y0149104D01*
X0357398Y0148337D01*
X0357398Y0147569D01*
X0358165Y0146802D01*
X0360467Y0146802D01*
X0360467Y0144500D02*
X0360467Y0149104D01*
X0358165Y0146802D02*
X0357398Y0146035D01*
X0357398Y0145267D01*
X0358165Y0144500D01*
X0360467Y0144500D01*
X0371210Y0146802D02*
X0374279Y0146802D01*
X0375813Y0149104D02*
X0377348Y0149104D01*
X0376581Y0149104D02*
X0376581Y0144500D01*
X0377348Y0144500D02*
X0375813Y0144500D01*
X0378883Y0144500D02*
X0378883Y0149104D01*
X0381952Y0149104D02*
X0378883Y0144500D01*
X0381952Y0144500D02*
X0381952Y0149104D01*
X0383487Y0149104D02*
X0385021Y0149104D01*
X0384254Y0149104D02*
X0384254Y0144500D01*
X0385021Y0144500D02*
X0383487Y0144500D01*
X0386556Y0144500D02*
X0386556Y0149104D01*
X0388091Y0147569D01*
X0389625Y0149104D01*
X0389625Y0144500D01*
X0366194Y0163829D02*
X0358837Y0163829D01*
X0358632Y0163830D02*
X0358632Y0159946D01*
X0358837Y0159946D02*
X0360267Y0159946D01*
X0336775Y0161080D02*
X0333706Y0164149D01*
X0333706Y0164916D01*
X0334473Y0165684D01*
X0336008Y0165684D01*
X0336775Y0164916D01*
X0332171Y0164916D02*
X0331404Y0165684D01*
X0329869Y0165684D01*
X0329102Y0164916D01*
X0329102Y0164149D01*
X0332171Y0161080D01*
X0329102Y0161080D01*
X0333706Y0161080D02*
X0336775Y0161080D01*
X0311381Y0139426D02*
X0311381Y0137891D01*
X0310614Y0137124D01*
X0309846Y0137124D01*
X0309079Y0137891D01*
X0309079Y0140193D01*
X0307544Y0140193D02*
X0310614Y0140193D01*
X0311381Y0139426D01*
X0307544Y0140193D02*
X0306777Y0139426D01*
X0306777Y0137891D01*
X0307544Y0137124D01*
X0307544Y0135589D02*
X0306777Y0134822D01*
X0306777Y0133287D01*
X0307544Y0132520D01*
X0310614Y0135589D01*
X0307544Y0135589D01*
X0307544Y0132520D02*
X0310614Y0132520D01*
X0311381Y0133287D01*
X0311381Y0134822D01*
X0310614Y0135589D01*
X0306010Y0130985D02*
X0306010Y0127916D01*
X0307544Y0126381D02*
X0306777Y0125614D01*
X0306777Y0124079D01*
X0307544Y0123312D01*
X0307544Y0121777D02*
X0306777Y0121010D01*
X0306777Y0119475D01*
X0307544Y0118708D01*
X0310614Y0121777D01*
X0307544Y0121777D01*
X0307544Y0118708D02*
X0310614Y0118708D01*
X0311381Y0119475D01*
X0311381Y0121010D01*
X0310614Y0121777D01*
X0310614Y0123312D02*
X0311381Y0124079D01*
X0311381Y0125614D01*
X0310614Y0126381D01*
X0309846Y0126381D01*
X0309079Y0125614D01*
X0308312Y0126381D01*
X0307544Y0126381D01*
X0309079Y0125614D02*
X0309079Y0124846D01*
X0309079Y0117173D02*
X0307544Y0117173D01*
X0306777Y0116406D01*
X0306777Y0114871D01*
X0307544Y0114104D01*
X0309079Y0114104D02*
X0309846Y0115639D01*
X0309846Y0116406D01*
X0309079Y0117173D01*
X0311381Y0117173D02*
X0311381Y0114104D01*
X0309079Y0114104D01*
X0306777Y0112569D02*
X0306777Y0109500D01*
X0306777Y0111035D02*
X0311381Y0111035D01*
X0309846Y0109500D01*
X0282074Y0104403D02*
X0282074Y0100800D01*
X0279671Y0100800D02*
X0279671Y0104403D01*
X0280873Y0103202D01*
X0282074Y0104403D01*
X0278390Y0103803D02*
X0278390Y0101401D01*
X0277790Y0100800D01*
X0276589Y0100800D01*
X0275988Y0101401D01*
X0274707Y0102001D02*
X0272906Y0102001D01*
X0272305Y0102602D01*
X0272305Y0103803D01*
X0272906Y0104403D01*
X0274707Y0104403D01*
X0274707Y0100800D01*
X0275988Y0103803D02*
X0276589Y0104403D01*
X0277790Y0104403D01*
X0278390Y0103803D01*
X0271024Y0102602D02*
X0268622Y0102602D01*
X0267341Y0103803D02*
X0266740Y0104403D01*
X0265539Y0104403D01*
X0264939Y0103803D01*
X0264939Y0103202D01*
X0265539Y0102602D01*
X0264939Y0102001D01*
X0264939Y0101401D01*
X0265539Y0100800D01*
X0266740Y0100800D01*
X0267341Y0101401D01*
X0266140Y0102602D02*
X0265539Y0102602D01*
X0263658Y0104403D02*
X0261256Y0100800D01*
X0259975Y0100800D02*
X0257573Y0103202D01*
X0257573Y0103803D01*
X0258173Y0104403D01*
X0259374Y0104403D01*
X0259975Y0103803D01*
X0261256Y0104403D02*
X0263658Y0100800D01*
X0259975Y0100800D02*
X0257573Y0100800D01*
X0256292Y0101401D02*
X0255691Y0100800D01*
X0254490Y0100800D01*
X0253889Y0101401D01*
X0253889Y0102001D01*
X0254490Y0102602D01*
X0255691Y0102602D01*
X0256292Y0103202D01*
X0256292Y0103803D01*
X0255691Y0104403D01*
X0254490Y0104403D01*
X0253889Y0103803D01*
X0252608Y0104403D02*
X0250206Y0104403D01*
X0251407Y0104403D02*
X0251407Y0100800D01*
X0269223Y0100800D02*
X0269223Y0104403D01*
X0271024Y0102602D01*
X0271362Y0084673D02*
X0268293Y0081604D01*
X0267525Y0082371D01*
X0267525Y0083906D01*
X0268293Y0084673D01*
X0271362Y0084673D01*
X0272129Y0083906D01*
X0272129Y0082371D01*
X0271362Y0081604D01*
X0268293Y0081604D01*
X0268293Y0080069D02*
X0267525Y0079302D01*
X0267525Y0077767D01*
X0268293Y0077000D01*
X0269827Y0077000D02*
X0270594Y0078535D01*
X0270594Y0079302D01*
X0269827Y0080069D01*
X0268293Y0080069D01*
X0269827Y0077000D02*
X0272129Y0077000D01*
X0272129Y0080069D01*
X0277550Y0078719D02*
X0277550Y0077184D01*
X0278318Y0076417D01*
X0279852Y0076417D02*
X0280619Y0077952D01*
X0280619Y0078719D01*
X0279852Y0079486D01*
X0278318Y0079486D01*
X0277550Y0078719D01*
X0278318Y0081021D02*
X0281387Y0084090D01*
X0278318Y0084090D01*
X0277550Y0083323D01*
X0277550Y0081788D01*
X0278318Y0081021D01*
X0281387Y0081021D01*
X0282154Y0081788D01*
X0282154Y0083323D01*
X0281387Y0084090D01*
X0282154Y0079486D02*
X0282154Y0076417D01*
X0279852Y0076417D01*
X0287525Y0077767D02*
X0288293Y0077000D01*
X0287525Y0077767D02*
X0287525Y0079302D01*
X0288293Y0080069D01*
X0289827Y0080069D01*
X0290594Y0079302D01*
X0290594Y0078535D01*
X0289827Y0077000D01*
X0292129Y0077000D01*
X0292129Y0080069D01*
X0291362Y0081604D02*
X0292129Y0082371D01*
X0292129Y0083906D01*
X0291362Y0084673D01*
X0288293Y0081604D01*
X0287525Y0082371D01*
X0287525Y0083906D01*
X0288293Y0084673D01*
X0291362Y0084673D01*
X0291362Y0081604D02*
X0288293Y0081604D01*
X0345025Y0081010D02*
X0349629Y0081010D01*
X0349629Y0079475D02*
X0348862Y0079475D01*
X0345793Y0076406D01*
X0345025Y0076406D01*
X0345025Y0074871D02*
X0345025Y0074104D01*
X0345793Y0074104D01*
X0345793Y0074871D01*
X0345025Y0074871D01*
X0345025Y0071802D02*
X0349629Y0071802D01*
X0347327Y0069500D01*
X0347327Y0072569D01*
X0349629Y0076406D02*
X0349629Y0079475D01*
X0346560Y0081010D02*
X0345025Y0083312D01*
X0346560Y0081010D02*
X0348094Y0083312D01*
X0372525Y0082173D02*
X0374827Y0079871D01*
X0374060Y0079104D02*
X0377129Y0082173D01*
X0377129Y0079104D02*
X0372525Y0079104D01*
X0372525Y0077569D02*
X0372525Y0074500D01*
X0372525Y0076035D02*
X0377129Y0076035D01*
X0375594Y0074500D01*
X0267129Y0134500D02*
X0267129Y0136802D01*
X0266362Y0137569D01*
X0264827Y0137569D01*
X0264060Y0136802D01*
X0264060Y0134500D01*
X0264060Y0136035D02*
X0262525Y0137569D01*
X0262525Y0139104D02*
X0262525Y0142173D01*
X0262525Y0143708D02*
X0262525Y0146010D01*
X0263293Y0146777D01*
X0266362Y0146777D01*
X0267129Y0146010D01*
X0267129Y0143708D01*
X0262525Y0143708D01*
X0264827Y0140639D02*
X0264827Y0139104D01*
X0267129Y0139104D02*
X0262525Y0139104D01*
X0267129Y0139104D02*
X0267129Y0142173D01*
X0267129Y0134500D02*
X0262525Y0134500D01*
X0241736Y0138513D02*
X0240202Y0136978D01*
X0241736Y0138513D02*
X0237133Y0138513D01*
X0237133Y0140047D02*
X0237133Y0136978D01*
X0237133Y0141582D02*
X0241736Y0141582D01*
X0240202Y0143884D02*
X0238667Y0141582D01*
X0237133Y0143884D01*
X0238239Y0154500D02*
X0239774Y0154500D01*
X0240541Y0155267D01*
X0237472Y0158337D01*
X0237472Y0155267D01*
X0238239Y0154500D01*
X0240541Y0155267D02*
X0240541Y0158337D01*
X0239774Y0159104D01*
X0238239Y0159104D01*
X0237472Y0158337D01*
X0235937Y0158337D02*
X0235170Y0159104D01*
X0233635Y0159104D01*
X0232868Y0158337D01*
X0235937Y0155267D01*
X0235170Y0154500D01*
X0233635Y0154500D01*
X0232868Y0155267D01*
X0232868Y0158337D01*
X0231333Y0157569D02*
X0229031Y0157569D01*
X0228264Y0156802D01*
X0228264Y0154500D01*
X0226729Y0154500D02*
X0226729Y0159104D01*
X0223660Y0159104D01*
X0225195Y0156802D02*
X0226729Y0156802D01*
X0231333Y0157569D02*
X0231333Y0154500D01*
X0235937Y0155267D02*
X0235937Y0158337D01*
X0242076Y0154500D02*
X0245145Y0154500D01*
X0243610Y0154500D02*
X0243610Y0159104D01*
X0245145Y0157569D01*
X0244402Y0164500D02*
X0244402Y0169104D01*
X0245937Y0167569D01*
X0245937Y0164500D02*
X0242868Y0164500D01*
X0241333Y0165267D02*
X0241333Y0168337D01*
X0240566Y0169104D01*
X0239031Y0169104D01*
X0238264Y0168337D01*
X0241333Y0165267D01*
X0240566Y0164500D01*
X0239031Y0164500D01*
X0238264Y0165267D01*
X0238264Y0168337D01*
X0236729Y0167569D02*
X0236729Y0165267D01*
X0235962Y0164500D01*
X0233660Y0164500D01*
X0233660Y0167569D01*
X0251238Y0175467D02*
X0251705Y0175000D01*
X0252639Y0175000D01*
X0253106Y0175467D01*
X0252172Y0176401D02*
X0251705Y0176401D01*
X0251238Y0175934D01*
X0251238Y0175467D01*
X0251705Y0176401D02*
X0251238Y0176868D01*
X0251238Y0177335D01*
X0251705Y0177802D01*
X0252639Y0177802D01*
X0253106Y0177335D01*
X0260338Y0177298D02*
X0260805Y0177765D01*
X0261739Y0177765D01*
X0262206Y0177298D01*
X0260338Y0177298D02*
X0260338Y0176831D01*
X0262206Y0174963D01*
X0260338Y0174963D01*
X0268850Y0175000D02*
X0270718Y0175000D01*
X0269784Y0175000D02*
X0269784Y0177802D01*
X0270718Y0176868D01*
X0270219Y0161604D02*
X0269452Y0160837D01*
X0272521Y0157767D01*
X0271754Y0157000D01*
X0270219Y0157000D01*
X0269452Y0157767D01*
X0269452Y0160837D01*
X0270219Y0161604D02*
X0271754Y0161604D01*
X0272521Y0160837D01*
X0272521Y0157767D01*
X0274056Y0157000D02*
X0277125Y0157000D01*
X0275591Y0157000D02*
X0275591Y0161604D01*
X0277125Y0160069D01*
X0267917Y0160069D02*
X0267917Y0157767D01*
X0267150Y0157000D01*
X0264848Y0157000D01*
X0264848Y0160069D01*
X0212125Y0125069D02*
X0210591Y0126604D01*
X0210591Y0122000D01*
X0212125Y0122000D02*
X0209056Y0122000D01*
X0207521Y0122767D02*
X0204452Y0125837D01*
X0204452Y0122767D01*
X0205219Y0122000D01*
X0206754Y0122000D01*
X0207521Y0122767D01*
X0207521Y0125837D01*
X0206754Y0126604D01*
X0205219Y0126604D01*
X0204452Y0125837D01*
X0202917Y0125837D02*
X0202150Y0126604D01*
X0200615Y0126604D01*
X0199848Y0125837D01*
X0202917Y0122767D01*
X0202150Y0122000D01*
X0200615Y0122000D01*
X0199848Y0122767D01*
X0199848Y0125837D01*
X0202917Y0125837D02*
X0202917Y0122767D01*
X0202150Y0101604D02*
X0200615Y0101604D01*
X0199848Y0100837D01*
X0202917Y0097767D01*
X0202150Y0097000D01*
X0200615Y0097000D01*
X0199848Y0097767D01*
X0199848Y0100837D01*
X0202150Y0101604D02*
X0202917Y0100837D01*
X0202917Y0097767D01*
X0204452Y0097767D02*
X0205219Y0097000D01*
X0206754Y0097000D01*
X0207521Y0097767D01*
X0204452Y0100837D01*
X0204452Y0097767D01*
X0207521Y0097767D02*
X0207521Y0100837D01*
X0206754Y0101604D01*
X0205219Y0101604D01*
X0204452Y0100837D01*
X0209056Y0097000D02*
X0212125Y0097000D01*
X0210591Y0097000D02*
X0210591Y0101604D01*
X0212125Y0100069D01*
X0159629Y0101827D02*
X0155025Y0101827D01*
X0155025Y0103361D02*
X0155025Y0100292D01*
X0158094Y0100292D02*
X0159629Y0101827D01*
X0158094Y0104896D02*
X0155793Y0104896D01*
X0155025Y0105663D01*
X0155025Y0107965D01*
X0158094Y0107965D01*
X0148094Y0107965D02*
X0145025Y0107965D01*
X0145025Y0105663D01*
X0145793Y0104896D01*
X0148094Y0104896D01*
X0145025Y0103361D02*
X0145025Y0100292D01*
X0145025Y0101827D02*
X0149629Y0101827D01*
X0148094Y0100292D01*
X0137125Y0095069D02*
X0135591Y0096604D01*
X0135591Y0092000D01*
X0137125Y0092000D02*
X0134056Y0092000D01*
X0132521Y0092767D02*
X0132521Y0095069D01*
X0132521Y0092767D02*
X0131754Y0092000D01*
X0129452Y0092000D01*
X0129452Y0095069D01*
X0119629Y0095490D02*
X0115025Y0095490D01*
X0115025Y0093956D02*
X0115025Y0097025D01*
X0115793Y0098559D02*
X0118862Y0101629D01*
X0115793Y0101629D01*
X0115025Y0100861D01*
X0115025Y0099327D01*
X0115793Y0098559D01*
X0118862Y0098559D01*
X0119629Y0099327D01*
X0119629Y0100861D01*
X0118862Y0101629D01*
X0119629Y0103163D02*
X0115025Y0103163D01*
X0116560Y0103163D02*
X0118094Y0105465D01*
X0116560Y0103163D02*
X0115025Y0105465D01*
X0119629Y0095490D02*
X0118094Y0093956D01*
X0106506Y0079104D02*
X0106506Y0074500D01*
X0104972Y0074500D02*
X0108041Y0074500D01*
X0108041Y0077569D02*
X0106506Y0079104D01*
X0103437Y0078337D02*
X0103437Y0075267D01*
X0100368Y0078337D01*
X0100368Y0075267D01*
X0101135Y0074500D01*
X0102670Y0074500D01*
X0103437Y0075267D01*
X0103437Y0078337D02*
X0102670Y0079104D01*
X0101135Y0079104D01*
X0100368Y0078337D01*
X0098833Y0078337D02*
X0098066Y0079104D01*
X0096531Y0079104D01*
X0095764Y0078337D01*
X0098833Y0075267D01*
X0098066Y0074500D01*
X0096531Y0074500D01*
X0095764Y0075267D01*
X0095764Y0078337D01*
X0094229Y0077569D02*
X0091927Y0077569D01*
X0091160Y0076802D01*
X0091160Y0074500D01*
X0094229Y0074500D02*
X0094229Y0077569D01*
X0098833Y0078337D02*
X0098833Y0075267D01*
X0073094Y0103956D02*
X0074629Y0105490D01*
X0070025Y0105490D01*
X0070025Y0103956D02*
X0070025Y0107025D01*
X0070793Y0108559D02*
X0073862Y0111629D01*
X0070793Y0111629D01*
X0070025Y0110861D01*
X0070025Y0109327D01*
X0070793Y0108559D01*
X0073862Y0108559D01*
X0074629Y0109327D01*
X0074629Y0110861D01*
X0073862Y0111629D01*
X0074629Y0113163D02*
X0070025Y0113163D01*
X0071560Y0113163D02*
X0070025Y0115465D01*
X0071560Y0113163D02*
X0073094Y0115465D01*
X0095219Y0117000D02*
X0097521Y0118535D01*
X0095219Y0120069D01*
X0097521Y0121604D02*
X0097521Y0117000D01*
X0099056Y0117000D02*
X0102125Y0117000D01*
X0100591Y0117000D02*
X0100591Y0121604D01*
X0102125Y0120069D01*
X0148775Y0149025D02*
X0148775Y0152094D01*
X0148775Y0150560D02*
X0153379Y0150560D01*
X0151844Y0149025D01*
X0152612Y0153629D02*
X0149543Y0153629D01*
X0152612Y0156698D01*
X0149543Y0156698D01*
X0148775Y0155931D01*
X0148775Y0154396D01*
X0149543Y0153629D01*
X0152612Y0153629D02*
X0153379Y0154396D01*
X0153379Y0155931D01*
X0152612Y0156698D01*
X0152612Y0158233D02*
X0153379Y0159000D01*
X0153379Y0160535D01*
X0152612Y0161302D01*
X0149543Y0158233D01*
X0148775Y0159000D01*
X0148775Y0160535D01*
X0149543Y0161302D01*
X0152612Y0161302D01*
X0151844Y0162837D02*
X0148775Y0162837D01*
X0148775Y0165906D02*
X0151077Y0165906D01*
X0151844Y0165139D01*
X0151844Y0162837D01*
X0151077Y0167441D02*
X0151077Y0168975D01*
X0148775Y0167441D02*
X0153379Y0167441D01*
X0153379Y0170510D01*
X0152612Y0158233D02*
X0149543Y0158233D01*
X0105544Y0196031D02*
X0105544Y0197566D01*
X0104777Y0198333D01*
X0104009Y0198333D01*
X0103242Y0197566D01*
X0103242Y0196031D01*
X0104009Y0195264D01*
X0104777Y0195264D01*
X0105544Y0196031D01*
X0103242Y0196031D02*
X0102475Y0195264D01*
X0101707Y0195264D01*
X0100940Y0196031D01*
X0100940Y0197566D01*
X0101707Y0198333D01*
X0102475Y0198333D01*
X0103242Y0197566D01*
X0105544Y0199868D02*
X0104009Y0201402D01*
X0105544Y0202937D01*
X0100940Y0202937D01*
X0100940Y0204472D02*
X0105544Y0204472D01*
X0103242Y0204472D02*
X0103242Y0207541D01*
X0104009Y0209075D02*
X0104009Y0212145D01*
X0100940Y0209075D01*
X0100940Y0212145D01*
X0100940Y0207541D02*
X0105544Y0207541D01*
X0105544Y0199868D02*
X0100940Y0199868D01*
X0084884Y0199197D02*
X0080280Y0199197D01*
X0080280Y0200731D02*
X0080280Y0197662D01*
X0083350Y0197662D02*
X0084884Y0199197D01*
X0084884Y0202266D02*
X0080280Y0202266D01*
X0080280Y0205335D02*
X0084884Y0205335D01*
X0083350Y0203801D01*
X0084884Y0202266D01*
X0075352Y0201743D02*
X0075352Y0198674D01*
X0070748Y0198674D01*
X0071516Y0197139D02*
X0070748Y0196372D01*
X0070748Y0194070D01*
X0069214Y0194070D02*
X0073818Y0194070D01*
X0073818Y0196372D01*
X0073050Y0197139D01*
X0071516Y0197139D01*
X0073050Y0198674D02*
X0073050Y0200209D01*
X0073994Y0203188D02*
X0074761Y0203955D01*
X0074761Y0205490D01*
X0073994Y0206257D01*
X0073227Y0206257D01*
X0070157Y0203188D01*
X0070157Y0206257D01*
X0070157Y0207792D02*
X0073227Y0210861D01*
X0073994Y0210861D01*
X0074761Y0210094D01*
X0074761Y0208559D01*
X0073994Y0207792D01*
X0070157Y0207792D02*
X0070157Y0210861D01*
X0070157Y0212396D02*
X0070157Y0214698D01*
X0070925Y0215465D01*
X0072459Y0215465D01*
X0073227Y0214698D01*
X0073227Y0212396D01*
X0068623Y0212396D01*
X0070157Y0217000D02*
X0074761Y0217000D01*
X0074761Y0220069D01*
X0072459Y0218534D02*
X0072459Y0217000D01*
X0073818Y0192535D02*
X0074585Y0192535D01*
X0075352Y0191768D01*
X0075352Y0190233D01*
X0074585Y0189466D01*
X0074585Y0187932D02*
X0075352Y0187164D01*
X0075352Y0185630D01*
X0074585Y0184862D01*
X0073818Y0187932D02*
X0070748Y0184862D01*
X0070748Y0187932D01*
X0070748Y0189466D02*
X0073818Y0192535D01*
X0070748Y0192535D02*
X0070748Y0189466D01*
X0073818Y0187932D02*
X0074585Y0187932D01*
X0087525Y0185614D02*
X0089060Y0183312D01*
X0090594Y0185614D01*
X0092129Y0183312D02*
X0087525Y0183312D01*
X0088293Y0181777D02*
X0087525Y0181010D01*
X0087525Y0179475D01*
X0088293Y0178708D01*
X0091362Y0181777D01*
X0088293Y0181777D01*
X0091362Y0181777D02*
X0092129Y0181010D01*
X0092129Y0179475D01*
X0091362Y0178708D01*
X0088293Y0178708D01*
X0088293Y0177173D02*
X0087525Y0176406D01*
X0087525Y0174871D01*
X0088293Y0174104D01*
X0091362Y0177173D01*
X0088293Y0177173D01*
X0091362Y0177173D02*
X0092129Y0176406D01*
X0092129Y0174871D01*
X0091362Y0174104D01*
X0088293Y0174104D01*
X0087525Y0172569D02*
X0087525Y0169500D01*
X0087525Y0171035D02*
X0092129Y0171035D01*
X0090594Y0169500D01*
X0014629Y0187767D02*
X0013862Y0187000D01*
X0013094Y0187000D01*
X0012327Y0187767D01*
X0012327Y0189302D01*
X0011560Y0190069D01*
X0010793Y0190069D01*
X0010025Y0189302D01*
X0010025Y0187767D01*
X0010793Y0187000D01*
X0014629Y0187767D02*
X0014629Y0189302D01*
X0013862Y0190069D01*
X0014629Y0191604D02*
X0010025Y0191604D01*
X0011560Y0191604D02*
X0011560Y0193906D01*
X0012327Y0194673D01*
X0013862Y0194673D01*
X0014629Y0193906D01*
X0014629Y0191604D01*
X0014629Y0196208D02*
X0014629Y0197742D01*
X0014629Y0196975D02*
X0010025Y0196975D01*
X0010025Y0196208D02*
X0010025Y0197742D01*
X0170615Y0219500D02*
X0172917Y0221035D01*
X0170615Y0222569D01*
X0172917Y0224104D02*
X0172917Y0219500D01*
X0174452Y0220267D02*
X0175219Y0219500D01*
X0176754Y0219500D01*
X0177521Y0220267D01*
X0174452Y0223337D01*
X0174452Y0220267D01*
X0177521Y0220267D02*
X0177521Y0223337D01*
X0176754Y0224104D01*
X0175219Y0224104D01*
X0174452Y0223337D01*
X0179056Y0219500D02*
X0182125Y0219500D01*
X0180591Y0219500D02*
X0180591Y0224104D01*
X0182125Y0222569D01*
X0225897Y0251820D02*
X0228966Y0254889D01*
X0229734Y0254889D01*
X0230501Y0254122D01*
X0230501Y0252588D01*
X0229734Y0251820D01*
X0225897Y0251820D02*
X0225897Y0254889D01*
X0225897Y0256424D02*
X0228966Y0259493D01*
X0229734Y0259493D01*
X0230501Y0258726D01*
X0230501Y0257191D01*
X0229734Y0256424D01*
X0225897Y0256424D02*
X0225897Y0259493D01*
X0226664Y0261028D02*
X0225897Y0261795D01*
X0225897Y0263330D01*
X0226664Y0264097D01*
X0229734Y0264097D01*
X0226664Y0261028D01*
X0229734Y0261028D01*
X0230501Y0261795D01*
X0230501Y0263330D01*
X0229734Y0264097D01*
X0258906Y0249003D02*
X0258906Y0246601D01*
X0259507Y0246000D01*
X0260708Y0246000D01*
X0261308Y0246601D01*
X0258906Y0249003D01*
X0259507Y0249603D01*
X0260708Y0249603D01*
X0261308Y0249003D01*
X0261308Y0246601D01*
X0262589Y0249003D02*
X0264991Y0246601D01*
X0264991Y0246000D01*
X0266873Y0246000D02*
X0266873Y0249603D01*
X0268675Y0247802D01*
X0266273Y0247802D01*
X0264991Y0249603D02*
X0262589Y0249603D01*
X0262589Y0249003D01*
X0274025Y0254267D02*
X0274025Y0256669D01*
X0274025Y0255468D02*
X0277628Y0255468D01*
X0276427Y0254267D01*
X0277028Y0257951D02*
X0274626Y0257951D01*
X0277028Y0260353D01*
X0274626Y0260353D01*
X0274025Y0259752D01*
X0274025Y0258551D01*
X0274626Y0257951D01*
X0277028Y0257951D02*
X0277628Y0258551D01*
X0277628Y0259752D01*
X0277028Y0260353D01*
X0275827Y0262234D02*
X0274626Y0262234D01*
X0273425Y0262234D01*
X0272824Y0261634D01*
X0274025Y0262835D02*
X0274025Y0263435D01*
X0274626Y0264036D01*
X0275827Y0264036D01*
X0275827Y0265317D02*
X0275827Y0266518D01*
X0277628Y0265317D02*
X0277628Y0267719D01*
X0277628Y0265317D02*
X0274025Y0265317D01*
X0274025Y0262835D02*
X0274626Y0262234D01*
X0293076Y0281500D02*
X0293076Y0285103D01*
X0290674Y0285103D01*
X0291875Y0283302D02*
X0293076Y0283302D01*
X0294357Y0283302D02*
X0294357Y0282101D01*
X0294957Y0281500D01*
X0295558Y0281500D01*
X0296158Y0282101D01*
X0296158Y0280899D01*
X0296759Y0280299D01*
X0296158Y0282101D02*
X0296158Y0283302D01*
X0298040Y0284503D02*
X0298641Y0285103D01*
X0299842Y0285103D01*
X0300442Y0284503D01*
X0300442Y0282101D01*
X0298040Y0284503D01*
X0298040Y0282101D01*
X0298641Y0281500D01*
X0299842Y0281500D01*
X0300442Y0282101D01*
X0301723Y0281500D02*
X0304125Y0281500D01*
X0302924Y0281500D02*
X0302924Y0285103D01*
X0304125Y0283902D01*
X0324025Y0277732D02*
X0325226Y0275931D01*
X0326427Y0277732D01*
X0327628Y0275931D02*
X0324025Y0275931D01*
X0324626Y0274650D02*
X0324025Y0274049D01*
X0324025Y0272848D01*
X0324626Y0272248D01*
X0327028Y0274650D01*
X0324626Y0274650D01*
X0327028Y0274650D02*
X0327628Y0274049D01*
X0327628Y0272848D01*
X0327028Y0272248D01*
X0324626Y0272248D01*
X0324626Y0270966D02*
X0324025Y0270366D01*
X0324025Y0269165D01*
X0324626Y0268564D01*
X0327028Y0270966D01*
X0324626Y0270966D01*
X0324626Y0268564D02*
X0327028Y0268564D01*
X0327628Y0269165D01*
X0327628Y0270366D01*
X0327028Y0270966D01*
X0324025Y0267283D02*
X0324025Y0264881D01*
X0324025Y0266082D02*
X0327628Y0266082D01*
X0326427Y0264881D01*
X0304125Y0241402D02*
X0302924Y0242603D01*
X0302924Y0239000D01*
X0304125Y0239000D02*
X0301723Y0239000D01*
X0300442Y0239601D02*
X0298040Y0242003D01*
X0298040Y0239601D01*
X0298641Y0239000D01*
X0299842Y0239000D01*
X0300442Y0239601D01*
X0300442Y0242003D01*
X0299842Y0242603D01*
X0298641Y0242603D01*
X0298040Y0242003D01*
X0296759Y0242603D02*
X0296759Y0239000D01*
X0296759Y0240201D02*
X0294357Y0242603D01*
X0296158Y0240802D02*
X0294357Y0239000D01*
X0297200Y0231404D02*
X0296432Y0230637D01*
X0296432Y0229869D01*
X0297200Y0229102D01*
X0296432Y0228335D01*
X0296432Y0227567D01*
X0297200Y0226800D01*
X0298734Y0226800D01*
X0299502Y0227567D01*
X0298224Y0227302D02*
X0299625Y0225901D01*
X0297757Y0225901D01*
X0298224Y0224500D02*
X0298224Y0227302D01*
X0297967Y0229102D02*
X0297200Y0229102D01*
X0297200Y0231404D02*
X0298734Y0231404D01*
X0299502Y0230637D01*
X0301036Y0230637D02*
X0304106Y0227567D01*
X0303338Y0226800D01*
X0301804Y0226800D01*
X0301036Y0227567D01*
X0301036Y0230637D01*
X0301804Y0231404D01*
X0303338Y0231404D01*
X0304106Y0230637D01*
X0304106Y0227567D01*
X0305640Y0230637D02*
X0308709Y0227567D01*
X0308709Y0226800D01*
X0310244Y0226800D02*
X0313313Y0226800D01*
X0311779Y0226800D02*
X0311779Y0231404D01*
X0313313Y0229869D01*
X0314848Y0229102D02*
X0315615Y0228335D01*
X0317917Y0228335D01*
X0317917Y0226800D02*
X0317917Y0231404D01*
X0315615Y0231404D01*
X0314848Y0230637D01*
X0314848Y0229102D01*
X0319452Y0230637D02*
X0320219Y0231404D01*
X0321754Y0231404D01*
X0322521Y0230637D01*
X0322521Y0227567D01*
X0321754Y0226800D01*
X0320219Y0226800D01*
X0319452Y0227567D01*
X0324056Y0226800D02*
X0324056Y0231404D01*
X0325591Y0229869D01*
X0327125Y0231404D01*
X0327125Y0226800D01*
X0308709Y0231404D02*
X0305640Y0231404D01*
X0305640Y0230637D01*
X0294898Y0229102D02*
X0291828Y0229102D01*
X0290294Y0229102D02*
X0288759Y0229869D01*
X0287992Y0229869D01*
X0287225Y0229102D01*
X0287225Y0227567D01*
X0287992Y0226800D01*
X0289526Y0226800D01*
X0290294Y0227567D01*
X0290294Y0229102D02*
X0290294Y0231404D01*
X0287225Y0231404D01*
X0285690Y0230637D02*
X0284923Y0231404D01*
X0283388Y0231404D01*
X0282621Y0230637D01*
X0285690Y0227567D01*
X0284923Y0226800D01*
X0283388Y0226800D01*
X0282621Y0227567D01*
X0282621Y0230637D01*
X0285690Y0230637D02*
X0285690Y0227567D01*
X0268675Y0235302D02*
X0266273Y0235302D01*
X0264991Y0234101D02*
X0264991Y0233500D01*
X0264991Y0234101D02*
X0262589Y0236503D01*
X0262589Y0237103D01*
X0264991Y0237103D01*
X0266873Y0237103D02*
X0268675Y0235302D01*
X0266873Y0237103D02*
X0266873Y0233500D01*
X0261308Y0234101D02*
X0261308Y0236503D01*
X0260708Y0237103D01*
X0259507Y0237103D01*
X0258906Y0236503D01*
X0261308Y0234101D01*
X0260708Y0233500D01*
X0259507Y0233500D01*
X0258906Y0234101D01*
X0258906Y0236503D01*
X0258140Y0208904D02*
X0258140Y0208137D01*
X0261209Y0205067D01*
X0261209Y0204300D01*
X0262744Y0204300D02*
X0265813Y0204300D01*
X0264279Y0204300D02*
X0264279Y0208904D01*
X0265813Y0207369D01*
X0267348Y0206602D02*
X0268115Y0205835D01*
X0270417Y0205835D01*
X0270417Y0204300D02*
X0270417Y0208904D01*
X0268115Y0208904D01*
X0267348Y0208137D01*
X0267348Y0206602D01*
X0271952Y0208137D02*
X0272719Y0208904D01*
X0274254Y0208904D01*
X0275021Y0208137D01*
X0275021Y0205067D01*
X0274254Y0204300D01*
X0272719Y0204300D01*
X0271952Y0205067D01*
X0276556Y0204300D02*
X0276556Y0208904D01*
X0278091Y0207369D01*
X0279625Y0208904D01*
X0279625Y0204300D01*
X0261209Y0208904D02*
X0258140Y0208904D01*
X0256606Y0208137D02*
X0255838Y0208904D01*
X0254304Y0208904D01*
X0253536Y0208137D01*
X0256606Y0205067D01*
X0255838Y0204300D01*
X0254304Y0204300D01*
X0253536Y0205067D01*
X0253536Y0208137D01*
X0252002Y0208137D02*
X0251234Y0208904D01*
X0249700Y0208904D01*
X0248932Y0208137D01*
X0248932Y0207369D01*
X0249700Y0206602D01*
X0248932Y0205835D01*
X0248932Y0205067D01*
X0249700Y0204300D01*
X0251234Y0204300D01*
X0252002Y0205067D01*
X0250467Y0206602D02*
X0249700Y0206602D01*
X0247398Y0206602D02*
X0244328Y0206602D01*
X0242794Y0208137D02*
X0242026Y0208904D01*
X0240492Y0208904D01*
X0239725Y0208137D01*
X0239725Y0207369D01*
X0240492Y0206602D01*
X0239725Y0205835D01*
X0239725Y0205067D01*
X0240492Y0204300D01*
X0242026Y0204300D01*
X0242794Y0205067D01*
X0241259Y0206602D02*
X0240492Y0206602D01*
X0238190Y0208137D02*
X0237423Y0208904D01*
X0235888Y0208904D01*
X0235121Y0208137D01*
X0235121Y0207369D01*
X0235888Y0206602D01*
X0235121Y0205835D01*
X0235121Y0205067D01*
X0235888Y0204300D01*
X0237423Y0204300D01*
X0238190Y0205067D01*
X0236655Y0206602D02*
X0235888Y0206602D01*
X0247757Y0203401D02*
X0249625Y0203401D01*
X0248224Y0204802D01*
X0248224Y0202000D01*
X0256606Y0205067D02*
X0256606Y0208137D01*
X0358837Y0183654D02*
X0360267Y0183654D01*
X0369465Y0186924D02*
X0378556Y0186924D01*
X0370282Y0187742D02*
X0370282Y0188355D01*
X0370282Y0187742D02*
X0370280Y0187686D01*
X0370274Y0187631D01*
X0370265Y0187576D01*
X0370252Y0187522D01*
X0370235Y0187468D01*
X0370214Y0187417D01*
X0370190Y0187366D01*
X0370163Y0187317D01*
X0370132Y0187271D01*
X0370099Y0187226D01*
X0370062Y0187184D01*
X0370023Y0187145D01*
X0369981Y0187108D01*
X0369936Y0187075D01*
X0369890Y0187044D01*
X0369841Y0187017D01*
X0369790Y0186993D01*
X0369739Y0186972D01*
X0369685Y0186955D01*
X0369631Y0186942D01*
X0369576Y0186933D01*
X0369521Y0186927D01*
X0369465Y0186925D01*
X0142472Y0031802D02*
X0139402Y0031802D01*
X0137868Y0030267D02*
X0137100Y0030267D01*
X0137100Y0029500D01*
X0137868Y0029500D01*
X0137868Y0030267D01*
X0135566Y0030267D02*
X0135566Y0029500D01*
X0135566Y0030267D02*
X0132496Y0033337D01*
X0132496Y0034104D01*
X0135566Y0034104D01*
X0140170Y0034104D02*
X0140170Y0029500D01*
X0142472Y0031802D02*
X0140170Y0034104D01*
X0130962Y0034104D02*
X0130962Y0029500D01*
X0130962Y0031035D02*
X0128660Y0032569D01*
X0130962Y0031035D02*
X0128660Y0029500D01*
D12*
X0128678Y0041950D02*
X0124975Y0041950D01*
X0124975Y0043802D01*
X0125592Y0044419D01*
X0128061Y0044419D01*
X0128678Y0043802D01*
X0128678Y0041950D01*
X0128061Y0045633D02*
X0127444Y0045633D01*
X0126827Y0046250D01*
X0126827Y0047485D01*
X0126210Y0048102D01*
X0125592Y0048102D01*
X0124975Y0047485D01*
X0124975Y0046250D01*
X0125592Y0045633D01*
X0128061Y0045633D02*
X0128678Y0046250D01*
X0128678Y0047485D01*
X0128061Y0048102D01*
X0127444Y0049316D02*
X0128678Y0050551D01*
X0124975Y0050551D01*
X0124975Y0051785D02*
X0124975Y0049316D01*
X0125592Y0052999D02*
X0124975Y0053617D01*
X0124975Y0054851D01*
X0125592Y0055468D01*
X0126210Y0055468D01*
X0126827Y0054851D01*
X0126827Y0053617D01*
X0127444Y0052999D01*
X0128061Y0052999D01*
X0128678Y0053617D01*
X0128678Y0054851D01*
X0128061Y0055468D01*
X0127444Y0055468D01*
X0126827Y0054851D01*
X0126827Y0053617D02*
X0126210Y0052999D01*
X0125592Y0052999D01*
X0124975Y0056683D02*
X0124975Y0058534D01*
X0125592Y0059151D01*
X0126210Y0059151D01*
X0126827Y0058534D01*
X0126827Y0056683D01*
X0126827Y0058534D02*
X0127444Y0059151D01*
X0128061Y0059151D01*
X0128678Y0058534D01*
X0128678Y0056683D01*
X0124975Y0056683D01*
X0124975Y0060366D02*
X0127444Y0062834D01*
X0128061Y0062834D01*
X0128678Y0062217D01*
X0128678Y0060983D01*
X0128061Y0060366D01*
X0124975Y0060366D02*
X0124975Y0062834D01*
X0125592Y0064049D02*
X0124975Y0064666D01*
X0124975Y0065900D01*
X0125592Y0066518D01*
X0128061Y0066518D01*
X0125592Y0064049D01*
X0128061Y0064049D01*
X0128678Y0064666D01*
X0128678Y0065900D01*
X0128061Y0066518D01*
X0259706Y0133802D02*
X0262175Y0133802D01*
X0260941Y0135036D02*
X0260941Y0132567D01*
X0200212Y0169067D02*
X0197743Y0169067D01*
X0198977Y0169067D02*
X0198977Y0172770D01*
X0200212Y0171535D01*
X0196529Y0172153D02*
X0196529Y0169684D01*
X0194060Y0172153D01*
X0194060Y0169684D01*
X0194677Y0169067D01*
X0195911Y0169067D01*
X0196529Y0169684D01*
X0196529Y0172153D02*
X0195911Y0172770D01*
X0194677Y0172770D01*
X0194060Y0172153D01*
X0192845Y0172153D02*
X0192228Y0172770D01*
X0190994Y0172770D01*
X0190377Y0172153D01*
X0192845Y0169684D01*
X0192228Y0169067D01*
X0190994Y0169067D01*
X0190377Y0169684D01*
X0190377Y0172153D01*
X0189162Y0171535D02*
X0187311Y0171535D01*
X0186694Y0170918D01*
X0186694Y0169067D01*
X0185479Y0169067D02*
X0185479Y0172770D01*
X0183010Y0172770D01*
X0184245Y0170918D02*
X0185479Y0170918D01*
X0189162Y0171535D02*
X0189162Y0169067D01*
X0192845Y0169684D02*
X0192845Y0172153D01*
X0192456Y0194557D02*
X0193073Y0195174D01*
X0190605Y0197643D01*
X0190605Y0195174D01*
X0191222Y0194557D01*
X0192456Y0194557D01*
X0193073Y0195174D02*
X0193073Y0197643D01*
X0192456Y0198260D01*
X0191222Y0198260D01*
X0190605Y0197643D01*
X0189390Y0197026D02*
X0187539Y0197026D01*
X0186921Y0196409D01*
X0186921Y0194557D01*
X0185707Y0194557D02*
X0185707Y0198260D01*
X0183238Y0198260D01*
X0184473Y0196409D02*
X0185707Y0196409D01*
X0189390Y0197026D02*
X0189390Y0194557D01*
X0194288Y0195174D02*
X0194288Y0197643D01*
X0196756Y0195174D01*
X0196139Y0194557D01*
X0194905Y0194557D01*
X0194288Y0195174D01*
X0196756Y0195174D02*
X0196756Y0197643D01*
X0196139Y0198260D01*
X0194905Y0198260D01*
X0194288Y0197643D01*
X0197971Y0194557D02*
X0200440Y0194557D01*
X0199205Y0194557D02*
X0199205Y0198260D01*
X0200440Y0197026D01*
D13*
X0205239Y0190343D02*
X0219412Y0190343D01*
X0219412Y0183257D01*
X0205239Y0183257D01*
X0205239Y0190343D01*
X0205239Y0180343D02*
X0205239Y0173257D01*
X0219412Y0173257D01*
X0219412Y0180343D01*
X0205239Y0180343D01*
X0244425Y0184800D02*
X0270225Y0184800D01*
X0270225Y0198800D01*
X0244425Y0198800D01*
X0244425Y0184800D01*
X0282876Y0168237D02*
X0282876Y0160363D01*
X0288388Y0160363D01*
X0291144Y0161544D02*
X0291144Y0164300D01*
X0293506Y0161938D01*
X0293506Y0166662D01*
X0291144Y0164300D01*
X0291144Y0167056D01*
X0288388Y0168237D02*
X0282876Y0168237D01*
X0296262Y0168237D02*
X0301774Y0168237D01*
X0301774Y0160363D01*
X0296262Y0160363D01*
X0327207Y0132528D02*
X0327207Y0088040D01*
X0381931Y0088040D01*
X0381931Y0132528D01*
X0327207Y0132528D01*
X0382325Y0120717D02*
X0395711Y0120717D01*
X0395711Y0097883D01*
X0382325Y0097883D01*
X0375278Y0206898D02*
X0337109Y0206898D01*
X0337109Y0256702D01*
X0369372Y0256702D01*
X0375278Y0256702D01*
X0395750Y0256702D01*
X0395750Y0206898D01*
X0375278Y0206898D01*
X0375233Y0206795D01*
X0375184Y0206694D01*
X0375132Y0206594D01*
X0375077Y0206497D01*
X0375018Y0206401D01*
X0374956Y0206307D01*
X0374890Y0206216D01*
X0374821Y0206127D01*
X0374750Y0206041D01*
X0374675Y0205957D01*
X0374597Y0205876D01*
X0374517Y0205797D01*
X0374434Y0205722D01*
X0374348Y0205649D01*
X0374260Y0205580D01*
X0374169Y0205513D01*
X0374076Y0205450D01*
X0373981Y0205390D01*
X0373884Y0205334D01*
X0373785Y0205281D01*
X0373684Y0205231D01*
X0373582Y0205185D01*
X0373478Y0205143D01*
X0373372Y0205104D01*
X0373266Y0205069D01*
X0373158Y0205038D01*
X0373049Y0205011D01*
X0372939Y0204987D01*
X0372828Y0204968D01*
X0372717Y0204952D01*
X0372605Y0204940D01*
X0372493Y0204932D01*
X0372381Y0204928D01*
X0372269Y0204928D01*
X0372157Y0204932D01*
X0372045Y0204940D01*
X0371933Y0204952D01*
X0371822Y0204968D01*
X0371711Y0204987D01*
X0371601Y0205011D01*
X0371492Y0205038D01*
X0371384Y0205069D01*
X0371278Y0205104D01*
X0371172Y0205143D01*
X0371068Y0205185D01*
X0370966Y0205231D01*
X0370865Y0205281D01*
X0370766Y0205334D01*
X0370669Y0205390D01*
X0370574Y0205450D01*
X0370481Y0205513D01*
X0370390Y0205580D01*
X0370302Y0205649D01*
X0370216Y0205722D01*
X0370133Y0205797D01*
X0370053Y0205876D01*
X0369975Y0205957D01*
X0369900Y0206041D01*
X0369829Y0206127D01*
X0369760Y0206216D01*
X0369694Y0206307D01*
X0369632Y0206401D01*
X0369573Y0206497D01*
X0369518Y0206594D01*
X0369466Y0206694D01*
X0369417Y0206795D01*
X0369372Y0206898D01*
X0336262Y0237351D02*
X0328388Y0237351D01*
X0328388Y0242863D01*
X0329963Y0245619D02*
X0332325Y0247981D01*
X0334687Y0245619D01*
X0329963Y0245619D01*
X0329569Y0247981D02*
X0332325Y0247981D01*
X0335081Y0247981D01*
X0336262Y0250737D02*
X0336262Y0256249D01*
X0328388Y0256249D01*
X0328388Y0250737D01*
X0323762Y0250737D02*
X0323762Y0256249D01*
X0315888Y0256249D01*
X0315888Y0250737D01*
X0317069Y0247981D02*
X0319825Y0247981D01*
X0317463Y0245619D01*
X0322187Y0245619D01*
X0319825Y0247981D01*
X0322581Y0247981D01*
X0323762Y0242863D02*
X0323762Y0237351D01*
X0315888Y0237351D01*
X0315888Y0242863D01*
X0306912Y0243257D02*
X0306912Y0250343D01*
X0292739Y0250343D01*
X0292739Y0243257D01*
X0306912Y0243257D01*
X0302975Y0256091D02*
X0296676Y0256091D01*
X0302975Y0260028D02*
X0302975Y0263572D01*
X0302975Y0267509D02*
X0296676Y0267509D01*
X0292739Y0273257D02*
X0306912Y0273257D01*
X0306912Y0280343D01*
X0292739Y0280343D01*
X0292739Y0273257D01*
X0285869Y0268887D02*
X0278782Y0268887D01*
X0278782Y0254713D01*
X0285869Y0254713D01*
X0285869Y0268887D01*
X0269412Y0257843D02*
X0255239Y0257843D01*
X0255239Y0250757D01*
X0269412Y0250757D01*
X0269412Y0257843D01*
X0269412Y0245343D02*
X0255239Y0245343D01*
X0255239Y0238257D01*
X0269412Y0238257D01*
X0269412Y0245343D01*
X0252306Y0245146D02*
X0252306Y0238454D01*
X0237345Y0238454D01*
X0237345Y0245146D01*
X0252306Y0245146D01*
X0252306Y0250954D02*
X0237345Y0250954D01*
X0237345Y0257646D01*
X0252306Y0257646D01*
X0252306Y0250954D01*
X0245613Y0252725D02*
X0245613Y0255875D01*
X0244038Y0254300D01*
X0245613Y0252725D01*
X0244038Y0252725D02*
X0244038Y0254300D01*
X0244038Y0255875D01*
X0244038Y0243375D02*
X0245613Y0241800D01*
X0244038Y0240225D01*
X0244038Y0243375D01*
X0245613Y0243375D02*
X0245613Y0241800D01*
X0245613Y0240225D01*
X0294425Y0221300D02*
X0294425Y0207300D01*
X0320225Y0207300D01*
X0320225Y0221300D01*
X0294425Y0221300D01*
X0336262Y0237351D02*
X0336262Y0242863D01*
X0336262Y0264851D02*
X0328388Y0264851D01*
X0328388Y0270363D01*
X0329569Y0273119D02*
X0332325Y0273119D01*
X0334687Y0275481D01*
X0329963Y0275481D01*
X0332325Y0273119D01*
X0335081Y0273119D01*
X0336262Y0270363D02*
X0336262Y0264851D01*
X0323369Y0264713D02*
X0323369Y0278887D01*
X0316282Y0278887D01*
X0316282Y0264713D01*
X0323369Y0264713D01*
X0328388Y0278237D02*
X0328388Y0283749D01*
X0336262Y0283749D01*
X0336262Y0278237D01*
X0369372Y0256702D02*
X0369417Y0256805D01*
X0369466Y0256906D01*
X0369518Y0257006D01*
X0369573Y0257103D01*
X0369632Y0257199D01*
X0369694Y0257293D01*
X0369760Y0257384D01*
X0369829Y0257473D01*
X0369900Y0257559D01*
X0369975Y0257643D01*
X0370053Y0257724D01*
X0370133Y0257803D01*
X0370216Y0257878D01*
X0370302Y0257951D01*
X0370390Y0258020D01*
X0370481Y0258087D01*
X0370574Y0258150D01*
X0370669Y0258210D01*
X0370766Y0258266D01*
X0370865Y0258319D01*
X0370966Y0258369D01*
X0371068Y0258415D01*
X0371172Y0258457D01*
X0371278Y0258496D01*
X0371384Y0258531D01*
X0371492Y0258562D01*
X0371601Y0258589D01*
X0371711Y0258613D01*
X0371822Y0258632D01*
X0371933Y0258648D01*
X0372045Y0258660D01*
X0372157Y0258668D01*
X0372269Y0258672D01*
X0372381Y0258672D01*
X0372493Y0258668D01*
X0372605Y0258660D01*
X0372717Y0258648D01*
X0372828Y0258632D01*
X0372939Y0258613D01*
X0373049Y0258589D01*
X0373158Y0258562D01*
X0373266Y0258531D01*
X0373372Y0258496D01*
X0373478Y0258457D01*
X0373582Y0258415D01*
X0373684Y0258369D01*
X0373785Y0258319D01*
X0373884Y0258266D01*
X0373981Y0258210D01*
X0374076Y0258150D01*
X0374169Y0258087D01*
X0374260Y0258020D01*
X0374348Y0257951D01*
X0374434Y0257878D01*
X0374517Y0257803D01*
X0374597Y0257724D01*
X0374675Y0257643D01*
X0374750Y0257559D01*
X0374821Y0257473D01*
X0374890Y0257384D01*
X0374956Y0257293D01*
X0375018Y0257199D01*
X0375077Y0257103D01*
X0375132Y0257006D01*
X0375184Y0256906D01*
X0375233Y0256805D01*
X0375278Y0256702D01*
X0166223Y0219123D02*
X0166223Y0184477D01*
X0164648Y0182902D01*
X0130002Y0182902D01*
X0128428Y0184477D01*
X0128428Y0219123D01*
X0130002Y0220698D01*
X0164648Y0220698D01*
X0166223Y0219123D01*
X0164825Y0144300D02*
X0164825Y0129300D01*
X0138034Y0119950D02*
X0138034Y0113650D01*
X0126617Y0113650D02*
X0126617Y0119950D01*
X0060042Y0141702D02*
X0060042Y0091898D01*
X0027778Y0091898D01*
X0021872Y0091898D01*
X0001400Y0091898D01*
X0001400Y0141702D01*
X0021872Y0141702D01*
X0060042Y0141702D01*
X0027778Y0141702D02*
X0027733Y0141805D01*
X0027684Y0141906D01*
X0027632Y0142006D01*
X0027577Y0142103D01*
X0027518Y0142199D01*
X0027456Y0142293D01*
X0027390Y0142384D01*
X0027321Y0142473D01*
X0027250Y0142559D01*
X0027175Y0142643D01*
X0027097Y0142724D01*
X0027017Y0142803D01*
X0026934Y0142878D01*
X0026848Y0142951D01*
X0026760Y0143020D01*
X0026669Y0143087D01*
X0026576Y0143150D01*
X0026481Y0143210D01*
X0026384Y0143266D01*
X0026285Y0143319D01*
X0026184Y0143369D01*
X0026082Y0143415D01*
X0025978Y0143457D01*
X0025872Y0143496D01*
X0025766Y0143531D01*
X0025658Y0143562D01*
X0025549Y0143589D01*
X0025439Y0143613D01*
X0025328Y0143632D01*
X0025217Y0143648D01*
X0025105Y0143660D01*
X0024993Y0143668D01*
X0024881Y0143672D01*
X0024769Y0143672D01*
X0024657Y0143668D01*
X0024545Y0143660D01*
X0024433Y0143648D01*
X0024322Y0143632D01*
X0024211Y0143613D01*
X0024101Y0143589D01*
X0023992Y0143562D01*
X0023884Y0143531D01*
X0023778Y0143496D01*
X0023672Y0143457D01*
X0023568Y0143415D01*
X0023466Y0143369D01*
X0023365Y0143319D01*
X0023266Y0143266D01*
X0023169Y0143210D01*
X0023074Y0143150D01*
X0022981Y0143087D01*
X0022890Y0143020D01*
X0022802Y0142951D01*
X0022716Y0142878D01*
X0022633Y0142803D01*
X0022553Y0142724D01*
X0022475Y0142643D01*
X0022400Y0142559D01*
X0022329Y0142473D01*
X0022260Y0142384D01*
X0022194Y0142293D01*
X0022132Y0142199D01*
X0022073Y0142103D01*
X0022018Y0142006D01*
X0021966Y0141906D01*
X0021917Y0141805D01*
X0021872Y0141702D01*
X0021872Y0091898D02*
X0021917Y0091795D01*
X0021966Y0091694D01*
X0022018Y0091594D01*
X0022073Y0091497D01*
X0022132Y0091401D01*
X0022194Y0091307D01*
X0022260Y0091216D01*
X0022329Y0091127D01*
X0022400Y0091041D01*
X0022475Y0090957D01*
X0022553Y0090876D01*
X0022633Y0090797D01*
X0022716Y0090722D01*
X0022802Y0090649D01*
X0022890Y0090580D01*
X0022981Y0090513D01*
X0023074Y0090450D01*
X0023169Y0090390D01*
X0023266Y0090334D01*
X0023365Y0090281D01*
X0023466Y0090231D01*
X0023568Y0090185D01*
X0023672Y0090143D01*
X0023778Y0090104D01*
X0023884Y0090069D01*
X0023992Y0090038D01*
X0024101Y0090011D01*
X0024211Y0089987D01*
X0024322Y0089968D01*
X0024433Y0089952D01*
X0024545Y0089940D01*
X0024657Y0089932D01*
X0024769Y0089928D01*
X0024881Y0089928D01*
X0024993Y0089932D01*
X0025105Y0089940D01*
X0025217Y0089952D01*
X0025328Y0089968D01*
X0025439Y0089987D01*
X0025549Y0090011D01*
X0025658Y0090038D01*
X0025766Y0090069D01*
X0025872Y0090104D01*
X0025978Y0090143D01*
X0026082Y0090185D01*
X0026184Y0090231D01*
X0026285Y0090281D01*
X0026384Y0090334D01*
X0026481Y0090390D01*
X0026576Y0090450D01*
X0026669Y0090513D01*
X0026760Y0090580D01*
X0026848Y0090649D01*
X0026934Y0090722D01*
X0027017Y0090797D01*
X0027097Y0090876D01*
X0027175Y0090957D01*
X0027250Y0091041D01*
X0027321Y0091127D01*
X0027390Y0091216D01*
X0027456Y0091307D01*
X0027518Y0091401D01*
X0027577Y0091497D01*
X0027632Y0091594D01*
X0027684Y0091694D01*
X0027733Y0091795D01*
X0027778Y0091898D01*
X0021872Y0082952D02*
X0060042Y0082952D01*
X0060042Y0033148D01*
X0027778Y0033148D01*
X0021872Y0033148D01*
X0001400Y0033148D01*
X0001400Y0082952D01*
X0021872Y0082952D01*
X0021917Y0083055D01*
X0021966Y0083156D01*
X0022018Y0083256D01*
X0022073Y0083353D01*
X0022132Y0083449D01*
X0022194Y0083543D01*
X0022260Y0083634D01*
X0022329Y0083723D01*
X0022400Y0083809D01*
X0022475Y0083893D01*
X0022553Y0083974D01*
X0022633Y0084053D01*
X0022716Y0084128D01*
X0022802Y0084201D01*
X0022890Y0084270D01*
X0022981Y0084337D01*
X0023074Y0084400D01*
X0023169Y0084460D01*
X0023266Y0084516D01*
X0023365Y0084569D01*
X0023466Y0084619D01*
X0023568Y0084665D01*
X0023672Y0084707D01*
X0023778Y0084746D01*
X0023884Y0084781D01*
X0023992Y0084812D01*
X0024101Y0084839D01*
X0024211Y0084863D01*
X0024322Y0084882D01*
X0024433Y0084898D01*
X0024545Y0084910D01*
X0024657Y0084918D01*
X0024769Y0084922D01*
X0024881Y0084922D01*
X0024993Y0084918D01*
X0025105Y0084910D01*
X0025217Y0084898D01*
X0025328Y0084882D01*
X0025439Y0084863D01*
X0025549Y0084839D01*
X0025658Y0084812D01*
X0025766Y0084781D01*
X0025872Y0084746D01*
X0025978Y0084707D01*
X0026082Y0084665D01*
X0026184Y0084619D01*
X0026285Y0084569D01*
X0026384Y0084516D01*
X0026481Y0084460D01*
X0026576Y0084400D01*
X0026669Y0084337D01*
X0026760Y0084270D01*
X0026848Y0084201D01*
X0026934Y0084128D01*
X0027017Y0084053D01*
X0027097Y0083974D01*
X0027175Y0083893D01*
X0027250Y0083809D01*
X0027321Y0083723D01*
X0027390Y0083634D01*
X0027456Y0083543D01*
X0027518Y0083449D01*
X0027577Y0083353D01*
X0027632Y0083256D01*
X0027684Y0083156D01*
X0027733Y0083055D01*
X0027778Y0082952D01*
X0027778Y0033148D02*
X0027733Y0033045D01*
X0027684Y0032944D01*
X0027632Y0032844D01*
X0027577Y0032747D01*
X0027518Y0032651D01*
X0027456Y0032557D01*
X0027390Y0032466D01*
X0027321Y0032377D01*
X0027250Y0032291D01*
X0027175Y0032207D01*
X0027097Y0032126D01*
X0027017Y0032047D01*
X0026934Y0031972D01*
X0026848Y0031899D01*
X0026760Y0031830D01*
X0026669Y0031763D01*
X0026576Y0031700D01*
X0026481Y0031640D01*
X0026384Y0031584D01*
X0026285Y0031531D01*
X0026184Y0031481D01*
X0026082Y0031435D01*
X0025978Y0031393D01*
X0025872Y0031354D01*
X0025766Y0031319D01*
X0025658Y0031288D01*
X0025549Y0031261D01*
X0025439Y0031237D01*
X0025328Y0031218D01*
X0025217Y0031202D01*
X0025105Y0031190D01*
X0024993Y0031182D01*
X0024881Y0031178D01*
X0024769Y0031178D01*
X0024657Y0031182D01*
X0024545Y0031190D01*
X0024433Y0031202D01*
X0024322Y0031218D01*
X0024211Y0031237D01*
X0024101Y0031261D01*
X0023992Y0031288D01*
X0023884Y0031319D01*
X0023778Y0031354D01*
X0023672Y0031393D01*
X0023568Y0031435D01*
X0023466Y0031481D01*
X0023365Y0031531D01*
X0023266Y0031584D01*
X0023169Y0031640D01*
X0023074Y0031700D01*
X0022981Y0031763D01*
X0022890Y0031830D01*
X0022802Y0031899D01*
X0022716Y0031972D01*
X0022633Y0032047D01*
X0022553Y0032126D01*
X0022475Y0032207D01*
X0022400Y0032291D01*
X0022329Y0032377D01*
X0022260Y0032466D01*
X0022194Y0032557D01*
X0022132Y0032651D01*
X0022073Y0032747D01*
X0022018Y0032844D01*
X0021966Y0032944D01*
X0021917Y0033045D01*
X0021872Y0033148D01*
X0129313Y0043788D02*
X0140337Y0043788D01*
X0140337Y0054812D01*
X0129313Y0054812D01*
X0129313Y0043788D01*
D14*
X0181884Y0128065D02*
X0181791Y0128233D01*
X0181695Y0128399D01*
X0181595Y0128563D01*
X0181490Y0128724D01*
X0181382Y0128883D01*
X0181270Y0129039D01*
X0181154Y0129193D01*
X0181035Y0129343D01*
X0180912Y0129491D01*
X0180786Y0129636D01*
X0180656Y0129777D01*
X0180523Y0129916D01*
X0180386Y0130051D01*
X0180246Y0130183D01*
X0180104Y0130311D01*
X0179958Y0130436D01*
X0179809Y0130558D01*
X0179657Y0130676D01*
X0179503Y0130790D01*
X0179345Y0130900D01*
X0179186Y0131007D01*
X0179023Y0131110D01*
X0178858Y0131209D01*
X0178691Y0131304D01*
X0178522Y0131394D01*
X0178351Y0131481D01*
X0178177Y0131564D01*
X0178002Y0131642D01*
X0177824Y0131716D01*
X0177645Y0131786D01*
X0177465Y0131852D01*
X0177283Y0131913D01*
X0177099Y0131970D01*
X0176914Y0132022D01*
X0176728Y0132070D01*
X0176541Y0132114D01*
X0176353Y0132153D01*
X0176164Y0132187D01*
X0175974Y0132217D01*
X0175784Y0132242D01*
X0175593Y0132263D01*
X0175401Y0132279D01*
X0175209Y0132291D01*
X0175017Y0132298D01*
X0174825Y0132300D01*
X0181771Y0120331D02*
X0181672Y0120162D01*
X0181568Y0119996D01*
X0181461Y0119832D01*
X0181350Y0119671D01*
X0181235Y0119513D01*
X0181116Y0119358D01*
X0180993Y0119205D01*
X0180867Y0119056D01*
X0180737Y0118910D01*
X0180603Y0118767D01*
X0180466Y0118627D01*
X0180326Y0118491D01*
X0180182Y0118358D01*
X0180035Y0118229D01*
X0179885Y0118103D01*
X0179732Y0117982D01*
X0179576Y0117863D01*
X0179417Y0117749D01*
X0179256Y0117639D01*
X0179091Y0117533D01*
X0178925Y0117430D01*
X0178755Y0117332D01*
X0178584Y0117238D01*
X0178410Y0117148D01*
X0178234Y0117063D01*
X0178056Y0116981D01*
X0177876Y0116905D01*
X0177694Y0116832D01*
X0177511Y0116764D01*
X0177326Y0116701D01*
X0177139Y0116642D01*
X0176951Y0116588D01*
X0176762Y0116538D01*
X0176572Y0116493D01*
X0176380Y0116453D01*
X0176188Y0116417D01*
X0175995Y0116386D01*
X0175801Y0116360D01*
X0175606Y0116338D01*
X0175411Y0116322D01*
X0175216Y0116310D01*
X0175020Y0116302D01*
X0174825Y0116300D01*
X0174632Y0116302D01*
X0174439Y0116309D01*
X0174247Y0116321D01*
X0174054Y0116337D01*
X0173862Y0116358D01*
X0173671Y0116384D01*
X0173481Y0116414D01*
X0173291Y0116449D01*
X0173102Y0116488D01*
X0172914Y0116532D01*
X0172727Y0116580D01*
X0172541Y0116633D01*
X0172357Y0116690D01*
X0172174Y0116752D01*
X0171993Y0116818D01*
X0171813Y0116889D01*
X0171635Y0116963D01*
X0171459Y0117042D01*
X0171285Y0117126D01*
X0171113Y0117213D01*
X0170943Y0117305D01*
X0170776Y0117401D01*
X0170610Y0117500D01*
X0170447Y0117604D01*
X0170287Y0117711D01*
X0170130Y0117823D01*
X0169975Y0117938D01*
X0169823Y0118057D01*
X0169674Y0118179D01*
X0169527Y0118305D01*
X0169384Y0118435D01*
X0169244Y0118568D01*
X0169108Y0118704D01*
X0168974Y0118844D01*
X0168845Y0118986D01*
X0168718Y0119132D01*
X0168679Y0129422D02*
X0168806Y0129570D01*
X0168936Y0129715D01*
X0169069Y0129856D01*
X0169206Y0129995D01*
X0169346Y0130130D01*
X0169490Y0130261D01*
X0169637Y0130389D01*
X0169786Y0130514D01*
X0169939Y0130635D01*
X0170094Y0130752D01*
X0170253Y0130865D01*
X0170414Y0130974D01*
X0170578Y0131079D01*
X0170744Y0131181D01*
X0170913Y0131278D01*
X0171083Y0131371D01*
X0171257Y0131460D01*
X0171432Y0131545D01*
X0171609Y0131625D01*
X0171788Y0131701D01*
X0171969Y0131773D01*
X0172152Y0131840D01*
X0172336Y0131903D01*
X0172522Y0131961D01*
X0172709Y0132015D01*
X0172897Y0132064D01*
X0173087Y0132109D01*
X0173277Y0132149D01*
X0173469Y0132184D01*
X0173661Y0132215D01*
X0173854Y0132241D01*
X0174048Y0132262D01*
X0174242Y0132279D01*
X0174436Y0132291D01*
X0174630Y0132298D01*
X0174825Y0132300D01*
X0161960Y0186052D02*
X0161962Y0186119D01*
X0161968Y0186185D01*
X0161978Y0186251D01*
X0161992Y0186316D01*
X0162009Y0186380D01*
X0162031Y0186443D01*
X0162056Y0186505D01*
X0162085Y0186565D01*
X0162118Y0186623D01*
X0162153Y0186679D01*
X0162193Y0186733D01*
X0162235Y0186784D01*
X0162280Y0186833D01*
X0162328Y0186879D01*
X0162379Y0186922D01*
X0162432Y0186962D01*
X0162488Y0186999D01*
X0162546Y0187032D01*
X0162605Y0187062D01*
X0162666Y0187088D01*
X0162729Y0187111D01*
X0162793Y0187129D01*
X0162858Y0187144D01*
X0162924Y0187155D01*
X0162990Y0187162D01*
X0163056Y0187165D01*
X0163123Y0187164D01*
X0163189Y0187159D01*
X0163255Y0187150D01*
X0163321Y0187137D01*
X0163385Y0187120D01*
X0163448Y0187100D01*
X0163510Y0187075D01*
X0163571Y0187047D01*
X0163630Y0187016D01*
X0163686Y0186981D01*
X0163741Y0186943D01*
X0163793Y0186901D01*
X0163842Y0186856D01*
X0163889Y0186809D01*
X0163933Y0186759D01*
X0163973Y0186706D01*
X0164011Y0186651D01*
X0164045Y0186594D01*
X0164076Y0186535D01*
X0164103Y0186474D01*
X0164126Y0186412D01*
X0164146Y0186348D01*
X0164162Y0186283D01*
X0164174Y0186218D01*
X0164182Y0186152D01*
X0164186Y0186085D01*
X0164186Y0186019D01*
X0164182Y0185952D01*
X0164174Y0185886D01*
X0164162Y0185821D01*
X0164146Y0185756D01*
X0164126Y0185692D01*
X0164103Y0185630D01*
X0164076Y0185569D01*
X0164045Y0185510D01*
X0164011Y0185453D01*
X0163973Y0185398D01*
X0163933Y0185345D01*
X0163889Y0185295D01*
X0163842Y0185248D01*
X0163793Y0185203D01*
X0163741Y0185161D01*
X0163686Y0185123D01*
X0163629Y0185088D01*
X0163571Y0185057D01*
X0163510Y0185029D01*
X0163448Y0185004D01*
X0163385Y0184984D01*
X0163321Y0184967D01*
X0163255Y0184954D01*
X0163189Y0184945D01*
X0163123Y0184940D01*
X0163056Y0184939D01*
X0162990Y0184942D01*
X0162924Y0184949D01*
X0162858Y0184960D01*
X0162793Y0184975D01*
X0162729Y0184993D01*
X0162666Y0185016D01*
X0162605Y0185042D01*
X0162546Y0185072D01*
X0162488Y0185105D01*
X0162432Y0185142D01*
X0162379Y0185182D01*
X0162328Y0185225D01*
X0162280Y0185271D01*
X0162235Y0185320D01*
X0162193Y0185371D01*
X0162153Y0185425D01*
X0162118Y0185481D01*
X0162085Y0185539D01*
X0162056Y0185599D01*
X0162031Y0185661D01*
X0162009Y0185724D01*
X0161992Y0185788D01*
X0161978Y0185853D01*
X0161968Y0185919D01*
X0161962Y0185985D01*
X0161960Y0186052D01*
D15*
X0108487Y0190915D02*
X0108487Y0212685D01*
X0108486Y0212685D02*
X0108484Y0212750D01*
X0108478Y0212814D01*
X0108469Y0212878D01*
X0108456Y0212942D01*
X0108439Y0213004D01*
X0108419Y0213066D01*
X0108395Y0213126D01*
X0108368Y0213185D01*
X0108337Y0213242D01*
X0108303Y0213297D01*
X0108266Y0213350D01*
X0108226Y0213400D01*
X0108183Y0213449D01*
X0108137Y0213495D01*
X0108088Y0213538D01*
X0108038Y0213578D01*
X0107985Y0213615D01*
X0107930Y0213649D01*
X0107873Y0213680D01*
X0107814Y0213707D01*
X0107754Y0213731D01*
X0107692Y0213751D01*
X0107630Y0213768D01*
X0107566Y0213781D01*
X0107502Y0213790D01*
X0107438Y0213796D01*
X0107373Y0213798D01*
X0097044Y0213798D01*
X0096986Y0213796D01*
X0096929Y0213790D01*
X0096872Y0213781D01*
X0096816Y0213768D01*
X0096761Y0213751D01*
X0096707Y0213731D01*
X0096655Y0213707D01*
X0096604Y0213680D01*
X0096555Y0213650D01*
X0096508Y0213616D01*
X0096464Y0213580D01*
X0096422Y0213540D01*
X0096382Y0213498D01*
X0096346Y0213454D01*
X0096312Y0213407D01*
X0096282Y0213358D01*
X0096255Y0213307D01*
X0096231Y0213255D01*
X0096211Y0213201D01*
X0096194Y0213146D01*
X0096181Y0213090D01*
X0096172Y0213033D01*
X0096166Y0212976D01*
X0096164Y0212918D01*
X0096164Y0191047D01*
X0096166Y0190977D01*
X0096172Y0190908D01*
X0096182Y0190838D01*
X0096195Y0190770D01*
X0096213Y0190702D01*
X0096234Y0190636D01*
X0096259Y0190571D01*
X0096287Y0190507D01*
X0096319Y0190445D01*
X0096355Y0190385D01*
X0096394Y0190327D01*
X0096436Y0190271D01*
X0096481Y0190217D01*
X0096529Y0190167D01*
X0096579Y0190119D01*
X0096633Y0190074D01*
X0096689Y0190032D01*
X0096747Y0189993D01*
X0096807Y0189957D01*
X0096869Y0189925D01*
X0096933Y0189897D01*
X0096998Y0189872D01*
X0097064Y0189851D01*
X0097132Y0189833D01*
X0097200Y0189820D01*
X0097270Y0189810D01*
X0097339Y0189804D01*
X0097409Y0189802D01*
X0107373Y0189802D01*
X0107438Y0189804D01*
X0107502Y0189810D01*
X0107566Y0189819D01*
X0107630Y0189832D01*
X0107692Y0189849D01*
X0107754Y0189869D01*
X0107814Y0189893D01*
X0107873Y0189920D01*
X0107930Y0189951D01*
X0107985Y0189985D01*
X0108038Y0190022D01*
X0108088Y0190062D01*
X0108137Y0190105D01*
X0108183Y0190151D01*
X0108226Y0190200D01*
X0108266Y0190250D01*
X0108303Y0190303D01*
X0108337Y0190359D01*
X0108368Y0190415D01*
X0108395Y0190474D01*
X0108419Y0190534D01*
X0108439Y0190596D01*
X0108456Y0190658D01*
X0108469Y0190722D01*
X0108478Y0190786D01*
X0108484Y0190850D01*
X0108486Y0190915D01*
X0106912Y0193345D02*
X0106912Y0210255D01*
X0106910Y0210332D01*
X0106904Y0210409D01*
X0106895Y0210486D01*
X0106882Y0210562D01*
X0106865Y0210638D01*
X0106844Y0210712D01*
X0106820Y0210786D01*
X0106792Y0210858D01*
X0106761Y0210928D01*
X0106726Y0210997D01*
X0106688Y0211065D01*
X0106647Y0211130D01*
X0106602Y0211193D01*
X0106554Y0211254D01*
X0106504Y0211313D01*
X0106451Y0211369D01*
X0106395Y0211422D01*
X0106336Y0211472D01*
X0106275Y0211520D01*
X0106212Y0211565D01*
X0106147Y0211606D01*
X0106079Y0211644D01*
X0106010Y0211679D01*
X0105940Y0211710D01*
X0105868Y0211738D01*
X0105794Y0211762D01*
X0105720Y0211783D01*
X0105644Y0211800D01*
X0105568Y0211813D01*
X0105491Y0211822D01*
X0105414Y0211828D01*
X0105337Y0211830D01*
X0099313Y0211830D01*
X0099227Y0211828D01*
X0099141Y0211823D01*
X0099056Y0211813D01*
X0098971Y0211800D01*
X0098887Y0211783D01*
X0098803Y0211763D01*
X0098721Y0211739D01*
X0098640Y0211711D01*
X0098559Y0211680D01*
X0098481Y0211646D01*
X0098404Y0211608D01*
X0098329Y0211566D01*
X0098255Y0211522D01*
X0098184Y0211474D01*
X0098114Y0211423D01*
X0098047Y0211369D01*
X0097983Y0211313D01*
X0097921Y0211253D01*
X0097861Y0211191D01*
X0097805Y0211127D01*
X0097751Y0211060D01*
X0097700Y0210990D01*
X0097652Y0210919D01*
X0097608Y0210846D01*
X0097566Y0210770D01*
X0097528Y0210693D01*
X0097494Y0210615D01*
X0097463Y0210534D01*
X0097435Y0210453D01*
X0097411Y0210371D01*
X0097391Y0210287D01*
X0097374Y0210203D01*
X0097361Y0210118D01*
X0097351Y0210033D01*
X0097346Y0209947D01*
X0097344Y0209861D01*
X0097345Y0209861D02*
X0097345Y0193345D01*
X0097356Y0193263D01*
X0097371Y0193182D01*
X0097389Y0193102D01*
X0097411Y0193023D01*
X0097437Y0192945D01*
X0097466Y0192868D01*
X0097499Y0192792D01*
X0097536Y0192718D01*
X0097575Y0192646D01*
X0097618Y0192576D01*
X0097665Y0192508D01*
X0097714Y0192442D01*
X0097766Y0192378D01*
X0097821Y0192317D01*
X0097879Y0192258D01*
X0097940Y0192203D01*
X0098003Y0192150D01*
X0098069Y0192100D01*
X0098136Y0192053D01*
X0098206Y0192009D01*
X0098278Y0191969D01*
X0098352Y0191932D01*
X0098427Y0191898D01*
X0098503Y0191868D01*
X0098581Y0191841D01*
X0098660Y0191818D01*
X0098741Y0191799D01*
X0098821Y0191784D01*
X0098903Y0191772D01*
X0098985Y0191764D01*
X0099067Y0191760D01*
X0099150Y0191759D01*
X0099232Y0191763D01*
X0099314Y0191770D01*
X0099313Y0191770D02*
X0105337Y0191770D01*
X0105414Y0191772D01*
X0105491Y0191778D01*
X0105568Y0191787D01*
X0105644Y0191800D01*
X0105720Y0191817D01*
X0105794Y0191838D01*
X0105868Y0191862D01*
X0105940Y0191890D01*
X0106010Y0191921D01*
X0106079Y0191956D01*
X0106147Y0191994D01*
X0106212Y0192035D01*
X0106275Y0192080D01*
X0106336Y0192128D01*
X0106395Y0192178D01*
X0106451Y0192231D01*
X0106504Y0192287D01*
X0106554Y0192346D01*
X0106602Y0192407D01*
X0106647Y0192470D01*
X0106688Y0192535D01*
X0106726Y0192603D01*
X0106761Y0192672D01*
X0106792Y0192742D01*
X0106820Y0192814D01*
X0106844Y0192888D01*
X0106865Y0192962D01*
X0106882Y0193038D01*
X0106895Y0193114D01*
X0106904Y0193191D01*
X0106910Y0193268D01*
X0106912Y0193345D01*
X0053579Y0191802D02*
X0053579Y0189550D01*
X0049075Y0189550D01*
X0050576Y0189550D02*
X0050576Y0191802D01*
X0051327Y0192553D01*
X0052828Y0192553D01*
X0053579Y0191802D01*
X0050576Y0191051D02*
X0049075Y0192553D01*
X0051327Y0194154D02*
X0051327Y0197156D01*
X0052828Y0198758D02*
X0049826Y0198758D01*
X0049075Y0199508D01*
X0049075Y0201010D01*
X0049826Y0201760D01*
X0049826Y0203362D02*
X0049075Y0204112D01*
X0049075Y0205614D01*
X0049826Y0206364D01*
X0050576Y0206364D01*
X0051327Y0205614D01*
X0051327Y0203362D01*
X0049826Y0203362D01*
X0051327Y0203362D02*
X0052828Y0204863D01*
X0053579Y0206364D01*
X0053579Y0207966D02*
X0053579Y0210218D01*
X0052828Y0210968D01*
X0051327Y0210968D01*
X0050576Y0210218D01*
X0050576Y0207966D01*
X0049075Y0207966D02*
X0053579Y0207966D01*
X0052828Y0201760D02*
X0053579Y0201010D01*
X0053579Y0199508D01*
X0052828Y0198758D01*
X0044825Y0234800D02*
X0045325Y0235300D01*
X0045325Y0236800D01*
X0044825Y0237300D01*
X0043325Y0236300D02*
X0043325Y0235300D01*
X0043825Y0234800D01*
X0044825Y0234800D01*
X0043325Y0235300D02*
X0042825Y0234800D01*
X0041825Y0234800D01*
X0041325Y0235300D01*
X0041325Y0236800D01*
X0041825Y0237300D01*
X0048825Y0244006D02*
X0048825Y0247008D01*
X0048825Y0245507D02*
X0053329Y0245507D01*
X0051828Y0244006D01*
X0052578Y0248609D02*
X0049576Y0248609D01*
X0052578Y0251612D01*
X0049576Y0251612D01*
X0048825Y0250861D01*
X0048825Y0249360D01*
X0049576Y0248609D01*
X0052578Y0248609D02*
X0053329Y0249360D01*
X0053329Y0250861D01*
X0052578Y0251612D01*
X0053329Y0253213D02*
X0048825Y0253213D01*
X0050326Y0253213D02*
X0048825Y0255465D01*
X0050326Y0253213D02*
X0051828Y0255465D01*
X0045325Y0252800D02*
X0045325Y0251800D01*
X0045325Y0250800D01*
X0045325Y0251800D02*
X0041325Y0251800D01*
X0042325Y0252800D01*
X0154369Y0134454D02*
X0154369Y0131451D01*
X0155870Y0129950D01*
X0157371Y0131451D01*
X0157371Y0134454D01*
X0158973Y0134454D02*
X0158973Y0130701D01*
X0159723Y0129950D01*
X0161225Y0129950D01*
X0161975Y0130701D01*
X0161975Y0134454D01*
X0162471Y0122554D02*
X0162471Y0119551D01*
X0160970Y0118050D01*
X0159469Y0119551D01*
X0159469Y0122554D01*
X0164073Y0122554D02*
X0164073Y0118801D01*
X0164823Y0118050D01*
X0166325Y0118050D01*
X0167075Y0118801D01*
X0167075Y0122554D01*
X0111290Y0052922D02*
X0111408Y0052920D01*
X0111526Y0052914D01*
X0111644Y0052904D01*
X0111761Y0052890D01*
X0111878Y0052873D01*
X0111994Y0052851D01*
X0112110Y0052826D01*
X0112224Y0052796D01*
X0112338Y0052763D01*
X0112450Y0052726D01*
X0112561Y0052686D01*
X0112670Y0052641D01*
X0112778Y0052593D01*
X0112885Y0052542D01*
X0112989Y0052487D01*
X0113092Y0052428D01*
X0113193Y0052366D01*
X0113291Y0052301D01*
X0113387Y0052233D01*
X0113481Y0052161D01*
X0113573Y0052086D01*
X0113662Y0052008D01*
X0113748Y0051928D01*
X0113832Y0051844D01*
X0113912Y0051758D01*
X0113990Y0051669D01*
X0114065Y0051577D01*
X0114137Y0051483D01*
X0114205Y0051387D01*
X0114270Y0051289D01*
X0114332Y0051188D01*
X0114391Y0051085D01*
X0114446Y0050981D01*
X0114497Y0050874D01*
X0114545Y0050766D01*
X0114590Y0050657D01*
X0114630Y0050546D01*
X0114667Y0050434D01*
X0114700Y0050320D01*
X0114730Y0050206D01*
X0114755Y0050090D01*
X0114777Y0049974D01*
X0114794Y0049857D01*
X0114808Y0049740D01*
X0114818Y0049622D01*
X0114824Y0049504D01*
X0114826Y0049386D01*
X0114824Y0049268D01*
X0114818Y0049150D01*
X0114808Y0049032D01*
X0114794Y0048915D01*
X0114777Y0048798D01*
X0114755Y0048682D01*
X0114730Y0048566D01*
X0114700Y0048452D01*
X0114667Y0048338D01*
X0114630Y0048226D01*
X0114590Y0048115D01*
X0114545Y0048006D01*
X0114497Y0047898D01*
X0114446Y0047791D01*
X0114391Y0047687D01*
X0114332Y0047584D01*
X0114270Y0047483D01*
X0114205Y0047385D01*
X0114137Y0047289D01*
X0114065Y0047195D01*
X0113990Y0047103D01*
X0113912Y0047014D01*
X0113832Y0046928D01*
X0113748Y0046844D01*
X0113662Y0046764D01*
X0113573Y0046686D01*
X0113481Y0046611D01*
X0113387Y0046539D01*
X0113291Y0046471D01*
X0113193Y0046406D01*
X0113092Y0046344D01*
X0112989Y0046285D01*
X0112885Y0046230D01*
X0112778Y0046179D01*
X0112670Y0046131D01*
X0112561Y0046086D01*
X0112450Y0046046D01*
X0112338Y0046009D01*
X0112224Y0045976D01*
X0112110Y0045946D01*
X0111994Y0045921D01*
X0111878Y0045899D01*
X0111761Y0045882D01*
X0111644Y0045868D01*
X0111526Y0045858D01*
X0111408Y0045852D01*
X0111290Y0045850D01*
X0249451Y0036308D02*
X0265199Y0036308D01*
X0265485Y0036504D01*
X0265767Y0036707D01*
X0266043Y0036916D01*
X0266314Y0037133D01*
X0266580Y0037356D01*
X0266840Y0037585D01*
X0267095Y0037821D01*
X0267343Y0038063D01*
X0267586Y0038310D01*
X0267823Y0038564D01*
X0268053Y0038823D01*
X0268277Y0039088D01*
X0268494Y0039358D01*
X0268705Y0039634D01*
X0268909Y0039915D01*
X0269106Y0040200D01*
X0269296Y0040490D01*
X0269479Y0040785D01*
X0269654Y0041084D01*
X0269822Y0041388D01*
X0269983Y0041695D01*
X0270136Y0042006D01*
X0270282Y0042321D01*
X0270420Y0042639D01*
X0270550Y0042961D01*
X0270672Y0043286D01*
X0270786Y0043613D01*
X0270892Y0043943D01*
X0270990Y0044276D01*
X0271080Y0044611D01*
X0271161Y0044948D01*
X0271235Y0045287D01*
X0271300Y0045628D01*
X0271356Y0045970D01*
X0271405Y0046314D01*
X0271445Y0046658D01*
X0271476Y0047004D01*
X0271499Y0047350D01*
X0271514Y0047696D01*
X0271520Y0048043D01*
X0271517Y0048390D01*
X0271507Y0048737D01*
X0271487Y0049083D01*
X0271459Y0049429D01*
X0271423Y0049774D01*
X0271379Y0050118D01*
X0271326Y0050461D01*
X0271264Y0050802D01*
X0271194Y0051142D01*
X0271116Y0051480D01*
X0271030Y0051816D01*
X0270936Y0052149D01*
X0270833Y0052481D01*
X0270723Y0052810D01*
X0270604Y0053135D01*
X0270478Y0053458D01*
X0270343Y0053778D01*
X0270201Y0054095D01*
X0270051Y0054407D01*
X0269894Y0054717D01*
X0269729Y0055022D01*
X0269556Y0055323D01*
X0269377Y0055619D01*
X0269190Y0055912D01*
X0268996Y0056199D01*
X0268795Y0056482D01*
X0268587Y0056760D01*
X0268373Y0057032D01*
X0268152Y0057300D01*
X0267924Y0057561D01*
X0267690Y0057817D01*
X0267450Y0058068D01*
X0267204Y0058312D01*
X0266952Y0058551D01*
X0266694Y0058783D01*
X0266431Y0059008D01*
X0266162Y0059228D01*
X0265888Y0059440D01*
X0265609Y0059646D01*
X0265325Y0059845D01*
X0265036Y0060037D01*
X0264742Y0060222D01*
X0264444Y0060400D01*
X0264142Y0060570D01*
X0263836Y0060733D01*
X0263526Y0060888D01*
X0263212Y0061036D01*
X0262895Y0061176D01*
X0262574Y0061308D01*
X0262250Y0061432D01*
X0261923Y0061549D01*
X0261594Y0061657D01*
X0261262Y0061757D01*
X0260927Y0061849D01*
X0260591Y0061933D01*
X0260252Y0062009D01*
X0259912Y0062076D01*
X0259570Y0062135D01*
X0259227Y0062186D01*
X0258883Y0062228D01*
X0258538Y0062262D01*
X0258192Y0062288D01*
X0257845Y0062304D01*
X0257498Y0062313D01*
X0257152Y0062313D01*
X0256805Y0062304D01*
X0256458Y0062288D01*
X0256112Y0062262D01*
X0255767Y0062228D01*
X0255423Y0062186D01*
X0255080Y0062135D01*
X0254738Y0062076D01*
X0254398Y0062009D01*
X0254059Y0061933D01*
X0253723Y0061849D01*
X0253388Y0061757D01*
X0253056Y0061657D01*
X0252727Y0061549D01*
X0252400Y0061432D01*
X0252076Y0061308D01*
X0251755Y0061176D01*
X0251438Y0061036D01*
X0251124Y0060888D01*
X0250814Y0060733D01*
X0250508Y0060570D01*
X0250206Y0060400D01*
X0249908Y0060222D01*
X0249614Y0060037D01*
X0249325Y0059845D01*
X0249041Y0059646D01*
X0248762Y0059440D01*
X0248488Y0059228D01*
X0248219Y0059008D01*
X0247956Y0058783D01*
X0247698Y0058551D01*
X0247446Y0058312D01*
X0247200Y0058068D01*
X0246960Y0057817D01*
X0246726Y0057561D01*
X0246498Y0057300D01*
X0246277Y0057032D01*
X0246063Y0056760D01*
X0245855Y0056482D01*
X0245654Y0056199D01*
X0245460Y0055912D01*
X0245273Y0055619D01*
X0245094Y0055323D01*
X0244921Y0055022D01*
X0244756Y0054717D01*
X0244599Y0054407D01*
X0244449Y0054095D01*
X0244307Y0053778D01*
X0244172Y0053458D01*
X0244046Y0053135D01*
X0243927Y0052810D01*
X0243817Y0052481D01*
X0243714Y0052149D01*
X0243620Y0051816D01*
X0243534Y0051480D01*
X0243456Y0051142D01*
X0243386Y0050802D01*
X0243324Y0050461D01*
X0243271Y0050118D01*
X0243227Y0049774D01*
X0243191Y0049429D01*
X0243163Y0049083D01*
X0243143Y0048737D01*
X0243133Y0048390D01*
X0243130Y0048043D01*
X0243136Y0047696D01*
X0243151Y0047350D01*
X0243174Y0047004D01*
X0243205Y0046658D01*
X0243245Y0046314D01*
X0243294Y0045970D01*
X0243350Y0045628D01*
X0243415Y0045287D01*
X0243489Y0044948D01*
X0243570Y0044611D01*
X0243660Y0044276D01*
X0243758Y0043943D01*
X0243864Y0043613D01*
X0243978Y0043286D01*
X0244100Y0042961D01*
X0244230Y0042639D01*
X0244368Y0042321D01*
X0244514Y0042006D01*
X0244667Y0041695D01*
X0244828Y0041388D01*
X0244996Y0041084D01*
X0245171Y0040785D01*
X0245354Y0040490D01*
X0245544Y0040200D01*
X0245741Y0039915D01*
X0245945Y0039634D01*
X0246156Y0039358D01*
X0246373Y0039088D01*
X0246597Y0038823D01*
X0246827Y0038564D01*
X0247064Y0038310D01*
X0247307Y0038063D01*
X0247555Y0037821D01*
X0247810Y0037585D01*
X0248070Y0037356D01*
X0248336Y0037133D01*
X0248607Y0036916D01*
X0248883Y0036707D01*
X0249165Y0036504D01*
X0249451Y0036308D01*
X0277596Y0170800D02*
X0276845Y0171551D01*
X0276845Y0175304D01*
X0279848Y0175304D02*
X0279848Y0171551D01*
X0279097Y0170800D01*
X0277596Y0170800D01*
X0281449Y0171551D02*
X0282200Y0170800D01*
X0283701Y0170800D01*
X0284452Y0171551D01*
X0284452Y0173052D02*
X0282950Y0173803D01*
X0282200Y0173803D01*
X0281449Y0173052D01*
X0281449Y0171551D01*
X0284452Y0173052D02*
X0284452Y0175304D01*
X0281449Y0175304D01*
X0286053Y0173052D02*
X0289056Y0173052D01*
X0286804Y0175304D01*
X0286804Y0170800D01*
X0290657Y0171551D02*
X0290657Y0174553D01*
X0293659Y0171551D01*
X0292909Y0170800D01*
X0291408Y0170800D01*
X0290657Y0171551D01*
X0290657Y0174553D02*
X0291408Y0175304D01*
X0292909Y0175304D01*
X0293659Y0174553D01*
X0293659Y0171551D01*
X0295261Y0170800D02*
X0298263Y0170800D01*
X0296762Y0170800D02*
X0296762Y0175304D01*
X0298263Y0173803D01*
X0299865Y0174553D02*
X0299865Y0173052D01*
X0300615Y0172301D01*
X0302867Y0172301D01*
X0302867Y0170800D02*
X0302867Y0175304D01*
X0300615Y0175304D01*
X0299865Y0174553D01*
X0304469Y0175304D02*
X0304469Y0170800D01*
X0307471Y0170800D02*
X0307471Y0175304D01*
X0305970Y0173803D01*
X0304469Y0175304D01*
X0309073Y0174553D02*
X0309073Y0171551D01*
X0309823Y0170800D01*
X0312075Y0170800D01*
X0312075Y0175304D01*
X0309823Y0175304D01*
X0309073Y0174553D01*
D16*
X0259687Y0142391D03*
X0254963Y0142391D03*
D17*
X0257325Y0142391D03*
D18*
X0224645Y0178300D02*
X0223711Y0178300D01*
X0224178Y0178300D02*
X0224178Y0179701D01*
X0224645Y0179234D01*
X0223172Y0179468D02*
X0222938Y0179701D01*
X0222471Y0179701D01*
X0222238Y0179468D01*
X0223172Y0178534D01*
X0222938Y0178300D01*
X0222471Y0178300D01*
X0222238Y0178534D01*
X0222238Y0179468D01*
X0221698Y0179701D02*
X0221698Y0178300D01*
X0221698Y0178767D02*
X0220764Y0179701D01*
X0221465Y0179001D02*
X0220764Y0178300D01*
X0223172Y0178534D02*
X0223172Y0179468D01*
X0204225Y0183900D02*
X0203291Y0183900D01*
X0203758Y0183900D02*
X0203758Y0185301D01*
X0204225Y0184834D01*
X0202752Y0185068D02*
X0202752Y0184134D01*
X0201818Y0185068D01*
X0201818Y0184134D01*
X0202051Y0183900D01*
X0202518Y0183900D01*
X0202752Y0184134D01*
X0202752Y0185068D02*
X0202518Y0185301D01*
X0202051Y0185301D01*
X0201818Y0185068D01*
X0201279Y0185301D02*
X0201279Y0183900D01*
X0201279Y0184367D02*
X0200345Y0185301D01*
X0201045Y0184601D02*
X0200345Y0183900D01*
X0144324Y0126702D02*
X0142456Y0126702D01*
X0141562Y0126702D02*
X0141562Y0123900D01*
X0141562Y0124834D02*
X0140161Y0124834D01*
X0139693Y0125301D01*
X0139693Y0126235D01*
X0140161Y0126702D01*
X0141562Y0126702D01*
X0143390Y0126702D02*
X0143390Y0123900D01*
X0138799Y0124367D02*
X0138332Y0123900D01*
X0137398Y0123900D01*
X0136931Y0124367D01*
X0136931Y0124834D01*
X0137398Y0125301D01*
X0138332Y0125301D01*
X0138799Y0125768D01*
X0138799Y0126235D01*
X0138332Y0126702D01*
X0137398Y0126702D01*
X0136931Y0126235D01*
X0136037Y0125301D02*
X0134636Y0125301D01*
X0134169Y0124834D01*
X0134169Y0124367D01*
X0134636Y0123900D01*
X0135570Y0123900D01*
X0136037Y0124367D01*
X0136037Y0125301D01*
X0135103Y0126235D01*
X0134169Y0126702D01*
X0133275Y0126235D02*
X0132808Y0126702D01*
X0131873Y0126702D01*
X0131406Y0126235D01*
X0133275Y0124367D01*
X0132808Y0123900D01*
X0131873Y0123900D01*
X0131406Y0124367D01*
X0131406Y0126235D01*
X0130512Y0125301D02*
X0128644Y0125301D01*
X0127750Y0124367D02*
X0125882Y0126235D01*
X0125882Y0124367D01*
X0126349Y0123900D01*
X0127283Y0123900D01*
X0127750Y0124367D01*
X0127750Y0126235D01*
X0127283Y0126702D01*
X0126349Y0126702D01*
X0125882Y0126235D01*
X0124988Y0126702D02*
X0123119Y0123900D01*
X0124988Y0123900D02*
X0123119Y0126702D01*
X0129111Y0126702D02*
X0129111Y0123900D01*
X0130512Y0125301D02*
X0129111Y0126702D01*
X0133275Y0126235D02*
X0133275Y0124367D01*
X0112258Y0101452D02*
X0112725Y0100985D01*
X0112725Y0100518D01*
X0112258Y0100051D01*
X0111324Y0100051D01*
X0110857Y0099584D01*
X0110857Y0099117D01*
X0111324Y0098650D01*
X0112258Y0098650D01*
X0112725Y0099117D01*
X0112258Y0101452D02*
X0111324Y0101452D01*
X0110857Y0100985D01*
X0109963Y0100985D02*
X0109963Y0100518D01*
X0109496Y0100051D01*
X0108562Y0100051D01*
X0108095Y0099584D01*
X0108095Y0099117D01*
X0108562Y0098650D01*
X0109496Y0098650D01*
X0109963Y0099117D01*
X0109963Y0100985D02*
X0109496Y0101452D01*
X0108562Y0101452D01*
X0108095Y0100985D01*
X0107200Y0101452D02*
X0105332Y0101452D01*
X0106266Y0101452D02*
X0106266Y0098650D01*
X0104438Y0098650D02*
X0102570Y0100518D01*
X0102570Y0100985D01*
X0103037Y0101452D01*
X0103971Y0101452D01*
X0104438Y0100985D01*
X0104438Y0098650D02*
X0102570Y0098650D01*
X0101676Y0099117D02*
X0101209Y0098650D01*
X0100275Y0098650D01*
X0099808Y0099117D01*
X0099808Y0099584D01*
X0100275Y0100051D01*
X0101676Y0100051D01*
X0101676Y0099117D01*
X0101676Y0100051D02*
X0100742Y0100985D01*
X0099808Y0101452D01*
X0098913Y0101452D02*
X0098913Y0099584D01*
X0097979Y0098650D01*
X0097045Y0099584D01*
X0097045Y0101452D01*
X0096151Y0101452D02*
X0096151Y0098650D01*
X0096151Y0100051D02*
X0095217Y0100051D01*
X0096151Y0101452D02*
X0094283Y0101452D01*
X0093389Y0100985D02*
X0092922Y0101452D01*
X0091988Y0101452D01*
X0091520Y0100985D01*
X0093389Y0099117D01*
X0092922Y0098650D01*
X0091988Y0098650D01*
X0091520Y0099117D01*
X0091520Y0100985D01*
X0090626Y0100051D02*
X0089225Y0100051D01*
X0088758Y0099584D01*
X0088758Y0099117D01*
X0089225Y0098650D01*
X0090159Y0098650D01*
X0090626Y0099117D01*
X0090626Y0100051D01*
X0089692Y0100985D01*
X0088758Y0101452D01*
X0087864Y0100051D02*
X0085996Y0100051D01*
X0085102Y0100051D02*
X0083700Y0100051D01*
X0083233Y0099584D01*
X0083233Y0099117D01*
X0083700Y0098650D01*
X0085102Y0098650D01*
X0085102Y0101452D01*
X0083700Y0101452D01*
X0083233Y0100985D01*
X0083233Y0100518D01*
X0083700Y0100051D01*
X0086463Y0098650D02*
X0086463Y0101452D01*
X0087864Y0100051D01*
X0093389Y0099117D02*
X0093389Y0100985D01*
X0105525Y0090400D02*
X0105527Y0090475D01*
X0105533Y0090549D01*
X0105543Y0090623D01*
X0105557Y0090696D01*
X0105574Y0090768D01*
X0105596Y0090840D01*
X0105621Y0090910D01*
X0105650Y0090978D01*
X0105683Y0091046D01*
X0105719Y0091111D01*
X0105758Y0091174D01*
X0105801Y0091235D01*
X0105847Y0091294D01*
X0105896Y0091350D01*
X0105948Y0091403D01*
X0106003Y0091454D01*
X0106060Y0091501D01*
X0106120Y0091546D01*
X0106182Y0091587D01*
X0106247Y0091625D01*
X0106313Y0091659D01*
X0106381Y0091690D01*
X0106450Y0091717D01*
X0106521Y0091740D01*
X0106593Y0091760D01*
X0106666Y0091776D01*
X0106739Y0091788D01*
X0106813Y0091796D01*
X0106888Y0091800D01*
X0106962Y0091800D01*
X0107037Y0091796D01*
X0107111Y0091788D01*
X0107184Y0091776D01*
X0107257Y0091760D01*
X0107329Y0091740D01*
X0107400Y0091717D01*
X0107469Y0091690D01*
X0107537Y0091659D01*
X0107603Y0091625D01*
X0107668Y0091587D01*
X0107730Y0091546D01*
X0107790Y0091501D01*
X0107847Y0091454D01*
X0107902Y0091403D01*
X0107954Y0091350D01*
X0108003Y0091294D01*
X0108049Y0091235D01*
X0108092Y0091174D01*
X0108131Y0091111D01*
X0108167Y0091046D01*
X0108200Y0090978D01*
X0108229Y0090910D01*
X0108254Y0090840D01*
X0108276Y0090768D01*
X0108293Y0090696D01*
X0108307Y0090623D01*
X0108317Y0090549D01*
X0108323Y0090475D01*
X0108325Y0090400D01*
X0108323Y0090325D01*
X0108317Y0090251D01*
X0108307Y0090177D01*
X0108293Y0090104D01*
X0108276Y0090032D01*
X0108254Y0089960D01*
X0108229Y0089890D01*
X0108200Y0089822D01*
X0108167Y0089754D01*
X0108131Y0089689D01*
X0108092Y0089626D01*
X0108049Y0089565D01*
X0108003Y0089506D01*
X0107954Y0089450D01*
X0107902Y0089397D01*
X0107847Y0089346D01*
X0107790Y0089299D01*
X0107730Y0089254D01*
X0107668Y0089213D01*
X0107603Y0089175D01*
X0107537Y0089141D01*
X0107469Y0089110D01*
X0107400Y0089083D01*
X0107329Y0089060D01*
X0107257Y0089040D01*
X0107184Y0089024D01*
X0107111Y0089012D01*
X0107037Y0089004D01*
X0106962Y0089000D01*
X0106888Y0089000D01*
X0106813Y0089004D01*
X0106739Y0089012D01*
X0106666Y0089024D01*
X0106593Y0089040D01*
X0106521Y0089060D01*
X0106450Y0089083D01*
X0106381Y0089110D01*
X0106313Y0089141D01*
X0106247Y0089175D01*
X0106182Y0089213D01*
X0106120Y0089254D01*
X0106060Y0089299D01*
X0106003Y0089346D01*
X0105948Y0089397D01*
X0105896Y0089450D01*
X0105847Y0089506D01*
X0105801Y0089565D01*
X0105758Y0089626D01*
X0105719Y0089689D01*
X0105683Y0089754D01*
X0105650Y0089822D01*
X0105621Y0089890D01*
X0105596Y0089960D01*
X0105574Y0090032D01*
X0105557Y0090104D01*
X0105543Y0090177D01*
X0105533Y0090251D01*
X0105527Y0090325D01*
X0105525Y0090400D01*
X0249238Y0098300D02*
X0249238Y0080300D01*
X0265413Y0080300D01*
X0265413Y0098300D01*
X0249238Y0098300D01*
X0312925Y0235400D02*
X0312925Y0237268D01*
X0312925Y0238162D02*
X0315728Y0238162D01*
X0312925Y0240031D01*
X0315728Y0240031D01*
X0315728Y0240925D02*
X0314326Y0240925D01*
X0314793Y0241859D01*
X0314793Y0242326D01*
X0314326Y0242793D01*
X0313392Y0242793D01*
X0312925Y0242326D01*
X0312925Y0241392D01*
X0313392Y0240925D01*
X0315728Y0240925D02*
X0315728Y0242793D01*
X0315261Y0243687D02*
X0314793Y0243687D01*
X0314326Y0244154D01*
X0314326Y0245088D01*
X0313859Y0245555D01*
X0313392Y0245555D01*
X0312925Y0245088D01*
X0312925Y0244154D01*
X0313392Y0243687D01*
X0313859Y0243687D01*
X0314326Y0244154D01*
X0314326Y0245088D02*
X0314793Y0245555D01*
X0315261Y0245555D01*
X0315728Y0245088D01*
X0315728Y0244154D01*
X0315261Y0243687D01*
X0314793Y0246449D02*
X0315728Y0247384D01*
X0312925Y0247384D01*
X0312925Y0248318D02*
X0312925Y0246449D01*
X0312925Y0249212D02*
X0312925Y0250613D01*
X0313392Y0251080D01*
X0315261Y0251080D01*
X0315728Y0250613D01*
X0315728Y0249212D01*
X0312925Y0249212D01*
X0312925Y0251974D02*
X0312925Y0253842D01*
X0312925Y0254736D02*
X0314793Y0256605D01*
X0315261Y0256605D01*
X0315728Y0256138D01*
X0315728Y0255204D01*
X0315261Y0254736D01*
X0315728Y0252908D02*
X0312925Y0252908D01*
X0312925Y0254736D02*
X0312925Y0256605D01*
X0313392Y0257499D02*
X0315261Y0259367D01*
X0313392Y0259367D01*
X0312925Y0258900D01*
X0312925Y0257966D01*
X0313392Y0257499D01*
X0315261Y0257499D01*
X0315728Y0257966D01*
X0315728Y0258900D01*
X0315261Y0259367D01*
X0314326Y0260261D02*
X0314326Y0261662D01*
X0313859Y0262129D01*
X0313392Y0262129D01*
X0312925Y0261662D01*
X0312925Y0260728D01*
X0313392Y0260261D01*
X0314326Y0260261D01*
X0315261Y0261195D01*
X0315728Y0262129D01*
X0325425Y0261662D02*
X0325425Y0260728D01*
X0325892Y0260261D01*
X0326826Y0260261D01*
X0326826Y0261662D01*
X0326359Y0262129D01*
X0325892Y0262129D01*
X0325425Y0261662D01*
X0326826Y0260261D02*
X0327761Y0261195D01*
X0328228Y0262129D01*
X0327761Y0259367D02*
X0325892Y0259367D01*
X0325425Y0258900D01*
X0325425Y0257966D01*
X0325892Y0257499D01*
X0327761Y0259367D01*
X0328228Y0258900D01*
X0328228Y0257966D01*
X0327761Y0257499D01*
X0325892Y0257499D01*
X0325425Y0256605D02*
X0325425Y0254736D01*
X0327293Y0256605D01*
X0327761Y0256605D01*
X0328228Y0256138D01*
X0328228Y0255204D01*
X0327761Y0254736D01*
X0328228Y0252908D02*
X0325425Y0252908D01*
X0325425Y0251974D02*
X0325425Y0253842D01*
X0327293Y0251974D02*
X0328228Y0252908D01*
X0327761Y0251080D02*
X0325892Y0251080D01*
X0325425Y0250613D01*
X0325425Y0249212D01*
X0328228Y0249212D01*
X0328228Y0250613D01*
X0327761Y0251080D01*
X0325425Y0248318D02*
X0325425Y0246449D01*
X0325425Y0247384D02*
X0328228Y0247384D01*
X0327293Y0246449D01*
X0327293Y0245555D02*
X0326826Y0245088D01*
X0326826Y0244154D01*
X0327293Y0243687D01*
X0327761Y0243687D01*
X0328228Y0244154D01*
X0328228Y0245088D01*
X0327761Y0245555D01*
X0327293Y0245555D01*
X0326826Y0245088D02*
X0326359Y0245555D01*
X0325892Y0245555D01*
X0325425Y0245088D01*
X0325425Y0244154D01*
X0325892Y0243687D01*
X0326359Y0243687D01*
X0326826Y0244154D01*
X0326826Y0242793D02*
X0325892Y0242793D01*
X0325425Y0242326D01*
X0325425Y0241392D01*
X0325892Y0240925D01*
X0326826Y0240925D02*
X0327293Y0241859D01*
X0327293Y0242326D01*
X0326826Y0242793D01*
X0328228Y0242793D02*
X0328228Y0240925D01*
X0326826Y0240925D01*
X0325425Y0240031D02*
X0328228Y0240031D01*
X0328228Y0238162D02*
X0325425Y0240031D01*
X0325425Y0238162D02*
X0328228Y0238162D01*
X0328228Y0236334D02*
X0325425Y0236334D01*
X0325425Y0235400D02*
X0325425Y0237268D01*
X0327293Y0235400D02*
X0328228Y0236334D01*
X0315728Y0236334D02*
X0312925Y0236334D01*
X0314793Y0235400D02*
X0315728Y0236334D01*
X0314793Y0251974D02*
X0315728Y0252908D01*
X0336425Y0260776D02*
X0336425Y0262645D01*
X0336425Y0263539D02*
X0339228Y0263539D01*
X0336425Y0265407D01*
X0339228Y0265407D01*
X0339228Y0266301D02*
X0337826Y0266301D01*
X0338293Y0267235D01*
X0338293Y0267702D01*
X0337826Y0268169D01*
X0336892Y0268169D01*
X0336425Y0267702D01*
X0336425Y0266768D01*
X0336892Y0266301D01*
X0339228Y0266301D02*
X0339228Y0268169D01*
X0338761Y0269063D02*
X0339228Y0269531D01*
X0339228Y0270465D01*
X0338761Y0270932D01*
X0338293Y0270932D01*
X0337826Y0270465D01*
X0337826Y0269531D01*
X0338293Y0269063D01*
X0338761Y0269063D01*
X0337826Y0269531D02*
X0337359Y0269063D01*
X0336892Y0269063D01*
X0336425Y0269531D01*
X0336425Y0270465D01*
X0336892Y0270932D01*
X0337359Y0270932D01*
X0337826Y0270465D01*
X0338293Y0271826D02*
X0339228Y0272760D01*
X0336425Y0272760D01*
X0336425Y0271826D02*
X0336425Y0273694D01*
X0336425Y0274588D02*
X0336425Y0275989D01*
X0336892Y0276456D01*
X0338761Y0276456D01*
X0339228Y0275989D01*
X0339228Y0274588D01*
X0336425Y0274588D01*
X0336425Y0277351D02*
X0336425Y0279219D01*
X0336425Y0280113D02*
X0338293Y0281981D01*
X0338761Y0281981D01*
X0339228Y0281514D01*
X0339228Y0280580D01*
X0338761Y0280113D01*
X0339228Y0278285D02*
X0336425Y0278285D01*
X0336425Y0280113D02*
X0336425Y0281981D01*
X0336892Y0282875D02*
X0338761Y0284743D01*
X0336892Y0284743D01*
X0336425Y0284276D01*
X0336425Y0283342D01*
X0336892Y0282875D01*
X0338761Y0282875D01*
X0339228Y0283342D01*
X0339228Y0284276D01*
X0338761Y0284743D01*
X0337826Y0285638D02*
X0337826Y0287039D01*
X0337359Y0287506D01*
X0336892Y0287506D01*
X0336425Y0287039D01*
X0336425Y0286105D01*
X0336892Y0285638D01*
X0337826Y0285638D01*
X0338761Y0286572D01*
X0339228Y0287506D01*
X0339228Y0278285D02*
X0338293Y0277351D01*
X0339228Y0261711D02*
X0336425Y0261711D01*
X0338293Y0260776D02*
X0339228Y0261711D01*
X0292752Y0261856D02*
X0292752Y0262590D01*
X0292385Y0262957D01*
X0292018Y0262957D01*
X0291651Y0262590D01*
X0291284Y0262957D01*
X0290917Y0262957D01*
X0290550Y0262590D01*
X0290550Y0261856D01*
X0290917Y0261490D01*
X0291651Y0262223D02*
X0291651Y0262590D01*
X0291284Y0263699D02*
X0291651Y0264066D01*
X0291651Y0264800D01*
X0291284Y0265167D01*
X0290917Y0265167D01*
X0290550Y0264800D01*
X0290550Y0264066D01*
X0290917Y0263699D01*
X0291284Y0263699D01*
X0291651Y0264066D02*
X0292018Y0263699D01*
X0292385Y0263699D01*
X0292752Y0264066D01*
X0292752Y0264800D01*
X0292385Y0265167D01*
X0292018Y0265167D01*
X0291651Y0264800D01*
X0290917Y0265909D02*
X0290550Y0266276D01*
X0290550Y0267010D01*
X0290917Y0267377D01*
X0291284Y0267377D01*
X0291651Y0267010D01*
X0291651Y0266643D01*
X0291651Y0267010D02*
X0292018Y0267377D01*
X0292385Y0267377D01*
X0292752Y0267010D01*
X0292752Y0266276D01*
X0292385Y0265909D01*
X0292018Y0268119D02*
X0292752Y0268853D01*
X0290550Y0268853D01*
X0290550Y0268119D02*
X0290550Y0269587D01*
X0290550Y0271063D02*
X0292752Y0271063D01*
X0292752Y0270329D02*
X0292752Y0271797D01*
X0292752Y0261856D02*
X0292385Y0261490D01*
X0292385Y0260748D02*
X0290917Y0259280D01*
X0290550Y0259280D01*
X0291651Y0258538D02*
X0291284Y0258171D01*
X0291284Y0257070D01*
X0290550Y0257070D02*
X0292752Y0257070D01*
X0292752Y0258171D01*
X0292385Y0258538D01*
X0291651Y0258538D01*
X0292752Y0259280D02*
X0292752Y0260748D01*
X0292385Y0260748D01*
X0292385Y0256328D02*
X0292752Y0255961D01*
X0292752Y0255227D01*
X0292385Y0254860D01*
X0290917Y0254860D01*
X0290550Y0255227D01*
X0290550Y0255961D01*
X0290917Y0256328D01*
X0290550Y0254118D02*
X0292752Y0254118D01*
X0292018Y0253384D01*
X0292752Y0252650D01*
X0290550Y0252650D01*
X0245091Y0258534D02*
X0244858Y0258300D01*
X0244391Y0258300D01*
X0244157Y0258534D01*
X0244157Y0259001D01*
X0244624Y0259001D01*
X0244157Y0259468D02*
X0244391Y0259701D01*
X0244858Y0259701D01*
X0245091Y0259468D01*
X0245091Y0258534D01*
X0243618Y0258767D02*
X0242918Y0258767D01*
X0242684Y0259001D01*
X0242684Y0259468D01*
X0242918Y0259701D01*
X0243618Y0259701D01*
X0243618Y0258300D01*
X0243151Y0258767D02*
X0242684Y0258300D01*
X0242145Y0258300D02*
X0241211Y0258300D01*
X0240672Y0258300D02*
X0239738Y0258300D01*
X0239198Y0258300D02*
X0239198Y0259701D01*
X0238264Y0258300D01*
X0238264Y0259701D01*
X0239738Y0259701D02*
X0240672Y0259701D01*
X0240672Y0258300D01*
X0240672Y0259001D02*
X0240205Y0259001D01*
X0241211Y0259701D02*
X0242145Y0259701D01*
X0242145Y0258300D01*
X0242145Y0259001D02*
X0241678Y0259001D01*
X0241444Y0247201D02*
X0241211Y0246968D01*
X0241211Y0246501D01*
X0241444Y0246267D01*
X0242145Y0246267D01*
X0242145Y0245800D02*
X0242145Y0247201D01*
X0241444Y0247201D01*
X0240672Y0247201D02*
X0240672Y0245800D01*
X0239738Y0245800D01*
X0239198Y0245800D02*
X0238498Y0245800D01*
X0238264Y0246034D01*
X0238264Y0246968D01*
X0238498Y0247201D01*
X0239198Y0247201D01*
X0239198Y0245800D01*
X0240205Y0246501D02*
X0240672Y0246501D01*
X0240672Y0247201D02*
X0239738Y0247201D01*
X0241211Y0245800D02*
X0241678Y0246267D01*
X0041144Y0250914D02*
X0037601Y0247961D01*
X0036856Y0248872D02*
X0040379Y0251829D01*
X0036135Y0252154D02*
X0035274Y0250022D01*
X0033585Y0249615D02*
X0033585Y0247568D01*
X0031065Y0247568D01*
X0031065Y0249615D01*
X0031068Y0250613D02*
X0030828Y0252900D01*
X0030828Y0252900D01*
X0027944Y0251850D02*
X0029230Y0249944D01*
X0028251Y0249284D02*
X0026965Y0251190D01*
X0024913Y0248910D02*
X0026943Y0247831D01*
X0026388Y0246788D02*
X0024358Y0247867D01*
X0027010Y0245560D02*
X0029057Y0245560D01*
X0029057Y0243040D01*
X0027010Y0243040D01*
X0026388Y0241812D02*
X0024358Y0240733D01*
X0024913Y0239690D02*
X0026943Y0240769D01*
X0028251Y0239316D02*
X0026965Y0237410D01*
X0027944Y0236750D02*
X0029230Y0238656D01*
X0031065Y0238985D02*
X0031065Y0241032D01*
X0033585Y0241032D01*
X0033585Y0238985D01*
X0035274Y0238578D02*
X0036135Y0236446D01*
X0036853Y0239733D02*
X0040357Y0236780D01*
X0041144Y0237686D02*
X0037601Y0240639D01*
X0037640Y0243040D02*
X0035593Y0243040D01*
X0035593Y0245560D01*
X0037640Y0245560D01*
X0035593Y0245560D02*
X0033585Y0245560D01*
X0033585Y0247568D01*
X0031065Y0247568D02*
X0031065Y0245560D01*
X0029057Y0245560D01*
X0029057Y0243040D02*
X0031065Y0243040D01*
X0031065Y0241032D01*
X0033585Y0241032D02*
X0033585Y0243040D01*
X0035593Y0243040D01*
X0036853Y0248867D02*
X0036745Y0248971D01*
X0036634Y0249073D01*
X0036522Y0249173D01*
X0036407Y0249269D01*
X0036289Y0249363D01*
X0036170Y0249454D01*
X0036048Y0249543D01*
X0035925Y0249628D01*
X0035800Y0249711D01*
X0035672Y0249791D01*
X0035543Y0249867D01*
X0035412Y0249941D01*
X0035279Y0250012D01*
X0024912Y0248911D02*
X0024810Y0248743D01*
X0024712Y0248572D01*
X0024617Y0248399D01*
X0024527Y0248224D01*
X0024440Y0248047D01*
X0024358Y0247868D01*
X0026966Y0237410D02*
X0027123Y0237291D01*
X0027282Y0237175D01*
X0027444Y0237063D01*
X0027609Y0236955D01*
X0027776Y0236851D01*
X0027945Y0236750D01*
X0030828Y0235700D02*
X0031068Y0237987D01*
X0030828Y0235700D02*
X0030828Y0235700D01*
X0024912Y0239689D02*
X0024810Y0239857D01*
X0024712Y0240028D01*
X0024617Y0240201D01*
X0024527Y0240376D01*
X0024440Y0240553D01*
X0024358Y0240732D01*
X0026966Y0251190D02*
X0027123Y0251309D01*
X0027282Y0251425D01*
X0027444Y0251537D01*
X0027609Y0251645D01*
X0027776Y0251749D01*
X0027945Y0251850D01*
X0040379Y0251829D02*
X0040538Y0251654D01*
X0040694Y0251477D01*
X0040846Y0251296D01*
X0040994Y0251111D01*
X0041138Y0250924D01*
X0036853Y0239733D02*
X0036745Y0239629D01*
X0036634Y0239527D01*
X0036522Y0239427D01*
X0036407Y0239331D01*
X0036289Y0239237D01*
X0036170Y0239146D01*
X0036048Y0239057D01*
X0035925Y0238972D01*
X0035800Y0238889D01*
X0035672Y0238809D01*
X0035543Y0238733D01*
X0035412Y0238659D01*
X0035279Y0238588D01*
X0040379Y0236771D02*
X0040538Y0236946D01*
X0040694Y0237123D01*
X0040846Y0237304D01*
X0040994Y0237489D01*
X0041138Y0237676D01*
X0031066Y0238001D02*
X0030917Y0238032D01*
X0030769Y0238067D01*
X0030622Y0238106D01*
X0030477Y0238148D01*
X0030332Y0238193D01*
X0030188Y0238242D01*
X0030045Y0238295D01*
X0029904Y0238350D01*
X0029764Y0238409D01*
X0029625Y0238471D01*
X0029488Y0238537D01*
X0029353Y0238605D01*
X0029219Y0238677D01*
X0026944Y0247834D02*
X0027030Y0247961D01*
X0027118Y0248085D01*
X0027209Y0248207D01*
X0027303Y0248328D01*
X0027400Y0248446D01*
X0027500Y0248561D01*
X0027602Y0248674D01*
X0027707Y0248785D01*
X0027815Y0248893D01*
X0027925Y0248999D01*
X0028038Y0249102D01*
X0028153Y0249202D01*
X0028270Y0249299D01*
X0026944Y0240766D02*
X0027030Y0240639D01*
X0027118Y0240515D01*
X0027209Y0240393D01*
X0027303Y0240272D01*
X0027400Y0240154D01*
X0027500Y0240039D01*
X0027602Y0239926D01*
X0027707Y0239815D01*
X0027815Y0239707D01*
X0027925Y0239601D01*
X0028038Y0239498D01*
X0028153Y0239398D01*
X0028270Y0239301D01*
X0025910Y0244891D02*
X0025926Y0245040D01*
X0025945Y0245189D01*
X0025967Y0245338D01*
X0025993Y0245486D01*
X0026023Y0245634D01*
X0026055Y0245780D01*
X0026092Y0245926D01*
X0026131Y0246071D01*
X0026174Y0246216D01*
X0026221Y0246359D01*
X0026271Y0246501D01*
X0026324Y0246641D01*
X0026380Y0246781D01*
X0025910Y0243709D02*
X0025926Y0243560D01*
X0025945Y0243411D01*
X0025967Y0243262D01*
X0025993Y0243114D01*
X0026023Y0242966D01*
X0026055Y0242820D01*
X0026092Y0242674D01*
X0026131Y0242529D01*
X0026174Y0242384D01*
X0026221Y0242241D01*
X0026271Y0242099D01*
X0026324Y0241959D01*
X0026380Y0241819D01*
X0026853Y0244300D02*
X0026855Y0244448D01*
X0026861Y0244595D01*
X0026871Y0244742D01*
X0026885Y0244889D01*
X0026903Y0245036D01*
X0026924Y0245182D01*
X0026950Y0245327D01*
X0026980Y0245471D01*
X0027013Y0245615D01*
X0027051Y0245758D01*
X0027092Y0245899D01*
X0027137Y0246040D01*
X0027186Y0246179D01*
X0027238Y0246317D01*
X0027295Y0246454D01*
X0027354Y0246588D01*
X0027418Y0246722D01*
X0027485Y0246853D01*
X0027556Y0246983D01*
X0027630Y0247110D01*
X0027707Y0247236D01*
X0027788Y0247359D01*
X0027872Y0247480D01*
X0027960Y0247599D01*
X0028050Y0247716D01*
X0028144Y0247830D01*
X0028240Y0247941D01*
X0028340Y0248050D01*
X0028443Y0248156D01*
X0028548Y0248260D01*
X0028656Y0248360D01*
X0028767Y0248457D01*
X0028880Y0248552D01*
X0028996Y0248643D01*
X0029115Y0248731D01*
X0029235Y0248816D01*
X0029358Y0248898D01*
X0029483Y0248976D01*
X0029610Y0249051D01*
X0029739Y0249123D01*
X0029870Y0249191D01*
X0030003Y0249255D01*
X0030138Y0249316D01*
X0030274Y0249373D01*
X0030411Y0249426D01*
X0030550Y0249476D01*
X0030690Y0249522D01*
X0030832Y0249564D01*
X0030974Y0249603D01*
X0031118Y0249637D01*
X0031262Y0249668D01*
X0031407Y0249694D01*
X0031553Y0249717D01*
X0031699Y0249736D01*
X0031846Y0249751D01*
X0031993Y0249762D01*
X0032141Y0249769D01*
X0032288Y0249772D01*
X0032436Y0249771D01*
X0032583Y0249766D01*
X0032730Y0249757D01*
X0032877Y0249744D01*
X0033024Y0249727D01*
X0033170Y0249706D01*
X0033316Y0249682D01*
X0033460Y0249653D01*
X0033604Y0249620D01*
X0033747Y0249584D01*
X0033889Y0249544D01*
X0034030Y0249500D01*
X0034170Y0249452D01*
X0034308Y0249400D01*
X0034445Y0249345D01*
X0034580Y0249286D01*
X0034713Y0249223D01*
X0034845Y0249157D01*
X0034975Y0249087D01*
X0035103Y0249014D01*
X0035230Y0248937D01*
X0035354Y0248857D01*
X0035475Y0248774D01*
X0035595Y0248688D01*
X0035712Y0248598D01*
X0035827Y0248505D01*
X0035939Y0248409D01*
X0036048Y0248310D01*
X0036155Y0248208D01*
X0036259Y0248104D01*
X0036360Y0247996D01*
X0036458Y0247886D01*
X0036553Y0247773D01*
X0036646Y0247658D01*
X0036735Y0247540D01*
X0036820Y0247420D01*
X0036903Y0247298D01*
X0036982Y0247173D01*
X0037058Y0247047D01*
X0037130Y0246918D01*
X0037199Y0246788D01*
X0037264Y0246655D01*
X0037326Y0246521D01*
X0037384Y0246386D01*
X0037438Y0246248D01*
X0037489Y0246110D01*
X0037536Y0245970D01*
X0037579Y0245829D01*
X0037618Y0245687D01*
X0037654Y0245543D01*
X0037685Y0245399D01*
X0037713Y0245254D01*
X0037737Y0245109D01*
X0037757Y0244962D01*
X0037773Y0244816D01*
X0037785Y0244669D01*
X0037793Y0244521D01*
X0037797Y0244374D01*
X0037797Y0244226D01*
X0037793Y0244079D01*
X0037785Y0243931D01*
X0037773Y0243784D01*
X0037757Y0243638D01*
X0037737Y0243491D01*
X0037713Y0243346D01*
X0037685Y0243201D01*
X0037654Y0243057D01*
X0037618Y0242913D01*
X0037579Y0242771D01*
X0037536Y0242630D01*
X0037489Y0242490D01*
X0037438Y0242352D01*
X0037384Y0242214D01*
X0037326Y0242079D01*
X0037264Y0241945D01*
X0037199Y0241812D01*
X0037130Y0241682D01*
X0037058Y0241553D01*
X0036982Y0241427D01*
X0036903Y0241302D01*
X0036820Y0241180D01*
X0036735Y0241060D01*
X0036646Y0240942D01*
X0036553Y0240827D01*
X0036458Y0240714D01*
X0036360Y0240604D01*
X0036259Y0240496D01*
X0036155Y0240392D01*
X0036048Y0240290D01*
X0035939Y0240191D01*
X0035827Y0240095D01*
X0035712Y0240002D01*
X0035595Y0239912D01*
X0035475Y0239826D01*
X0035354Y0239743D01*
X0035230Y0239663D01*
X0035103Y0239586D01*
X0034975Y0239513D01*
X0034845Y0239443D01*
X0034713Y0239377D01*
X0034580Y0239314D01*
X0034445Y0239255D01*
X0034308Y0239200D01*
X0034170Y0239148D01*
X0034030Y0239100D01*
X0033889Y0239056D01*
X0033747Y0239016D01*
X0033604Y0238980D01*
X0033460Y0238947D01*
X0033316Y0238918D01*
X0033170Y0238894D01*
X0033024Y0238873D01*
X0032877Y0238856D01*
X0032730Y0238843D01*
X0032583Y0238834D01*
X0032436Y0238829D01*
X0032288Y0238828D01*
X0032141Y0238831D01*
X0031993Y0238838D01*
X0031846Y0238849D01*
X0031699Y0238864D01*
X0031553Y0238883D01*
X0031407Y0238906D01*
X0031262Y0238932D01*
X0031118Y0238963D01*
X0030974Y0238997D01*
X0030832Y0239036D01*
X0030690Y0239078D01*
X0030550Y0239124D01*
X0030411Y0239174D01*
X0030274Y0239227D01*
X0030138Y0239284D01*
X0030003Y0239345D01*
X0029870Y0239409D01*
X0029739Y0239477D01*
X0029610Y0239549D01*
X0029483Y0239624D01*
X0029358Y0239702D01*
X0029235Y0239784D01*
X0029115Y0239869D01*
X0028996Y0239957D01*
X0028880Y0240048D01*
X0028767Y0240143D01*
X0028656Y0240240D01*
X0028548Y0240340D01*
X0028443Y0240444D01*
X0028340Y0240550D01*
X0028240Y0240659D01*
X0028144Y0240770D01*
X0028050Y0240884D01*
X0027960Y0241001D01*
X0027872Y0241120D01*
X0027788Y0241241D01*
X0027707Y0241364D01*
X0027630Y0241490D01*
X0027556Y0241617D01*
X0027485Y0241747D01*
X0027418Y0241878D01*
X0027354Y0242012D01*
X0027295Y0242146D01*
X0027238Y0242283D01*
X0027186Y0242421D01*
X0027137Y0242560D01*
X0027092Y0242701D01*
X0027051Y0242842D01*
X0027013Y0242985D01*
X0026980Y0243129D01*
X0026950Y0243273D01*
X0026924Y0243418D01*
X0026903Y0243564D01*
X0026885Y0243711D01*
X0026871Y0243858D01*
X0026861Y0244005D01*
X0026855Y0244152D01*
X0026853Y0244300D01*
X0037601Y0240638D02*
X0037690Y0240770D01*
X0037776Y0240904D01*
X0037858Y0241040D01*
X0037937Y0241178D01*
X0038013Y0241318D01*
X0038085Y0241460D01*
X0038153Y0241603D01*
X0038218Y0241748D01*
X0038280Y0241895D01*
X0038337Y0242043D01*
X0038391Y0242193D01*
X0038442Y0242344D01*
X0038488Y0242496D01*
X0038531Y0242649D01*
X0038570Y0242803D01*
X0038605Y0242958D01*
X0038637Y0243114D01*
X0038664Y0243271D01*
X0038688Y0243428D01*
X0038707Y0243586D01*
X0038723Y0243744D01*
X0038735Y0243903D01*
X0038743Y0244062D01*
X0038747Y0244220D01*
X0038747Y0244380D01*
X0038743Y0244538D01*
X0038735Y0244697D01*
X0038723Y0244856D01*
X0038707Y0245014D01*
X0038688Y0245172D01*
X0038664Y0245329D01*
X0038637Y0245486D01*
X0038605Y0245642D01*
X0038570Y0245797D01*
X0038531Y0245951D01*
X0038488Y0246104D01*
X0038442Y0246256D01*
X0038391Y0246407D01*
X0038337Y0246557D01*
X0038280Y0246705D01*
X0038218Y0246852D01*
X0038153Y0246997D01*
X0038085Y0247140D01*
X0038013Y0247282D01*
X0037937Y0247422D01*
X0037858Y0247560D01*
X0037776Y0247696D01*
X0037690Y0247830D01*
X0037601Y0247962D01*
X0031066Y0250599D02*
X0030917Y0250568D01*
X0030769Y0250533D01*
X0030622Y0250494D01*
X0030477Y0250452D01*
X0030332Y0250407D01*
X0030188Y0250358D01*
X0030045Y0250305D01*
X0029904Y0250250D01*
X0029764Y0250191D01*
X0029625Y0250129D01*
X0029488Y0250063D01*
X0029353Y0249995D01*
X0029219Y0249923D01*
X0032246Y0237848D02*
X0032396Y0237848D01*
X0032546Y0237852D01*
X0032697Y0237859D01*
X0032847Y0237869D01*
X0032997Y0237883D01*
X0033146Y0237900D01*
X0033295Y0237921D01*
X0033444Y0237946D01*
X0033591Y0237974D01*
X0033739Y0238005D01*
X0033885Y0238039D01*
X0034031Y0238077D01*
X0034175Y0238119D01*
X0034176Y0250481D02*
X0034032Y0250522D01*
X0033886Y0250561D01*
X0033740Y0250595D01*
X0033593Y0250626D01*
X0033445Y0250654D01*
X0033297Y0250679D01*
X0033148Y0250699D01*
X0032999Y0250717D01*
X0032849Y0250731D01*
X0032699Y0250741D01*
X0032549Y0250748D01*
X0032399Y0250752D01*
X0032249Y0250752D01*
D19*
X0164496Y0128991D02*
X0165216Y0129531D01*
X0165215Y0129530D02*
X0165396Y0129297D01*
X0165582Y0129069D01*
X0165774Y0128845D01*
X0165971Y0128626D01*
X0166173Y0128412D01*
X0166381Y0128203D01*
X0166594Y0128000D01*
X0166811Y0127801D01*
X0167034Y0127608D01*
X0167261Y0127420D01*
X0167492Y0127238D01*
X0167728Y0127061D01*
X0167969Y0126891D01*
X0168213Y0126726D01*
X0168461Y0126568D01*
X0168713Y0126415D01*
X0168969Y0126269D01*
X0169228Y0126129D01*
X0169491Y0125995D01*
X0169756Y0125868D01*
X0170025Y0125747D01*
X0170297Y0125633D01*
X0170571Y0125526D01*
X0170848Y0125425D01*
X0171127Y0125331D01*
X0171409Y0125244D01*
X0171692Y0125164D01*
X0171978Y0125091D01*
X0172265Y0125025D01*
X0172554Y0124966D01*
X0172844Y0124914D01*
X0173135Y0124869D01*
X0173427Y0124831D01*
X0173720Y0124801D01*
X0174014Y0124777D01*
X0174308Y0124761D01*
X0174602Y0124752D01*
X0174897Y0124750D01*
X0175192Y0124756D01*
X0175486Y0124768D01*
X0175780Y0124788D01*
X0176073Y0124815D01*
X0176366Y0124849D01*
X0176658Y0124890D01*
X0176948Y0124939D01*
X0177238Y0124994D01*
X0177525Y0125056D01*
X0177812Y0125126D01*
X0178096Y0125203D01*
X0178379Y0125286D01*
X0178659Y0125376D01*
X0178937Y0125473D01*
X0179213Y0125577D01*
X0179486Y0125688D01*
X0179756Y0125805D01*
X0180024Y0125929D01*
X0180288Y0126059D01*
X0180549Y0126196D01*
X0180806Y0126339D01*
X0181060Y0126489D01*
X0181311Y0126644D01*
X0181557Y0126806D01*
X0181799Y0126973D01*
X0182037Y0127147D01*
X0182271Y0127326D01*
X0182501Y0127511D01*
X0182725Y0127701D01*
X0182946Y0127897D01*
X0183161Y0128098D01*
X0183371Y0128305D01*
X0183576Y0128516D01*
X0183776Y0128733D01*
X0183971Y0128954D01*
X0184160Y0129180D01*
X0184343Y0129410D01*
X0184521Y0129645D01*
X0184693Y0129885D01*
X0184859Y0130128D01*
X0185019Y0130375D01*
X0185173Y0130626D01*
X0185321Y0130881D01*
X0185463Y0131140D01*
X0185598Y0131401D01*
X0185727Y0131666D01*
X0185849Y0131934D01*
X0185965Y0132205D01*
X0186074Y0132479D01*
X0186176Y0132755D01*
X0186271Y0133034D01*
X0186360Y0133315D01*
X0186442Y0133598D01*
X0186517Y0133883D01*
X0186584Y0134170D01*
X0186645Y0134458D01*
X0186699Y0134748D01*
X0186746Y0135039D01*
X0186785Y0135331D01*
X0186817Y0135623D01*
X0186843Y0135917D01*
X0186861Y0136211D01*
X0186871Y0136505D01*
X0186875Y0136800D01*
X0186871Y0137095D01*
X0186861Y0137389D01*
X0186843Y0137683D01*
X0186817Y0137977D01*
X0186785Y0138269D01*
X0186746Y0138561D01*
X0186699Y0138852D01*
X0186645Y0139142D01*
X0186584Y0139430D01*
X0186517Y0139717D01*
X0186442Y0140002D01*
X0186360Y0140285D01*
X0186271Y0140566D01*
X0186176Y0140845D01*
X0186074Y0141121D01*
X0185965Y0141395D01*
X0185849Y0141666D01*
X0185727Y0141934D01*
X0185598Y0142199D01*
X0185463Y0142460D01*
X0185321Y0142719D01*
X0185173Y0142974D01*
X0185019Y0143225D01*
X0184859Y0143472D01*
X0184693Y0143715D01*
X0184521Y0143955D01*
X0184343Y0144190D01*
X0184160Y0144420D01*
X0183971Y0144646D01*
X0183776Y0144867D01*
X0183576Y0145084D01*
X0183371Y0145295D01*
X0183161Y0145502D01*
X0182946Y0145703D01*
X0182725Y0145899D01*
X0182501Y0146089D01*
X0182271Y0146274D01*
X0182037Y0146453D01*
X0181799Y0146627D01*
X0181557Y0146794D01*
X0181311Y0146956D01*
X0181060Y0147111D01*
X0180806Y0147261D01*
X0180549Y0147404D01*
X0180288Y0147541D01*
X0180024Y0147671D01*
X0179756Y0147795D01*
X0179486Y0147912D01*
X0179213Y0148023D01*
X0178937Y0148127D01*
X0178659Y0148224D01*
X0178379Y0148314D01*
X0178096Y0148397D01*
X0177812Y0148474D01*
X0177525Y0148544D01*
X0177238Y0148606D01*
X0176948Y0148661D01*
X0176658Y0148710D01*
X0176366Y0148751D01*
X0176073Y0148785D01*
X0175780Y0148812D01*
X0175486Y0148832D01*
X0175192Y0148844D01*
X0174897Y0148850D01*
X0174602Y0148848D01*
X0174308Y0148839D01*
X0174014Y0148823D01*
X0173720Y0148799D01*
X0173427Y0148769D01*
X0173135Y0148731D01*
X0172844Y0148686D01*
X0172554Y0148634D01*
X0172265Y0148575D01*
X0171978Y0148509D01*
X0171692Y0148436D01*
X0171409Y0148356D01*
X0171127Y0148269D01*
X0170848Y0148175D01*
X0170571Y0148074D01*
X0170297Y0147967D01*
X0170025Y0147853D01*
X0169756Y0147732D01*
X0169491Y0147605D01*
X0169228Y0147471D01*
X0168969Y0147331D01*
X0168713Y0147185D01*
X0168461Y0147032D01*
X0168213Y0146874D01*
X0167969Y0146709D01*
X0167728Y0146539D01*
X0167492Y0146362D01*
X0167261Y0146180D01*
X0167034Y0145992D01*
X0166811Y0145799D01*
X0166594Y0145600D01*
X0166381Y0145397D01*
X0166173Y0145188D01*
X0165971Y0144974D01*
X0165774Y0144755D01*
X0165582Y0144531D01*
X0165396Y0144303D01*
X0165215Y0144070D01*
X0164496Y0144609D01*
X0164495Y0144610D01*
X0164689Y0144860D01*
X0164889Y0145106D01*
X0165095Y0145346D01*
X0165307Y0145581D01*
X0165525Y0145811D01*
X0165748Y0146036D01*
X0165976Y0146255D01*
X0166210Y0146469D01*
X0166449Y0146677D01*
X0166693Y0146879D01*
X0166942Y0147074D01*
X0167196Y0147264D01*
X0167454Y0147447D01*
X0167716Y0147624D01*
X0167983Y0147795D01*
X0168254Y0147959D01*
X0168529Y0148116D01*
X0168807Y0148267D01*
X0169090Y0148411D01*
X0169375Y0148547D01*
X0169664Y0148677D01*
X0169956Y0148800D01*
X0170251Y0148915D01*
X0170548Y0149023D01*
X0170849Y0149124D01*
X0171151Y0149218D01*
X0171456Y0149304D01*
X0171763Y0149383D01*
X0172071Y0149454D01*
X0172381Y0149517D01*
X0172693Y0149573D01*
X0173006Y0149622D01*
X0173320Y0149662D01*
X0173635Y0149695D01*
X0173951Y0149720D01*
X0174267Y0149738D01*
X0174583Y0149748D01*
X0174900Y0149750D01*
X0175217Y0149744D01*
X0175533Y0149731D01*
X0175849Y0149709D01*
X0176164Y0149681D01*
X0176479Y0149644D01*
X0176792Y0149600D01*
X0177105Y0149548D01*
X0177416Y0149488D01*
X0177725Y0149421D01*
X0178033Y0149346D01*
X0178339Y0149264D01*
X0178642Y0149175D01*
X0178944Y0149078D01*
X0179243Y0148973D01*
X0179539Y0148861D01*
X0179833Y0148743D01*
X0180123Y0148617D01*
X0180410Y0148484D01*
X0180695Y0148343D01*
X0180975Y0148196D01*
X0181252Y0148043D01*
X0181525Y0147882D01*
X0181794Y0147715D01*
X0182059Y0147541D01*
X0182319Y0147361D01*
X0182575Y0147175D01*
X0182826Y0146982D01*
X0183073Y0146784D01*
X0183315Y0146579D01*
X0183551Y0146369D01*
X0183783Y0146152D01*
X0184008Y0145930D01*
X0184229Y0145703D01*
X0184444Y0145471D01*
X0184653Y0145233D01*
X0184856Y0144990D01*
X0185054Y0144742D01*
X0185245Y0144490D01*
X0185430Y0144233D01*
X0185608Y0143971D01*
X0185780Y0143705D01*
X0185946Y0143436D01*
X0186105Y0143162D01*
X0186257Y0142884D01*
X0186402Y0142603D01*
X0186541Y0142318D01*
X0186672Y0142030D01*
X0186796Y0141738D01*
X0186914Y0141444D01*
X0187024Y0141147D01*
X0187126Y0140848D01*
X0187221Y0140546D01*
X0187309Y0140242D01*
X0187390Y0139935D01*
X0187463Y0139627D01*
X0187528Y0139317D01*
X0187586Y0139006D01*
X0187636Y0138693D01*
X0187678Y0138379D01*
X0187713Y0138065D01*
X0187740Y0137749D01*
X0187760Y0137433D01*
X0187771Y0137117D01*
X0187775Y0136800D01*
X0187771Y0136483D01*
X0187760Y0136167D01*
X0187740Y0135851D01*
X0187713Y0135535D01*
X0187678Y0135221D01*
X0187636Y0134907D01*
X0187586Y0134594D01*
X0187528Y0134283D01*
X0187463Y0133973D01*
X0187390Y0133665D01*
X0187309Y0133358D01*
X0187221Y0133054D01*
X0187126Y0132752D01*
X0187024Y0132453D01*
X0186914Y0132156D01*
X0186796Y0131862D01*
X0186672Y0131570D01*
X0186541Y0131282D01*
X0186402Y0130997D01*
X0186257Y0130716D01*
X0186105Y0130438D01*
X0185946Y0130164D01*
X0185780Y0129895D01*
X0185608Y0129629D01*
X0185430Y0129367D01*
X0185245Y0129110D01*
X0185054Y0128858D01*
X0184856Y0128610D01*
X0184653Y0128367D01*
X0184444Y0128129D01*
X0184229Y0127897D01*
X0184008Y0127670D01*
X0183783Y0127448D01*
X0183551Y0127231D01*
X0183315Y0127021D01*
X0183073Y0126816D01*
X0182826Y0126618D01*
X0182575Y0126425D01*
X0182319Y0126239D01*
X0182059Y0126059D01*
X0181794Y0125885D01*
X0181525Y0125718D01*
X0181252Y0125557D01*
X0180975Y0125404D01*
X0180695Y0125257D01*
X0180410Y0125116D01*
X0180123Y0124983D01*
X0179833Y0124857D01*
X0179539Y0124739D01*
X0179243Y0124627D01*
X0178944Y0124522D01*
X0178642Y0124425D01*
X0178339Y0124336D01*
X0178033Y0124254D01*
X0177725Y0124179D01*
X0177416Y0124112D01*
X0177105Y0124052D01*
X0176792Y0124000D01*
X0176479Y0123956D01*
X0176164Y0123919D01*
X0175849Y0123891D01*
X0175533Y0123869D01*
X0175217Y0123856D01*
X0174900Y0123850D01*
X0174583Y0123852D01*
X0174267Y0123862D01*
X0173951Y0123880D01*
X0173635Y0123905D01*
X0173320Y0123938D01*
X0173006Y0123978D01*
X0172693Y0124027D01*
X0172381Y0124083D01*
X0172071Y0124146D01*
X0171763Y0124217D01*
X0171456Y0124296D01*
X0171151Y0124382D01*
X0170849Y0124476D01*
X0170548Y0124577D01*
X0170251Y0124685D01*
X0169956Y0124800D01*
X0169664Y0124923D01*
X0169375Y0125053D01*
X0169090Y0125189D01*
X0168807Y0125333D01*
X0168529Y0125484D01*
X0168254Y0125641D01*
X0167983Y0125805D01*
X0167716Y0125976D01*
X0167454Y0126153D01*
X0167196Y0126336D01*
X0166942Y0126526D01*
X0166693Y0126721D01*
X0166449Y0126923D01*
X0166210Y0127131D01*
X0165976Y0127345D01*
X0165748Y0127564D01*
X0165525Y0127789D01*
X0165307Y0128019D01*
X0165095Y0128254D01*
X0164889Y0128494D01*
X0164689Y0128740D01*
X0164495Y0128990D01*
X0164570Y0129046D01*
X0164763Y0128798D01*
X0164962Y0128554D01*
X0165166Y0128316D01*
X0165376Y0128082D01*
X0165592Y0127854D01*
X0165814Y0127631D01*
X0166041Y0127413D01*
X0166273Y0127201D01*
X0166510Y0126995D01*
X0166752Y0126794D01*
X0167000Y0126600D01*
X0167251Y0126412D01*
X0167508Y0126230D01*
X0167768Y0126054D01*
X0168033Y0125885D01*
X0168302Y0125722D01*
X0168575Y0125566D01*
X0168851Y0125416D01*
X0169131Y0125274D01*
X0169415Y0125138D01*
X0169702Y0125009D01*
X0169992Y0124887D01*
X0170284Y0124773D01*
X0170580Y0124665D01*
X0170878Y0124565D01*
X0171178Y0124472D01*
X0171481Y0124387D01*
X0171785Y0124309D01*
X0172091Y0124238D01*
X0172399Y0124175D01*
X0172709Y0124119D01*
X0173019Y0124071D01*
X0173331Y0124031D01*
X0173644Y0123998D01*
X0173957Y0123973D01*
X0174271Y0123956D01*
X0174585Y0123946D01*
X0174900Y0123944D01*
X0175214Y0123950D01*
X0175528Y0123963D01*
X0175842Y0123984D01*
X0176155Y0124013D01*
X0176467Y0124049D01*
X0176778Y0124093D01*
X0177088Y0124145D01*
X0177397Y0124204D01*
X0177704Y0124271D01*
X0178010Y0124345D01*
X0178313Y0124426D01*
X0178615Y0124515D01*
X0178914Y0124612D01*
X0179211Y0124715D01*
X0179505Y0124826D01*
X0179796Y0124944D01*
X0180085Y0125069D01*
X0180370Y0125201D01*
X0180652Y0125340D01*
X0180930Y0125486D01*
X0181205Y0125639D01*
X0181476Y0125798D01*
X0181743Y0125964D01*
X0182006Y0126137D01*
X0182265Y0126315D01*
X0182519Y0126500D01*
X0182768Y0126692D01*
X0183013Y0126889D01*
X0183253Y0127092D01*
X0183488Y0127301D01*
X0183718Y0127516D01*
X0183942Y0127736D01*
X0184161Y0127961D01*
X0184374Y0128192D01*
X0184582Y0128428D01*
X0184784Y0128670D01*
X0184979Y0128915D01*
X0185169Y0129166D01*
X0185353Y0129421D01*
X0185530Y0129681D01*
X0185701Y0129945D01*
X0185865Y0130213D01*
X0186023Y0130485D01*
X0186174Y0130760D01*
X0186318Y0131040D01*
X0186456Y0131322D01*
X0186586Y0131608D01*
X0186710Y0131897D01*
X0186826Y0132190D01*
X0186935Y0132484D01*
X0187037Y0132782D01*
X0187131Y0133081D01*
X0187219Y0133384D01*
X0187299Y0133688D01*
X0187371Y0133993D01*
X0187436Y0134301D01*
X0187493Y0134610D01*
X0187543Y0134921D01*
X0187585Y0135232D01*
X0187620Y0135545D01*
X0187646Y0135858D01*
X0187666Y0136172D01*
X0187677Y0136486D01*
X0187681Y0136800D01*
X0187677Y0137114D01*
X0187666Y0137428D01*
X0187646Y0137742D01*
X0187620Y0138055D01*
X0187585Y0138368D01*
X0187543Y0138679D01*
X0187493Y0138990D01*
X0187436Y0139299D01*
X0187371Y0139607D01*
X0187299Y0139912D01*
X0187219Y0140216D01*
X0187131Y0140519D01*
X0187037Y0140818D01*
X0186935Y0141116D01*
X0186826Y0141410D01*
X0186710Y0141703D01*
X0186586Y0141992D01*
X0186456Y0142278D01*
X0186318Y0142560D01*
X0186174Y0142840D01*
X0186023Y0143115D01*
X0185865Y0143387D01*
X0185701Y0143655D01*
X0185530Y0143919D01*
X0185353Y0144179D01*
X0185169Y0144434D01*
X0184979Y0144685D01*
X0184784Y0144930D01*
X0184582Y0145172D01*
X0184374Y0145408D01*
X0184161Y0145639D01*
X0183942Y0145864D01*
X0183718Y0146084D01*
X0183488Y0146299D01*
X0183253Y0146508D01*
X0183013Y0146711D01*
X0182768Y0146908D01*
X0182519Y0147100D01*
X0182265Y0147285D01*
X0182006Y0147463D01*
X0181743Y0147636D01*
X0181476Y0147802D01*
X0181205Y0147961D01*
X0180930Y0148114D01*
X0180652Y0148260D01*
X0180370Y0148399D01*
X0180085Y0148531D01*
X0179796Y0148656D01*
X0179505Y0148774D01*
X0179211Y0148885D01*
X0178914Y0148988D01*
X0178615Y0149085D01*
X0178313Y0149174D01*
X0178010Y0149255D01*
X0177704Y0149329D01*
X0177397Y0149396D01*
X0177088Y0149455D01*
X0176778Y0149507D01*
X0176467Y0149551D01*
X0176155Y0149587D01*
X0175842Y0149616D01*
X0175528Y0149637D01*
X0175214Y0149650D01*
X0174900Y0149656D01*
X0174585Y0149654D01*
X0174271Y0149644D01*
X0173957Y0149627D01*
X0173644Y0149602D01*
X0173331Y0149569D01*
X0173019Y0149529D01*
X0172709Y0149481D01*
X0172399Y0149425D01*
X0172091Y0149362D01*
X0171785Y0149291D01*
X0171481Y0149213D01*
X0171178Y0149128D01*
X0170878Y0149035D01*
X0170580Y0148935D01*
X0170284Y0148827D01*
X0169992Y0148713D01*
X0169702Y0148591D01*
X0169415Y0148462D01*
X0169131Y0148326D01*
X0168851Y0148184D01*
X0168575Y0148034D01*
X0168302Y0147878D01*
X0168033Y0147715D01*
X0167768Y0147546D01*
X0167508Y0147370D01*
X0167251Y0147188D01*
X0167000Y0147000D01*
X0166752Y0146806D01*
X0166510Y0146605D01*
X0166273Y0146399D01*
X0166041Y0146187D01*
X0165814Y0145969D01*
X0165592Y0145746D01*
X0165376Y0145518D01*
X0165166Y0145284D01*
X0164962Y0145046D01*
X0164763Y0144802D01*
X0164570Y0144554D01*
X0164645Y0144497D01*
X0164837Y0144744D01*
X0165034Y0144986D01*
X0165237Y0145223D01*
X0165446Y0145454D01*
X0165660Y0145681D01*
X0165880Y0145903D01*
X0166105Y0146119D01*
X0166336Y0146329D01*
X0166571Y0146534D01*
X0166812Y0146733D01*
X0167057Y0146926D01*
X0167307Y0147112D01*
X0167561Y0147293D01*
X0167820Y0147468D01*
X0168083Y0147636D01*
X0168350Y0147797D01*
X0168621Y0147952D01*
X0168895Y0148101D01*
X0169173Y0148242D01*
X0169455Y0148377D01*
X0169739Y0148505D01*
X0170027Y0148626D01*
X0170318Y0148740D01*
X0170611Y0148846D01*
X0170907Y0148946D01*
X0171205Y0149038D01*
X0171505Y0149123D01*
X0171808Y0149200D01*
X0172112Y0149270D01*
X0172417Y0149333D01*
X0172724Y0149388D01*
X0173033Y0149436D01*
X0173342Y0149476D01*
X0173653Y0149508D01*
X0173964Y0149533D01*
X0174275Y0149550D01*
X0174587Y0149560D01*
X0174899Y0149562D01*
X0175211Y0149556D01*
X0175523Y0149543D01*
X0175834Y0149522D01*
X0176145Y0149494D01*
X0176455Y0149457D01*
X0176764Y0149414D01*
X0177072Y0149363D01*
X0177379Y0149304D01*
X0177683Y0149238D01*
X0177987Y0149164D01*
X0178288Y0149083D01*
X0178587Y0148995D01*
X0178884Y0148899D01*
X0179179Y0148796D01*
X0179471Y0148686D01*
X0179760Y0148569D01*
X0180047Y0148445D01*
X0180330Y0148314D01*
X0180610Y0148176D01*
X0180886Y0148031D01*
X0181159Y0147879D01*
X0181428Y0147721D01*
X0181693Y0147556D01*
X0181954Y0147385D01*
X0182210Y0147208D01*
X0182463Y0147024D01*
X0182710Y0146834D01*
X0182953Y0146639D01*
X0183192Y0146437D01*
X0183425Y0146229D01*
X0183653Y0146016D01*
X0183875Y0145798D01*
X0184093Y0145574D01*
X0184304Y0145345D01*
X0184510Y0145110D01*
X0184711Y0144871D01*
X0184905Y0144627D01*
X0185093Y0144378D01*
X0185276Y0144125D01*
X0185452Y0143867D01*
X0185621Y0143605D01*
X0185784Y0143339D01*
X0185941Y0143069D01*
X0186091Y0142795D01*
X0186234Y0142518D01*
X0186371Y0142238D01*
X0186500Y0141954D01*
X0186623Y0141667D01*
X0186738Y0141377D01*
X0186846Y0141084D01*
X0186948Y0140789D01*
X0187042Y0140491D01*
X0187128Y0140191D01*
X0187207Y0139890D01*
X0187279Y0139586D01*
X0187344Y0139281D01*
X0187401Y0138974D01*
X0187450Y0138666D01*
X0187492Y0138356D01*
X0187526Y0138046D01*
X0187553Y0137735D01*
X0187572Y0137424D01*
X0187583Y0137112D01*
X0187587Y0136800D01*
X0187583Y0136488D01*
X0187572Y0136176D01*
X0187553Y0135865D01*
X0187526Y0135554D01*
X0187492Y0135244D01*
X0187450Y0134934D01*
X0187401Y0134626D01*
X0187344Y0134319D01*
X0187279Y0134014D01*
X0187207Y0133710D01*
X0187128Y0133409D01*
X0187042Y0133109D01*
X0186948Y0132811D01*
X0186846Y0132516D01*
X0186738Y0132223D01*
X0186623Y0131933D01*
X0186500Y0131646D01*
X0186371Y0131362D01*
X0186234Y0131082D01*
X0186091Y0130805D01*
X0185941Y0130531D01*
X0185784Y0130261D01*
X0185621Y0129995D01*
X0185452Y0129733D01*
X0185276Y0129475D01*
X0185093Y0129222D01*
X0184905Y0128973D01*
X0184711Y0128729D01*
X0184510Y0128490D01*
X0184304Y0128255D01*
X0184093Y0128026D01*
X0183875Y0127802D01*
X0183653Y0127584D01*
X0183425Y0127371D01*
X0183192Y0127163D01*
X0182953Y0126961D01*
X0182710Y0126766D01*
X0182463Y0126576D01*
X0182210Y0126392D01*
X0181954Y0126215D01*
X0181693Y0126044D01*
X0181428Y0125879D01*
X0181159Y0125721D01*
X0180886Y0125569D01*
X0180610Y0125424D01*
X0180330Y0125286D01*
X0180047Y0125155D01*
X0179760Y0125031D01*
X0179471Y0124914D01*
X0179179Y0124804D01*
X0178884Y0124701D01*
X0178587Y0124605D01*
X0178288Y0124517D01*
X0177987Y0124436D01*
X0177683Y0124362D01*
X0177379Y0124296D01*
X0177072Y0124237D01*
X0176764Y0124186D01*
X0176455Y0124143D01*
X0176145Y0124106D01*
X0175834Y0124078D01*
X0175523Y0124057D01*
X0175211Y0124044D01*
X0174899Y0124038D01*
X0174587Y0124040D01*
X0174275Y0124050D01*
X0173964Y0124067D01*
X0173653Y0124092D01*
X0173342Y0124124D01*
X0173033Y0124164D01*
X0172724Y0124212D01*
X0172417Y0124267D01*
X0172112Y0124330D01*
X0171808Y0124400D01*
X0171505Y0124477D01*
X0171205Y0124562D01*
X0170907Y0124654D01*
X0170611Y0124754D01*
X0170318Y0124860D01*
X0170027Y0124974D01*
X0169739Y0125095D01*
X0169455Y0125223D01*
X0169173Y0125358D01*
X0168895Y0125499D01*
X0168621Y0125648D01*
X0168350Y0125803D01*
X0168083Y0125964D01*
X0167820Y0126132D01*
X0167561Y0126307D01*
X0167307Y0126488D01*
X0167057Y0126674D01*
X0166812Y0126867D01*
X0166571Y0127066D01*
X0166336Y0127271D01*
X0166105Y0127481D01*
X0165880Y0127697D01*
X0165660Y0127919D01*
X0165446Y0128146D01*
X0165237Y0128377D01*
X0165034Y0128614D01*
X0164837Y0128856D01*
X0164645Y0129103D01*
X0164721Y0129159D01*
X0164911Y0128914D01*
X0165106Y0128674D01*
X0165308Y0128439D01*
X0165515Y0128209D01*
X0165728Y0127984D01*
X0165946Y0127764D01*
X0166170Y0127550D01*
X0166399Y0127341D01*
X0166632Y0127138D01*
X0166871Y0126940D01*
X0167114Y0126749D01*
X0167363Y0126563D01*
X0167615Y0126384D01*
X0167872Y0126211D01*
X0168133Y0126044D01*
X0168398Y0125883D01*
X0168667Y0125730D01*
X0168939Y0125582D01*
X0169215Y0125442D01*
X0169495Y0125308D01*
X0169777Y0125181D01*
X0170063Y0125061D01*
X0170351Y0124948D01*
X0170642Y0124842D01*
X0170936Y0124744D01*
X0171232Y0124652D01*
X0171530Y0124568D01*
X0171830Y0124491D01*
X0172132Y0124422D01*
X0172435Y0124359D01*
X0172740Y0124305D01*
X0173046Y0124257D01*
X0173354Y0124218D01*
X0173662Y0124186D01*
X0173970Y0124161D01*
X0174280Y0124144D01*
X0174589Y0124134D01*
X0174899Y0124132D01*
X0175209Y0124138D01*
X0175518Y0124151D01*
X0175827Y0124172D01*
X0176136Y0124200D01*
X0176443Y0124236D01*
X0176750Y0124279D01*
X0177056Y0124330D01*
X0177360Y0124388D01*
X0177663Y0124454D01*
X0177964Y0124527D01*
X0178263Y0124607D01*
X0178560Y0124695D01*
X0178855Y0124790D01*
X0179147Y0124892D01*
X0179437Y0125001D01*
X0179724Y0125118D01*
X0180008Y0125241D01*
X0180289Y0125371D01*
X0180567Y0125508D01*
X0180841Y0125652D01*
X0181112Y0125802D01*
X0181379Y0125959D01*
X0181642Y0126123D01*
X0181901Y0126293D01*
X0182156Y0126469D01*
X0182407Y0126651D01*
X0182652Y0126840D01*
X0182894Y0127034D01*
X0183130Y0127234D01*
X0183361Y0127440D01*
X0183588Y0127652D01*
X0183809Y0127869D01*
X0184024Y0128091D01*
X0184235Y0128318D01*
X0184439Y0128551D01*
X0184638Y0128789D01*
X0184831Y0129031D01*
X0185018Y0129278D01*
X0185199Y0129529D01*
X0185373Y0129785D01*
X0185542Y0130045D01*
X0185704Y0130309D01*
X0185859Y0130577D01*
X0186008Y0130849D01*
X0186150Y0131124D01*
X0186286Y0131403D01*
X0186414Y0131684D01*
X0186536Y0131969D01*
X0186650Y0132257D01*
X0186758Y0132548D01*
X0186858Y0132841D01*
X0186952Y0133136D01*
X0187038Y0133434D01*
X0187116Y0133733D01*
X0187187Y0134035D01*
X0187251Y0134338D01*
X0187308Y0134642D01*
X0187357Y0134948D01*
X0187398Y0135255D01*
X0187432Y0135563D01*
X0187459Y0135872D01*
X0187478Y0136181D01*
X0187489Y0136490D01*
X0187493Y0136800D01*
X0187489Y0137110D01*
X0187478Y0137419D01*
X0187459Y0137728D01*
X0187432Y0138037D01*
X0187398Y0138345D01*
X0187357Y0138652D01*
X0187308Y0138958D01*
X0187251Y0139262D01*
X0187187Y0139565D01*
X0187116Y0139867D01*
X0187038Y0140166D01*
X0186952Y0140464D01*
X0186858Y0140759D01*
X0186758Y0141052D01*
X0186650Y0141343D01*
X0186536Y0141631D01*
X0186414Y0141916D01*
X0186286Y0142197D01*
X0186150Y0142476D01*
X0186008Y0142751D01*
X0185859Y0143023D01*
X0185704Y0143291D01*
X0185542Y0143555D01*
X0185373Y0143815D01*
X0185199Y0144071D01*
X0185018Y0144322D01*
X0184831Y0144569D01*
X0184638Y0144811D01*
X0184439Y0145049D01*
X0184235Y0145282D01*
X0184024Y0145509D01*
X0183809Y0145731D01*
X0183588Y0145948D01*
X0183361Y0146160D01*
X0183130Y0146366D01*
X0182894Y0146566D01*
X0182652Y0146760D01*
X0182407Y0146949D01*
X0182156Y0147131D01*
X0181901Y0147307D01*
X0181642Y0147477D01*
X0181379Y0147641D01*
X0181112Y0147798D01*
X0180841Y0147948D01*
X0180567Y0148092D01*
X0180289Y0148229D01*
X0180008Y0148359D01*
X0179724Y0148482D01*
X0179437Y0148599D01*
X0179147Y0148708D01*
X0178855Y0148810D01*
X0178560Y0148905D01*
X0178263Y0148993D01*
X0177964Y0149073D01*
X0177663Y0149146D01*
X0177360Y0149212D01*
X0177056Y0149270D01*
X0176750Y0149321D01*
X0176443Y0149364D01*
X0176136Y0149400D01*
X0175827Y0149428D01*
X0175518Y0149449D01*
X0175209Y0149462D01*
X0174899Y0149468D01*
X0174589Y0149466D01*
X0174280Y0149456D01*
X0173970Y0149439D01*
X0173662Y0149414D01*
X0173354Y0149382D01*
X0173046Y0149343D01*
X0172740Y0149295D01*
X0172435Y0149241D01*
X0172132Y0149178D01*
X0171830Y0149109D01*
X0171530Y0149032D01*
X0171232Y0148948D01*
X0170936Y0148856D01*
X0170642Y0148758D01*
X0170351Y0148652D01*
X0170063Y0148539D01*
X0169777Y0148419D01*
X0169495Y0148292D01*
X0169215Y0148158D01*
X0168939Y0148018D01*
X0168667Y0147870D01*
X0168398Y0147717D01*
X0168133Y0147556D01*
X0167872Y0147389D01*
X0167615Y0147216D01*
X0167363Y0147037D01*
X0167114Y0146851D01*
X0166871Y0146660D01*
X0166632Y0146462D01*
X0166399Y0146259D01*
X0166170Y0146050D01*
X0165946Y0145836D01*
X0165728Y0145616D01*
X0165515Y0145391D01*
X0165308Y0145161D01*
X0165106Y0144926D01*
X0164911Y0144686D01*
X0164721Y0144441D01*
X0164796Y0144384D01*
X0164984Y0144627D01*
X0165179Y0144866D01*
X0165379Y0145099D01*
X0165584Y0145327D01*
X0165796Y0145551D01*
X0166012Y0145769D01*
X0166234Y0145982D01*
X0166461Y0146189D01*
X0166693Y0146391D01*
X0166930Y0146587D01*
X0167172Y0146777D01*
X0167418Y0146961D01*
X0167669Y0147139D01*
X0167924Y0147311D01*
X0168183Y0147476D01*
X0168446Y0147636D01*
X0168713Y0147788D01*
X0168983Y0147935D01*
X0169257Y0148074D01*
X0169534Y0148207D01*
X0169815Y0148333D01*
X0170098Y0148452D01*
X0170385Y0148564D01*
X0170674Y0148669D01*
X0170965Y0148767D01*
X0171259Y0148858D01*
X0171555Y0148941D01*
X0171852Y0149018D01*
X0172152Y0149087D01*
X0172453Y0149148D01*
X0172756Y0149203D01*
X0173060Y0149249D01*
X0173365Y0149289D01*
X0173670Y0149321D01*
X0173977Y0149345D01*
X0174284Y0149362D01*
X0174591Y0149372D01*
X0174899Y0149374D01*
X0175206Y0149368D01*
X0175513Y0149355D01*
X0175820Y0149335D01*
X0176126Y0149306D01*
X0176432Y0149271D01*
X0176736Y0149228D01*
X0177039Y0149177D01*
X0177341Y0149120D01*
X0177642Y0149054D01*
X0177941Y0148982D01*
X0178237Y0148902D01*
X0178532Y0148815D01*
X0178825Y0148721D01*
X0179115Y0148619D01*
X0179403Y0148511D01*
X0179688Y0148396D01*
X0179970Y0148273D01*
X0180249Y0148144D01*
X0180525Y0148008D01*
X0180797Y0147865D01*
X0181066Y0147716D01*
X0181331Y0147560D01*
X0181592Y0147398D01*
X0181849Y0147229D01*
X0182102Y0147054D01*
X0182350Y0146873D01*
X0182594Y0146686D01*
X0182834Y0146493D01*
X0183068Y0146295D01*
X0183298Y0146090D01*
X0183523Y0145880D01*
X0183742Y0145665D01*
X0183956Y0145444D01*
X0184165Y0145219D01*
X0184368Y0144988D01*
X0184565Y0144752D01*
X0184757Y0144511D01*
X0184942Y0144266D01*
X0185122Y0144017D01*
X0185295Y0143763D01*
X0185462Y0143505D01*
X0185623Y0143243D01*
X0185777Y0142977D01*
X0185925Y0142707D01*
X0186066Y0142434D01*
X0186201Y0142157D01*
X0186328Y0141878D01*
X0186449Y0141595D01*
X0186563Y0141309D01*
X0186669Y0141021D01*
X0186769Y0140730D01*
X0186862Y0140437D01*
X0186947Y0140141D01*
X0187025Y0139844D01*
X0187096Y0139545D01*
X0187159Y0139244D01*
X0187215Y0138942D01*
X0187264Y0138638D01*
X0187305Y0138333D01*
X0187339Y0138028D01*
X0187365Y0137722D01*
X0187384Y0137415D01*
X0187395Y0137107D01*
X0187399Y0136800D01*
X0187395Y0136493D01*
X0187384Y0136185D01*
X0187365Y0135878D01*
X0187339Y0135572D01*
X0187305Y0135267D01*
X0187264Y0134962D01*
X0187215Y0134658D01*
X0187159Y0134356D01*
X0187096Y0134055D01*
X0187025Y0133756D01*
X0186947Y0133459D01*
X0186862Y0133163D01*
X0186769Y0132870D01*
X0186669Y0132579D01*
X0186563Y0132291D01*
X0186449Y0132005D01*
X0186328Y0131722D01*
X0186201Y0131443D01*
X0186066Y0131166D01*
X0185925Y0130893D01*
X0185777Y0130623D01*
X0185623Y0130357D01*
X0185462Y0130095D01*
X0185295Y0129837D01*
X0185122Y0129583D01*
X0184942Y0129334D01*
X0184757Y0129089D01*
X0184565Y0128848D01*
X0184368Y0128612D01*
X0184165Y0128381D01*
X0183956Y0128156D01*
X0183742Y0127935D01*
X0183523Y0127720D01*
X0183298Y0127510D01*
X0183068Y0127305D01*
X0182834Y0127107D01*
X0182594Y0126914D01*
X0182350Y0126727D01*
X0182102Y0126546D01*
X0181849Y0126371D01*
X0181592Y0126202D01*
X0181331Y0126040D01*
X0181066Y0125884D01*
X0180797Y0125735D01*
X0180525Y0125592D01*
X0180249Y0125456D01*
X0179970Y0125327D01*
X0179688Y0125204D01*
X0179403Y0125089D01*
X0179115Y0124981D01*
X0178825Y0124879D01*
X0178532Y0124785D01*
X0178237Y0124698D01*
X0177941Y0124618D01*
X0177642Y0124546D01*
X0177341Y0124480D01*
X0177039Y0124423D01*
X0176736Y0124372D01*
X0176432Y0124329D01*
X0176126Y0124294D01*
X0175820Y0124265D01*
X0175513Y0124245D01*
X0175206Y0124232D01*
X0174899Y0124226D01*
X0174591Y0124228D01*
X0174284Y0124238D01*
X0173977Y0124255D01*
X0173670Y0124279D01*
X0173365Y0124311D01*
X0173060Y0124351D01*
X0172756Y0124397D01*
X0172453Y0124452D01*
X0172152Y0124513D01*
X0171852Y0124582D01*
X0171555Y0124659D01*
X0171259Y0124742D01*
X0170965Y0124833D01*
X0170674Y0124931D01*
X0170385Y0125036D01*
X0170098Y0125148D01*
X0169815Y0125267D01*
X0169534Y0125393D01*
X0169257Y0125526D01*
X0168983Y0125665D01*
X0168713Y0125812D01*
X0168446Y0125964D01*
X0168183Y0126124D01*
X0167924Y0126289D01*
X0167669Y0126461D01*
X0167418Y0126639D01*
X0167172Y0126823D01*
X0166930Y0127013D01*
X0166693Y0127209D01*
X0166461Y0127411D01*
X0166234Y0127618D01*
X0166012Y0127831D01*
X0165796Y0128049D01*
X0165584Y0128273D01*
X0165379Y0128501D01*
X0165179Y0128734D01*
X0164984Y0128973D01*
X0164796Y0129216D01*
X0164871Y0129272D01*
X0165058Y0129031D01*
X0165251Y0128794D01*
X0165450Y0128563D01*
X0165654Y0128336D01*
X0165863Y0128114D01*
X0166078Y0127898D01*
X0166299Y0127687D01*
X0166524Y0127481D01*
X0166754Y0127281D01*
X0166990Y0127086D01*
X0167229Y0126898D01*
X0167474Y0126715D01*
X0167723Y0126538D01*
X0167976Y0126368D01*
X0168233Y0126203D01*
X0168494Y0126045D01*
X0168759Y0125894D01*
X0169027Y0125749D01*
X0169299Y0125610D01*
X0169574Y0125478D01*
X0169853Y0125353D01*
X0170134Y0125235D01*
X0170418Y0125124D01*
X0170705Y0125020D01*
X0170994Y0124922D01*
X0171286Y0124832D01*
X0171579Y0124749D01*
X0171875Y0124674D01*
X0172172Y0124605D01*
X0172471Y0124544D01*
X0172772Y0124490D01*
X0173073Y0124444D01*
X0173376Y0124404D01*
X0173679Y0124373D01*
X0173984Y0124348D01*
X0174288Y0124332D01*
X0174593Y0124322D01*
X0174898Y0124320D01*
X0175203Y0124326D01*
X0175508Y0124339D01*
X0175813Y0124359D01*
X0176117Y0124387D01*
X0176420Y0124422D01*
X0176722Y0124465D01*
X0177023Y0124515D01*
X0177323Y0124572D01*
X0177621Y0124637D01*
X0177917Y0124709D01*
X0178212Y0124788D01*
X0178505Y0124875D01*
X0178795Y0124968D01*
X0179083Y0125069D01*
X0179369Y0125177D01*
X0179652Y0125291D01*
X0179932Y0125413D01*
X0180209Y0125541D01*
X0180482Y0125676D01*
X0180752Y0125817D01*
X0181019Y0125966D01*
X0181282Y0126120D01*
X0181541Y0126281D01*
X0181797Y0126449D01*
X0182048Y0126622D01*
X0182294Y0126802D01*
X0182536Y0126988D01*
X0182774Y0127179D01*
X0183007Y0127376D01*
X0183235Y0127579D01*
X0183458Y0127788D01*
X0183676Y0128001D01*
X0183888Y0128220D01*
X0184095Y0128444D01*
X0184297Y0128674D01*
X0184493Y0128908D01*
X0184683Y0129146D01*
X0184867Y0129390D01*
X0185045Y0129637D01*
X0185217Y0129889D01*
X0185383Y0130146D01*
X0185542Y0130406D01*
X0185696Y0130670D01*
X0185842Y0130937D01*
X0185982Y0131208D01*
X0186116Y0131483D01*
X0186242Y0131760D01*
X0186362Y0132041D01*
X0186475Y0132325D01*
X0186581Y0132611D01*
X0186680Y0132899D01*
X0186772Y0133190D01*
X0186856Y0133484D01*
X0186934Y0133779D01*
X0187004Y0134076D01*
X0187067Y0134374D01*
X0187123Y0134674D01*
X0187171Y0134976D01*
X0187212Y0135278D01*
X0187245Y0135581D01*
X0187271Y0135885D01*
X0187290Y0136190D01*
X0187301Y0136495D01*
X0187305Y0136800D01*
X0187301Y0137105D01*
X0187290Y0137410D01*
X0187271Y0137715D01*
X0187245Y0138019D01*
X0187212Y0138322D01*
X0187171Y0138624D01*
X0187123Y0138926D01*
X0187067Y0139226D01*
X0187004Y0139524D01*
X0186934Y0139821D01*
X0186856Y0140116D01*
X0186772Y0140410D01*
X0186680Y0140701D01*
X0186581Y0140989D01*
X0186475Y0141275D01*
X0186362Y0141559D01*
X0186242Y0141840D01*
X0186116Y0142117D01*
X0185982Y0142392D01*
X0185842Y0142663D01*
X0185696Y0142930D01*
X0185542Y0143194D01*
X0185383Y0143454D01*
X0185217Y0143711D01*
X0185045Y0143963D01*
X0184867Y0144210D01*
X0184683Y0144454D01*
X0184493Y0144692D01*
X0184297Y0144926D01*
X0184095Y0145156D01*
X0183888Y0145380D01*
X0183676Y0145599D01*
X0183458Y0145812D01*
X0183235Y0146021D01*
X0183007Y0146224D01*
X0182774Y0146421D01*
X0182536Y0146612D01*
X0182294Y0146798D01*
X0182048Y0146978D01*
X0181797Y0147151D01*
X0181541Y0147319D01*
X0181282Y0147480D01*
X0181019Y0147634D01*
X0180752Y0147783D01*
X0180482Y0147924D01*
X0180209Y0148059D01*
X0179932Y0148187D01*
X0179652Y0148309D01*
X0179369Y0148423D01*
X0179083Y0148531D01*
X0178795Y0148632D01*
X0178505Y0148725D01*
X0178212Y0148812D01*
X0177917Y0148891D01*
X0177621Y0148963D01*
X0177323Y0149028D01*
X0177023Y0149085D01*
X0176722Y0149135D01*
X0176420Y0149178D01*
X0176117Y0149213D01*
X0175813Y0149241D01*
X0175508Y0149261D01*
X0175203Y0149274D01*
X0174898Y0149280D01*
X0174593Y0149278D01*
X0174288Y0149268D01*
X0173984Y0149252D01*
X0173679Y0149227D01*
X0173376Y0149196D01*
X0173073Y0149156D01*
X0172772Y0149110D01*
X0172471Y0149056D01*
X0172172Y0148995D01*
X0171875Y0148926D01*
X0171579Y0148851D01*
X0171286Y0148768D01*
X0170994Y0148678D01*
X0170705Y0148580D01*
X0170418Y0148476D01*
X0170134Y0148365D01*
X0169853Y0148247D01*
X0169574Y0148122D01*
X0169299Y0147990D01*
X0169027Y0147851D01*
X0168759Y0147706D01*
X0168494Y0147555D01*
X0168233Y0147397D01*
X0167976Y0147232D01*
X0167723Y0147062D01*
X0167474Y0146885D01*
X0167229Y0146702D01*
X0166990Y0146514D01*
X0166754Y0146319D01*
X0166524Y0146119D01*
X0166299Y0145913D01*
X0166078Y0145702D01*
X0165863Y0145486D01*
X0165654Y0145264D01*
X0165450Y0145037D01*
X0165251Y0144806D01*
X0165058Y0144569D01*
X0164871Y0144328D01*
X0164946Y0144272D01*
X0165132Y0144511D01*
X0165323Y0144746D01*
X0165520Y0144975D01*
X0165723Y0145200D01*
X0165931Y0145421D01*
X0166145Y0145635D01*
X0166363Y0145845D01*
X0166587Y0146049D01*
X0166815Y0146248D01*
X0167049Y0146441D01*
X0167287Y0146628D01*
X0167529Y0146809D01*
X0167776Y0146985D01*
X0168027Y0147154D01*
X0168283Y0147317D01*
X0168542Y0147474D01*
X0168805Y0147624D01*
X0169071Y0147768D01*
X0169341Y0147906D01*
X0169614Y0148037D01*
X0169890Y0148161D01*
X0170170Y0148278D01*
X0170452Y0148388D01*
X0170736Y0148492D01*
X0171023Y0148588D01*
X0171313Y0148678D01*
X0171604Y0148760D01*
X0171897Y0148835D01*
X0172193Y0148903D01*
X0172489Y0148964D01*
X0172787Y0149017D01*
X0173087Y0149063D01*
X0173387Y0149102D01*
X0173688Y0149134D01*
X0173990Y0149158D01*
X0174293Y0149175D01*
X0174595Y0149184D01*
X0174898Y0149186D01*
X0175201Y0149180D01*
X0175503Y0149167D01*
X0175806Y0149147D01*
X0176107Y0149119D01*
X0176408Y0149084D01*
X0176708Y0149042D01*
X0177007Y0148992D01*
X0177304Y0148935D01*
X0177600Y0148871D01*
X0177894Y0148800D01*
X0178187Y0148721D01*
X0178477Y0148635D01*
X0178766Y0148542D01*
X0179051Y0148443D01*
X0179335Y0148336D01*
X0179615Y0148222D01*
X0179893Y0148102D01*
X0180168Y0147974D01*
X0180440Y0147840D01*
X0180708Y0147700D01*
X0180973Y0147553D01*
X0181234Y0147399D01*
X0181491Y0147239D01*
X0181744Y0147073D01*
X0181993Y0146901D01*
X0182238Y0146723D01*
X0182479Y0146538D01*
X0182714Y0146348D01*
X0182945Y0146153D01*
X0183172Y0145951D01*
X0183393Y0145745D01*
X0183609Y0145532D01*
X0183820Y0145315D01*
X0184025Y0145093D01*
X0184225Y0144865D01*
X0184420Y0144633D01*
X0184608Y0144396D01*
X0184791Y0144154D01*
X0184968Y0143909D01*
X0185139Y0143658D01*
X0185303Y0143404D01*
X0185462Y0143146D01*
X0185614Y0142884D01*
X0185759Y0142619D01*
X0185898Y0142350D01*
X0186031Y0142077D01*
X0186156Y0141802D01*
X0186275Y0141523D01*
X0186387Y0141242D01*
X0186492Y0140958D01*
X0186591Y0140671D01*
X0186682Y0140382D01*
X0186766Y0140091D01*
X0186843Y0139798D01*
X0186912Y0139504D01*
X0186975Y0139207D01*
X0187030Y0138910D01*
X0187078Y0138611D01*
X0187119Y0138311D01*
X0187152Y0138009D01*
X0187178Y0137708D01*
X0187196Y0137405D01*
X0187207Y0137103D01*
X0187211Y0136800D01*
X0187207Y0136497D01*
X0187196Y0136195D01*
X0187178Y0135892D01*
X0187152Y0135591D01*
X0187119Y0135289D01*
X0187078Y0134989D01*
X0187030Y0134690D01*
X0186975Y0134393D01*
X0186912Y0134096D01*
X0186843Y0133802D01*
X0186766Y0133509D01*
X0186682Y0133218D01*
X0186591Y0132929D01*
X0186492Y0132642D01*
X0186387Y0132358D01*
X0186275Y0132077D01*
X0186156Y0131798D01*
X0186031Y0131523D01*
X0185898Y0131250D01*
X0185759Y0130981D01*
X0185614Y0130716D01*
X0185462Y0130454D01*
X0185303Y0130196D01*
X0185139Y0129942D01*
X0184968Y0129691D01*
X0184791Y0129446D01*
X0184608Y0129204D01*
X0184420Y0128967D01*
X0184225Y0128735D01*
X0184025Y0128507D01*
X0183820Y0128285D01*
X0183609Y0128068D01*
X0183393Y0127855D01*
X0183172Y0127649D01*
X0182945Y0127447D01*
X0182714Y0127252D01*
X0182479Y0127062D01*
X0182238Y0126877D01*
X0181993Y0126699D01*
X0181744Y0126527D01*
X0181491Y0126361D01*
X0181234Y0126201D01*
X0180973Y0126047D01*
X0180708Y0125900D01*
X0180440Y0125760D01*
X0180168Y0125626D01*
X0179893Y0125498D01*
X0179615Y0125378D01*
X0179335Y0125264D01*
X0179051Y0125157D01*
X0178766Y0125058D01*
X0178477Y0124965D01*
X0178187Y0124879D01*
X0177894Y0124800D01*
X0177600Y0124729D01*
X0177304Y0124665D01*
X0177007Y0124608D01*
X0176708Y0124558D01*
X0176408Y0124516D01*
X0176107Y0124481D01*
X0175806Y0124453D01*
X0175503Y0124433D01*
X0175201Y0124420D01*
X0174898Y0124414D01*
X0174595Y0124416D01*
X0174293Y0124425D01*
X0173990Y0124442D01*
X0173688Y0124466D01*
X0173387Y0124498D01*
X0173087Y0124537D01*
X0172787Y0124583D01*
X0172489Y0124636D01*
X0172193Y0124697D01*
X0171897Y0124765D01*
X0171604Y0124840D01*
X0171313Y0124922D01*
X0171023Y0125012D01*
X0170736Y0125108D01*
X0170452Y0125212D01*
X0170170Y0125322D01*
X0169890Y0125439D01*
X0169614Y0125563D01*
X0169341Y0125694D01*
X0169071Y0125832D01*
X0168805Y0125976D01*
X0168542Y0126126D01*
X0168283Y0126283D01*
X0168027Y0126446D01*
X0167776Y0126615D01*
X0167529Y0126791D01*
X0167287Y0126972D01*
X0167049Y0127159D01*
X0166815Y0127352D01*
X0166587Y0127551D01*
X0166363Y0127755D01*
X0166145Y0127965D01*
X0165931Y0128179D01*
X0165723Y0128400D01*
X0165520Y0128625D01*
X0165323Y0128854D01*
X0165132Y0129089D01*
X0164946Y0129328D01*
X0165021Y0129385D01*
X0165206Y0129147D01*
X0165396Y0128915D01*
X0165591Y0128686D01*
X0165792Y0128463D01*
X0165999Y0128245D01*
X0166211Y0128031D01*
X0166428Y0127823D01*
X0166650Y0127621D01*
X0166877Y0127424D01*
X0167108Y0127232D01*
X0167344Y0127046D01*
X0167585Y0126866D01*
X0167830Y0126692D01*
X0168079Y0126524D01*
X0168333Y0126362D01*
X0168590Y0126207D01*
X0168851Y0126058D01*
X0169115Y0125915D01*
X0169383Y0125778D01*
X0169654Y0125649D01*
X0169928Y0125526D01*
X0170205Y0125409D01*
X0170485Y0125300D01*
X0170768Y0125197D01*
X0171052Y0125101D01*
X0171340Y0125013D01*
X0171629Y0124931D01*
X0171920Y0124856D01*
X0172213Y0124789D01*
X0172507Y0124728D01*
X0172803Y0124675D01*
X0173100Y0124630D01*
X0173398Y0124591D01*
X0173697Y0124560D01*
X0173997Y0124536D01*
X0174297Y0124519D01*
X0174597Y0124510D01*
X0174898Y0124508D01*
X0175198Y0124514D01*
X0175499Y0124526D01*
X0175798Y0124547D01*
X0176098Y0124574D01*
X0176396Y0124609D01*
X0176694Y0124651D01*
X0176990Y0124700D01*
X0177285Y0124757D01*
X0177579Y0124821D01*
X0177871Y0124891D01*
X0178161Y0124969D01*
X0178450Y0125055D01*
X0178736Y0125147D01*
X0179020Y0125246D01*
X0179301Y0125352D01*
X0179579Y0125465D01*
X0179855Y0125584D01*
X0180128Y0125711D01*
X0180397Y0125844D01*
X0180663Y0125983D01*
X0180926Y0126129D01*
X0181185Y0126281D01*
X0181441Y0126440D01*
X0181692Y0126605D01*
X0181939Y0126776D01*
X0182182Y0126953D01*
X0182421Y0127136D01*
X0182655Y0127324D01*
X0182884Y0127518D01*
X0183108Y0127718D01*
X0183328Y0127923D01*
X0183542Y0128134D01*
X0183752Y0128350D01*
X0183956Y0128570D01*
X0184154Y0128796D01*
X0184347Y0129027D01*
X0184534Y0129262D01*
X0184716Y0129501D01*
X0184891Y0129745D01*
X0185061Y0129994D01*
X0185224Y0130246D01*
X0185381Y0130502D01*
X0185532Y0130762D01*
X0185676Y0131026D01*
X0185814Y0131293D01*
X0185946Y0131563D01*
X0186070Y0131836D01*
X0186188Y0132113D01*
X0186299Y0132392D01*
X0186404Y0132674D01*
X0186501Y0132958D01*
X0186592Y0133245D01*
X0186675Y0133534D01*
X0186751Y0133824D01*
X0186821Y0134117D01*
X0186883Y0134411D01*
X0186937Y0134706D01*
X0186985Y0135003D01*
X0187025Y0135301D01*
X0187058Y0135600D01*
X0187084Y0135899D01*
X0187102Y0136199D01*
X0187113Y0136499D01*
X0187117Y0136800D01*
X0187113Y0137101D01*
X0187102Y0137401D01*
X0187084Y0137701D01*
X0187058Y0138000D01*
X0187025Y0138299D01*
X0186985Y0138597D01*
X0186937Y0138894D01*
X0186883Y0139189D01*
X0186821Y0139483D01*
X0186751Y0139776D01*
X0186675Y0140066D01*
X0186592Y0140355D01*
X0186501Y0140642D01*
X0186404Y0140926D01*
X0186299Y0141208D01*
X0186188Y0141487D01*
X0186070Y0141764D01*
X0185946Y0142037D01*
X0185814Y0142307D01*
X0185676Y0142574D01*
X0185532Y0142838D01*
X0185381Y0143098D01*
X0185224Y0143354D01*
X0185061Y0143606D01*
X0184891Y0143855D01*
X0184716Y0144099D01*
X0184534Y0144338D01*
X0184347Y0144573D01*
X0184154Y0144804D01*
X0183956Y0145030D01*
X0183752Y0145250D01*
X0183542Y0145466D01*
X0183328Y0145677D01*
X0183108Y0145882D01*
X0182884Y0146082D01*
X0182655Y0146276D01*
X0182421Y0146464D01*
X0182182Y0146647D01*
X0181939Y0146824D01*
X0181692Y0146995D01*
X0181441Y0147160D01*
X0181185Y0147319D01*
X0180926Y0147471D01*
X0180663Y0147617D01*
X0180397Y0147756D01*
X0180128Y0147889D01*
X0179855Y0148016D01*
X0179579Y0148135D01*
X0179301Y0148248D01*
X0179020Y0148354D01*
X0178736Y0148453D01*
X0178450Y0148545D01*
X0178161Y0148631D01*
X0177871Y0148709D01*
X0177579Y0148779D01*
X0177285Y0148843D01*
X0176990Y0148900D01*
X0176694Y0148949D01*
X0176396Y0148991D01*
X0176098Y0149026D01*
X0175798Y0149053D01*
X0175499Y0149074D01*
X0175198Y0149086D01*
X0174898Y0149092D01*
X0174597Y0149090D01*
X0174297Y0149081D01*
X0173997Y0149064D01*
X0173697Y0149040D01*
X0173398Y0149009D01*
X0173100Y0148970D01*
X0172803Y0148925D01*
X0172507Y0148872D01*
X0172213Y0148811D01*
X0171920Y0148744D01*
X0171629Y0148669D01*
X0171340Y0148587D01*
X0171052Y0148499D01*
X0170768Y0148403D01*
X0170485Y0148300D01*
X0170205Y0148191D01*
X0169928Y0148074D01*
X0169654Y0147951D01*
X0169383Y0147822D01*
X0169115Y0147685D01*
X0168851Y0147542D01*
X0168590Y0147393D01*
X0168333Y0147238D01*
X0168079Y0147076D01*
X0167830Y0146908D01*
X0167585Y0146734D01*
X0167344Y0146554D01*
X0167108Y0146368D01*
X0166877Y0146176D01*
X0166650Y0145979D01*
X0166428Y0145777D01*
X0166211Y0145569D01*
X0165999Y0145355D01*
X0165792Y0145137D01*
X0165591Y0144914D01*
X0165396Y0144685D01*
X0165206Y0144453D01*
X0165021Y0144215D01*
X0165097Y0144159D01*
X0165279Y0144394D01*
X0165468Y0144625D01*
X0165662Y0144852D01*
X0165862Y0145074D01*
X0166067Y0145290D01*
X0166277Y0145502D01*
X0166492Y0145708D01*
X0166712Y0145909D01*
X0166938Y0146105D01*
X0167167Y0146295D01*
X0167402Y0146479D01*
X0167641Y0146658D01*
X0167884Y0146831D01*
X0168131Y0146997D01*
X0168383Y0147158D01*
X0168638Y0147312D01*
X0168897Y0147460D01*
X0169159Y0147602D01*
X0169425Y0147737D01*
X0169694Y0147866D01*
X0169966Y0147988D01*
X0170241Y0148104D01*
X0170519Y0148213D01*
X0170799Y0148314D01*
X0171082Y0148409D01*
X0171367Y0148497D01*
X0171654Y0148578D01*
X0171942Y0148653D01*
X0172233Y0148719D01*
X0172525Y0148779D01*
X0172819Y0148832D01*
X0173114Y0148877D01*
X0173409Y0148916D01*
X0173706Y0148947D01*
X0174003Y0148970D01*
X0174301Y0148987D01*
X0174599Y0148996D01*
X0174897Y0148998D01*
X0175196Y0148992D01*
X0175494Y0148980D01*
X0175791Y0148960D01*
X0176088Y0148932D01*
X0176384Y0148898D01*
X0176680Y0148856D01*
X0176974Y0148807D01*
X0177267Y0148751D01*
X0177558Y0148688D01*
X0177848Y0148617D01*
X0178136Y0148540D01*
X0178422Y0148456D01*
X0178706Y0148364D01*
X0178988Y0148266D01*
X0179267Y0148161D01*
X0179543Y0148049D01*
X0179817Y0147930D01*
X0180087Y0147805D01*
X0180355Y0147673D01*
X0180619Y0147534D01*
X0180880Y0147389D01*
X0181137Y0147238D01*
X0181390Y0147081D01*
X0181639Y0146917D01*
X0181885Y0146747D01*
X0182126Y0146572D01*
X0182363Y0146390D01*
X0182595Y0146203D01*
X0182822Y0146011D01*
X0183045Y0145812D01*
X0183263Y0145609D01*
X0183476Y0145400D01*
X0183684Y0145186D01*
X0183886Y0144966D01*
X0184083Y0144743D01*
X0184274Y0144514D01*
X0184460Y0144280D01*
X0184640Y0144043D01*
X0184814Y0143801D01*
X0184982Y0143554D01*
X0185144Y0143304D01*
X0185300Y0143050D01*
X0185450Y0142792D01*
X0185593Y0142530D01*
X0185730Y0142265D01*
X0185861Y0141997D01*
X0185984Y0141726D01*
X0186101Y0141451D01*
X0186212Y0141174D01*
X0186315Y0140894D01*
X0186412Y0140612D01*
X0186502Y0140328D01*
X0186584Y0140041D01*
X0186660Y0139753D01*
X0186729Y0139463D01*
X0186790Y0139171D01*
X0186845Y0138878D01*
X0186892Y0138583D01*
X0186932Y0138288D01*
X0186965Y0137991D01*
X0186990Y0137694D01*
X0187008Y0137396D01*
X0187019Y0137098D01*
X0187023Y0136800D01*
X0187019Y0136502D01*
X0187008Y0136204D01*
X0186990Y0135906D01*
X0186965Y0135609D01*
X0186932Y0135312D01*
X0186892Y0135017D01*
X0186845Y0134722D01*
X0186790Y0134429D01*
X0186729Y0134137D01*
X0186660Y0133847D01*
X0186584Y0133559D01*
X0186502Y0133272D01*
X0186412Y0132988D01*
X0186315Y0132706D01*
X0186212Y0132426D01*
X0186101Y0132149D01*
X0185984Y0131874D01*
X0185861Y0131603D01*
X0185730Y0131335D01*
X0185593Y0131070D01*
X0185450Y0130808D01*
X0185300Y0130550D01*
X0185144Y0130296D01*
X0184982Y0130046D01*
X0184814Y0129799D01*
X0184640Y0129557D01*
X0184460Y0129320D01*
X0184274Y0129086D01*
X0184083Y0128857D01*
X0183886Y0128634D01*
X0183684Y0128414D01*
X0183476Y0128200D01*
X0183263Y0127991D01*
X0183045Y0127788D01*
X0182822Y0127589D01*
X0182595Y0127397D01*
X0182363Y0127210D01*
X0182126Y0127028D01*
X0181885Y0126853D01*
X0181639Y0126683D01*
X0181390Y0126519D01*
X0181137Y0126362D01*
X0180880Y0126211D01*
X0180619Y0126066D01*
X0180355Y0125927D01*
X0180087Y0125795D01*
X0179817Y0125670D01*
X0179543Y0125551D01*
X0179267Y0125439D01*
X0178988Y0125334D01*
X0178706Y0125236D01*
X0178422Y0125144D01*
X0178136Y0125060D01*
X0177848Y0124983D01*
X0177558Y0124912D01*
X0177267Y0124849D01*
X0176974Y0124793D01*
X0176680Y0124744D01*
X0176384Y0124702D01*
X0176088Y0124668D01*
X0175791Y0124640D01*
X0175494Y0124620D01*
X0175196Y0124608D01*
X0174897Y0124602D01*
X0174599Y0124604D01*
X0174301Y0124613D01*
X0174003Y0124630D01*
X0173706Y0124653D01*
X0173409Y0124684D01*
X0173114Y0124723D01*
X0172819Y0124768D01*
X0172525Y0124821D01*
X0172233Y0124881D01*
X0171942Y0124947D01*
X0171654Y0125022D01*
X0171367Y0125103D01*
X0171082Y0125191D01*
X0170799Y0125286D01*
X0170519Y0125387D01*
X0170241Y0125496D01*
X0169966Y0125612D01*
X0169694Y0125734D01*
X0169425Y0125863D01*
X0169159Y0125998D01*
X0168897Y0126140D01*
X0168638Y0126288D01*
X0168383Y0126442D01*
X0168131Y0126603D01*
X0167884Y0126769D01*
X0167641Y0126942D01*
X0167402Y0127121D01*
X0167167Y0127305D01*
X0166938Y0127495D01*
X0166712Y0127691D01*
X0166492Y0127892D01*
X0166277Y0128098D01*
X0166067Y0128310D01*
X0165862Y0128526D01*
X0165662Y0128748D01*
X0165468Y0128975D01*
X0165279Y0129206D01*
X0165097Y0129441D01*
X0165172Y0129498D01*
X0165353Y0129264D01*
X0165540Y0129035D01*
X0165733Y0128810D01*
X0165931Y0128590D01*
X0166134Y0128375D01*
X0166343Y0128165D01*
X0166557Y0127960D01*
X0166775Y0127761D01*
X0166999Y0127567D01*
X0167227Y0127378D01*
X0167459Y0127195D01*
X0167696Y0127018D01*
X0167938Y0126847D01*
X0168183Y0126681D01*
X0168432Y0126522D01*
X0168686Y0126369D01*
X0168942Y0126222D01*
X0169203Y0126081D01*
X0169467Y0125947D01*
X0169734Y0125819D01*
X0170004Y0125698D01*
X0170276Y0125583D01*
X0170552Y0125475D01*
X0170830Y0125374D01*
X0171111Y0125280D01*
X0171393Y0125193D01*
X0171678Y0125112D01*
X0171965Y0125039D01*
X0172253Y0124972D01*
X0172543Y0124913D01*
X0172835Y0124861D01*
X0173127Y0124816D01*
X0173421Y0124778D01*
X0173715Y0124747D01*
X0174010Y0124723D01*
X0174305Y0124707D01*
X0174601Y0124698D01*
X0174897Y0124696D01*
X0175193Y0124702D01*
X0175489Y0124714D01*
X0175784Y0124734D01*
X0176079Y0124761D01*
X0176373Y0124795D01*
X0176666Y0124837D01*
X0176958Y0124885D01*
X0177248Y0124941D01*
X0177537Y0125004D01*
X0177825Y0125074D01*
X0178111Y0125151D01*
X0178395Y0125234D01*
X0178676Y0125325D01*
X0178956Y0125423D01*
X0179233Y0125527D01*
X0179507Y0125638D01*
X0179778Y0125756D01*
X0180047Y0125880D01*
X0180312Y0126011D01*
X0180574Y0126149D01*
X0180833Y0126292D01*
X0181088Y0126442D01*
X0181340Y0126599D01*
X0181587Y0126761D01*
X0181830Y0126929D01*
X0182070Y0127104D01*
X0182305Y0127284D01*
X0182535Y0127469D01*
X0182761Y0127661D01*
X0182982Y0127857D01*
X0183198Y0128059D01*
X0183409Y0128267D01*
X0183615Y0128479D01*
X0183816Y0128697D01*
X0184012Y0128919D01*
X0184202Y0129146D01*
X0184386Y0129377D01*
X0184564Y0129613D01*
X0184737Y0129853D01*
X0184904Y0130098D01*
X0185065Y0130346D01*
X0185220Y0130599D01*
X0185368Y0130855D01*
X0185510Y0131114D01*
X0185646Y0131377D01*
X0185776Y0131643D01*
X0185898Y0131912D01*
X0186015Y0132185D01*
X0186124Y0132460D01*
X0186227Y0132737D01*
X0186323Y0133017D01*
X0186412Y0133299D01*
X0186494Y0133584D01*
X0186569Y0133870D01*
X0186637Y0134158D01*
X0186698Y0134447D01*
X0186752Y0134738D01*
X0186799Y0135031D01*
X0186839Y0135324D01*
X0186871Y0135618D01*
X0186896Y0135913D01*
X0186915Y0136208D01*
X0186925Y0136504D01*
X0186929Y0136800D01*
X0186925Y0137096D01*
X0186915Y0137392D01*
X0186896Y0137687D01*
X0186871Y0137982D01*
X0186839Y0138276D01*
X0186799Y0138569D01*
X0186752Y0138862D01*
X0186698Y0139153D01*
X0186637Y0139442D01*
X0186569Y0139730D01*
X0186494Y0140016D01*
X0186412Y0140301D01*
X0186323Y0140583D01*
X0186227Y0140863D01*
X0186124Y0141140D01*
X0186015Y0141415D01*
X0185898Y0141688D01*
X0185776Y0141957D01*
X0185646Y0142223D01*
X0185510Y0142486D01*
X0185368Y0142745D01*
X0185220Y0143001D01*
X0185065Y0143254D01*
X0184904Y0143502D01*
X0184737Y0143747D01*
X0184564Y0143987D01*
X0184386Y0144223D01*
X0184202Y0144454D01*
X0184012Y0144681D01*
X0183816Y0144903D01*
X0183615Y0145121D01*
X0183409Y0145333D01*
X0183198Y0145541D01*
X0182982Y0145743D01*
X0182761Y0145939D01*
X0182535Y0146131D01*
X0182305Y0146316D01*
X0182070Y0146496D01*
X0181830Y0146671D01*
X0181587Y0146839D01*
X0181340Y0147001D01*
X0181088Y0147158D01*
X0180833Y0147308D01*
X0180574Y0147451D01*
X0180312Y0147589D01*
X0180047Y0147720D01*
X0179778Y0147844D01*
X0179507Y0147962D01*
X0179233Y0148073D01*
X0178956Y0148177D01*
X0178676Y0148275D01*
X0178395Y0148366D01*
X0178111Y0148449D01*
X0177825Y0148526D01*
X0177537Y0148596D01*
X0177248Y0148659D01*
X0176958Y0148715D01*
X0176666Y0148763D01*
X0176373Y0148805D01*
X0176079Y0148839D01*
X0175784Y0148866D01*
X0175489Y0148886D01*
X0175193Y0148898D01*
X0174897Y0148904D01*
X0174601Y0148902D01*
X0174305Y0148893D01*
X0174010Y0148877D01*
X0173715Y0148853D01*
X0173421Y0148822D01*
X0173127Y0148784D01*
X0172835Y0148739D01*
X0172543Y0148687D01*
X0172253Y0148628D01*
X0171965Y0148561D01*
X0171678Y0148488D01*
X0171393Y0148407D01*
X0171111Y0148320D01*
X0170830Y0148226D01*
X0170552Y0148125D01*
X0170276Y0148017D01*
X0170004Y0147902D01*
X0169734Y0147781D01*
X0169467Y0147653D01*
X0169203Y0147519D01*
X0168942Y0147378D01*
X0168686Y0147231D01*
X0168432Y0147078D01*
X0168183Y0146919D01*
X0167938Y0146753D01*
X0167696Y0146582D01*
X0167459Y0146405D01*
X0167227Y0146222D01*
X0166999Y0146033D01*
X0166775Y0145839D01*
X0166557Y0145640D01*
X0166343Y0145435D01*
X0166134Y0145225D01*
X0165931Y0145010D01*
X0165733Y0144790D01*
X0165540Y0144565D01*
X0165353Y0144336D01*
X0165172Y0144102D01*
X0119277Y0068352D02*
X0119010Y0068352D01*
X0117942Y0067285D01*
X0117675Y0067285D01*
X0117942Y0066787D02*
X0117675Y0066520D01*
X0117675Y0065986D01*
X0117942Y0065719D01*
X0117675Y0065222D02*
X0117675Y0064154D01*
X0118743Y0065222D01*
X0119010Y0065222D01*
X0119277Y0064955D01*
X0119277Y0064421D01*
X0119010Y0064154D01*
X0117675Y0063656D02*
X0117675Y0062589D01*
X0119277Y0062589D01*
X0119010Y0062091D02*
X0119277Y0061824D01*
X0119277Y0061290D01*
X0119010Y0061023D01*
X0118743Y0061023D01*
X0118476Y0061290D01*
X0118476Y0061824D01*
X0118209Y0062091D01*
X0117942Y0062091D01*
X0117675Y0061824D01*
X0117675Y0061290D01*
X0117942Y0061023D01*
X0117675Y0059992D02*
X0119277Y0059992D01*
X0119277Y0059458D02*
X0119277Y0060526D01*
X0119010Y0065719D02*
X0119277Y0065986D01*
X0119277Y0066520D01*
X0119010Y0066787D01*
X0118743Y0066787D01*
X0118476Y0066520D01*
X0118209Y0066787D01*
X0117942Y0066787D01*
X0118476Y0066520D02*
X0118476Y0066253D01*
X0119277Y0067285D02*
X0119277Y0068352D01*
X0127442Y0059352D02*
X0128510Y0059352D01*
X0128777Y0059085D01*
X0128777Y0058285D01*
X0127175Y0058285D01*
X0127175Y0059085D01*
X0127442Y0059352D01*
X0127175Y0057787D02*
X0128777Y0057787D01*
X0128777Y0056719D02*
X0127175Y0057787D01*
X0127175Y0056719D02*
X0128777Y0056719D01*
X0128510Y0056222D02*
X0128777Y0055955D01*
X0128777Y0055421D01*
X0128510Y0055154D01*
X0127442Y0055154D01*
X0127175Y0055421D01*
X0127175Y0055955D01*
X0127442Y0056222D01*
X0127976Y0056222D01*
X0127976Y0055688D01*
X0128510Y0051352D02*
X0128777Y0051085D01*
X0128777Y0050285D01*
X0127175Y0050285D01*
X0127175Y0051085D01*
X0127442Y0051352D01*
X0128510Y0051352D01*
X0128510Y0049787D02*
X0128777Y0049520D01*
X0128777Y0048719D01*
X0127175Y0048719D01*
X0127175Y0049520D01*
X0127442Y0049787D01*
X0128510Y0049787D01*
X0128777Y0048222D02*
X0127709Y0048222D01*
X0127175Y0047688D01*
X0127709Y0047154D01*
X0128777Y0047154D01*
X0128777Y0042852D02*
X0128777Y0041785D01*
X0128777Y0041287D02*
X0127442Y0041287D01*
X0127175Y0041020D01*
X0127175Y0040486D01*
X0127442Y0040219D01*
X0128777Y0040219D01*
X0128510Y0039722D02*
X0128777Y0039455D01*
X0128777Y0038921D01*
X0128510Y0038654D01*
X0127442Y0038654D01*
X0127175Y0038921D01*
X0127175Y0039455D01*
X0127442Y0039722D01*
X0128510Y0039722D01*
X0128777Y0042318D02*
X0127175Y0042318D01*
X0051728Y0049350D02*
X0050177Y0049350D01*
X0050694Y0050384D01*
X0050694Y0050901D01*
X0050177Y0051418D01*
X0049142Y0051418D01*
X0048625Y0050901D01*
X0048625Y0049867D01*
X0049142Y0049350D01*
X0051728Y0049350D02*
X0051728Y0051418D01*
X0051728Y0052297D02*
X0049659Y0052297D01*
X0048625Y0053331D01*
X0049659Y0054365D01*
X0051728Y0054365D01*
X0051728Y0059350D02*
X0048625Y0059350D01*
X0048625Y0060901D01*
X0049142Y0061418D01*
X0049659Y0061418D01*
X0050177Y0060901D01*
X0050177Y0059350D01*
X0051728Y0059350D02*
X0051728Y0060901D01*
X0051211Y0061418D01*
X0050694Y0061418D01*
X0050177Y0060901D01*
X0050694Y0065600D02*
X0051728Y0066634D01*
X0048625Y0066634D01*
X0048625Y0065600D02*
X0048625Y0067668D01*
X0048625Y0068547D02*
X0050694Y0070615D01*
X0051211Y0070615D01*
X0051728Y0070098D01*
X0051728Y0069064D01*
X0051211Y0068547D01*
X0048625Y0068547D02*
X0048625Y0070615D01*
X0049659Y0071493D02*
X0048625Y0072527D01*
X0049659Y0073561D01*
X0051728Y0073561D01*
X0051728Y0071493D02*
X0049659Y0071493D01*
X0029228Y0064651D02*
X0029228Y0063100D01*
X0026125Y0063100D01*
X0027159Y0063100D02*
X0027159Y0064651D01*
X0027677Y0065168D01*
X0028711Y0065168D01*
X0029228Y0064651D01*
X0027159Y0064134D02*
X0026125Y0065168D01*
X0026642Y0057668D02*
X0027677Y0057668D01*
X0027677Y0056634D01*
X0028711Y0055600D02*
X0029228Y0056117D01*
X0029228Y0057151D01*
X0028711Y0057668D01*
X0028711Y0055600D02*
X0026642Y0055600D01*
X0026125Y0056117D01*
X0026125Y0057151D01*
X0026642Y0057668D01*
X0026642Y0049811D02*
X0028711Y0049811D01*
X0029228Y0049294D01*
X0029228Y0047743D01*
X0026125Y0047743D01*
X0026125Y0049294D01*
X0026642Y0049811D01*
X0026125Y0046865D02*
X0029228Y0046865D01*
X0029228Y0044797D02*
X0026125Y0046865D01*
X0026125Y0044797D02*
X0029228Y0044797D01*
X0028711Y0043918D02*
X0029228Y0043401D01*
X0029228Y0042367D01*
X0028711Y0041850D01*
X0026642Y0041850D01*
X0026125Y0042367D01*
X0026125Y0043401D01*
X0026642Y0043918D01*
X0027677Y0043918D01*
X0027677Y0042884D01*
X0028711Y0105600D02*
X0026642Y0105600D01*
X0026125Y0106117D01*
X0026125Y0107151D01*
X0026642Y0107668D01*
X0027677Y0107668D01*
X0027677Y0106634D01*
X0028711Y0105600D02*
X0029228Y0106117D01*
X0029228Y0107151D01*
X0028711Y0107668D01*
X0029228Y0108547D02*
X0026125Y0110615D01*
X0029228Y0110615D01*
X0029228Y0111493D02*
X0029228Y0113044D01*
X0028711Y0113561D01*
X0026642Y0113561D01*
X0026125Y0113044D01*
X0026125Y0111493D01*
X0029228Y0111493D01*
X0029228Y0108547D02*
X0026125Y0108547D01*
X0026125Y0116850D02*
X0029228Y0116850D01*
X0029228Y0118401D01*
X0028711Y0118918D01*
X0027677Y0118918D01*
X0027159Y0118401D01*
X0027159Y0116850D01*
X0026125Y0119797D02*
X0027159Y0120831D01*
X0026125Y0121865D01*
X0029228Y0121865D01*
X0029228Y0122743D02*
X0028194Y0123777D01*
X0029228Y0124811D01*
X0026125Y0124811D01*
X0026125Y0122743D02*
X0029228Y0122743D01*
X0029228Y0119797D02*
X0026125Y0119797D01*
X0048625Y0121028D02*
X0048625Y0122062D01*
X0049142Y0122579D01*
X0051211Y0122579D01*
X0051728Y0122062D01*
X0051728Y0121028D01*
X0051211Y0120511D01*
X0049142Y0120511D01*
X0048625Y0121028D01*
X0048625Y0124350D02*
X0048625Y0126418D01*
X0048625Y0127297D02*
X0050694Y0129365D01*
X0051211Y0129365D01*
X0051728Y0128848D01*
X0051728Y0127814D01*
X0051211Y0127297D01*
X0051728Y0125384D02*
X0048625Y0125384D01*
X0048625Y0127297D02*
X0048625Y0129365D01*
X0049659Y0130243D02*
X0048625Y0131277D01*
X0049659Y0132311D01*
X0051728Y0132311D01*
X0051728Y0130243D02*
X0049659Y0130243D01*
X0051728Y0125384D02*
X0050694Y0124350D01*
X0051728Y0119633D02*
X0048625Y0117564D01*
X0048625Y0116634D02*
X0048625Y0115600D01*
X0048625Y0116117D02*
X0051728Y0116117D01*
X0051728Y0115600D02*
X0051728Y0116634D01*
X0051728Y0113115D02*
X0049659Y0113115D01*
X0048625Y0112081D01*
X0049659Y0111047D01*
X0051728Y0111047D01*
X0051728Y0110168D02*
X0051728Y0108100D01*
X0050177Y0108100D01*
X0050694Y0109134D01*
X0050694Y0109651D01*
X0050177Y0110168D01*
X0049142Y0110168D01*
X0048625Y0109651D01*
X0048625Y0108617D01*
X0049142Y0108100D01*
X0282015Y0157600D02*
X0282015Y0157850D01*
X0282265Y0158101D01*
X0283016Y0158101D01*
X0283016Y0157600D01*
X0282766Y0157350D01*
X0282265Y0157350D01*
X0282015Y0157600D01*
X0282516Y0158601D02*
X0283016Y0158101D01*
X0283488Y0158601D02*
X0284489Y0157600D01*
X0284239Y0157350D01*
X0283739Y0157350D01*
X0283488Y0157600D01*
X0283488Y0158601D01*
X0283739Y0158851D01*
X0284239Y0158851D01*
X0284489Y0158601D01*
X0284489Y0157600D01*
X0284962Y0157350D02*
X0285962Y0157350D01*
X0284962Y0158351D01*
X0284962Y0158601D01*
X0285212Y0158851D01*
X0285712Y0158851D01*
X0285962Y0158601D01*
X0286935Y0158851D02*
X0286935Y0157350D01*
X0286435Y0157350D02*
X0287436Y0157350D01*
X0287908Y0157600D02*
X0287908Y0158601D01*
X0288158Y0158851D01*
X0288909Y0158851D01*
X0288909Y0157350D01*
X0288158Y0157350D01*
X0287908Y0157600D01*
X0287436Y0158351D02*
X0286935Y0158851D01*
X0289381Y0157350D02*
X0290382Y0157350D01*
X0289882Y0157350D02*
X0289882Y0158851D01*
X0290382Y0158351D01*
X0290855Y0158351D02*
X0291105Y0158101D01*
X0291605Y0158101D01*
X0291855Y0158351D01*
X0291855Y0158601D01*
X0291605Y0158851D01*
X0291105Y0158851D01*
X0290855Y0158601D01*
X0290855Y0158351D01*
X0291105Y0158101D02*
X0290855Y0157850D01*
X0290855Y0157600D01*
X0291105Y0157350D01*
X0291605Y0157350D01*
X0291855Y0157600D01*
X0291855Y0157850D01*
X0291605Y0158101D01*
X0292328Y0158101D02*
X0292328Y0157600D01*
X0292578Y0157350D01*
X0293078Y0157350D01*
X0293329Y0157600D01*
X0293329Y0158101D02*
X0292828Y0158351D01*
X0292578Y0158351D01*
X0292328Y0158101D01*
X0292328Y0158851D02*
X0293329Y0158851D01*
X0293329Y0158101D01*
X0293801Y0158851D02*
X0293801Y0157350D01*
X0294802Y0158851D01*
X0294802Y0157350D01*
X0295274Y0157350D02*
X0296275Y0157350D01*
X0295775Y0157350D02*
X0295775Y0158851D01*
X0296275Y0158351D01*
X0282516Y0158601D02*
X0282015Y0158851D01*
X0345425Y0213010D02*
X0345425Y0215079D01*
X0345425Y0215957D02*
X0347494Y0218025D01*
X0348011Y0218025D01*
X0348528Y0217508D01*
X0348528Y0216474D01*
X0348011Y0215957D01*
X0348528Y0214045D02*
X0345425Y0214045D01*
X0345425Y0215957D02*
X0345425Y0218025D01*
X0346459Y0218903D02*
X0345425Y0219938D01*
X0346459Y0220972D01*
X0348528Y0220972D01*
X0348528Y0218903D02*
X0346459Y0218903D01*
X0348528Y0214045D02*
X0347494Y0213010D01*
X0347494Y0224260D02*
X0346977Y0224778D01*
X0346977Y0225812D01*
X0346459Y0226329D01*
X0345942Y0226329D01*
X0345425Y0225812D01*
X0345425Y0224778D01*
X0345942Y0224260D01*
X0347494Y0224260D02*
X0348011Y0224260D01*
X0348528Y0224778D01*
X0348528Y0225812D01*
X0348011Y0226329D01*
X0348528Y0227207D02*
X0348528Y0228758D01*
X0348011Y0229275D01*
X0345942Y0229275D01*
X0345425Y0228758D01*
X0345425Y0227207D01*
X0348528Y0227207D01*
X0347494Y0230153D02*
X0345425Y0230153D01*
X0346977Y0230153D02*
X0346977Y0232222D01*
X0347494Y0232222D02*
X0345425Y0232222D01*
X0347494Y0232222D02*
X0348528Y0231188D01*
X0347494Y0230153D01*
X0346977Y0234707D02*
X0347494Y0235741D01*
X0347494Y0236258D01*
X0346977Y0236775D01*
X0345942Y0236775D01*
X0345425Y0236258D01*
X0345425Y0235224D01*
X0345942Y0234707D01*
X0346977Y0234707D02*
X0348528Y0234707D01*
X0348528Y0236775D01*
X0348528Y0237653D02*
X0346459Y0237653D01*
X0345425Y0238688D01*
X0346459Y0239722D01*
X0348528Y0239722D01*
X0367925Y0240153D02*
X0367925Y0241705D01*
X0368442Y0242222D01*
X0370511Y0242222D01*
X0371028Y0241705D01*
X0371028Y0240153D01*
X0367925Y0240153D01*
X0367925Y0239275D02*
X0371028Y0239275D01*
X0371028Y0237207D02*
X0367925Y0237207D01*
X0368442Y0236329D02*
X0367925Y0235812D01*
X0367925Y0234778D01*
X0368442Y0234260D01*
X0370511Y0234260D01*
X0371028Y0234778D01*
X0371028Y0235812D01*
X0370511Y0236329D01*
X0371028Y0237207D02*
X0367925Y0239275D01*
X0368442Y0236329D02*
X0369477Y0236329D01*
X0369477Y0235295D01*
X0367925Y0228472D02*
X0367925Y0226403D01*
X0371028Y0226403D01*
X0370511Y0225525D02*
X0371028Y0225008D01*
X0371028Y0223974D01*
X0370511Y0223457D01*
X0368442Y0223457D01*
X0367925Y0223974D01*
X0367925Y0225008D01*
X0368442Y0225525D01*
X0368442Y0222579D02*
X0367925Y0222062D01*
X0367925Y0221028D01*
X0368442Y0220510D01*
X0369477Y0221028D02*
X0369477Y0222062D01*
X0368959Y0222579D01*
X0368442Y0222579D01*
X0369477Y0221028D02*
X0369994Y0220510D01*
X0370511Y0220510D01*
X0371028Y0221028D01*
X0371028Y0222062D01*
X0370511Y0222579D01*
D20*
X0109825Y0049300D03*
D21*
X0021925Y0191800D03*
D22*
X0022675Y0192550D03*
X0022675Y0191050D03*
D23*
X0021125Y0191800D03*
D24*
X0138762Y0045363D03*
M02*
