G75*
%MOIN*%
%OFA0B0*%
%FSLAX25Y25*%
%IPPOS*%
%LPD*%
%AMOC8*
5,1,8,0,0,1.08239X$1,22.5*
%
%ADD10R,0.15024X0.15024*%
%ADD11R,0.07087X0.07087*%
%ADD12C,0.04134*%
%ADD13R,0.06000X0.06000*%
%ADD14C,0.06000*%
%ADD15C,0.05118*%
%ADD16C,0.07400*%
%ADD17R,0.05906X0.05906*%
%ADD18OC8,0.04800*%
%ADD19C,0.05400*%
%ADD20OC8,0.05400*%
%ADD21C,0.04724*%
%ADD22C,0.05400*%
%ADD23C,0.04724*%
%ADD24C,0.01600*%
%ADD25R,0.02400X0.02400*%
%ADD26R,0.03562X0.03562*%
%ADD27R,0.03169X0.03169*%
%ADD28R,0.04134X0.04134*%
%ADD29C,0.02578*%
%ADD30C,0.01400*%
%ADD31C,0.02000*%
%ADD32C,0.05000*%
D10*
X0336853Y0027194D03*
X0336853Y0076406D03*
D11*
X0364412Y0061643D03*
X0364412Y0041957D03*
X0307325Y0041957D03*
X0307325Y0051800D03*
X0307325Y0061643D03*
D12*
X0259392Y0057861D02*
X0255258Y0057861D01*
X0255258Y0052237D02*
X0259392Y0052237D01*
X0259392Y0046613D02*
X0255258Y0046613D01*
X0255258Y0040989D02*
X0259392Y0040989D01*
D13*
X0071341Y0272824D03*
D14*
X0081341Y0272824D03*
X0091341Y0272824D03*
X0101341Y0272824D03*
X0111341Y0272824D03*
X0121341Y0272824D03*
X0131341Y0272824D03*
X0141341Y0272824D03*
X0151341Y0272824D03*
X0161341Y0272824D03*
X0171341Y0272824D03*
X0181341Y0272824D03*
X0191341Y0272824D03*
X0201341Y0272824D03*
X0211341Y0272824D03*
X0221341Y0272824D03*
D15*
X0353270Y0237863D03*
X0363270Y0241800D03*
X0363270Y0233769D03*
X0353270Y0229831D03*
X0363270Y0225737D03*
X0353270Y0221800D03*
X0043880Y0126800D03*
X0033880Y0122863D03*
X0033880Y0114831D03*
X0043880Y0118769D03*
X0043880Y0110737D03*
X0033880Y0106800D03*
X0043880Y0068050D03*
X0033880Y0064113D03*
X0033880Y0056081D03*
X0043880Y0060019D03*
X0043880Y0051987D03*
X0033880Y0048050D03*
D16*
X0169825Y0136800D03*
X0179825Y0136800D03*
D17*
X0122325Y0057300D03*
X0122325Y0049300D03*
X0122325Y0041300D03*
D18*
X0169825Y0124300D03*
X0179825Y0124300D03*
D19*
X0027325Y0191800D03*
D20*
X0037325Y0191800D03*
X0037325Y0201800D03*
X0027325Y0201800D03*
X0027325Y0211800D03*
X0037325Y0211800D03*
D21*
X0033546Y0234300D03*
X0022325Y0244300D03*
X0033546Y0254300D03*
D22*
X0252325Y0264100D02*
X0252325Y0269500D01*
X0262325Y0269500D02*
X0262325Y0264100D01*
X0287325Y0154500D02*
X0287325Y0149100D01*
X0297325Y0149100D02*
X0297325Y0154500D01*
X0292525Y0029300D02*
X0287125Y0029300D01*
X0287125Y0019300D02*
X0292525Y0019300D01*
D23*
X0330750Y0091190D02*
X0330750Y0095914D01*
X0358703Y0091387D02*
X0363428Y0091387D01*
X0374057Y0106938D02*
X0374057Y0111662D01*
X0351223Y0119733D02*
X0346498Y0119733D01*
X0345711Y0129182D02*
X0340987Y0129182D01*
D24*
X0389725Y0004400D02*
X0004925Y0004400D01*
X0004925Y0289200D01*
X0389725Y0289200D01*
X0389725Y0004400D01*
X0389725Y0004997D02*
X0004925Y0004997D01*
X0004925Y0006596D02*
X0389725Y0006596D01*
X0389725Y0008194D02*
X0004925Y0008194D01*
X0004925Y0009793D02*
X0013078Y0009793D01*
X0012737Y0009934D02*
X0015714Y0008701D01*
X0018936Y0008701D01*
X0021913Y0009934D01*
X0024191Y0012212D01*
X0025424Y0015189D01*
X0025424Y0018411D01*
X0024191Y0021388D01*
X0021913Y0023666D01*
X0019296Y0024750D01*
X0032657Y0024750D01*
X0033125Y0025219D01*
X0033125Y0040881D01*
X0032657Y0041350D01*
X0016994Y0041350D01*
X0016525Y0040881D01*
X0016525Y0025219D01*
X0016845Y0024899D01*
X0015714Y0024899D01*
X0012737Y0023666D01*
X0010459Y0021388D01*
X0009226Y0018411D01*
X0009226Y0015189D01*
X0010459Y0012212D01*
X0012737Y0009934D01*
X0011280Y0011391D02*
X0004925Y0011391D01*
X0004925Y0012990D02*
X0010137Y0012990D01*
X0009475Y0014588D02*
X0004925Y0014588D01*
X0004925Y0016187D02*
X0009226Y0016187D01*
X0009226Y0017785D02*
X0004925Y0017785D01*
X0004925Y0019384D02*
X0009629Y0019384D01*
X0010291Y0020982D02*
X0004925Y0020982D01*
X0004925Y0022581D02*
X0011652Y0022581D01*
X0013976Y0024179D02*
X0004925Y0024179D01*
X0004925Y0025778D02*
X0016525Y0025778D01*
X0016525Y0027376D02*
X0004925Y0027376D01*
X0004925Y0028975D02*
X0016525Y0028975D01*
X0016525Y0030573D02*
X0004925Y0030573D01*
X0004925Y0032172D02*
X0016525Y0032172D01*
X0016525Y0033770D02*
X0004925Y0033770D01*
X0004925Y0035369D02*
X0016525Y0035369D01*
X0016525Y0036967D02*
X0004925Y0036967D01*
X0004925Y0038566D02*
X0016525Y0038566D01*
X0016525Y0040164D02*
X0004925Y0040164D01*
X0004925Y0041763D02*
X0069741Y0041763D01*
X0069741Y0040786D02*
X0070134Y0039836D01*
X0070861Y0039109D01*
X0071811Y0038716D01*
X0117588Y0038716D01*
X0117588Y0037608D01*
X0118633Y0036563D01*
X0126017Y0036563D01*
X0127062Y0037608D01*
X0127062Y0044992D01*
X0126754Y0045300D01*
X0127062Y0045608D01*
X0127062Y0052992D01*
X0126753Y0053301D01*
X0126955Y0053652D01*
X0127078Y0054110D01*
X0127078Y0057116D01*
X0122510Y0057116D01*
X0122510Y0057484D01*
X0127078Y0057484D01*
X0127078Y0060490D01*
X0126955Y0060948D01*
X0126718Y0061358D01*
X0126383Y0061693D01*
X0125973Y0061930D01*
X0125515Y0062053D01*
X0122509Y0062053D01*
X0122509Y0057484D01*
X0122141Y0057484D01*
X0122141Y0057116D01*
X0117572Y0057116D01*
X0117572Y0054110D01*
X0117695Y0053652D01*
X0117734Y0053584D01*
X0107409Y0053584D01*
X0107409Y0067538D01*
X0107431Y0067559D01*
X0107898Y0068689D01*
X0107898Y0069911D01*
X0107431Y0071041D01*
X0106566Y0071905D01*
X0105437Y0072373D01*
X0104214Y0072373D01*
X0103084Y0071905D01*
X0102220Y0071041D01*
X0101752Y0069911D01*
X0101752Y0068689D01*
X0102220Y0067559D01*
X0102241Y0067538D01*
X0102241Y0053584D01*
X0084109Y0053584D01*
X0084109Y0119216D01*
X0085563Y0119216D01*
X0085584Y0119195D01*
X0086714Y0118727D01*
X0087937Y0118727D01*
X0089066Y0119195D01*
X0089931Y0120059D01*
X0090398Y0121189D01*
X0090398Y0122411D01*
X0089931Y0123541D01*
X0089066Y0124405D01*
X0088669Y0124570D01*
X0088959Y0124861D01*
X0088959Y0128739D01*
X0088559Y0129139D01*
X0088559Y0163141D01*
X0091764Y0163141D01*
X0092289Y0163666D01*
X0112486Y0163666D01*
X0112886Y0163266D01*
X0116764Y0163266D01*
X0117164Y0163666D01*
X0124341Y0163666D01*
X0124341Y0159861D01*
X0125386Y0158816D01*
X0127241Y0158816D01*
X0127241Y0156905D01*
X0126836Y0157310D01*
X0125531Y0157850D01*
X0124119Y0157850D01*
X0122814Y0157310D01*
X0121816Y0156311D01*
X0121275Y0155006D01*
X0121275Y0153594D01*
X0121816Y0152289D01*
X0122814Y0151290D01*
X0124119Y0150750D01*
X0125531Y0150750D01*
X0126836Y0151290D01*
X0127241Y0151695D01*
X0127241Y0144812D01*
X0127220Y0144791D01*
X0126752Y0143661D01*
X0126752Y0142439D01*
X0126982Y0141884D01*
X0114550Y0141884D01*
X0114399Y0142036D01*
X0114399Y0142066D01*
X0113931Y0143195D01*
X0113066Y0144060D01*
X0111937Y0144527D01*
X0110714Y0144527D01*
X0109585Y0144060D01*
X0108720Y0143195D01*
X0108252Y0142066D01*
X0108252Y0140843D01*
X0108720Y0139713D01*
X0108741Y0139692D01*
X0108741Y0136871D01*
X0105861Y0133991D01*
X0105134Y0133264D01*
X0104909Y0132721D01*
X0104909Y0134740D01*
X0105146Y0134977D01*
X0105176Y0134977D01*
X0106306Y0135445D01*
X0107170Y0136309D01*
X0107638Y0137439D01*
X0107638Y0138661D01*
X0107170Y0139791D01*
X0106306Y0140655D01*
X0105176Y0141123D01*
X0103954Y0141123D01*
X0102824Y0140655D01*
X0101960Y0139791D01*
X0101492Y0138661D01*
X0101492Y0138631D01*
X0100134Y0137274D01*
X0099741Y0136324D01*
X0099741Y0093562D01*
X0099720Y0093541D01*
X0099252Y0092411D01*
X0099252Y0091189D01*
X0099720Y0090059D01*
X0100584Y0089195D01*
X0101714Y0088727D01*
X0101744Y0088727D01*
X0103794Y0086676D01*
X0104744Y0086283D01*
X0155339Y0086283D01*
X0155581Y0086383D01*
X0232449Y0086383D01*
X0232660Y0086172D01*
X0233573Y0085794D01*
X0237024Y0085794D01*
X0237937Y0086172D01*
X0238581Y0086816D01*
X0257963Y0086816D01*
X0258084Y0086695D01*
X0259214Y0086227D01*
X0260437Y0086227D01*
X0261566Y0086695D01*
X0262431Y0087559D01*
X0262898Y0088689D01*
X0262898Y0089911D01*
X0262431Y0091041D01*
X0261566Y0091905D01*
X0260437Y0092373D01*
X0259214Y0092373D01*
X0258084Y0091905D01*
X0257963Y0091784D01*
X0239156Y0091784D01*
X0239931Y0092559D01*
X0240398Y0093689D01*
X0240398Y0094911D01*
X0239931Y0096041D01*
X0239066Y0096905D01*
X0237937Y0097373D01*
X0237907Y0097373D01*
X0237016Y0098264D01*
X0236289Y0098991D01*
X0235339Y0099384D01*
X0114087Y0099384D01*
X0114066Y0099405D01*
X0112937Y0099873D01*
X0111714Y0099873D01*
X0110584Y0099405D01*
X0109909Y0098730D01*
X0109909Y0113230D01*
X0115790Y0119110D01*
X0116714Y0118727D01*
X0117937Y0118727D01*
X0119066Y0119195D01*
X0119931Y0120059D01*
X0120398Y0121189D01*
X0120398Y0122411D01*
X0119931Y0123541D01*
X0119066Y0124405D01*
X0117937Y0124873D01*
X0116714Y0124873D01*
X0115584Y0124405D01*
X0115563Y0124384D01*
X0114311Y0124384D01*
X0113361Y0123991D01*
X0112634Y0123264D01*
X0112571Y0123201D01*
X0112431Y0123541D01*
X0112409Y0123562D01*
X0112409Y0125730D01*
X0113396Y0126716D01*
X0132695Y0126716D01*
X0137414Y0121997D01*
X0137414Y0121967D01*
X0137882Y0120838D01*
X0138746Y0119973D01*
X0139876Y0119506D01*
X0141098Y0119506D01*
X0142228Y0119973D01*
X0143092Y0120838D01*
X0143560Y0121967D01*
X0143560Y0123190D01*
X0143092Y0124320D01*
X0142228Y0125184D01*
X0141098Y0125652D01*
X0141068Y0125652D01*
X0135230Y0131491D01*
X0134280Y0131884D01*
X0132333Y0131884D01*
X0132809Y0132361D01*
X0132809Y0136239D01*
X0132333Y0136716D01*
X0136136Y0136716D01*
X0136158Y0136695D01*
X0137287Y0136227D01*
X0138510Y0136227D01*
X0139639Y0136695D01*
X0140504Y0137559D01*
X0140972Y0138689D01*
X0140972Y0139911D01*
X0140504Y0141041D01*
X0139639Y0141905D01*
X0138510Y0142373D01*
X0137287Y0142373D01*
X0136158Y0141905D01*
X0136136Y0141884D01*
X0132669Y0141884D01*
X0132898Y0142439D01*
X0132898Y0143661D01*
X0132431Y0144791D01*
X0132409Y0144812D01*
X0132409Y0162314D01*
X0132016Y0163264D01*
X0131614Y0163666D01*
X0132486Y0163666D01*
X0132886Y0163266D01*
X0136041Y0163266D01*
X0136041Y0160736D01*
X0136434Y0159786D01*
X0137161Y0159059D01*
X0138111Y0158666D01*
X0201041Y0158666D01*
X0201041Y0111286D01*
X0201434Y0110336D01*
X0202161Y0109609D01*
X0203111Y0109216D01*
X0292895Y0109216D01*
X0292220Y0108541D01*
X0291752Y0107411D01*
X0291752Y0106189D01*
X0292220Y0105059D01*
X0292241Y0105038D01*
X0292241Y0101062D01*
X0292220Y0101041D01*
X0291752Y0099911D01*
X0291752Y0098689D01*
X0292220Y0097559D01*
X0293084Y0096695D01*
X0294214Y0096227D01*
X0295437Y0096227D01*
X0296566Y0096695D01*
X0297241Y0097370D01*
X0297241Y0051286D01*
X0297634Y0050336D01*
X0298361Y0049609D01*
X0299311Y0049216D01*
X0301998Y0049216D01*
X0301998Y0047518D01*
X0302625Y0046890D01*
X0302342Y0046606D01*
X0302105Y0046196D01*
X0301982Y0045738D01*
X0301982Y0042339D01*
X0306944Y0042339D01*
X0306944Y0041576D01*
X0307706Y0041576D01*
X0307706Y0036614D01*
X0311105Y0036614D01*
X0311563Y0036737D01*
X0311974Y0036974D01*
X0312309Y0037309D01*
X0312546Y0037719D01*
X0312668Y0038177D01*
X0312668Y0041576D01*
X0307706Y0041576D01*
X0307706Y0042339D01*
X0312668Y0042339D01*
X0312668Y0045738D01*
X0312546Y0046196D01*
X0312309Y0046606D01*
X0312025Y0046890D01*
X0312653Y0047518D01*
X0312653Y0056082D01*
X0312014Y0056721D01*
X0312653Y0057360D01*
X0312653Y0060160D01*
X0313361Y0059452D01*
X0314311Y0059058D01*
X0359084Y0059058D01*
X0359084Y0057360D01*
X0360129Y0056315D01*
X0368694Y0056315D01*
X0369739Y0057360D01*
X0369739Y0065925D01*
X0368694Y0066970D01*
X0360129Y0066970D01*
X0359084Y0065925D01*
X0359084Y0064227D01*
X0317409Y0064227D01*
X0317409Y0119814D01*
X0317016Y0120764D01*
X0316289Y0121491D01*
X0315339Y0121884D01*
X0245083Y0121884D01*
X0245259Y0122061D01*
X0245259Y0125939D01*
X0245248Y0125950D01*
X0245259Y0125961D01*
X0245259Y0129839D01*
X0245248Y0129850D01*
X0245259Y0129861D01*
X0245259Y0133739D01*
X0244783Y0134216D01*
X0285339Y0134216D01*
X0286289Y0134609D01*
X0288789Y0137109D01*
X0289516Y0137836D01*
X0289909Y0138786D01*
X0289909Y0145343D01*
X0291127Y0146560D01*
X0291809Y0148208D01*
X0291809Y0155392D01*
X0291127Y0157040D01*
X0289865Y0158302D01*
X0288217Y0158984D01*
X0286433Y0158984D01*
X0284785Y0158302D01*
X0283524Y0157040D01*
X0282841Y0155392D01*
X0282841Y0148208D01*
X0283524Y0146560D01*
X0284741Y0145343D01*
X0284741Y0140370D01*
X0283755Y0139384D01*
X0221587Y0139384D01*
X0221566Y0139405D01*
X0220437Y0139873D01*
X0219214Y0139873D01*
X0218084Y0139405D01*
X0217220Y0138541D01*
X0216752Y0137411D01*
X0216752Y0136189D01*
X0217220Y0135059D01*
X0217690Y0134589D01*
X0216841Y0133739D01*
X0216841Y0129861D01*
X0216852Y0129850D01*
X0216841Y0129839D01*
X0216841Y0125961D01*
X0216852Y0125950D01*
X0216841Y0125939D01*
X0216841Y0122061D01*
X0217018Y0121884D01*
X0214259Y0121884D01*
X0214259Y0168614D01*
X0213866Y0169564D01*
X0213139Y0170291D01*
X0212189Y0170684D01*
X0183809Y0170684D01*
X0183809Y0170989D01*
X0182764Y0172034D01*
X0178886Y0172034D01*
X0177841Y0170989D01*
X0177841Y0167111D01*
X0178068Y0166884D01*
X0144359Y0166884D01*
X0144359Y0211961D01*
X0144759Y0212361D01*
X0144759Y0216239D01*
X0143714Y0217284D01*
X0139836Y0217284D01*
X0138791Y0216239D01*
X0138791Y0214008D01*
X0138514Y0214284D01*
X0134636Y0214284D01*
X0133591Y0213239D01*
X0133591Y0209361D01*
X0134636Y0208316D01*
X0136041Y0208316D01*
X0136041Y0169234D01*
X0132886Y0169234D01*
X0132486Y0168834D01*
X0117164Y0168834D01*
X0116764Y0169234D01*
X0112886Y0169234D01*
X0112486Y0168834D01*
X0092039Y0168834D01*
X0091764Y0169109D01*
X0088559Y0169109D01*
X0088559Y0176716D01*
X0119986Y0176716D01*
X0120386Y0176316D01*
X0124264Y0176316D01*
X0125309Y0177361D01*
X0125309Y0181239D01*
X0124264Y0182284D01*
X0120386Y0182284D01*
X0119986Y0181884D01*
X0085461Y0181884D01*
X0084511Y0181491D01*
X0083784Y0180764D01*
X0083414Y0179869D01*
X0082631Y0180651D01*
X0081723Y0180651D01*
X0080677Y0181084D01*
X0078973Y0181084D01*
X0077927Y0180651D01*
X0077019Y0180651D01*
X0075974Y0179606D01*
X0075974Y0178698D01*
X0075541Y0177652D01*
X0075541Y0048448D01*
X0076193Y0046873D01*
X0077398Y0045668D01*
X0078973Y0045016D01*
X0117612Y0045016D01*
X0117588Y0044992D01*
X0117588Y0043884D01*
X0074909Y0043884D01*
X0074909Y0229966D01*
X0138536Y0229966D01*
X0138936Y0229566D01*
X0142814Y0229566D01*
X0143859Y0230611D01*
X0143859Y0234489D01*
X0142814Y0235534D01*
X0138936Y0235534D01*
X0138536Y0235134D01*
X0071811Y0235134D01*
X0070861Y0234741D01*
X0070134Y0234014D01*
X0069741Y0233064D01*
X0069741Y0226808D01*
X0069264Y0227284D01*
X0065386Y0227284D01*
X0064986Y0226884D01*
X0026811Y0226884D01*
X0025861Y0226491D01*
X0025134Y0225764D01*
X0024741Y0224814D01*
X0024741Y0215557D01*
X0022841Y0213657D01*
X0022841Y0209943D01*
X0025468Y0207316D01*
X0029183Y0207316D01*
X0031809Y0209943D01*
X0031809Y0213657D01*
X0029909Y0215557D01*
X0029909Y0221716D01*
X0064986Y0221716D01*
X0065386Y0221316D01*
X0069264Y0221316D01*
X0069741Y0221792D01*
X0069741Y0121353D01*
X0047438Y0121353D01*
X0046341Y0122451D01*
X0045535Y0122784D01*
X0046341Y0123118D01*
X0047562Y0124340D01*
X0048224Y0125936D01*
X0048224Y0127664D01*
X0047562Y0129260D01*
X0046341Y0130482D01*
X0044744Y0131143D01*
X0043016Y0131143D01*
X0041420Y0130482D01*
X0040198Y0129260D01*
X0039537Y0127664D01*
X0039537Y0125936D01*
X0040198Y0124340D01*
X0041420Y0123118D01*
X0042226Y0122784D01*
X0041420Y0122451D01*
X0040198Y0121229D01*
X0039537Y0119632D01*
X0039537Y0117905D01*
X0040198Y0116308D01*
X0041420Y0115086D01*
X0042226Y0114753D01*
X0041420Y0114419D01*
X0040198Y0113197D01*
X0039537Y0111601D01*
X0039537Y0109873D01*
X0040198Y0108277D01*
X0041420Y0107055D01*
X0043016Y0106394D01*
X0044744Y0106394D01*
X0044887Y0106453D01*
X0046614Y0106453D01*
X0048041Y0105025D01*
X0048041Y0069355D01*
X0047562Y0070510D01*
X0046341Y0071732D01*
X0044744Y0072393D01*
X0043016Y0072393D01*
X0041420Y0071732D01*
X0040198Y0070510D01*
X0039537Y0068914D01*
X0039537Y0067186D01*
X0040198Y0065590D01*
X0041420Y0064368D01*
X0042226Y0064034D01*
X0041420Y0063701D01*
X0040198Y0062479D01*
X0039537Y0060882D01*
X0039537Y0059155D01*
X0040198Y0057558D01*
X0041420Y0056336D01*
X0041951Y0056116D01*
X0041563Y0055728D01*
X0041420Y0055669D01*
X0040198Y0054447D01*
X0039537Y0052851D01*
X0039537Y0051123D01*
X0040198Y0049527D01*
X0041420Y0048305D01*
X0043016Y0047644D01*
X0044744Y0047644D01*
X0046341Y0048305D01*
X0046801Y0048766D01*
X0050677Y0048766D01*
X0052252Y0049418D01*
X0053457Y0050623D01*
X0055957Y0053123D01*
X0056609Y0054698D01*
X0056609Y0107652D01*
X0055957Y0109227D01*
X0054752Y0110432D01*
X0050815Y0114369D01*
X0049240Y0115021D01*
X0046183Y0115021D01*
X0046341Y0115086D01*
X0047438Y0116184D01*
X0069741Y0116184D01*
X0069741Y0040786D01*
X0069998Y0040164D02*
X0033125Y0040164D01*
X0033125Y0038566D02*
X0117588Y0038566D01*
X0118229Y0036967D02*
X0033125Y0036967D01*
X0033125Y0035369D02*
X0139725Y0035369D01*
X0139725Y0036967D02*
X0126421Y0036967D01*
X0127062Y0038566D02*
X0139725Y0038566D01*
X0139725Y0040164D02*
X0127062Y0040164D01*
X0127062Y0041763D02*
X0139725Y0041763D01*
X0139725Y0043361D02*
X0127062Y0043361D01*
X0127062Y0044960D02*
X0139725Y0044960D01*
X0139725Y0046558D02*
X0127062Y0046558D01*
X0127062Y0048157D02*
X0139725Y0048157D01*
X0139725Y0049755D02*
X0127062Y0049755D01*
X0127062Y0051354D02*
X0139725Y0051354D01*
X0139725Y0052952D02*
X0127062Y0052952D01*
X0127078Y0054551D02*
X0139725Y0054551D01*
X0139725Y0056149D02*
X0127078Y0056149D01*
X0127078Y0057748D02*
X0139725Y0057748D01*
X0139725Y0059346D02*
X0127078Y0059346D01*
X0126956Y0060945D02*
X0139725Y0060945D01*
X0139725Y0062543D02*
X0107409Y0062543D01*
X0107409Y0060945D02*
X0117694Y0060945D01*
X0117695Y0060948D02*
X0117572Y0060490D01*
X0117572Y0057484D01*
X0122141Y0057484D01*
X0122141Y0062053D01*
X0119135Y0062053D01*
X0118678Y0061930D01*
X0118267Y0061693D01*
X0117932Y0061358D01*
X0117695Y0060948D01*
X0117572Y0059346D02*
X0107409Y0059346D01*
X0107409Y0057748D02*
X0117572Y0057748D01*
X0117572Y0056149D02*
X0107409Y0056149D01*
X0107409Y0054551D02*
X0117572Y0054551D01*
X0122141Y0057748D02*
X0122509Y0057748D01*
X0122509Y0059346D02*
X0122141Y0059346D01*
X0122141Y0060945D02*
X0122509Y0060945D01*
X0107409Y0064142D02*
X0139725Y0064142D01*
X0139725Y0065740D02*
X0107409Y0065740D01*
X0107409Y0067339D02*
X0139725Y0067339D01*
X0139725Y0068937D02*
X0107898Y0068937D01*
X0107640Y0070536D02*
X0139725Y0070536D01*
X0139725Y0072134D02*
X0106013Y0072134D01*
X0103638Y0072134D02*
X0084109Y0072134D01*
X0084109Y0070536D02*
X0102011Y0070536D01*
X0101752Y0068937D02*
X0084109Y0068937D01*
X0084109Y0067339D02*
X0102241Y0067339D01*
X0102241Y0065740D02*
X0084109Y0065740D01*
X0084109Y0064142D02*
X0102241Y0064142D01*
X0102241Y0062543D02*
X0084109Y0062543D01*
X0084109Y0060945D02*
X0102241Y0060945D01*
X0102241Y0059346D02*
X0084109Y0059346D01*
X0084109Y0057748D02*
X0102241Y0057748D01*
X0102241Y0056149D02*
X0084109Y0056149D01*
X0084109Y0054551D02*
X0102241Y0054551D01*
X0104825Y0049870D02*
X0104256Y0049300D01*
X0104825Y0049870D02*
X0104825Y0069300D01*
X0084109Y0073733D02*
X0139725Y0073733D01*
X0139725Y0075332D02*
X0084109Y0075332D01*
X0084109Y0076930D02*
X0139725Y0076930D01*
X0139725Y0078529D02*
X0084109Y0078529D01*
X0084109Y0080127D02*
X0139725Y0080127D01*
X0139725Y0081726D02*
X0084109Y0081726D01*
X0084109Y0083324D02*
X0140172Y0083324D01*
X0140121Y0083273D02*
X0139725Y0082317D01*
X0139725Y0016283D01*
X0140121Y0015327D01*
X0140852Y0014596D01*
X0141808Y0014200D01*
X0142842Y0014200D01*
X0207842Y0014200D01*
X0208798Y0014596D01*
X0209529Y0015327D01*
X0209925Y0016283D01*
X0209925Y0082317D01*
X0209529Y0083273D01*
X0208798Y0084004D01*
X0207842Y0084400D01*
X0141808Y0084400D01*
X0140852Y0084004D01*
X0140121Y0083273D01*
X0154825Y0088867D02*
X0105258Y0088867D01*
X0102325Y0091800D01*
X0102325Y0135810D01*
X0104565Y0138050D01*
X0105786Y0140870D02*
X0108252Y0140870D01*
X0108420Y0142469D02*
X0088559Y0142469D01*
X0088559Y0140870D02*
X0103344Y0140870D01*
X0101745Y0139272D02*
X0088559Y0139272D01*
X0088559Y0137673D02*
X0100534Y0137673D01*
X0099741Y0136075D02*
X0088559Y0136075D01*
X0088559Y0134476D02*
X0099741Y0134476D01*
X0099741Y0132878D02*
X0088559Y0132878D01*
X0088559Y0131279D02*
X0099741Y0131279D01*
X0099741Y0129681D02*
X0088559Y0129681D01*
X0088959Y0128082D02*
X0099741Y0128082D01*
X0099741Y0126484D02*
X0088959Y0126484D01*
X0088959Y0124885D02*
X0099741Y0124885D01*
X0099741Y0123287D02*
X0090036Y0123287D01*
X0090398Y0121688D02*
X0099741Y0121688D01*
X0099741Y0120090D02*
X0089943Y0120090D01*
X0087325Y0121800D02*
X0079964Y0121800D01*
X0079825Y0121938D01*
X0075541Y0121688D02*
X0074909Y0121688D01*
X0074909Y0120090D02*
X0075541Y0120090D01*
X0075541Y0118491D02*
X0074909Y0118491D01*
X0074909Y0116893D02*
X0075541Y0116893D01*
X0075541Y0115294D02*
X0074909Y0115294D01*
X0074909Y0113696D02*
X0075541Y0113696D01*
X0075541Y0112097D02*
X0074909Y0112097D01*
X0074909Y0110499D02*
X0075541Y0110499D01*
X0075541Y0108900D02*
X0074909Y0108900D01*
X0074909Y0107302D02*
X0075541Y0107302D01*
X0075541Y0105703D02*
X0074909Y0105703D01*
X0074909Y0104105D02*
X0075541Y0104105D01*
X0075541Y0102506D02*
X0074909Y0102506D01*
X0074909Y0100908D02*
X0075541Y0100908D01*
X0075541Y0099309D02*
X0074909Y0099309D01*
X0074909Y0097711D02*
X0075541Y0097711D01*
X0075541Y0096112D02*
X0074909Y0096112D01*
X0074909Y0094514D02*
X0075541Y0094514D01*
X0075541Y0092915D02*
X0074909Y0092915D01*
X0074909Y0091317D02*
X0075541Y0091317D01*
X0075541Y0089718D02*
X0074909Y0089718D01*
X0074909Y0088120D02*
X0075541Y0088120D01*
X0075541Y0086521D02*
X0074909Y0086521D01*
X0074909Y0084923D02*
X0075541Y0084923D01*
X0075541Y0083324D02*
X0074909Y0083324D01*
X0074909Y0081726D02*
X0075541Y0081726D01*
X0075541Y0080127D02*
X0074909Y0080127D01*
X0074909Y0078529D02*
X0075541Y0078529D01*
X0075541Y0076930D02*
X0074909Y0076930D01*
X0074909Y0075332D02*
X0075541Y0075332D01*
X0075541Y0073733D02*
X0074909Y0073733D01*
X0074909Y0072134D02*
X0075541Y0072134D01*
X0075541Y0070536D02*
X0074909Y0070536D01*
X0074909Y0068937D02*
X0075541Y0068937D01*
X0075541Y0067339D02*
X0074909Y0067339D01*
X0074909Y0065740D02*
X0075541Y0065740D01*
X0075541Y0064142D02*
X0074909Y0064142D01*
X0074909Y0062543D02*
X0075541Y0062543D01*
X0075541Y0060945D02*
X0074909Y0060945D01*
X0074909Y0059346D02*
X0075541Y0059346D01*
X0075541Y0057748D02*
X0074909Y0057748D01*
X0074909Y0056149D02*
X0075541Y0056149D01*
X0075541Y0054551D02*
X0074909Y0054551D01*
X0074909Y0052952D02*
X0075541Y0052952D01*
X0075541Y0051354D02*
X0074909Y0051354D01*
X0074909Y0049755D02*
X0075541Y0049755D01*
X0075661Y0048157D02*
X0074909Y0048157D01*
X0074909Y0046558D02*
X0076508Y0046558D01*
X0074909Y0044960D02*
X0117588Y0044960D01*
X0122325Y0041300D02*
X0072325Y0041300D01*
X0072325Y0117925D01*
X0071482Y0118769D01*
X0043880Y0118769D01*
X0040658Y0121688D02*
X0038095Y0121688D01*
X0038224Y0121999D02*
X0038224Y0123727D01*
X0037562Y0125323D01*
X0036341Y0126545D01*
X0034744Y0127206D01*
X0033016Y0127206D01*
X0031420Y0126545D01*
X0030198Y0125323D01*
X0029537Y0123727D01*
X0029537Y0121999D01*
X0030198Y0120403D01*
X0031420Y0119181D01*
X0032189Y0118862D01*
X0031596Y0118560D01*
X0031041Y0118156D01*
X0030555Y0117671D01*
X0030152Y0117116D01*
X0029841Y0116505D01*
X0029629Y0115852D01*
X0029521Y0115175D01*
X0029521Y0114832D01*
X0033880Y0114832D01*
X0033880Y0114831D01*
X0033880Y0114831D01*
X0033880Y0106800D01*
X0033880Y0106800D01*
X0029521Y0106800D01*
X0029521Y0106457D01*
X0029629Y0105779D01*
X0029841Y0105127D01*
X0030152Y0104515D01*
X0030555Y0103960D01*
X0031041Y0103475D01*
X0031596Y0103072D01*
X0032207Y0102760D01*
X0032860Y0102548D01*
X0033537Y0102441D01*
X0033880Y0102441D01*
X0033880Y0106800D01*
X0029521Y0106800D01*
X0029521Y0107143D01*
X0029629Y0107821D01*
X0029841Y0108473D01*
X0030152Y0109085D01*
X0030555Y0109640D01*
X0031041Y0110125D01*
X0031596Y0110528D01*
X0032160Y0110816D01*
X0031596Y0111103D01*
X0031041Y0111507D01*
X0030555Y0111992D01*
X0030152Y0112547D01*
X0029841Y0113158D01*
X0029629Y0113811D01*
X0029521Y0114488D01*
X0029521Y0114831D01*
X0033880Y0114831D01*
X0033880Y0110472D01*
X0033880Y0106800D01*
X0033880Y0106800D01*
X0033880Y0106800D01*
X0033880Y0102441D01*
X0034223Y0102441D01*
X0034901Y0102548D01*
X0035554Y0102760D01*
X0036165Y0103072D01*
X0036720Y0103475D01*
X0037205Y0103960D01*
X0037609Y0104515D01*
X0037920Y0105127D01*
X0038132Y0105779D01*
X0038239Y0106457D01*
X0038239Y0106800D01*
X0038239Y0107143D01*
X0038132Y0107821D01*
X0037920Y0108473D01*
X0037609Y0109085D01*
X0037205Y0109640D01*
X0036720Y0110125D01*
X0036165Y0110528D01*
X0035601Y0110816D01*
X0036165Y0111103D01*
X0036720Y0111507D01*
X0037205Y0111992D01*
X0037609Y0112547D01*
X0037920Y0113158D01*
X0038132Y0113811D01*
X0038239Y0114488D01*
X0038239Y0114831D01*
X0033880Y0114831D01*
X0033880Y0114832D01*
X0038239Y0114832D01*
X0038239Y0115175D01*
X0038132Y0115852D01*
X0037920Y0116505D01*
X0037609Y0117116D01*
X0037205Y0117671D01*
X0036720Y0118156D01*
X0036165Y0118560D01*
X0035571Y0118862D01*
X0036341Y0119181D01*
X0037562Y0120403D01*
X0038224Y0121999D01*
X0038224Y0123287D02*
X0041251Y0123287D01*
X0039972Y0124885D02*
X0037744Y0124885D01*
X0036402Y0126484D02*
X0039537Y0126484D01*
X0039710Y0128082D02*
X0004925Y0128082D01*
X0004925Y0126484D02*
X0031359Y0126484D01*
X0030017Y0124885D02*
X0004925Y0124885D01*
X0004925Y0123287D02*
X0029537Y0123287D01*
X0029666Y0121688D02*
X0004925Y0121688D01*
X0004925Y0120090D02*
X0030511Y0120090D01*
X0031502Y0118491D02*
X0004925Y0118491D01*
X0004925Y0116893D02*
X0030038Y0116893D01*
X0029540Y0115294D02*
X0004925Y0115294D01*
X0004925Y0113696D02*
X0029666Y0113696D01*
X0030479Y0112097D02*
X0004925Y0112097D01*
X0004925Y0110499D02*
X0031555Y0110499D01*
X0030058Y0108900D02*
X0004925Y0108900D01*
X0004925Y0107302D02*
X0029546Y0107302D01*
X0029653Y0105703D02*
X0004925Y0105703D01*
X0004925Y0104105D02*
X0030450Y0104105D01*
X0033125Y0102506D02*
X0004925Y0102506D01*
X0004925Y0100908D02*
X0048041Y0100908D01*
X0048041Y0102506D02*
X0034635Y0102506D01*
X0033880Y0102506D02*
X0033880Y0102506D01*
X0033880Y0104105D02*
X0033880Y0104105D01*
X0033880Y0105703D02*
X0033880Y0105703D01*
X0033880Y0106800D02*
X0033880Y0106800D01*
X0038239Y0106800D01*
X0033880Y0106800D01*
X0033880Y0107302D02*
X0033880Y0107302D01*
X0033880Y0108900D02*
X0033880Y0108900D01*
X0033880Y0110499D02*
X0033880Y0110499D01*
X0033880Y0112097D02*
X0033880Y0112097D01*
X0033880Y0113696D02*
X0033880Y0113696D01*
X0037282Y0112097D02*
X0039743Y0112097D01*
X0039537Y0110499D02*
X0036205Y0110499D01*
X0037702Y0108900D02*
X0039940Y0108900D01*
X0041173Y0107302D02*
X0038214Y0107302D01*
X0038107Y0105703D02*
X0047363Y0105703D01*
X0048041Y0104105D02*
X0037310Y0104105D01*
X0033125Y0099631D02*
X0032657Y0100100D01*
X0016994Y0100100D01*
X0016525Y0099631D01*
X0016525Y0090881D01*
X0016525Y0075219D01*
X0016994Y0074750D01*
X0032657Y0074750D01*
X0033125Y0075219D01*
X0033125Y0099631D01*
X0033125Y0099309D02*
X0048041Y0099309D01*
X0048041Y0097711D02*
X0033125Y0097711D01*
X0033125Y0096112D02*
X0048041Y0096112D01*
X0048041Y0094514D02*
X0033125Y0094514D01*
X0033125Y0092915D02*
X0048041Y0092915D01*
X0048041Y0091317D02*
X0033125Y0091317D01*
X0033125Y0089718D02*
X0048041Y0089718D01*
X0048041Y0088120D02*
X0033125Y0088120D01*
X0033125Y0086521D02*
X0048041Y0086521D01*
X0048041Y0084923D02*
X0033125Y0084923D01*
X0033125Y0083324D02*
X0048041Y0083324D01*
X0048041Y0081726D02*
X0033125Y0081726D01*
X0033125Y0080127D02*
X0048041Y0080127D01*
X0048041Y0078529D02*
X0033125Y0078529D01*
X0033125Y0076930D02*
X0048041Y0076930D01*
X0048041Y0075332D02*
X0033125Y0075332D01*
X0033016Y0068456D02*
X0031420Y0067795D01*
X0030198Y0066573D01*
X0029537Y0064977D01*
X0029537Y0063249D01*
X0030198Y0061653D01*
X0031420Y0060431D01*
X0032226Y0060097D01*
X0031420Y0059764D01*
X0030198Y0058542D01*
X0029537Y0056945D01*
X0029537Y0055218D01*
X0030198Y0053621D01*
X0031420Y0052399D01*
X0032189Y0052081D01*
X0031596Y0051778D01*
X0031041Y0051375D01*
X0030555Y0050890D01*
X0030152Y0050335D01*
X0029841Y0049723D01*
X0029629Y0049071D01*
X0029521Y0048393D01*
X0029521Y0048050D01*
X0029521Y0047707D01*
X0029629Y0047029D01*
X0029841Y0046377D01*
X0030152Y0045765D01*
X0030555Y0045210D01*
X0031041Y0044725D01*
X0031596Y0044322D01*
X0032207Y0044010D01*
X0032860Y0043798D01*
X0033537Y0043691D01*
X0033880Y0043691D01*
X0033880Y0048050D01*
X0033880Y0048050D01*
X0029521Y0048050D01*
X0033880Y0048050D01*
X0033880Y0048050D01*
X0033880Y0043691D01*
X0034223Y0043691D01*
X0034901Y0043798D01*
X0035554Y0044010D01*
X0036165Y0044322D01*
X0036720Y0044725D01*
X0037205Y0045210D01*
X0037609Y0045765D01*
X0037920Y0046377D01*
X0038132Y0047029D01*
X0038239Y0047707D01*
X0038239Y0048050D01*
X0038239Y0048393D01*
X0038132Y0049071D01*
X0037920Y0049723D01*
X0037609Y0050335D01*
X0037205Y0050890D01*
X0036720Y0051375D01*
X0036165Y0051778D01*
X0035571Y0052081D01*
X0036341Y0052399D01*
X0037562Y0053621D01*
X0038224Y0055218D01*
X0038224Y0056945D01*
X0037562Y0058542D01*
X0036341Y0059764D01*
X0035535Y0060097D01*
X0036341Y0060431D01*
X0037562Y0061653D01*
X0038224Y0063249D01*
X0038224Y0064977D01*
X0037562Y0066573D01*
X0036341Y0067795D01*
X0034744Y0068456D01*
X0033016Y0068456D01*
X0030964Y0067339D02*
X0004925Y0067339D01*
X0004925Y0068937D02*
X0039547Y0068937D01*
X0039537Y0067339D02*
X0036797Y0067339D01*
X0037907Y0065740D02*
X0040136Y0065740D01*
X0041966Y0064142D02*
X0038224Y0064142D01*
X0037931Y0062543D02*
X0040263Y0062543D01*
X0039563Y0060945D02*
X0036855Y0060945D01*
X0036758Y0059346D02*
X0039537Y0059346D01*
X0040120Y0057748D02*
X0037891Y0057748D01*
X0038224Y0056149D02*
X0041872Y0056149D01*
X0040302Y0054551D02*
X0037947Y0054551D01*
X0036894Y0052952D02*
X0039579Y0052952D01*
X0039537Y0051354D02*
X0036741Y0051354D01*
X0037904Y0049755D02*
X0040104Y0049755D01*
X0041778Y0048157D02*
X0038239Y0048157D01*
X0038239Y0048050D02*
X0033880Y0048050D01*
X0033880Y0048050D01*
X0038239Y0048050D01*
X0037979Y0046558D02*
X0069741Y0046558D01*
X0069741Y0044960D02*
X0036955Y0044960D01*
X0033880Y0044960D02*
X0033880Y0044960D01*
X0033880Y0046558D02*
X0033880Y0046558D01*
X0030806Y0044960D02*
X0004925Y0044960D01*
X0004925Y0046558D02*
X0029782Y0046558D01*
X0029521Y0048157D02*
X0004925Y0048157D01*
X0004925Y0049755D02*
X0029857Y0049755D01*
X0031020Y0051354D02*
X0004925Y0051354D01*
X0004925Y0052952D02*
X0030867Y0052952D01*
X0029813Y0054551D02*
X0004925Y0054551D01*
X0004925Y0056149D02*
X0029537Y0056149D01*
X0029869Y0057748D02*
X0004925Y0057748D01*
X0004925Y0059346D02*
X0031003Y0059346D01*
X0030906Y0060945D02*
X0004925Y0060945D01*
X0004925Y0062543D02*
X0029829Y0062543D01*
X0029537Y0064142D02*
X0004925Y0064142D01*
X0004925Y0065740D02*
X0029853Y0065740D01*
X0040224Y0070536D02*
X0004925Y0070536D01*
X0004925Y0072134D02*
X0042392Y0072134D01*
X0045369Y0072134D02*
X0048041Y0072134D01*
X0048041Y0070536D02*
X0047537Y0070536D01*
X0048041Y0073733D02*
X0004925Y0073733D01*
X0004925Y0075332D02*
X0016525Y0075332D01*
X0016525Y0076930D02*
X0004925Y0076930D01*
X0004925Y0078529D02*
X0016525Y0078529D01*
X0016525Y0080127D02*
X0004925Y0080127D01*
X0004925Y0081726D02*
X0016525Y0081726D01*
X0016525Y0083324D02*
X0004925Y0083324D01*
X0004925Y0084923D02*
X0016525Y0084923D01*
X0016525Y0086521D02*
X0004925Y0086521D01*
X0004925Y0088120D02*
X0016525Y0088120D01*
X0016525Y0089718D02*
X0004925Y0089718D01*
X0004925Y0091317D02*
X0016525Y0091317D01*
X0016525Y0092915D02*
X0004925Y0092915D01*
X0004925Y0094514D02*
X0016525Y0094514D01*
X0016525Y0096112D02*
X0004925Y0096112D01*
X0004925Y0097711D02*
X0016525Y0097711D01*
X0016525Y0099309D02*
X0004925Y0099309D01*
X0036259Y0118491D02*
X0039537Y0118491D01*
X0039726Y0120090D02*
X0037250Y0120090D01*
X0037722Y0116893D02*
X0039956Y0116893D01*
X0041212Y0115294D02*
X0038220Y0115294D01*
X0038095Y0113696D02*
X0040697Y0113696D01*
X0046548Y0115294D02*
X0069741Y0115294D01*
X0069741Y0113696D02*
X0051488Y0113696D01*
X0053087Y0112097D02*
X0069741Y0112097D01*
X0069741Y0110499D02*
X0054685Y0110499D01*
X0056092Y0108900D02*
X0069741Y0108900D01*
X0069741Y0107302D02*
X0056609Y0107302D01*
X0056609Y0105703D02*
X0069741Y0105703D01*
X0069741Y0104105D02*
X0056609Y0104105D01*
X0056609Y0102506D02*
X0069741Y0102506D01*
X0069741Y0100908D02*
X0056609Y0100908D01*
X0056609Y0099309D02*
X0069741Y0099309D01*
X0069741Y0097711D02*
X0056609Y0097711D01*
X0056609Y0096112D02*
X0069741Y0096112D01*
X0069741Y0094514D02*
X0056609Y0094514D01*
X0056609Y0092915D02*
X0069741Y0092915D01*
X0069741Y0091317D02*
X0056609Y0091317D01*
X0056609Y0089718D02*
X0069741Y0089718D01*
X0069741Y0088120D02*
X0056609Y0088120D01*
X0056609Y0086521D02*
X0069741Y0086521D01*
X0069741Y0084923D02*
X0056609Y0084923D01*
X0056609Y0083324D02*
X0069741Y0083324D01*
X0069741Y0081726D02*
X0056609Y0081726D01*
X0056609Y0080127D02*
X0069741Y0080127D01*
X0069741Y0078529D02*
X0056609Y0078529D01*
X0056609Y0076930D02*
X0069741Y0076930D01*
X0069741Y0075332D02*
X0056609Y0075332D01*
X0056609Y0073733D02*
X0069741Y0073733D01*
X0069741Y0072134D02*
X0056609Y0072134D01*
X0056609Y0070536D02*
X0069741Y0070536D01*
X0069741Y0068937D02*
X0056609Y0068937D01*
X0056609Y0067339D02*
X0069741Y0067339D01*
X0069741Y0065740D02*
X0056609Y0065740D01*
X0056609Y0064142D02*
X0069741Y0064142D01*
X0069741Y0062543D02*
X0056609Y0062543D01*
X0056609Y0060945D02*
X0069741Y0060945D01*
X0069741Y0059346D02*
X0056609Y0059346D01*
X0056609Y0057748D02*
X0069741Y0057748D01*
X0069741Y0056149D02*
X0056609Y0056149D01*
X0056549Y0054551D02*
X0069741Y0054551D01*
X0069741Y0052952D02*
X0055786Y0052952D01*
X0054188Y0051354D02*
X0069741Y0051354D01*
X0069741Y0049755D02*
X0052589Y0049755D01*
X0045983Y0048157D02*
X0069741Y0048157D01*
X0069741Y0043361D02*
X0004925Y0043361D01*
X0020675Y0024179D02*
X0139725Y0024179D01*
X0139725Y0022581D02*
X0022999Y0022581D01*
X0024359Y0020982D02*
X0139725Y0020982D01*
X0139725Y0019384D02*
X0025022Y0019384D01*
X0025424Y0017785D02*
X0139725Y0017785D01*
X0139765Y0016187D02*
X0025424Y0016187D01*
X0025176Y0014588D02*
X0140871Y0014588D01*
X0139725Y0025778D02*
X0033125Y0025778D01*
X0033125Y0027376D02*
X0139725Y0027376D01*
X0139725Y0028975D02*
X0033125Y0028975D01*
X0033125Y0030573D02*
X0139725Y0030573D01*
X0139725Y0032172D02*
X0033125Y0032172D01*
X0033125Y0033770D02*
X0139725Y0033770D01*
X0208779Y0014588D02*
X0369475Y0014588D01*
X0369226Y0015189D02*
X0370459Y0012212D01*
X0372737Y0009934D01*
X0375714Y0008701D01*
X0378936Y0008701D01*
X0381913Y0009934D01*
X0384191Y0012212D01*
X0385424Y0015189D01*
X0385424Y0018411D01*
X0384191Y0021388D01*
X0381913Y0023666D01*
X0378936Y0024899D01*
X0375714Y0024899D01*
X0372737Y0023666D01*
X0370459Y0021388D01*
X0369226Y0018411D01*
X0369226Y0015189D01*
X0369226Y0016187D02*
X0295753Y0016187D01*
X0296327Y0016760D02*
X0297009Y0018408D01*
X0297009Y0020192D01*
X0296327Y0021840D01*
X0295065Y0023102D01*
X0293417Y0023784D01*
X0286233Y0023784D01*
X0284585Y0023102D01*
X0283324Y0021840D01*
X0282641Y0020192D01*
X0282641Y0018408D01*
X0283324Y0016760D01*
X0284585Y0015498D01*
X0286233Y0014816D01*
X0293417Y0014816D01*
X0295065Y0015498D01*
X0296327Y0016760D01*
X0296751Y0017785D02*
X0369226Y0017785D01*
X0369629Y0019384D02*
X0346149Y0019384D01*
X0346149Y0018943D02*
X0346149Y0035445D01*
X0345104Y0036490D01*
X0328602Y0036490D01*
X0327557Y0035445D01*
X0327557Y0018943D01*
X0328602Y0017898D01*
X0345104Y0017898D01*
X0346149Y0018943D01*
X0346149Y0020982D02*
X0370291Y0020982D01*
X0371652Y0022581D02*
X0346149Y0022581D01*
X0346149Y0024179D02*
X0373976Y0024179D01*
X0380675Y0024179D02*
X0389725Y0024179D01*
X0389725Y0022581D02*
X0382999Y0022581D01*
X0384359Y0020982D02*
X0389725Y0020982D01*
X0389725Y0019384D02*
X0385022Y0019384D01*
X0385424Y0017785D02*
X0389725Y0017785D01*
X0389725Y0016187D02*
X0385424Y0016187D01*
X0385176Y0014588D02*
X0389725Y0014588D01*
X0389725Y0012990D02*
X0384513Y0012990D01*
X0383370Y0011391D02*
X0389725Y0011391D01*
X0389725Y0009793D02*
X0381572Y0009793D01*
X0373078Y0009793D02*
X0021572Y0009793D01*
X0023370Y0011391D02*
X0371280Y0011391D01*
X0370137Y0012990D02*
X0024513Y0012990D01*
X0084109Y0084923D02*
X0297241Y0084923D01*
X0297241Y0086521D02*
X0261147Y0086521D01*
X0262663Y0088120D02*
X0297241Y0088120D01*
X0297241Y0089718D02*
X0262898Y0089718D01*
X0262155Y0091317D02*
X0297241Y0091317D01*
X0297241Y0092915D02*
X0240078Y0092915D01*
X0240398Y0094514D02*
X0297241Y0094514D01*
X0297241Y0096112D02*
X0239859Y0096112D01*
X0237569Y0097711D02*
X0292157Y0097711D01*
X0291752Y0099309D02*
X0235520Y0099309D01*
X0234825Y0096800D02*
X0112325Y0096800D01*
X0110488Y0099309D02*
X0109909Y0099309D01*
X0109909Y0100908D02*
X0292165Y0100908D01*
X0292241Y0102506D02*
X0109909Y0102506D01*
X0109909Y0104105D02*
X0292241Y0104105D01*
X0291953Y0105703D02*
X0109909Y0105703D01*
X0109909Y0107302D02*
X0291752Y0107302D01*
X0292579Y0108900D02*
X0109909Y0108900D01*
X0109909Y0110499D02*
X0201367Y0110499D01*
X0201041Y0112097D02*
X0109909Y0112097D01*
X0110376Y0113696D02*
X0201041Y0113696D01*
X0201041Y0115294D02*
X0111974Y0115294D01*
X0113573Y0116893D02*
X0201041Y0116893D01*
X0201041Y0118491D02*
X0115171Y0118491D01*
X0114825Y0121800D02*
X0117325Y0121800D01*
X0114825Y0121800D02*
X0107325Y0114300D01*
X0107325Y0119954D01*
X0106752Y0120527D01*
X0106752Y0127381D01*
X0107325Y0127955D01*
X0107325Y0131800D01*
X0111326Y0135800D01*
X0111326Y0141454D01*
X0113480Y0139300D01*
X0137898Y0139300D01*
X0140972Y0139272D02*
X0164913Y0139272D01*
X0165176Y0139907D02*
X0164341Y0137891D01*
X0164341Y0135709D01*
X0165176Y0133693D01*
X0166719Y0132151D01*
X0168734Y0131316D01*
X0170916Y0131316D01*
X0172932Y0132151D01*
X0174475Y0133693D01*
X0174825Y0134540D01*
X0175176Y0133693D01*
X0176719Y0132151D01*
X0178734Y0131316D01*
X0180916Y0131316D01*
X0182932Y0132151D01*
X0184475Y0133693D01*
X0185309Y0135709D01*
X0185309Y0137891D01*
X0184475Y0139907D01*
X0182932Y0141449D01*
X0180916Y0142284D01*
X0178734Y0142284D01*
X0176719Y0141449D01*
X0175176Y0139907D01*
X0174825Y0139060D01*
X0174475Y0139907D01*
X0172932Y0141449D01*
X0170916Y0142284D01*
X0168734Y0142284D01*
X0166719Y0141449D01*
X0165176Y0139907D01*
X0166140Y0140870D02*
X0140574Y0140870D01*
X0140551Y0137673D02*
X0164341Y0137673D01*
X0164341Y0136075D02*
X0132809Y0136075D01*
X0132809Y0134476D02*
X0164852Y0134476D01*
X0165991Y0132878D02*
X0132809Y0132878D01*
X0135441Y0131279D02*
X0201041Y0131279D01*
X0201041Y0129681D02*
X0137040Y0129681D01*
X0138638Y0128082D02*
X0167690Y0128082D01*
X0168092Y0128484D02*
X0165641Y0126033D01*
X0165641Y0122567D01*
X0168092Y0120116D01*
X0171558Y0120116D01*
X0174009Y0122567D01*
X0174009Y0126033D01*
X0171558Y0128484D01*
X0168092Y0128484D01*
X0166092Y0126484D02*
X0140237Y0126484D01*
X0142527Y0124885D02*
X0165641Y0124885D01*
X0165641Y0123287D02*
X0143520Y0123287D01*
X0143445Y0121688D02*
X0166519Y0121688D01*
X0173131Y0121688D02*
X0176519Y0121688D01*
X0175641Y0122567D02*
X0175641Y0126033D01*
X0178092Y0128484D01*
X0181558Y0128484D01*
X0184009Y0126033D01*
X0184009Y0122567D01*
X0181558Y0120116D01*
X0178092Y0120116D01*
X0175641Y0122567D01*
X0175641Y0123287D02*
X0174009Y0123287D01*
X0174009Y0124885D02*
X0175641Y0124885D01*
X0176092Y0126484D02*
X0173559Y0126484D01*
X0171960Y0128082D02*
X0177690Y0128082D01*
X0181960Y0128082D02*
X0201041Y0128082D01*
X0201041Y0126484D02*
X0183559Y0126484D01*
X0184009Y0124885D02*
X0201041Y0124885D01*
X0201041Y0123287D02*
X0184009Y0123287D01*
X0183131Y0121688D02*
X0201041Y0121688D01*
X0201041Y0120090D02*
X0142344Y0120090D01*
X0140487Y0122579D02*
X0133766Y0129300D01*
X0112325Y0129300D01*
X0109825Y0126800D01*
X0109825Y0121800D01*
X0112536Y0123287D02*
X0112657Y0123287D01*
X0112409Y0124885D02*
X0134526Y0124885D01*
X0136124Y0123287D02*
X0120036Y0123287D01*
X0120398Y0121688D02*
X0137529Y0121688D01*
X0138630Y0120090D02*
X0119943Y0120090D01*
X0113164Y0126484D02*
X0132927Y0126484D01*
X0132898Y0142469D02*
X0201041Y0142469D01*
X0201041Y0140870D02*
X0183511Y0140870D01*
X0184737Y0139272D02*
X0201041Y0139272D01*
X0201041Y0137673D02*
X0185309Y0137673D01*
X0185309Y0136075D02*
X0201041Y0136075D01*
X0201041Y0134476D02*
X0184799Y0134476D01*
X0183659Y0132878D02*
X0201041Y0132878D01*
X0214259Y0132878D02*
X0216841Y0132878D01*
X0216841Y0131279D02*
X0214259Y0131279D01*
X0214259Y0129681D02*
X0216841Y0129681D01*
X0216841Y0128082D02*
X0214259Y0128082D01*
X0214259Y0126484D02*
X0216841Y0126484D01*
X0216841Y0124885D02*
X0214259Y0124885D01*
X0214259Y0123287D02*
X0216841Y0123287D01*
X0219825Y0124000D02*
X0242275Y0124000D01*
X0245259Y0123287D02*
X0318121Y0123287D01*
X0318130Y0124885D02*
X0245259Y0124885D01*
X0245259Y0126484D02*
X0318140Y0126484D01*
X0318149Y0128082D02*
X0245259Y0128082D01*
X0245259Y0129681D02*
X0318158Y0129681D01*
X0318167Y0131279D02*
X0245259Y0131279D01*
X0245259Y0132878D02*
X0318176Y0132878D01*
X0318186Y0134476D02*
X0285969Y0134476D01*
X0287755Y0136075D02*
X0318195Y0136075D01*
X0318204Y0137673D02*
X0289353Y0137673D01*
X0288789Y0137109D02*
X0288789Y0137109D01*
X0289909Y0139272D02*
X0318213Y0139272D01*
X0318222Y0140870D02*
X0289909Y0140870D01*
X0289909Y0142469D02*
X0318232Y0142469D01*
X0318241Y0144068D02*
X0289909Y0144068D01*
X0290233Y0145666D02*
X0294417Y0145666D01*
X0294785Y0145298D02*
X0296433Y0144616D01*
X0298217Y0144616D01*
X0299865Y0145298D01*
X0301127Y0146560D01*
X0301809Y0148208D01*
X0301809Y0155392D01*
X0301127Y0157040D01*
X0299865Y0158302D01*
X0298217Y0158984D01*
X0296433Y0158984D01*
X0294785Y0158302D01*
X0293524Y0157040D01*
X0292841Y0155392D01*
X0292841Y0148208D01*
X0293524Y0146560D01*
X0294785Y0145298D01*
X0293232Y0147265D02*
X0291419Y0147265D01*
X0291809Y0148863D02*
X0292841Y0148863D01*
X0292841Y0150462D02*
X0291809Y0150462D01*
X0291809Y0152060D02*
X0292841Y0152060D01*
X0292841Y0153659D02*
X0291809Y0153659D01*
X0291809Y0155257D02*
X0292841Y0155257D01*
X0293447Y0156856D02*
X0291203Y0156856D01*
X0289497Y0158454D02*
X0295153Y0158454D01*
X0299497Y0158454D02*
X0318323Y0158454D01*
X0318314Y0156856D02*
X0301203Y0156856D01*
X0301809Y0155257D02*
X0318305Y0155257D01*
X0318296Y0153659D02*
X0301809Y0153659D01*
X0301809Y0152060D02*
X0318287Y0152060D01*
X0318277Y0150462D02*
X0301809Y0150462D01*
X0301809Y0148863D02*
X0318268Y0148863D01*
X0318259Y0147265D02*
X0301419Y0147265D01*
X0300233Y0145666D02*
X0318250Y0145666D01*
X0326819Y0145666D02*
X0339013Y0145666D01*
X0338491Y0146189D02*
X0340769Y0143910D01*
X0343746Y0142677D01*
X0346968Y0142677D01*
X0349945Y0143910D01*
X0352223Y0146189D01*
X0353456Y0149165D01*
X0353456Y0152387D01*
X0352223Y0155364D01*
X0349945Y0157643D01*
X0346968Y0158876D01*
X0343746Y0158876D01*
X0340769Y0157643D01*
X0338491Y0155364D01*
X0337257Y0152387D01*
X0337257Y0149165D01*
X0338491Y0146189D01*
X0338045Y0147265D02*
X0326828Y0147265D01*
X0326837Y0148863D02*
X0337383Y0148863D01*
X0337257Y0150462D02*
X0326846Y0150462D01*
X0326855Y0152060D02*
X0337257Y0152060D01*
X0337784Y0153659D02*
X0326864Y0153659D01*
X0326874Y0155257D02*
X0338446Y0155257D01*
X0339982Y0156856D02*
X0326883Y0156856D01*
X0326892Y0158454D02*
X0342728Y0158454D01*
X0347985Y0158454D02*
X0389725Y0158454D01*
X0389725Y0156856D02*
X0350731Y0156856D01*
X0352267Y0155257D02*
X0389725Y0155257D01*
X0389725Y0153659D02*
X0352929Y0153659D01*
X0353456Y0152060D02*
X0389725Y0152060D01*
X0389725Y0150462D02*
X0353456Y0150462D01*
X0353331Y0148863D02*
X0389725Y0148863D01*
X0389725Y0147265D02*
X0352669Y0147265D01*
X0351700Y0145666D02*
X0389725Y0145666D01*
X0389725Y0144068D02*
X0350102Y0144068D01*
X0340612Y0144068D02*
X0326809Y0144068D01*
X0326800Y0142469D02*
X0389725Y0142469D01*
X0389725Y0140870D02*
X0326791Y0140870D01*
X0326782Y0139272D02*
X0389725Y0139272D01*
X0389725Y0137673D02*
X0326773Y0137673D01*
X0326763Y0136075D02*
X0389725Y0136075D01*
X0389725Y0134476D02*
X0326754Y0134476D01*
X0326745Y0132878D02*
X0339072Y0132878D01*
X0338805Y0132742D02*
X0339389Y0133039D01*
X0340012Y0133242D01*
X0340659Y0133344D01*
X0343349Y0133344D01*
X0343349Y0129182D01*
X0349873Y0129182D01*
X0349873Y0129509D01*
X0349771Y0130157D01*
X0349568Y0130780D01*
X0349271Y0131363D01*
X0348886Y0131893D01*
X0348423Y0132357D01*
X0347892Y0132742D01*
X0347309Y0133039D01*
X0346686Y0133242D01*
X0346039Y0133344D01*
X0343349Y0133344D01*
X0343349Y0129182D01*
X0343349Y0129182D01*
X0343349Y0129182D01*
X0349873Y0129182D01*
X0349873Y0128854D01*
X0349771Y0128207D01*
X0349568Y0127584D01*
X0349271Y0127000D01*
X0348886Y0126470D01*
X0348423Y0126007D01*
X0347892Y0125622D01*
X0347309Y0125325D01*
X0346686Y0125122D01*
X0346039Y0125020D01*
X0343349Y0125020D01*
X0343349Y0129182D01*
X0343349Y0129182D01*
X0343349Y0129182D01*
X0336824Y0129182D01*
X0336824Y0129509D01*
X0336927Y0130157D01*
X0337129Y0130780D01*
X0337427Y0131363D01*
X0337812Y0131893D01*
X0338275Y0132357D01*
X0338805Y0132742D01*
X0337384Y0131279D02*
X0326736Y0131279D01*
X0326727Y0129681D02*
X0336852Y0129681D01*
X0336824Y0129182D02*
X0336824Y0128854D01*
X0336927Y0128207D01*
X0337129Y0127584D01*
X0337427Y0127000D01*
X0337812Y0126470D01*
X0338275Y0126007D01*
X0338805Y0125622D01*
X0339389Y0125325D01*
X0340012Y0125122D01*
X0340659Y0125020D01*
X0343349Y0125020D01*
X0343349Y0129182D01*
X0336824Y0129182D01*
X0336967Y0128082D02*
X0326717Y0128082D01*
X0326708Y0126484D02*
X0337802Y0126484D01*
X0343349Y0126484D02*
X0343349Y0126484D01*
X0343349Y0128082D02*
X0343349Y0128082D01*
X0343349Y0129681D02*
X0343349Y0129681D01*
X0343349Y0131279D02*
X0343349Y0131279D01*
X0343349Y0132878D02*
X0343349Y0132878D01*
X0347625Y0132878D02*
X0389725Y0132878D01*
X0389725Y0131279D02*
X0349314Y0131279D01*
X0349846Y0129681D02*
X0389725Y0129681D01*
X0389725Y0128082D02*
X0349730Y0128082D01*
X0348896Y0126484D02*
X0389725Y0126484D01*
X0389725Y0124885D02*
X0326699Y0124885D01*
X0326690Y0123287D02*
X0344243Y0123287D01*
X0344150Y0123248D02*
X0342983Y0122082D01*
X0342352Y0120558D01*
X0342352Y0118908D01*
X0342983Y0117384D01*
X0344150Y0116218D01*
X0345674Y0115587D01*
X0352048Y0115587D01*
X0353572Y0116218D01*
X0354738Y0117384D01*
X0355369Y0118908D01*
X0355369Y0120558D01*
X0354738Y0122082D01*
X0353572Y0123248D01*
X0352048Y0123880D01*
X0345674Y0123880D01*
X0344150Y0123248D01*
X0342820Y0121688D02*
X0326681Y0121688D01*
X0326672Y0120090D02*
X0342352Y0120090D01*
X0342525Y0118491D02*
X0326662Y0118491D01*
X0326653Y0116893D02*
X0343475Y0116893D01*
X0354247Y0116893D02*
X0389725Y0116893D01*
X0389725Y0118491D02*
X0355197Y0118491D01*
X0355369Y0120090D02*
X0389725Y0120090D01*
X0389725Y0121688D02*
X0354901Y0121688D01*
X0353478Y0123287D02*
X0389725Y0123287D01*
X0389725Y0115294D02*
X0376124Y0115294D01*
X0376406Y0115177D02*
X0374882Y0115809D01*
X0373233Y0115809D01*
X0371709Y0115177D01*
X0370542Y0114011D01*
X0370366Y0113584D01*
X0326634Y0113584D01*
X0327230Y0217186D01*
X0327234Y0217198D01*
X0327234Y0218038D01*
X0327239Y0218878D01*
X0327234Y0218889D01*
X0327234Y0218902D01*
X0326913Y0219678D01*
X0326596Y0220456D01*
X0326587Y0220465D01*
X0326582Y0220477D01*
X0325990Y0221069D01*
X0325398Y0221668D01*
X0325386Y0221673D01*
X0325377Y0221682D01*
X0324602Y0222003D01*
X0323827Y0222329D01*
X0323814Y0222329D01*
X0323802Y0222334D01*
X0322962Y0222334D01*
X0322123Y0222339D01*
X0322111Y0222334D01*
X0277098Y0222334D01*
X0276052Y0221901D01*
X0275144Y0221901D01*
X0274099Y0220856D01*
X0274099Y0219948D01*
X0273666Y0218902D01*
X0273666Y0217198D01*
X0274099Y0216152D01*
X0274099Y0215244D01*
X0275144Y0214199D01*
X0276052Y0214199D01*
X0277098Y0213766D01*
X0318641Y0213766D01*
X0318057Y0112163D01*
X0318057Y0112150D01*
X0318052Y0112138D01*
X0318052Y0111298D01*
X0318036Y0108472D01*
X0318474Y0107398D01*
X0318474Y0106494D01*
X0319519Y0105449D01*
X0320431Y0105449D01*
X0321448Y0105021D01*
X0323153Y0105011D01*
X0323319Y0105079D01*
X0323470Y0105016D01*
X0370366Y0105016D01*
X0370542Y0104589D01*
X0371709Y0103423D01*
X0373233Y0102791D01*
X0374882Y0102791D01*
X0376406Y0103423D01*
X0377573Y0104589D01*
X0378204Y0106113D01*
X0378204Y0108115D01*
X0378342Y0108448D01*
X0378342Y0110152D01*
X0378204Y0110485D01*
X0378204Y0112487D01*
X0377573Y0114011D01*
X0376406Y0115177D01*
X0377703Y0113696D02*
X0389725Y0113696D01*
X0389725Y0112097D02*
X0378204Y0112097D01*
X0378204Y0110499D02*
X0389725Y0110499D01*
X0389725Y0108900D02*
X0378342Y0108900D01*
X0378204Y0107302D02*
X0389725Y0107302D01*
X0389725Y0105703D02*
X0378034Y0105703D01*
X0377088Y0104105D02*
X0389725Y0104105D01*
X0389725Y0102506D02*
X0317409Y0102506D01*
X0317409Y0100908D02*
X0389725Y0100908D01*
X0389725Y0099309D02*
X0333219Y0099309D01*
X0333099Y0099429D02*
X0331575Y0100061D01*
X0329926Y0100061D01*
X0328402Y0099429D01*
X0327235Y0098263D01*
X0326604Y0096739D01*
X0326604Y0090365D01*
X0327235Y0088841D01*
X0328402Y0087675D01*
X0329926Y0087043D01*
X0331575Y0087043D01*
X0333099Y0087675D01*
X0334266Y0088841D01*
X0334897Y0090365D01*
X0334897Y0096739D01*
X0334266Y0098263D01*
X0333099Y0099429D01*
X0334494Y0097711D02*
X0389725Y0097711D01*
X0389725Y0096112D02*
X0334897Y0096112D01*
X0334897Y0094514D02*
X0355966Y0094514D01*
X0356354Y0094902D02*
X0355188Y0093735D01*
X0354557Y0092211D01*
X0354557Y0090562D01*
X0355188Y0089038D01*
X0356354Y0087871D01*
X0357878Y0087240D01*
X0364252Y0087240D01*
X0365776Y0087871D01*
X0366943Y0089038D01*
X0367574Y0090562D01*
X0367574Y0092211D01*
X0366943Y0093735D01*
X0365776Y0094902D01*
X0364252Y0095533D01*
X0357878Y0095533D01*
X0356354Y0094902D01*
X0354848Y0092915D02*
X0334897Y0092915D01*
X0334897Y0091317D02*
X0354557Y0091317D01*
X0354906Y0089718D02*
X0334629Y0089718D01*
X0333544Y0088120D02*
X0356106Y0088120D01*
X0366025Y0088120D02*
X0389725Y0088120D01*
X0389725Y0089718D02*
X0367225Y0089718D01*
X0367574Y0091317D02*
X0389725Y0091317D01*
X0389725Y0092915D02*
X0367283Y0092915D01*
X0366164Y0094514D02*
X0389725Y0094514D01*
X0389725Y0086521D02*
X0317409Y0086521D01*
X0317409Y0084923D02*
X0327822Y0084923D01*
X0327557Y0084657D02*
X0327557Y0068155D01*
X0328602Y0067110D01*
X0345104Y0067110D01*
X0346149Y0068155D01*
X0346149Y0084657D01*
X0345104Y0085702D01*
X0328602Y0085702D01*
X0327557Y0084657D01*
X0327557Y0083324D02*
X0317409Y0083324D01*
X0317409Y0081726D02*
X0327557Y0081726D01*
X0327557Y0080127D02*
X0317409Y0080127D01*
X0317409Y0078529D02*
X0327557Y0078529D01*
X0327557Y0076930D02*
X0317409Y0076930D01*
X0317409Y0075332D02*
X0327557Y0075332D01*
X0327557Y0073733D02*
X0317409Y0073733D01*
X0317409Y0072134D02*
X0327557Y0072134D01*
X0327557Y0070536D02*
X0317409Y0070536D01*
X0317409Y0068937D02*
X0327557Y0068937D01*
X0328373Y0067339D02*
X0317409Y0067339D01*
X0317409Y0065740D02*
X0359084Y0065740D01*
X0364412Y0061643D02*
X0314825Y0061643D01*
X0314825Y0119300D01*
X0211675Y0119300D01*
X0211675Y0168100D01*
X0180825Y0168100D01*
X0180825Y0169050D01*
X0177841Y0169644D02*
X0144359Y0169644D01*
X0144359Y0171242D02*
X0178094Y0171242D01*
X0177841Y0168045D02*
X0144359Y0168045D01*
X0144359Y0172841D02*
X0318406Y0172841D01*
X0318415Y0174439D02*
X0144359Y0174439D01*
X0144359Y0176038D02*
X0318424Y0176038D01*
X0318434Y0177636D02*
X0144359Y0177636D01*
X0144359Y0179235D02*
X0318443Y0179235D01*
X0318452Y0180833D02*
X0144359Y0180833D01*
X0144359Y0182432D02*
X0318461Y0182432D01*
X0318470Y0184030D02*
X0144359Y0184030D01*
X0144359Y0185629D02*
X0318480Y0185629D01*
X0318489Y0187227D02*
X0144359Y0187227D01*
X0144359Y0188826D02*
X0318498Y0188826D01*
X0318507Y0190424D02*
X0144359Y0190424D01*
X0144359Y0192023D02*
X0212756Y0192023D01*
X0213084Y0191695D02*
X0214214Y0191227D01*
X0215437Y0191227D01*
X0216566Y0191695D01*
X0217431Y0192559D01*
X0217898Y0193689D01*
X0217898Y0194911D01*
X0217609Y0195609D01*
X0217609Y0222418D01*
X0217898Y0223115D01*
X0217898Y0224216D01*
X0342241Y0224216D01*
X0342241Y0213786D01*
X0342634Y0212836D01*
X0343361Y0212109D01*
X0344311Y0211716D01*
X0363784Y0211716D01*
X0364025Y0211816D01*
X0364025Y0198969D01*
X0364494Y0198500D01*
X0380157Y0198500D01*
X0380625Y0198969D01*
X0380625Y0214631D01*
X0380157Y0215100D01*
X0365854Y0215100D01*
X0365854Y0222179D01*
X0366952Y0223277D01*
X0367613Y0224873D01*
X0367613Y0226601D01*
X0366952Y0228197D01*
X0365730Y0229419D01*
X0364961Y0229738D01*
X0365555Y0230040D01*
X0366110Y0230444D01*
X0366595Y0230929D01*
X0366998Y0231484D01*
X0367310Y0232095D01*
X0367522Y0232748D01*
X0367629Y0233425D01*
X0367629Y0233768D01*
X0363270Y0233768D01*
X0358911Y0233768D01*
X0358911Y0233425D01*
X0359018Y0232748D01*
X0359230Y0232095D01*
X0359542Y0231484D01*
X0359945Y0230929D01*
X0360430Y0230444D01*
X0360985Y0230040D01*
X0361579Y0229738D01*
X0360810Y0229419D01*
X0359588Y0228197D01*
X0358927Y0226601D01*
X0358927Y0224873D01*
X0359588Y0223277D01*
X0360686Y0222179D01*
X0360686Y0216884D01*
X0347409Y0216884D01*
X0347409Y0227247D01*
X0349712Y0227247D01*
X0350810Y0226149D01*
X0351615Y0225816D01*
X0350810Y0225482D01*
X0349588Y0224260D01*
X0348927Y0222664D01*
X0348927Y0220936D01*
X0349588Y0219340D01*
X0350810Y0218118D01*
X0352406Y0217457D01*
X0354134Y0217457D01*
X0355730Y0218118D01*
X0356952Y0219340D01*
X0357613Y0220936D01*
X0357613Y0222664D01*
X0356952Y0224260D01*
X0355730Y0225482D01*
X0354925Y0225816D01*
X0355730Y0226149D01*
X0356952Y0227371D01*
X0357613Y0228968D01*
X0357613Y0230695D01*
X0356952Y0232292D01*
X0355730Y0233514D01*
X0354925Y0233847D01*
X0355730Y0234181D01*
X0356952Y0235403D01*
X0357613Y0236999D01*
X0357613Y0238727D01*
X0356952Y0240323D01*
X0355730Y0241545D01*
X0354134Y0242206D01*
X0352406Y0242206D01*
X0350810Y0241545D01*
X0349588Y0240323D01*
X0348927Y0238727D01*
X0348927Y0236999D01*
X0349588Y0235403D01*
X0350810Y0234181D01*
X0351615Y0233847D01*
X0350810Y0233514D01*
X0349712Y0232416D01*
X0154411Y0232416D01*
X0153461Y0232022D01*
X0152734Y0231295D01*
X0152341Y0230346D01*
X0152341Y0211639D01*
X0151941Y0211239D01*
X0151941Y0207361D01*
X0152986Y0206316D01*
X0155741Y0206316D01*
X0155741Y0203011D01*
X0156786Y0201966D01*
X0160664Y0201966D01*
X0161709Y0203011D01*
X0161709Y0206889D01*
X0161309Y0207289D01*
X0161309Y0224216D01*
X0211752Y0224216D01*
X0211752Y0223115D01*
X0212041Y0222418D01*
X0212041Y0195609D01*
X0211752Y0194911D01*
X0211752Y0193689D01*
X0212220Y0192559D01*
X0213084Y0191695D01*
X0211780Y0193621D02*
X0144359Y0193621D01*
X0144359Y0195220D02*
X0211880Y0195220D01*
X0212041Y0196818D02*
X0144359Y0196818D01*
X0144359Y0198417D02*
X0212041Y0198417D01*
X0212041Y0200015D02*
X0144359Y0200015D01*
X0144359Y0201614D02*
X0212041Y0201614D01*
X0212041Y0203212D02*
X0161709Y0203212D01*
X0161709Y0204811D02*
X0212041Y0204811D01*
X0212041Y0206409D02*
X0161709Y0206409D01*
X0161309Y0208008D02*
X0212041Y0208008D01*
X0212041Y0209606D02*
X0161309Y0209606D01*
X0161309Y0211205D02*
X0212041Y0211205D01*
X0212041Y0212803D02*
X0161309Y0212803D01*
X0161309Y0214402D02*
X0212041Y0214402D01*
X0212041Y0216001D02*
X0161309Y0216001D01*
X0161309Y0217599D02*
X0212041Y0217599D01*
X0212041Y0219198D02*
X0161309Y0219198D01*
X0161309Y0220796D02*
X0212041Y0220796D01*
X0212041Y0222395D02*
X0161309Y0222395D01*
X0161309Y0223993D02*
X0211752Y0223993D01*
X0217609Y0222395D02*
X0342241Y0222395D01*
X0342241Y0223993D02*
X0217898Y0223993D01*
X0217609Y0220796D02*
X0274099Y0220796D01*
X0273788Y0219198D02*
X0217609Y0219198D01*
X0217609Y0217599D02*
X0273666Y0217599D01*
X0274099Y0216001D02*
X0217609Y0216001D01*
X0217609Y0214402D02*
X0274941Y0214402D01*
X0318636Y0212803D02*
X0217609Y0212803D01*
X0217609Y0211205D02*
X0318627Y0211205D01*
X0318617Y0209606D02*
X0217609Y0209606D01*
X0217609Y0208008D02*
X0318608Y0208008D01*
X0318599Y0206409D02*
X0217609Y0206409D01*
X0217609Y0204811D02*
X0318590Y0204811D01*
X0318581Y0203212D02*
X0217609Y0203212D01*
X0217609Y0201614D02*
X0318571Y0201614D01*
X0318562Y0200015D02*
X0217609Y0200015D01*
X0217609Y0198417D02*
X0318553Y0198417D01*
X0318544Y0196818D02*
X0217609Y0196818D01*
X0217771Y0195220D02*
X0318535Y0195220D01*
X0318525Y0193621D02*
X0217871Y0193621D01*
X0216894Y0192023D02*
X0318516Y0192023D01*
X0327085Y0192023D02*
X0389725Y0192023D01*
X0389725Y0193621D02*
X0327094Y0193621D01*
X0327103Y0195220D02*
X0389725Y0195220D01*
X0389725Y0196818D02*
X0327112Y0196818D01*
X0327122Y0198417D02*
X0389725Y0198417D01*
X0389725Y0200015D02*
X0380625Y0200015D01*
X0380625Y0201614D02*
X0389725Y0201614D01*
X0389725Y0203212D02*
X0380625Y0203212D01*
X0380625Y0204811D02*
X0389725Y0204811D01*
X0389725Y0206409D02*
X0380625Y0206409D01*
X0380625Y0208008D02*
X0389725Y0208008D01*
X0389725Y0209606D02*
X0380625Y0209606D01*
X0380625Y0211205D02*
X0389725Y0211205D01*
X0389725Y0212803D02*
X0380625Y0212803D01*
X0380625Y0214402D02*
X0389725Y0214402D01*
X0389725Y0216001D02*
X0365854Y0216001D01*
X0365854Y0217599D02*
X0389725Y0217599D01*
X0389725Y0219198D02*
X0365854Y0219198D01*
X0365854Y0220796D02*
X0389725Y0220796D01*
X0389725Y0222395D02*
X0366070Y0222395D01*
X0367249Y0223993D02*
X0389725Y0223993D01*
X0389725Y0225592D02*
X0367613Y0225592D01*
X0367369Y0227190D02*
X0389725Y0227190D01*
X0389725Y0228789D02*
X0366361Y0228789D01*
X0366032Y0230387D02*
X0389725Y0230387D01*
X0389725Y0231986D02*
X0367254Y0231986D01*
X0367629Y0233584D02*
X0389725Y0233584D01*
X0389725Y0235183D02*
X0367394Y0235183D01*
X0367310Y0235442D02*
X0366998Y0236053D01*
X0366595Y0236608D01*
X0366110Y0237093D01*
X0365555Y0237497D01*
X0364990Y0237784D01*
X0365555Y0238072D01*
X0366110Y0238475D01*
X0366595Y0238960D01*
X0366998Y0239515D01*
X0367310Y0240127D01*
X0367522Y0240779D01*
X0367629Y0241457D01*
X0367629Y0241800D01*
X0367629Y0242143D01*
X0367522Y0242821D01*
X0367310Y0243473D01*
X0366998Y0244085D01*
X0366595Y0244640D01*
X0366110Y0245125D01*
X0365555Y0245528D01*
X0364943Y0245840D01*
X0364291Y0246052D01*
X0363613Y0246159D01*
X0363270Y0246159D01*
X0362927Y0246159D01*
X0362249Y0246052D01*
X0361597Y0245840D01*
X0360985Y0245528D01*
X0360430Y0245125D01*
X0359945Y0244640D01*
X0359542Y0244085D01*
X0359230Y0243473D01*
X0359018Y0242821D01*
X0358911Y0242143D01*
X0358911Y0241800D01*
X0363270Y0241800D01*
X0363270Y0241800D01*
X0358911Y0241800D01*
X0358911Y0241457D01*
X0359018Y0240779D01*
X0359230Y0240127D01*
X0359542Y0239515D01*
X0359945Y0238960D01*
X0360430Y0238475D01*
X0360985Y0238072D01*
X0361550Y0237784D01*
X0360985Y0237497D01*
X0360430Y0237093D01*
X0359945Y0236608D01*
X0359542Y0236053D01*
X0359230Y0235442D01*
X0359018Y0234789D01*
X0358911Y0234112D01*
X0358911Y0233769D01*
X0363270Y0233769D01*
X0363270Y0238128D01*
X0363270Y0241800D01*
X0363270Y0246159D01*
X0363270Y0241800D01*
X0363270Y0241800D01*
X0363270Y0241800D01*
X0363270Y0233769D01*
X0363270Y0233769D01*
X0363270Y0233768D01*
X0363270Y0233769D01*
X0367629Y0233769D01*
X0367629Y0234112D01*
X0367522Y0234789D01*
X0367310Y0235442D01*
X0366422Y0236781D02*
X0389725Y0236781D01*
X0389725Y0238380D02*
X0365978Y0238380D01*
X0367234Y0239978D02*
X0389725Y0239978D01*
X0389725Y0241577D02*
X0367629Y0241577D01*
X0367629Y0241800D02*
X0363270Y0241800D01*
X0367629Y0241800D01*
X0367407Y0243175D02*
X0389725Y0243175D01*
X0389725Y0244774D02*
X0366461Y0244774D01*
X0363270Y0244774D02*
X0363270Y0244774D01*
X0363270Y0243175D02*
X0363270Y0243175D01*
X0363270Y0241800D02*
X0363270Y0241800D01*
X0363270Y0241577D02*
X0363270Y0241577D01*
X0363270Y0239978D02*
X0363270Y0239978D01*
X0363270Y0238380D02*
X0363270Y0238380D01*
X0363270Y0236781D02*
X0363270Y0236781D01*
X0363270Y0235183D02*
X0363270Y0235183D01*
X0360118Y0236781D02*
X0357523Y0236781D01*
X0357613Y0238380D02*
X0360562Y0238380D01*
X0359306Y0239978D02*
X0357095Y0239978D01*
X0355654Y0241577D02*
X0358911Y0241577D01*
X0359134Y0243175D02*
X0093672Y0243175D01*
X0093532Y0242836D02*
X0093925Y0243786D01*
X0093925Y0268716D01*
X0094051Y0268768D01*
X0095397Y0270114D01*
X0096125Y0271872D01*
X0096125Y0273775D01*
X0095397Y0275534D01*
X0094215Y0276716D01*
X0098467Y0276716D01*
X0097285Y0275534D01*
X0096557Y0273775D01*
X0096557Y0271872D01*
X0097285Y0270114D01*
X0098631Y0268768D01*
X0100389Y0268039D01*
X0102293Y0268039D01*
X0104051Y0268768D01*
X0105397Y0270114D01*
X0106125Y0271872D01*
X0106125Y0273775D01*
X0105694Y0274816D01*
X0106609Y0273901D01*
X0106557Y0273775D01*
X0106557Y0271872D01*
X0107285Y0270114D01*
X0108631Y0268768D01*
X0110389Y0268039D01*
X0112293Y0268039D01*
X0114051Y0268768D01*
X0115397Y0270114D01*
X0116125Y0271872D01*
X0116125Y0273775D01*
X0116073Y0273901D01*
X0116988Y0274816D01*
X0116557Y0273775D01*
X0116557Y0271872D01*
X0117285Y0270114D01*
X0118631Y0268768D01*
X0120389Y0268039D01*
X0122293Y0268039D01*
X0124051Y0268768D01*
X0125397Y0270114D01*
X0126125Y0271872D01*
X0126125Y0273775D01*
X0125397Y0275534D01*
X0124215Y0276716D01*
X0128467Y0276716D01*
X0127285Y0275534D01*
X0126557Y0273775D01*
X0126557Y0271872D01*
X0127285Y0270114D01*
X0128631Y0268768D01*
X0130389Y0268039D01*
X0132293Y0268039D01*
X0134051Y0268768D01*
X0135397Y0270114D01*
X0136125Y0271872D01*
X0136125Y0273775D01*
X0135397Y0275534D01*
X0134215Y0276716D01*
X0138467Y0276716D01*
X0137285Y0275534D01*
X0136557Y0273775D01*
X0136557Y0271872D01*
X0137285Y0270114D01*
X0138631Y0268768D01*
X0140389Y0268039D01*
X0142293Y0268039D01*
X0144051Y0268768D01*
X0145397Y0270114D01*
X0146125Y0271872D01*
X0146125Y0273775D01*
X0145397Y0275534D01*
X0144215Y0276716D01*
X0148467Y0276716D01*
X0147285Y0275534D01*
X0146557Y0273775D01*
X0146557Y0271872D01*
X0147285Y0270114D01*
X0148631Y0268768D01*
X0150389Y0268039D01*
X0152293Y0268039D01*
X0154051Y0268768D01*
X0155397Y0270114D01*
X0156125Y0271872D01*
X0156125Y0273775D01*
X0155397Y0275534D01*
X0154215Y0276716D01*
X0158467Y0276716D01*
X0157285Y0275534D01*
X0156557Y0273775D01*
X0156557Y0271872D01*
X0157285Y0270114D01*
X0158631Y0268768D01*
X0160389Y0268039D01*
X0162293Y0268039D01*
X0164051Y0268768D01*
X0165397Y0270114D01*
X0166125Y0271872D01*
X0166125Y0273775D01*
X0165397Y0275534D01*
X0164215Y0276716D01*
X0168467Y0276716D01*
X0167285Y0275534D01*
X0166557Y0273775D01*
X0166557Y0271872D01*
X0167285Y0270114D01*
X0168631Y0268768D01*
X0170389Y0268039D01*
X0172293Y0268039D01*
X0174051Y0268768D01*
X0175397Y0270114D01*
X0176125Y0271872D01*
X0176125Y0273775D01*
X0175397Y0275534D01*
X0174215Y0276716D01*
X0178467Y0276716D01*
X0177285Y0275534D01*
X0176557Y0273775D01*
X0176557Y0271872D01*
X0177285Y0270114D01*
X0178631Y0268768D01*
X0180389Y0268039D01*
X0182293Y0268039D01*
X0184051Y0268768D01*
X0185397Y0270114D01*
X0186125Y0271872D01*
X0186125Y0273775D01*
X0185397Y0275534D01*
X0184215Y0276716D01*
X0188467Y0276716D01*
X0187285Y0275534D01*
X0186557Y0273775D01*
X0186557Y0271872D01*
X0187285Y0270114D01*
X0188631Y0268768D01*
X0190389Y0268039D01*
X0192293Y0268039D01*
X0194051Y0268768D01*
X0195397Y0270114D01*
X0196125Y0271872D01*
X0196125Y0273775D01*
X0195397Y0275534D01*
X0194215Y0276716D01*
X0198467Y0276716D01*
X0197285Y0275534D01*
X0196557Y0273775D01*
X0196557Y0271872D01*
X0197285Y0270114D01*
X0198631Y0268768D01*
X0200389Y0268039D01*
X0202293Y0268039D01*
X0204051Y0268768D01*
X0205397Y0270114D01*
X0206125Y0271872D01*
X0206125Y0273775D01*
X0205397Y0275534D01*
X0204215Y0276716D01*
X0208467Y0276716D01*
X0207285Y0275534D01*
X0206557Y0273775D01*
X0206557Y0271872D01*
X0207285Y0270114D01*
X0208631Y0268768D01*
X0210389Y0268039D01*
X0212293Y0268039D01*
X0214051Y0268768D01*
X0215397Y0270114D01*
X0216125Y0271872D01*
X0216125Y0273775D01*
X0215694Y0274816D01*
X0216609Y0273901D01*
X0216557Y0273775D01*
X0216557Y0271872D01*
X0217285Y0270114D01*
X0218631Y0268768D01*
X0220389Y0268039D01*
X0222293Y0268039D01*
X0224051Y0268768D01*
X0225397Y0270114D01*
X0226125Y0271872D01*
X0226125Y0273775D01*
X0225397Y0275534D01*
X0224051Y0276880D01*
X0222293Y0277608D01*
X0220389Y0277608D01*
X0220263Y0277556D01*
X0217055Y0280764D01*
X0216328Y0281491D01*
X0215379Y0281884D01*
X0117303Y0281884D01*
X0116353Y0281491D01*
X0115627Y0280764D01*
X0112418Y0277556D01*
X0112293Y0277608D01*
X0110389Y0277608D01*
X0110263Y0277556D01*
X0106328Y0281491D01*
X0105379Y0281884D01*
X0089311Y0281884D01*
X0088361Y0281491D01*
X0084661Y0277791D01*
X0083934Y0277064D01*
X0083886Y0276948D01*
X0082293Y0277608D01*
X0080389Y0277608D01*
X0079219Y0277123D01*
X0076544Y0279799D01*
X0075594Y0280192D01*
X0067088Y0280192D01*
X0066138Y0279799D01*
X0064366Y0278027D01*
X0063972Y0277077D01*
X0063972Y0262102D01*
X0063755Y0261884D01*
X0030947Y0261884D01*
X0029997Y0261491D01*
X0015988Y0247481D01*
X0015594Y0246532D01*
X0015594Y0245503D01*
X0015594Y0243097D01*
X0015594Y0242068D01*
X0015988Y0241119D01*
X0018417Y0238690D01*
X0018417Y0238690D01*
X0019144Y0237963D01*
X0020094Y0237569D01*
X0026622Y0237569D01*
X0029399Y0234792D01*
X0029399Y0233475D01*
X0030030Y0231951D01*
X0031197Y0230785D01*
X0032721Y0230154D01*
X0034370Y0230154D01*
X0035894Y0230785D01*
X0037061Y0231951D01*
X0037692Y0233475D01*
X0037692Y0235125D01*
X0037061Y0236649D01*
X0035894Y0237815D01*
X0034370Y0238446D01*
X0033054Y0238446D01*
X0029883Y0241617D01*
X0029785Y0241716D01*
X0091855Y0241716D01*
X0092805Y0242109D01*
X0093532Y0242836D01*
X0093925Y0244774D02*
X0360079Y0244774D01*
X0364025Y0248969D02*
X0364494Y0248500D01*
X0380157Y0248500D01*
X0380625Y0248969D01*
X0380625Y0264631D01*
X0380157Y0265100D01*
X0364494Y0265100D01*
X0364025Y0264631D01*
X0364025Y0248969D01*
X0364025Y0249569D02*
X0093925Y0249569D01*
X0093925Y0247971D02*
X0389725Y0247971D01*
X0389725Y0249569D02*
X0380625Y0249569D01*
X0380625Y0251168D02*
X0389725Y0251168D01*
X0389725Y0252766D02*
X0380625Y0252766D01*
X0380625Y0254365D02*
X0389725Y0254365D01*
X0389725Y0255963D02*
X0380625Y0255963D01*
X0380625Y0257562D02*
X0389725Y0257562D01*
X0389725Y0259160D02*
X0380625Y0259160D01*
X0380625Y0260759D02*
X0389725Y0260759D01*
X0389725Y0262357D02*
X0380625Y0262357D01*
X0380625Y0263956D02*
X0389725Y0263956D01*
X0389725Y0265554D02*
X0348971Y0265554D01*
X0349945Y0265957D02*
X0352223Y0268236D01*
X0353456Y0271213D01*
X0353456Y0274435D01*
X0352223Y0277411D01*
X0349945Y0279690D01*
X0346968Y0280923D01*
X0343746Y0280923D01*
X0340769Y0279690D01*
X0338491Y0277411D01*
X0337257Y0274435D01*
X0337257Y0271213D01*
X0338491Y0268236D01*
X0340769Y0265957D01*
X0343746Y0264724D01*
X0346968Y0264724D01*
X0349945Y0265957D01*
X0351140Y0267153D02*
X0389725Y0267153D01*
X0389725Y0268751D02*
X0379058Y0268751D01*
X0378936Y0268701D02*
X0381913Y0269934D01*
X0384191Y0272212D01*
X0385424Y0275189D01*
X0385424Y0278411D01*
X0384191Y0281388D01*
X0381913Y0283666D01*
X0378936Y0284899D01*
X0375714Y0284899D01*
X0372737Y0283666D01*
X0370459Y0281388D01*
X0369226Y0278411D01*
X0369226Y0275189D01*
X0370459Y0272212D01*
X0372737Y0269934D01*
X0375714Y0268701D01*
X0378936Y0268701D01*
X0375592Y0268751D02*
X0352436Y0268751D01*
X0353099Y0270350D02*
X0372321Y0270350D01*
X0370723Y0271948D02*
X0353456Y0271948D01*
X0353456Y0273547D02*
X0369906Y0273547D01*
X0369244Y0275145D02*
X0353161Y0275145D01*
X0352499Y0276744D02*
X0369226Y0276744D01*
X0369226Y0278342D02*
X0351292Y0278342D01*
X0349338Y0279941D02*
X0369860Y0279941D01*
X0370611Y0281539D02*
X0216211Y0281539D01*
X0217878Y0279941D02*
X0341375Y0279941D01*
X0339422Y0278342D02*
X0219477Y0278342D01*
X0214865Y0279300D02*
X0117817Y0279300D01*
X0111341Y0272824D01*
X0104865Y0279300D01*
X0089825Y0279300D01*
X0086125Y0275600D01*
X0086125Y0270842D01*
X0083323Y0268039D01*
X0079359Y0268039D01*
X0074575Y0272824D01*
X0071341Y0272824D01*
X0071341Y0258316D01*
X0067325Y0254300D01*
X0033546Y0254300D01*
X0031461Y0259300D02*
X0018179Y0246018D01*
X0018179Y0242582D01*
X0020608Y0240154D01*
X0027692Y0240154D01*
X0033546Y0234300D01*
X0034934Y0230387D02*
X0069741Y0230387D01*
X0069741Y0228789D02*
X0004925Y0228789D01*
X0004925Y0230387D02*
X0032157Y0230387D01*
X0030016Y0231986D02*
X0004925Y0231986D01*
X0004925Y0233584D02*
X0029399Y0233584D01*
X0029008Y0235183D02*
X0004925Y0235183D01*
X0004925Y0236781D02*
X0027410Y0236781D01*
X0031522Y0239978D02*
X0349445Y0239978D01*
X0348927Y0238380D02*
X0034532Y0238380D01*
X0036928Y0236781D02*
X0349017Y0236781D01*
X0349808Y0235183D02*
X0143166Y0235183D01*
X0143859Y0233584D02*
X0350980Y0233584D01*
X0353270Y0229831D02*
X0154925Y0229831D01*
X0154925Y0209300D01*
X0151941Y0209606D02*
X0144359Y0209606D01*
X0144359Y0208008D02*
X0151941Y0208008D01*
X0152892Y0206409D02*
X0144359Y0206409D01*
X0144359Y0204811D02*
X0155741Y0204811D01*
X0155741Y0203212D02*
X0144359Y0203212D01*
X0144359Y0211205D02*
X0151941Y0211205D01*
X0152341Y0212803D02*
X0144759Y0212803D01*
X0144759Y0214402D02*
X0152341Y0214402D01*
X0152341Y0216001D02*
X0144759Y0216001D01*
X0141775Y0214300D02*
X0141775Y0164300D01*
X0207325Y0164300D01*
X0207325Y0115600D01*
X0307325Y0115600D01*
X0307325Y0061643D01*
X0312653Y0059346D02*
X0313616Y0059346D01*
X0312653Y0057748D02*
X0359084Y0057748D01*
X0360632Y0047301D02*
X0360174Y0047178D01*
X0359763Y0046941D01*
X0359428Y0046606D01*
X0359191Y0046196D01*
X0359069Y0045738D01*
X0359068Y0042339D01*
X0364031Y0042339D01*
X0364031Y0047301D01*
X0360632Y0047301D01*
X0359401Y0046558D02*
X0312336Y0046558D01*
X0312653Y0048157D02*
X0389725Y0048157D01*
X0389725Y0049755D02*
X0312653Y0049755D01*
X0312653Y0051354D02*
X0389725Y0051354D01*
X0389725Y0052952D02*
X0312653Y0052952D01*
X0312653Y0054551D02*
X0389725Y0054551D01*
X0389725Y0056149D02*
X0312586Y0056149D01*
X0307325Y0051800D02*
X0299825Y0051800D01*
X0299825Y0111800D01*
X0203625Y0111800D01*
X0203625Y0161250D01*
X0138625Y0161250D01*
X0138625Y0211300D01*
X0136575Y0211300D01*
X0133591Y0211205D02*
X0074909Y0211205D01*
X0074909Y0212803D02*
X0133591Y0212803D01*
X0133591Y0209606D02*
X0074909Y0209606D01*
X0074909Y0208008D02*
X0136041Y0208008D01*
X0136041Y0206409D02*
X0074909Y0206409D01*
X0074909Y0204811D02*
X0136041Y0204811D01*
X0136041Y0203212D02*
X0074909Y0203212D01*
X0074909Y0201614D02*
X0136041Y0201614D01*
X0136041Y0200015D02*
X0074909Y0200015D01*
X0074909Y0198417D02*
X0136041Y0198417D01*
X0136041Y0196818D02*
X0074909Y0196818D01*
X0074909Y0195220D02*
X0136041Y0195220D01*
X0136041Y0193621D02*
X0074909Y0193621D01*
X0074909Y0192023D02*
X0136041Y0192023D01*
X0136041Y0190424D02*
X0074909Y0190424D01*
X0074909Y0188826D02*
X0136041Y0188826D01*
X0136041Y0187227D02*
X0074909Y0187227D01*
X0074909Y0185629D02*
X0136041Y0185629D01*
X0136041Y0184030D02*
X0074909Y0184030D01*
X0074909Y0182432D02*
X0136041Y0182432D01*
X0136041Y0180833D02*
X0125309Y0180833D01*
X0125309Y0179235D02*
X0136041Y0179235D01*
X0136041Y0177636D02*
X0125309Y0177636D01*
X0122325Y0179300D02*
X0085975Y0179300D01*
X0085975Y0126800D01*
X0075541Y0126484D02*
X0074909Y0126484D01*
X0074909Y0128082D02*
X0075541Y0128082D01*
X0075541Y0129681D02*
X0074909Y0129681D01*
X0074909Y0131279D02*
X0075541Y0131279D01*
X0075541Y0132878D02*
X0074909Y0132878D01*
X0074909Y0134476D02*
X0075541Y0134476D01*
X0075541Y0136075D02*
X0074909Y0136075D01*
X0074909Y0137673D02*
X0075541Y0137673D01*
X0075541Y0139272D02*
X0074909Y0139272D01*
X0074909Y0140870D02*
X0075541Y0140870D01*
X0075541Y0142469D02*
X0074909Y0142469D01*
X0074909Y0144068D02*
X0075541Y0144068D01*
X0075541Y0145666D02*
X0074909Y0145666D01*
X0074909Y0147265D02*
X0075541Y0147265D01*
X0075541Y0148863D02*
X0074909Y0148863D01*
X0074909Y0150462D02*
X0075541Y0150462D01*
X0075541Y0152060D02*
X0074909Y0152060D01*
X0074909Y0153659D02*
X0075541Y0153659D01*
X0075541Y0155257D02*
X0074909Y0155257D01*
X0074909Y0156856D02*
X0075541Y0156856D01*
X0075541Y0158454D02*
X0074909Y0158454D01*
X0074909Y0160053D02*
X0075541Y0160053D01*
X0075541Y0161651D02*
X0074909Y0161651D01*
X0074909Y0163250D02*
X0075541Y0163250D01*
X0075541Y0164848D02*
X0074909Y0164848D01*
X0074909Y0166447D02*
X0075541Y0166447D01*
X0075541Y0168045D02*
X0074909Y0168045D01*
X0074909Y0169644D02*
X0075541Y0169644D01*
X0075541Y0171242D02*
X0074909Y0171242D01*
X0074909Y0172841D02*
X0075541Y0172841D01*
X0075541Y0174439D02*
X0074909Y0174439D01*
X0074909Y0176038D02*
X0075541Y0176038D01*
X0075541Y0177636D02*
X0074909Y0177636D01*
X0074909Y0179235D02*
X0075974Y0179235D01*
X0074909Y0180833D02*
X0078367Y0180833D01*
X0081283Y0180833D02*
X0083854Y0180833D01*
X0088559Y0176038D02*
X0136041Y0176038D01*
X0136041Y0174439D02*
X0088559Y0174439D01*
X0088559Y0172841D02*
X0136041Y0172841D01*
X0136041Y0171242D02*
X0088559Y0171242D01*
X0088559Y0169644D02*
X0136041Y0169644D01*
X0134825Y0166250D02*
X0114825Y0166250D01*
X0089825Y0166250D01*
X0089825Y0166125D01*
X0091873Y0163250D02*
X0124341Y0163250D01*
X0124341Y0161651D02*
X0106011Y0161651D01*
X0105531Y0161850D02*
X0104119Y0161850D01*
X0102814Y0161310D01*
X0101816Y0160311D01*
X0101275Y0159006D01*
X0101275Y0157594D01*
X0101816Y0156289D01*
X0102814Y0155290D01*
X0104119Y0154750D01*
X0105531Y0154750D01*
X0106836Y0155290D01*
X0107835Y0156289D01*
X0108375Y0157594D01*
X0108375Y0159006D01*
X0107835Y0160311D01*
X0106836Y0161310D01*
X0105531Y0161850D01*
X0103639Y0161651D02*
X0088559Y0161651D01*
X0088559Y0160053D02*
X0101709Y0160053D01*
X0101275Y0158454D02*
X0088559Y0158454D01*
X0088559Y0156856D02*
X0101581Y0156856D01*
X0102895Y0155257D02*
X0088559Y0155257D01*
X0088559Y0153659D02*
X0103657Y0153659D01*
X0104119Y0153850D02*
X0102814Y0153310D01*
X0101816Y0152311D01*
X0101275Y0151006D01*
X0101275Y0149594D01*
X0101816Y0148289D01*
X0102814Y0147290D01*
X0104119Y0146750D01*
X0105531Y0146750D01*
X0106836Y0147290D01*
X0107835Y0148289D01*
X0108375Y0149594D01*
X0108375Y0151006D01*
X0107835Y0152311D01*
X0106836Y0153310D01*
X0105531Y0153850D01*
X0104119Y0153850D01*
X0105993Y0153659D02*
X0121275Y0153659D01*
X0121379Y0155257D02*
X0106756Y0155257D01*
X0108069Y0156856D02*
X0122360Y0156856D01*
X0124341Y0160053D02*
X0107942Y0160053D01*
X0108375Y0158454D02*
X0127241Y0158454D01*
X0132409Y0158454D02*
X0201041Y0158454D01*
X0201041Y0156856D02*
X0132409Y0156856D01*
X0132409Y0155257D02*
X0201041Y0155257D01*
X0201041Y0153659D02*
X0132409Y0153659D01*
X0132409Y0152060D02*
X0201041Y0152060D01*
X0201041Y0150462D02*
X0132409Y0150462D01*
X0132409Y0148863D02*
X0201041Y0148863D01*
X0201041Y0147265D02*
X0132409Y0147265D01*
X0132409Y0145666D02*
X0201041Y0145666D01*
X0201041Y0144068D02*
X0132730Y0144068D01*
X0129825Y0143050D02*
X0129825Y0161800D01*
X0127325Y0161800D01*
X0132022Y0163250D02*
X0136041Y0163250D01*
X0136041Y0161651D02*
X0132409Y0161651D01*
X0132409Y0160053D02*
X0136324Y0160053D01*
X0127241Y0150462D02*
X0108375Y0150462D01*
X0108072Y0148863D02*
X0127241Y0148863D01*
X0127241Y0147265D02*
X0106774Y0147265D01*
X0102877Y0147265D02*
X0088559Y0147265D01*
X0088559Y0148863D02*
X0101578Y0148863D01*
X0101275Y0150462D02*
X0088559Y0150462D01*
X0088559Y0152060D02*
X0101712Y0152060D01*
X0107939Y0152060D02*
X0122045Y0152060D01*
X0127241Y0145666D02*
X0088559Y0145666D01*
X0088559Y0144068D02*
X0109604Y0144068D01*
X0113047Y0144068D02*
X0126920Y0144068D01*
X0126752Y0142469D02*
X0114232Y0142469D01*
X0108741Y0139272D02*
X0107385Y0139272D01*
X0107638Y0137673D02*
X0108741Y0137673D01*
X0107945Y0136075D02*
X0106936Y0136075D01*
X0106347Y0134476D02*
X0104909Y0134476D01*
X0104909Y0132878D02*
X0104975Y0132878D01*
X0099741Y0118491D02*
X0084109Y0118491D01*
X0084109Y0116893D02*
X0099741Y0116893D01*
X0099741Y0115294D02*
X0084109Y0115294D01*
X0084109Y0113696D02*
X0099741Y0113696D01*
X0099741Y0112097D02*
X0084109Y0112097D01*
X0084109Y0110499D02*
X0099741Y0110499D01*
X0099741Y0108900D02*
X0084109Y0108900D01*
X0084109Y0107302D02*
X0099741Y0107302D01*
X0099741Y0105703D02*
X0084109Y0105703D01*
X0084109Y0104105D02*
X0099741Y0104105D01*
X0099741Y0102506D02*
X0084109Y0102506D01*
X0084109Y0100908D02*
X0099741Y0100908D01*
X0099741Y0099309D02*
X0084109Y0099309D01*
X0084109Y0097711D02*
X0099741Y0097711D01*
X0099741Y0096112D02*
X0084109Y0096112D01*
X0084109Y0094514D02*
X0099741Y0094514D01*
X0099461Y0092915D02*
X0084109Y0092915D01*
X0084109Y0091317D02*
X0099252Y0091317D01*
X0100061Y0089718D02*
X0084109Y0089718D01*
X0084109Y0088120D02*
X0102351Y0088120D01*
X0104169Y0086521D02*
X0084109Y0086521D01*
X0107325Y0094300D02*
X0108575Y0093050D01*
X0233575Y0093050D01*
X0235298Y0091327D01*
X0235298Y0091251D01*
X0237325Y0094300D02*
X0234825Y0096800D01*
X0238286Y0086521D02*
X0258503Y0086521D01*
X0260158Y0061712D02*
X0254492Y0061712D01*
X0253077Y0061126D01*
X0251993Y0060043D01*
X0251407Y0058627D01*
X0251407Y0057095D01*
X0251993Y0055680D01*
X0252624Y0055049D01*
X0251993Y0054419D01*
X0251407Y0053003D01*
X0251407Y0051471D01*
X0251993Y0050055D01*
X0253077Y0048972D01*
X0254492Y0048386D01*
X0260158Y0048386D01*
X0261574Y0048972D01*
X0262657Y0050055D01*
X0263243Y0051471D01*
X0263243Y0053003D01*
X0262657Y0054419D01*
X0262026Y0055049D01*
X0262657Y0055680D01*
X0263243Y0057095D01*
X0263243Y0058627D01*
X0262657Y0060043D01*
X0261574Y0061126D01*
X0260158Y0061712D01*
X0261755Y0060945D02*
X0297241Y0060945D01*
X0297241Y0062543D02*
X0209925Y0062543D01*
X0209925Y0060945D02*
X0252896Y0060945D01*
X0251705Y0059346D02*
X0209925Y0059346D01*
X0209925Y0057748D02*
X0251407Y0057748D01*
X0251799Y0056149D02*
X0209925Y0056149D01*
X0209925Y0054551D02*
X0252126Y0054551D01*
X0251407Y0052952D02*
X0209925Y0052952D01*
X0209925Y0051354D02*
X0251456Y0051354D01*
X0252294Y0049755D02*
X0209925Y0049755D01*
X0209925Y0048157D02*
X0301998Y0048157D01*
X0302314Y0046558D02*
X0209925Y0046558D01*
X0209925Y0044960D02*
X0301982Y0044960D01*
X0301982Y0043361D02*
X0262466Y0043361D01*
X0262657Y0043170D02*
X0261574Y0044254D01*
X0260158Y0044840D01*
X0254492Y0044840D01*
X0253077Y0044254D01*
X0251993Y0043170D01*
X0251407Y0041755D01*
X0251407Y0040223D01*
X0251993Y0038807D01*
X0253077Y0037724D01*
X0254492Y0037138D01*
X0260158Y0037138D01*
X0261574Y0037724D01*
X0262657Y0038807D01*
X0263243Y0040223D01*
X0263243Y0041755D01*
X0262657Y0043170D01*
X0263240Y0041763D02*
X0306944Y0041763D01*
X0306944Y0041576D02*
X0301982Y0041576D01*
X0301982Y0038177D01*
X0302105Y0037719D01*
X0302342Y0037309D01*
X0302677Y0036974D01*
X0303087Y0036737D01*
X0303545Y0036614D01*
X0306944Y0036614D01*
X0306944Y0041576D01*
X0307706Y0041763D02*
X0364031Y0041763D01*
X0364031Y0041576D02*
X0359069Y0041576D01*
X0359069Y0038177D01*
X0359191Y0037719D01*
X0359428Y0037309D01*
X0359763Y0036974D01*
X0360174Y0036737D01*
X0360632Y0036614D01*
X0364031Y0036614D01*
X0364031Y0041576D01*
X0364793Y0041576D01*
X0364793Y0036614D01*
X0368192Y0036614D01*
X0368650Y0036737D01*
X0369060Y0036974D01*
X0369395Y0037309D01*
X0369632Y0037719D01*
X0369755Y0038177D01*
X0369755Y0041576D01*
X0364793Y0041576D01*
X0364793Y0042339D01*
X0364031Y0042339D01*
X0364031Y0041576D01*
X0364793Y0041763D02*
X0389725Y0041763D01*
X0389725Y0043361D02*
X0369755Y0043361D01*
X0369755Y0042339D02*
X0369755Y0045738D01*
X0369632Y0046196D01*
X0369395Y0046606D01*
X0369060Y0046941D01*
X0368650Y0047178D01*
X0368192Y0047301D01*
X0364793Y0047301D01*
X0364793Y0042339D01*
X0369755Y0042339D01*
X0369755Y0040164D02*
X0389725Y0040164D01*
X0389725Y0038566D02*
X0369755Y0038566D01*
X0369049Y0036967D02*
X0389725Y0036967D01*
X0389725Y0035369D02*
X0346149Y0035369D01*
X0346149Y0033770D02*
X0389725Y0033770D01*
X0389725Y0032172D02*
X0346149Y0032172D01*
X0346149Y0030573D02*
X0389725Y0030573D01*
X0389725Y0028975D02*
X0346149Y0028975D01*
X0346149Y0027376D02*
X0389725Y0027376D01*
X0389725Y0025778D02*
X0346149Y0025778D01*
X0359775Y0036967D02*
X0311962Y0036967D01*
X0312668Y0038566D02*
X0359069Y0038566D01*
X0359069Y0040164D02*
X0312668Y0040164D01*
X0312668Y0043361D02*
X0359069Y0043361D01*
X0359069Y0044960D02*
X0312668Y0044960D01*
X0307706Y0040164D02*
X0306944Y0040164D01*
X0306944Y0038566D02*
X0307706Y0038566D01*
X0307706Y0036967D02*
X0306944Y0036967D01*
X0302688Y0036967D02*
X0209925Y0036967D01*
X0209925Y0035369D02*
X0327557Y0035369D01*
X0327557Y0033770D02*
X0293067Y0033770D01*
X0292879Y0033800D02*
X0293579Y0033689D01*
X0294253Y0033470D01*
X0294884Y0033149D01*
X0295457Y0032732D01*
X0295958Y0032232D01*
X0296374Y0031659D01*
X0296695Y0031027D01*
X0296914Y0030354D01*
X0297025Y0029654D01*
X0297025Y0029400D01*
X0289925Y0029400D01*
X0289725Y0029400D01*
X0289725Y0029200D01*
X0282625Y0029200D01*
X0282625Y0028946D01*
X0282736Y0028246D01*
X0282955Y0027573D01*
X0283276Y0026941D01*
X0283693Y0026368D01*
X0284194Y0025868D01*
X0284767Y0025451D01*
X0285398Y0025130D01*
X0286071Y0024911D01*
X0286771Y0024800D01*
X0289725Y0024800D01*
X0289725Y0029200D01*
X0289925Y0029200D01*
X0289925Y0024800D01*
X0292879Y0024800D01*
X0293579Y0024911D01*
X0294253Y0025130D01*
X0294884Y0025451D01*
X0295457Y0025868D01*
X0295958Y0026368D01*
X0296374Y0026941D01*
X0296695Y0027573D01*
X0296914Y0028246D01*
X0297025Y0028946D01*
X0297025Y0029200D01*
X0289925Y0029200D01*
X0289925Y0029400D01*
X0289925Y0033800D01*
X0292879Y0033800D01*
X0289925Y0033770D02*
X0289725Y0033770D01*
X0289725Y0033800D02*
X0286771Y0033800D01*
X0286071Y0033689D01*
X0285398Y0033470D01*
X0284767Y0033149D01*
X0284194Y0032732D01*
X0283693Y0032232D01*
X0283276Y0031659D01*
X0282955Y0031027D01*
X0282736Y0030354D01*
X0282625Y0029654D01*
X0282625Y0029400D01*
X0289725Y0029400D01*
X0289725Y0033800D01*
X0289725Y0032172D02*
X0289925Y0032172D01*
X0289925Y0030573D02*
X0289725Y0030573D01*
X0289725Y0028975D02*
X0289925Y0028975D01*
X0289925Y0027376D02*
X0289725Y0027376D01*
X0289725Y0025778D02*
X0289925Y0025778D01*
X0295333Y0025778D02*
X0327557Y0025778D01*
X0327557Y0027376D02*
X0296595Y0027376D01*
X0297025Y0028975D02*
X0327557Y0028975D01*
X0327557Y0030573D02*
X0296843Y0030573D01*
X0296001Y0032172D02*
X0327557Y0032172D01*
X0327557Y0024179D02*
X0209925Y0024179D01*
X0209925Y0022581D02*
X0284064Y0022581D01*
X0282968Y0020982D02*
X0209925Y0020982D01*
X0209925Y0019384D02*
X0282641Y0019384D01*
X0282899Y0017785D02*
X0209925Y0017785D01*
X0209885Y0016187D02*
X0283897Y0016187D01*
X0284317Y0025778D02*
X0209925Y0025778D01*
X0209925Y0027376D02*
X0283055Y0027376D01*
X0282625Y0028975D02*
X0209925Y0028975D01*
X0209925Y0030573D02*
X0282807Y0030573D01*
X0283649Y0032172D02*
X0209925Y0032172D01*
X0209925Y0033770D02*
X0286583Y0033770D01*
X0295586Y0022581D02*
X0327557Y0022581D01*
X0327557Y0020982D02*
X0296682Y0020982D01*
X0297009Y0019384D02*
X0327557Y0019384D01*
X0301982Y0038566D02*
X0262415Y0038566D01*
X0263219Y0040164D02*
X0301982Y0040164D01*
X0298215Y0049755D02*
X0262357Y0049755D01*
X0263195Y0051354D02*
X0297241Y0051354D01*
X0297241Y0052952D02*
X0263243Y0052952D01*
X0262525Y0054551D02*
X0297241Y0054551D01*
X0297241Y0056149D02*
X0262852Y0056149D01*
X0263243Y0057748D02*
X0297241Y0057748D01*
X0297241Y0059346D02*
X0262945Y0059346D01*
X0252184Y0043361D02*
X0209925Y0043361D01*
X0209925Y0041763D02*
X0251410Y0041763D01*
X0251431Y0040164D02*
X0209925Y0040164D01*
X0209925Y0038566D02*
X0252235Y0038566D01*
X0209925Y0064142D02*
X0297241Y0064142D01*
X0297241Y0065740D02*
X0209925Y0065740D01*
X0209925Y0067339D02*
X0297241Y0067339D01*
X0297241Y0068937D02*
X0209925Y0068937D01*
X0209925Y0070536D02*
X0297241Y0070536D01*
X0297241Y0072134D02*
X0209925Y0072134D01*
X0209925Y0073733D02*
X0297241Y0073733D01*
X0297241Y0075332D02*
X0209925Y0075332D01*
X0209925Y0076930D02*
X0297241Y0076930D01*
X0297241Y0078529D02*
X0209925Y0078529D01*
X0209925Y0080127D02*
X0297241Y0080127D01*
X0297241Y0081726D02*
X0209925Y0081726D01*
X0209478Y0083324D02*
X0297241Y0083324D01*
X0317409Y0088120D02*
X0327957Y0088120D01*
X0326872Y0089718D02*
X0317409Y0089718D01*
X0317409Y0091317D02*
X0326604Y0091317D01*
X0326604Y0092915D02*
X0317409Y0092915D01*
X0317409Y0094514D02*
X0326604Y0094514D01*
X0326604Y0096112D02*
X0317409Y0096112D01*
X0317409Y0097711D02*
X0327006Y0097711D01*
X0328281Y0099309D02*
X0317409Y0099309D01*
X0317409Y0104105D02*
X0371027Y0104105D01*
X0370412Y0113696D02*
X0326635Y0113696D01*
X0326644Y0115294D02*
X0371991Y0115294D01*
X0389725Y0084923D02*
X0345883Y0084923D01*
X0346149Y0083324D02*
X0389725Y0083324D01*
X0389725Y0081726D02*
X0346149Y0081726D01*
X0346149Y0080127D02*
X0389725Y0080127D01*
X0389725Y0078529D02*
X0346149Y0078529D01*
X0346149Y0076930D02*
X0389725Y0076930D01*
X0389725Y0075332D02*
X0346149Y0075332D01*
X0346149Y0073733D02*
X0389725Y0073733D01*
X0389725Y0072134D02*
X0346149Y0072134D01*
X0346149Y0070536D02*
X0389725Y0070536D01*
X0389725Y0068937D02*
X0346149Y0068937D01*
X0345332Y0067339D02*
X0389725Y0067339D01*
X0389725Y0065740D02*
X0369739Y0065740D01*
X0369739Y0064142D02*
X0389725Y0064142D01*
X0389725Y0062543D02*
X0369739Y0062543D01*
X0369739Y0060945D02*
X0389725Y0060945D01*
X0389725Y0059346D02*
X0369739Y0059346D01*
X0369739Y0057748D02*
X0389725Y0057748D01*
X0389725Y0046558D02*
X0369423Y0046558D01*
X0369755Y0044960D02*
X0389725Y0044960D01*
X0364793Y0044960D02*
X0364031Y0044960D01*
X0364031Y0046558D02*
X0364793Y0046558D01*
X0364793Y0043361D02*
X0364031Y0043361D01*
X0364031Y0040164D02*
X0364793Y0040164D01*
X0364793Y0038566D02*
X0364031Y0038566D01*
X0364031Y0036967D02*
X0364793Y0036967D01*
X0294825Y0099300D02*
X0294825Y0106800D01*
X0317409Y0107302D02*
X0318474Y0107302D01*
X0318039Y0108900D02*
X0317409Y0108900D01*
X0317409Y0110499D02*
X0318048Y0110499D01*
X0318052Y0112097D02*
X0317409Y0112097D01*
X0317409Y0113696D02*
X0318066Y0113696D01*
X0318075Y0115294D02*
X0317409Y0115294D01*
X0317409Y0116893D02*
X0318085Y0116893D01*
X0318094Y0118491D02*
X0317409Y0118491D01*
X0317295Y0120090D02*
X0318103Y0120090D01*
X0318112Y0121688D02*
X0315812Y0121688D01*
X0317409Y0105703D02*
X0319265Y0105703D01*
X0287325Y0139300D02*
X0284825Y0136800D01*
X0219825Y0136800D01*
X0216861Y0137673D02*
X0214259Y0137673D01*
X0214259Y0136075D02*
X0216799Y0136075D01*
X0217578Y0134476D02*
X0214259Y0134476D01*
X0219825Y0131800D02*
X0242275Y0131800D01*
X0242275Y0127900D02*
X0219825Y0127900D01*
X0217951Y0139272D02*
X0214259Y0139272D01*
X0214259Y0140870D02*
X0284741Y0140870D01*
X0284741Y0142469D02*
X0214259Y0142469D01*
X0214259Y0144068D02*
X0284741Y0144068D01*
X0284417Y0145666D02*
X0214259Y0145666D01*
X0214259Y0147265D02*
X0283232Y0147265D01*
X0282841Y0148863D02*
X0214259Y0148863D01*
X0214259Y0150462D02*
X0282841Y0150462D01*
X0282841Y0152060D02*
X0214259Y0152060D01*
X0214259Y0153659D02*
X0282841Y0153659D01*
X0282841Y0155257D02*
X0214259Y0155257D01*
X0214259Y0156856D02*
X0283447Y0156856D01*
X0285153Y0158454D02*
X0214259Y0158454D01*
X0214259Y0160053D02*
X0318333Y0160053D01*
X0318342Y0161651D02*
X0214259Y0161651D01*
X0214259Y0163250D02*
X0318351Y0163250D01*
X0318360Y0164848D02*
X0214259Y0164848D01*
X0214259Y0166447D02*
X0318369Y0166447D01*
X0318378Y0168045D02*
X0214259Y0168045D01*
X0213786Y0169644D02*
X0318388Y0169644D01*
X0318397Y0171242D02*
X0183556Y0171242D01*
X0176140Y0140870D02*
X0173511Y0140870D01*
X0174737Y0139272D02*
X0174913Y0139272D01*
X0174852Y0134476D02*
X0174799Y0134476D01*
X0173659Y0132878D02*
X0175991Y0132878D01*
X0107325Y0114300D02*
X0107325Y0094300D01*
X0072325Y0117925D02*
X0072325Y0232550D01*
X0140875Y0232550D01*
X0143859Y0231986D02*
X0153425Y0231986D01*
X0152358Y0230387D02*
X0143636Y0230387D01*
X0138585Y0235183D02*
X0037668Y0235183D01*
X0037692Y0233584D02*
X0069956Y0233584D01*
X0069741Y0231986D02*
X0037075Y0231986D01*
X0029924Y0241577D02*
X0350886Y0241577D01*
X0356732Y0235183D02*
X0359146Y0235183D01*
X0358911Y0233584D02*
X0355560Y0233584D01*
X0357079Y0231986D02*
X0359286Y0231986D01*
X0360508Y0230387D02*
X0357613Y0230387D01*
X0357539Y0228789D02*
X0360179Y0228789D01*
X0359171Y0227190D02*
X0356771Y0227190D01*
X0355466Y0225592D02*
X0358927Y0225592D01*
X0359291Y0223993D02*
X0357063Y0223993D01*
X0357613Y0222395D02*
X0360470Y0222395D01*
X0360686Y0220796D02*
X0357555Y0220796D01*
X0356810Y0219198D02*
X0360686Y0219198D01*
X0360686Y0217599D02*
X0354478Y0217599D01*
X0352062Y0217599D02*
X0347409Y0217599D01*
X0347409Y0219198D02*
X0349730Y0219198D01*
X0348985Y0220796D02*
X0347409Y0220796D01*
X0347409Y0222395D02*
X0348927Y0222395D01*
X0349477Y0223993D02*
X0347409Y0223993D01*
X0347409Y0225592D02*
X0351074Y0225592D01*
X0349769Y0227190D02*
X0347409Y0227190D01*
X0344825Y0226800D02*
X0158725Y0226800D01*
X0158725Y0204950D01*
X0138791Y0214402D02*
X0074909Y0214402D01*
X0074909Y0216001D02*
X0138791Y0216001D01*
X0152341Y0217599D02*
X0074909Y0217599D01*
X0074909Y0219198D02*
X0152341Y0219198D01*
X0152341Y0220796D02*
X0074909Y0220796D01*
X0074909Y0222395D02*
X0152341Y0222395D01*
X0152341Y0223993D02*
X0074909Y0223993D01*
X0074909Y0225592D02*
X0152341Y0225592D01*
X0152341Y0227190D02*
X0074909Y0227190D01*
X0074909Y0228789D02*
X0152341Y0228789D01*
X0154012Y0268751D02*
X0158670Y0268751D01*
X0157187Y0270350D02*
X0155495Y0270350D01*
X0156125Y0271948D02*
X0156557Y0271948D01*
X0156557Y0273547D02*
X0156125Y0273547D01*
X0155558Y0275145D02*
X0157124Y0275145D01*
X0165558Y0275145D02*
X0167124Y0275145D01*
X0166557Y0273547D02*
X0166125Y0273547D01*
X0166125Y0271948D02*
X0166557Y0271948D01*
X0167187Y0270350D02*
X0165495Y0270350D01*
X0164012Y0268751D02*
X0168670Y0268751D01*
X0174012Y0268751D02*
X0178670Y0268751D01*
X0177187Y0270350D02*
X0175495Y0270350D01*
X0176125Y0271948D02*
X0176557Y0271948D01*
X0176557Y0273547D02*
X0176125Y0273547D01*
X0175558Y0275145D02*
X0177124Y0275145D01*
X0185558Y0275145D02*
X0187124Y0275145D01*
X0186557Y0273547D02*
X0186125Y0273547D01*
X0186125Y0271948D02*
X0186557Y0271948D01*
X0187187Y0270350D02*
X0185495Y0270350D01*
X0184012Y0268751D02*
X0188670Y0268751D01*
X0194012Y0268751D02*
X0198670Y0268751D01*
X0197187Y0270350D02*
X0195495Y0270350D01*
X0196125Y0271948D02*
X0196557Y0271948D01*
X0196557Y0273547D02*
X0196125Y0273547D01*
X0195558Y0275145D02*
X0197124Y0275145D01*
X0205558Y0275145D02*
X0207124Y0275145D01*
X0206557Y0273547D02*
X0206125Y0273547D01*
X0206125Y0271948D02*
X0206557Y0271948D01*
X0207187Y0270350D02*
X0205495Y0270350D01*
X0204012Y0268751D02*
X0208670Y0268751D01*
X0214012Y0268751D02*
X0218670Y0268751D01*
X0217187Y0270350D02*
X0215495Y0270350D01*
X0216125Y0271948D02*
X0216557Y0271948D01*
X0216557Y0273547D02*
X0216125Y0273547D01*
X0221341Y0272824D02*
X0214865Y0279300D01*
X0224187Y0276744D02*
X0338214Y0276744D01*
X0337552Y0275145D02*
X0225558Y0275145D01*
X0226125Y0273547D02*
X0250377Y0273547D01*
X0249785Y0273302D02*
X0248524Y0272040D01*
X0247841Y0270392D01*
X0247841Y0263208D01*
X0248524Y0261560D01*
X0249785Y0260298D01*
X0251433Y0259616D01*
X0253217Y0259616D01*
X0254865Y0260298D01*
X0256127Y0261560D01*
X0256809Y0263208D01*
X0256809Y0270392D01*
X0256127Y0272040D01*
X0254865Y0273302D01*
X0253217Y0273984D01*
X0251433Y0273984D01*
X0249785Y0273302D01*
X0248486Y0271948D02*
X0226125Y0271948D01*
X0225495Y0270350D02*
X0247841Y0270350D01*
X0247841Y0268751D02*
X0224012Y0268751D01*
X0247841Y0267153D02*
X0093925Y0267153D01*
X0093925Y0265554D02*
X0247841Y0265554D01*
X0247841Y0263956D02*
X0093925Y0263956D01*
X0093925Y0262357D02*
X0248193Y0262357D01*
X0249325Y0260759D02*
X0093925Y0260759D01*
X0093925Y0259160D02*
X0364025Y0259160D01*
X0364025Y0257562D02*
X0093925Y0257562D01*
X0093925Y0255963D02*
X0364025Y0255963D01*
X0364025Y0254365D02*
X0093925Y0254365D01*
X0093925Y0252766D02*
X0364025Y0252766D01*
X0364025Y0251168D02*
X0093925Y0251168D01*
X0093925Y0246372D02*
X0389725Y0246372D01*
X0364025Y0260759D02*
X0265348Y0260759D01*
X0265257Y0260668D02*
X0265758Y0261168D01*
X0266174Y0261741D01*
X0266495Y0262373D01*
X0266714Y0263046D01*
X0266825Y0263746D01*
X0266825Y0266700D01*
X0262425Y0266700D01*
X0262425Y0259600D01*
X0262679Y0259600D01*
X0263379Y0259711D01*
X0264053Y0259930D01*
X0264684Y0260251D01*
X0265257Y0260668D01*
X0266488Y0262357D02*
X0364025Y0262357D01*
X0364025Y0263956D02*
X0266825Y0263956D01*
X0266825Y0265554D02*
X0341742Y0265554D01*
X0339573Y0267153D02*
X0266825Y0267153D01*
X0266825Y0266900D02*
X0266825Y0269854D01*
X0266714Y0270554D01*
X0266495Y0271227D01*
X0266174Y0271859D01*
X0265758Y0272432D01*
X0265257Y0272932D01*
X0264684Y0273349D01*
X0264053Y0273670D01*
X0263379Y0273889D01*
X0262679Y0274000D01*
X0262425Y0274000D01*
X0262425Y0266900D01*
X0262225Y0266900D01*
X0262225Y0266700D01*
X0257825Y0266700D01*
X0257825Y0263746D01*
X0257936Y0263046D01*
X0258155Y0262373D01*
X0258476Y0261741D01*
X0258893Y0261168D01*
X0259394Y0260668D01*
X0259967Y0260251D01*
X0260598Y0259930D01*
X0261271Y0259711D01*
X0261971Y0259600D01*
X0262225Y0259600D01*
X0262225Y0266700D01*
X0262425Y0266700D01*
X0262425Y0266900D01*
X0266825Y0266900D01*
X0266825Y0268751D02*
X0338277Y0268751D01*
X0337615Y0270350D02*
X0266747Y0270350D01*
X0266109Y0271948D02*
X0337257Y0271948D01*
X0337257Y0273547D02*
X0264295Y0273547D01*
X0262425Y0273547D02*
X0262225Y0273547D01*
X0262225Y0274000D02*
X0261971Y0274000D01*
X0261271Y0273889D01*
X0260598Y0273670D01*
X0259967Y0273349D01*
X0259394Y0272932D01*
X0258893Y0272432D01*
X0258476Y0271859D01*
X0258155Y0271227D01*
X0257936Y0270554D01*
X0257825Y0269854D01*
X0257825Y0266900D01*
X0262225Y0266900D01*
X0262225Y0274000D01*
X0260356Y0273547D02*
X0254273Y0273547D01*
X0256165Y0271948D02*
X0258542Y0271948D01*
X0257904Y0270350D02*
X0256809Y0270350D01*
X0256809Y0268751D02*
X0257825Y0268751D01*
X0257825Y0267153D02*
X0256809Y0267153D01*
X0256809Y0265554D02*
X0257825Y0265554D01*
X0257825Y0263956D02*
X0256809Y0263956D01*
X0256457Y0262357D02*
X0258163Y0262357D01*
X0259302Y0260759D02*
X0255326Y0260759D01*
X0262225Y0260759D02*
X0262425Y0260759D01*
X0262425Y0262357D02*
X0262225Y0262357D01*
X0262225Y0263956D02*
X0262425Y0263956D01*
X0262425Y0265554D02*
X0262225Y0265554D01*
X0262225Y0267153D02*
X0262425Y0267153D01*
X0262425Y0268751D02*
X0262225Y0268751D01*
X0262225Y0270350D02*
X0262425Y0270350D01*
X0262425Y0271948D02*
X0262225Y0271948D01*
X0326263Y0220796D02*
X0342241Y0220796D01*
X0342241Y0219198D02*
X0327112Y0219198D01*
X0327234Y0217599D02*
X0342241Y0217599D01*
X0342241Y0216001D02*
X0327223Y0216001D01*
X0327214Y0214402D02*
X0342241Y0214402D01*
X0342667Y0212803D02*
X0327204Y0212803D01*
X0327195Y0211205D02*
X0364025Y0211205D01*
X0364025Y0209606D02*
X0327186Y0209606D01*
X0327177Y0208008D02*
X0364025Y0208008D01*
X0364025Y0206409D02*
X0327168Y0206409D01*
X0327158Y0204811D02*
X0364025Y0204811D01*
X0364025Y0203212D02*
X0327149Y0203212D01*
X0327140Y0201614D02*
X0364025Y0201614D01*
X0364025Y0200015D02*
X0327131Y0200015D01*
X0327076Y0190424D02*
X0389725Y0190424D01*
X0389725Y0188826D02*
X0327067Y0188826D01*
X0327057Y0187227D02*
X0389725Y0187227D01*
X0389725Y0185629D02*
X0327048Y0185629D01*
X0327039Y0184030D02*
X0371608Y0184030D01*
X0371615Y0184033D02*
X0370302Y0183489D01*
X0369297Y0182485D01*
X0368754Y0181172D01*
X0368754Y0179751D01*
X0369297Y0178438D01*
X0370302Y0177434D01*
X0371615Y0176890D01*
X0373036Y0176890D01*
X0374348Y0177434D01*
X0375353Y0178438D01*
X0375897Y0179751D01*
X0375897Y0181172D01*
X0375353Y0182485D01*
X0374348Y0183489D01*
X0373036Y0184033D01*
X0371615Y0184033D01*
X0373042Y0184030D02*
X0389725Y0184030D01*
X0389725Y0182432D02*
X0375375Y0182432D01*
X0375897Y0180833D02*
X0389725Y0180833D01*
X0389725Y0179235D02*
X0375683Y0179235D01*
X0374551Y0177636D02*
X0389725Y0177636D01*
X0389725Y0176038D02*
X0326993Y0176038D01*
X0327002Y0177636D02*
X0370099Y0177636D01*
X0368967Y0179235D02*
X0327011Y0179235D01*
X0327021Y0180833D02*
X0368754Y0180833D01*
X0369275Y0182432D02*
X0327030Y0182432D01*
X0326984Y0174439D02*
X0389725Y0174439D01*
X0389725Y0172841D02*
X0326975Y0172841D01*
X0326965Y0171242D02*
X0389725Y0171242D01*
X0389725Y0169644D02*
X0326956Y0169644D01*
X0326947Y0168045D02*
X0389725Y0168045D01*
X0389725Y0166447D02*
X0373672Y0166447D01*
X0373036Y0166710D02*
X0371615Y0166710D01*
X0370302Y0166166D01*
X0369297Y0165162D01*
X0368754Y0163849D01*
X0368754Y0162428D01*
X0369297Y0161115D01*
X0370302Y0160111D01*
X0371615Y0159567D01*
X0373036Y0159567D01*
X0374348Y0160111D01*
X0375353Y0161115D01*
X0375897Y0162428D01*
X0375897Y0163849D01*
X0375353Y0165162D01*
X0374348Y0166166D01*
X0373036Y0166710D01*
X0370978Y0166447D02*
X0326938Y0166447D01*
X0326929Y0164848D02*
X0369167Y0164848D01*
X0368754Y0163250D02*
X0326920Y0163250D01*
X0326910Y0161651D02*
X0369075Y0161651D01*
X0370442Y0160053D02*
X0326901Y0160053D01*
X0287325Y0151800D02*
X0287325Y0139300D01*
X0374208Y0160053D02*
X0389725Y0160053D01*
X0389725Y0161651D02*
X0375575Y0161651D01*
X0375897Y0163250D02*
X0389725Y0163250D01*
X0389725Y0164848D02*
X0375483Y0164848D01*
X0363270Y0214300D02*
X0344825Y0214300D01*
X0344825Y0226800D01*
X0363270Y0225737D02*
X0363270Y0214300D01*
X0382329Y0270350D02*
X0389725Y0270350D01*
X0389725Y0271948D02*
X0383928Y0271948D01*
X0384744Y0273547D02*
X0389725Y0273547D01*
X0389725Y0275145D02*
X0385406Y0275145D01*
X0385424Y0276744D02*
X0389725Y0276744D01*
X0389725Y0278342D02*
X0385424Y0278342D01*
X0384791Y0279941D02*
X0389725Y0279941D01*
X0389725Y0281539D02*
X0384040Y0281539D01*
X0382441Y0283138D02*
X0389725Y0283138D01*
X0389725Y0284737D02*
X0379329Y0284737D01*
X0375321Y0284737D02*
X0019329Y0284737D01*
X0018936Y0284899D02*
X0015714Y0284899D01*
X0012737Y0283666D01*
X0010459Y0281388D01*
X0009226Y0278411D01*
X0009226Y0275189D01*
X0010459Y0272212D01*
X0012737Y0269934D01*
X0015714Y0268701D01*
X0018936Y0268701D01*
X0021913Y0269934D01*
X0024191Y0272212D01*
X0025424Y0275189D01*
X0025424Y0278411D01*
X0024191Y0281388D01*
X0021913Y0283666D01*
X0018936Y0284899D01*
X0015321Y0284737D02*
X0004925Y0284737D01*
X0004925Y0286335D02*
X0389725Y0286335D01*
X0389725Y0287934D02*
X0004925Y0287934D01*
X0004925Y0283138D02*
X0012209Y0283138D01*
X0010611Y0281539D02*
X0004925Y0281539D01*
X0004925Y0279941D02*
X0009860Y0279941D01*
X0009226Y0278342D02*
X0004925Y0278342D01*
X0004925Y0276744D02*
X0009226Y0276744D01*
X0009244Y0275145D02*
X0004925Y0275145D01*
X0004925Y0273547D02*
X0009906Y0273547D01*
X0010723Y0271948D02*
X0004925Y0271948D01*
X0004925Y0270350D02*
X0012321Y0270350D01*
X0015592Y0268751D02*
X0004925Y0268751D01*
X0004925Y0267153D02*
X0043510Y0267153D01*
X0042428Y0268236D02*
X0044706Y0265957D01*
X0047683Y0264724D01*
X0050905Y0264724D01*
X0053882Y0265957D01*
X0056160Y0268236D01*
X0057393Y0271213D01*
X0057393Y0274435D01*
X0056160Y0277411D01*
X0053882Y0279690D01*
X0050905Y0280923D01*
X0047683Y0280923D01*
X0044706Y0279690D01*
X0042428Y0277411D01*
X0041194Y0274435D01*
X0041194Y0271213D01*
X0042428Y0268236D01*
X0042214Y0268751D02*
X0019058Y0268751D01*
X0022329Y0270350D02*
X0041552Y0270350D01*
X0041194Y0271948D02*
X0023928Y0271948D01*
X0024744Y0273547D02*
X0041194Y0273547D01*
X0041489Y0275145D02*
X0025406Y0275145D01*
X0025424Y0276744D02*
X0042151Y0276744D01*
X0043359Y0278342D02*
X0025424Y0278342D01*
X0024791Y0279941D02*
X0045312Y0279941D01*
X0053275Y0279941D02*
X0066482Y0279941D01*
X0064682Y0278342D02*
X0055229Y0278342D01*
X0056436Y0276744D02*
X0063972Y0276744D01*
X0063972Y0275145D02*
X0057098Y0275145D01*
X0057393Y0273547D02*
X0063972Y0273547D01*
X0063972Y0271948D02*
X0057393Y0271948D01*
X0057036Y0270350D02*
X0063972Y0270350D01*
X0063972Y0268751D02*
X0056373Y0268751D01*
X0055077Y0267153D02*
X0063972Y0267153D01*
X0063972Y0265554D02*
X0052908Y0265554D01*
X0045679Y0265554D02*
X0004925Y0265554D01*
X0004925Y0263956D02*
X0063972Y0263956D01*
X0063972Y0262357D02*
X0004925Y0262357D01*
X0004925Y0260759D02*
X0029265Y0260759D01*
X0027667Y0259160D02*
X0004925Y0259160D01*
X0004925Y0257562D02*
X0026068Y0257562D01*
X0024470Y0255963D02*
X0004925Y0255963D01*
X0004925Y0254365D02*
X0022871Y0254365D01*
X0021273Y0252766D02*
X0004925Y0252766D01*
X0004925Y0251168D02*
X0019674Y0251168D01*
X0018076Y0249569D02*
X0004925Y0249569D01*
X0004925Y0247971D02*
X0016477Y0247971D01*
X0015594Y0246372D02*
X0004925Y0246372D01*
X0004925Y0244774D02*
X0015594Y0244774D01*
X0015594Y0243175D02*
X0004925Y0243175D01*
X0004925Y0241577D02*
X0015798Y0241577D01*
X0017128Y0239978D02*
X0004925Y0239978D01*
X0004925Y0238380D02*
X0018727Y0238380D01*
X0022325Y0244300D02*
X0091341Y0244300D01*
X0091341Y0272824D01*
X0095558Y0275145D02*
X0097124Y0275145D01*
X0096557Y0273547D02*
X0096125Y0273547D01*
X0096125Y0271948D02*
X0096557Y0271948D01*
X0097187Y0270350D02*
X0095495Y0270350D01*
X0094012Y0268751D02*
X0098670Y0268751D01*
X0104012Y0268751D02*
X0108670Y0268751D01*
X0107187Y0270350D02*
X0105495Y0270350D01*
X0106125Y0271948D02*
X0106557Y0271948D01*
X0106557Y0273547D02*
X0106125Y0273547D01*
X0109477Y0278342D02*
X0113205Y0278342D01*
X0114804Y0279941D02*
X0107878Y0279941D01*
X0106211Y0281539D02*
X0116471Y0281539D01*
X0116557Y0273547D02*
X0116125Y0273547D01*
X0116125Y0271948D02*
X0116557Y0271948D01*
X0117187Y0270350D02*
X0115495Y0270350D01*
X0114012Y0268751D02*
X0118670Y0268751D01*
X0124012Y0268751D02*
X0128670Y0268751D01*
X0127187Y0270350D02*
X0125495Y0270350D01*
X0126125Y0271948D02*
X0126557Y0271948D01*
X0126557Y0273547D02*
X0126125Y0273547D01*
X0125558Y0275145D02*
X0127124Y0275145D01*
X0135558Y0275145D02*
X0137124Y0275145D01*
X0136557Y0273547D02*
X0136125Y0273547D01*
X0136125Y0271948D02*
X0136557Y0271948D01*
X0137187Y0270350D02*
X0135495Y0270350D01*
X0134012Y0268751D02*
X0138670Y0268751D01*
X0144012Y0268751D02*
X0148670Y0268751D01*
X0147187Y0270350D02*
X0145495Y0270350D01*
X0146125Y0271948D02*
X0146557Y0271948D01*
X0146557Y0273547D02*
X0146125Y0273547D01*
X0145558Y0275145D02*
X0147124Y0275145D01*
X0088479Y0281539D02*
X0024040Y0281539D01*
X0022441Y0283138D02*
X0372209Y0283138D01*
X0086811Y0279941D02*
X0076200Y0279941D01*
X0078000Y0278342D02*
X0085213Y0278342D01*
X0081341Y0272824D02*
X0079864Y0272824D01*
X0075080Y0277608D01*
X0067602Y0277608D01*
X0066557Y0276563D01*
X0066557Y0261031D01*
X0064825Y0259300D01*
X0031461Y0259300D01*
X0004925Y0227190D02*
X0065292Y0227190D01*
X0067325Y0224300D02*
X0027325Y0224300D01*
X0027325Y0211800D01*
X0022841Y0211205D02*
X0004925Y0211205D01*
X0004925Y0212803D02*
X0022841Y0212803D01*
X0023586Y0214402D02*
X0004925Y0214402D01*
X0004925Y0216001D02*
X0024741Y0216001D01*
X0024741Y0217599D02*
X0004925Y0217599D01*
X0004925Y0219198D02*
X0024741Y0219198D01*
X0024741Y0220796D02*
X0004925Y0220796D01*
X0004925Y0222395D02*
X0024741Y0222395D01*
X0024741Y0223993D02*
X0004925Y0223993D01*
X0004925Y0225592D02*
X0025063Y0225592D01*
X0029909Y0220796D02*
X0069741Y0220796D01*
X0069741Y0219198D02*
X0029909Y0219198D01*
X0029909Y0217599D02*
X0069741Y0217599D01*
X0069741Y0216001D02*
X0039489Y0216001D01*
X0039189Y0216300D02*
X0037425Y0216300D01*
X0037425Y0211900D01*
X0037225Y0211900D01*
X0037225Y0211700D01*
X0032825Y0211700D01*
X0032825Y0209936D01*
X0035461Y0207300D01*
X0037225Y0207300D01*
X0037225Y0211700D01*
X0037425Y0211700D01*
X0037425Y0207300D01*
X0039189Y0207300D01*
X0041825Y0209936D01*
X0041825Y0211700D01*
X0037425Y0211700D01*
X0037425Y0211900D01*
X0041825Y0211900D01*
X0041825Y0213664D01*
X0039189Y0216300D01*
X0037425Y0216001D02*
X0037225Y0216001D01*
X0037225Y0216300D02*
X0035461Y0216300D01*
X0032825Y0213664D01*
X0032825Y0211900D01*
X0037225Y0211900D01*
X0037225Y0216300D01*
X0037225Y0214402D02*
X0037425Y0214402D01*
X0037425Y0212803D02*
X0037225Y0212803D01*
X0037225Y0211205D02*
X0037425Y0211205D01*
X0037425Y0209606D02*
X0037225Y0209606D01*
X0037225Y0208008D02*
X0037425Y0208008D01*
X0039183Y0206284D02*
X0035468Y0206284D01*
X0032841Y0203657D01*
X0032841Y0199943D01*
X0033399Y0199384D01*
X0033396Y0199384D01*
X0031809Y0200970D01*
X0031809Y0203657D01*
X0029183Y0206284D01*
X0025468Y0206284D01*
X0022841Y0203657D01*
X0022841Y0199943D01*
X0025468Y0197316D01*
X0028155Y0197316D01*
X0030861Y0194609D01*
X0031811Y0194216D01*
X0033399Y0194216D01*
X0032841Y0193657D01*
X0032841Y0189943D01*
X0035468Y0187316D01*
X0039183Y0187316D01*
X0041809Y0189943D01*
X0041809Y0191161D01*
X0043164Y0189806D01*
X0043164Y0186985D01*
X0043143Y0186964D01*
X0042675Y0185834D01*
X0042675Y0184612D01*
X0043143Y0183482D01*
X0044007Y0182618D01*
X0045137Y0182150D01*
X0046360Y0182150D01*
X0047489Y0182618D01*
X0048354Y0183482D01*
X0048822Y0184612D01*
X0048822Y0185834D01*
X0048354Y0186964D01*
X0048333Y0186985D01*
X0048333Y0191391D01*
X0047939Y0192341D01*
X0042016Y0198264D01*
X0041289Y0198991D01*
X0040984Y0199117D01*
X0041083Y0199216D01*
X0048755Y0199216D01*
X0049741Y0198230D01*
X0049741Y0188562D01*
X0049720Y0188541D01*
X0049252Y0187411D01*
X0049252Y0186189D01*
X0049720Y0185059D01*
X0050584Y0184195D01*
X0051714Y0183727D01*
X0052937Y0183727D01*
X0054066Y0184195D01*
X0054931Y0185059D01*
X0055398Y0186189D01*
X0055398Y0187411D01*
X0054931Y0188541D01*
X0054909Y0188562D01*
X0054909Y0199814D01*
X0054516Y0200764D01*
X0052016Y0203264D01*
X0051289Y0203991D01*
X0050339Y0204384D01*
X0041083Y0204384D01*
X0039183Y0206284D01*
X0039897Y0208008D02*
X0069741Y0208008D01*
X0069741Y0209606D02*
X0041496Y0209606D01*
X0041825Y0211205D02*
X0069741Y0211205D01*
X0069741Y0212803D02*
X0041825Y0212803D01*
X0041087Y0214402D02*
X0069741Y0214402D01*
X0069741Y0206409D02*
X0004925Y0206409D01*
X0004925Y0204811D02*
X0023994Y0204811D01*
X0022841Y0203212D02*
X0004925Y0203212D01*
X0004925Y0201614D02*
X0022841Y0201614D01*
X0022841Y0200015D02*
X0004925Y0200015D01*
X0004925Y0198417D02*
X0024367Y0198417D01*
X0024785Y0195602D02*
X0023524Y0194340D01*
X0022841Y0192692D01*
X0022841Y0190908D01*
X0023524Y0189260D01*
X0024785Y0187998D01*
X0026433Y0187316D01*
X0028217Y0187316D01*
X0029865Y0187998D01*
X0031127Y0189260D01*
X0031809Y0190908D01*
X0031809Y0192692D01*
X0031127Y0194340D01*
X0029865Y0195602D01*
X0028217Y0196284D01*
X0026433Y0196284D01*
X0024785Y0195602D01*
X0024403Y0195220D02*
X0004925Y0195220D01*
X0004925Y0196818D02*
X0028652Y0196818D01*
X0030247Y0195220D02*
X0030251Y0195220D01*
X0031424Y0193621D02*
X0032841Y0193621D01*
X0032841Y0192023D02*
X0031809Y0192023D01*
X0031609Y0190424D02*
X0032841Y0190424D01*
X0033958Y0188826D02*
X0030693Y0188826D01*
X0023958Y0188826D02*
X0004925Y0188826D01*
X0004925Y0190424D02*
X0023041Y0190424D01*
X0022841Y0192023D02*
X0004925Y0192023D01*
X0004925Y0193621D02*
X0023226Y0193621D01*
X0027325Y0201800D02*
X0032325Y0196800D01*
X0039825Y0196800D01*
X0045748Y0190877D01*
X0045748Y0185223D01*
X0042916Y0184030D02*
X0004925Y0184030D01*
X0004925Y0182432D02*
X0044456Y0182432D01*
X0047040Y0182432D02*
X0069741Y0182432D01*
X0069741Y0184030D02*
X0053669Y0184030D01*
X0055166Y0185629D02*
X0069741Y0185629D01*
X0069741Y0187227D02*
X0055398Y0187227D01*
X0054909Y0188826D02*
X0069741Y0188826D01*
X0069741Y0190424D02*
X0054909Y0190424D01*
X0054909Y0192023D02*
X0069741Y0192023D01*
X0069741Y0193621D02*
X0054909Y0193621D01*
X0054909Y0195220D02*
X0069741Y0195220D01*
X0069741Y0196818D02*
X0054909Y0196818D01*
X0054909Y0198417D02*
X0069741Y0198417D01*
X0069741Y0200015D02*
X0054826Y0200015D01*
X0053666Y0201614D02*
X0069741Y0201614D01*
X0069741Y0203212D02*
X0052067Y0203212D01*
X0049825Y0201800D02*
X0037325Y0201800D01*
X0032841Y0201614D02*
X0031809Y0201614D01*
X0031809Y0203212D02*
X0032841Y0203212D01*
X0033994Y0204811D02*
X0030656Y0204811D01*
X0029875Y0208008D02*
X0034753Y0208008D01*
X0033155Y0209606D02*
X0031473Y0209606D01*
X0031809Y0211205D02*
X0032825Y0211205D01*
X0032825Y0212803D02*
X0031809Y0212803D01*
X0031065Y0214402D02*
X0033563Y0214402D01*
X0035162Y0216001D02*
X0029909Y0216001D01*
X0023177Y0209606D02*
X0004925Y0209606D01*
X0004925Y0208008D02*
X0024776Y0208008D01*
X0032764Y0200015D02*
X0032841Y0200015D01*
X0040656Y0204811D02*
X0069741Y0204811D01*
X0052325Y0199300D02*
X0049825Y0201800D01*
X0049554Y0198417D02*
X0041863Y0198417D01*
X0043461Y0196818D02*
X0049741Y0196818D01*
X0049741Y0195220D02*
X0045060Y0195220D01*
X0046659Y0193621D02*
X0049741Y0193621D01*
X0049741Y0192023D02*
X0048071Y0192023D01*
X0048333Y0190424D02*
X0049741Y0190424D01*
X0049741Y0188826D02*
X0048333Y0188826D01*
X0048333Y0187227D02*
X0049252Y0187227D01*
X0049484Y0185629D02*
X0048822Y0185629D01*
X0048581Y0184030D02*
X0050981Y0184030D01*
X0052325Y0186800D02*
X0052325Y0199300D01*
X0042546Y0190424D02*
X0041809Y0190424D01*
X0040693Y0188826D02*
X0043164Y0188826D01*
X0043164Y0187227D02*
X0004925Y0187227D01*
X0004925Y0185629D02*
X0042675Y0185629D01*
X0069741Y0180833D02*
X0004925Y0180833D01*
X0004925Y0179235D02*
X0069741Y0179235D01*
X0069741Y0177636D02*
X0004925Y0177636D01*
X0004925Y0176038D02*
X0069741Y0176038D01*
X0069741Y0174439D02*
X0004925Y0174439D01*
X0004925Y0172841D02*
X0069741Y0172841D01*
X0069741Y0171242D02*
X0004925Y0171242D01*
X0004925Y0169644D02*
X0069741Y0169644D01*
X0069741Y0168045D02*
X0004925Y0168045D01*
X0004925Y0166447D02*
X0069741Y0166447D01*
X0069741Y0164848D02*
X0004925Y0164848D01*
X0004925Y0163250D02*
X0069741Y0163250D01*
X0069741Y0161651D02*
X0004925Y0161651D01*
X0004925Y0160053D02*
X0069741Y0160053D01*
X0069741Y0158454D02*
X0051922Y0158454D01*
X0050905Y0158876D02*
X0053882Y0157643D01*
X0056160Y0155364D01*
X0057393Y0152387D01*
X0057393Y0149165D01*
X0056160Y0146189D01*
X0053882Y0143910D01*
X0050905Y0142677D01*
X0047683Y0142677D01*
X0044706Y0143910D01*
X0042428Y0146189D01*
X0041194Y0149165D01*
X0041194Y0152387D01*
X0042428Y0155364D01*
X0044706Y0157643D01*
X0047683Y0158876D01*
X0050905Y0158876D01*
X0046665Y0158454D02*
X0004925Y0158454D01*
X0004925Y0156856D02*
X0043919Y0156856D01*
X0042383Y0155257D02*
X0004925Y0155257D01*
X0004925Y0153659D02*
X0041721Y0153659D01*
X0041194Y0152060D02*
X0004925Y0152060D01*
X0004925Y0150462D02*
X0041194Y0150462D01*
X0041320Y0148863D02*
X0033125Y0148863D01*
X0033125Y0149631D02*
X0032657Y0150100D01*
X0016994Y0150100D01*
X0016525Y0149631D01*
X0016525Y0133969D01*
X0016994Y0133500D01*
X0032657Y0133500D01*
X0033125Y0133969D01*
X0033125Y0149631D01*
X0033125Y0147265D02*
X0041982Y0147265D01*
X0042950Y0145666D02*
X0033125Y0145666D01*
X0033125Y0144068D02*
X0044549Y0144068D01*
X0054039Y0144068D02*
X0069741Y0144068D01*
X0069741Y0145666D02*
X0055637Y0145666D01*
X0056606Y0147265D02*
X0069741Y0147265D01*
X0069741Y0148863D02*
X0057268Y0148863D01*
X0057393Y0150462D02*
X0069741Y0150462D01*
X0069741Y0152060D02*
X0057393Y0152060D01*
X0056866Y0153659D02*
X0069741Y0153659D01*
X0069741Y0155257D02*
X0056204Y0155257D01*
X0054668Y0156856D02*
X0069741Y0156856D01*
X0069741Y0142469D02*
X0033125Y0142469D01*
X0033125Y0140870D02*
X0069741Y0140870D01*
X0069741Y0139272D02*
X0033125Y0139272D01*
X0033125Y0137673D02*
X0069741Y0137673D01*
X0069741Y0136075D02*
X0033125Y0136075D01*
X0033125Y0134476D02*
X0069741Y0134476D01*
X0069741Y0132878D02*
X0004925Y0132878D01*
X0004925Y0134476D02*
X0016525Y0134476D01*
X0016525Y0136075D02*
X0004925Y0136075D01*
X0004925Y0137673D02*
X0016525Y0137673D01*
X0016525Y0139272D02*
X0004925Y0139272D01*
X0004925Y0140870D02*
X0016525Y0140870D01*
X0016525Y0142469D02*
X0004925Y0142469D01*
X0004925Y0144068D02*
X0016525Y0144068D01*
X0016525Y0145666D02*
X0004925Y0145666D01*
X0004925Y0147265D02*
X0016525Y0147265D01*
X0016525Y0148863D02*
X0004925Y0148863D01*
X0004925Y0131279D02*
X0069741Y0131279D01*
X0069741Y0129681D02*
X0047142Y0129681D01*
X0048050Y0128082D02*
X0069741Y0128082D01*
X0069741Y0126484D02*
X0048224Y0126484D01*
X0047788Y0124885D02*
X0069741Y0124885D01*
X0069741Y0123287D02*
X0046510Y0123287D01*
X0047103Y0121688D02*
X0069741Y0121688D01*
X0074909Y0123287D02*
X0075541Y0123287D01*
X0075541Y0124885D02*
X0074909Y0124885D01*
X0040619Y0129681D02*
X0004925Y0129681D01*
X0069358Y0227190D02*
X0069741Y0227190D01*
D25*
X0067325Y0224300D03*
X0085975Y0215450D03*
X0117375Y0195500D03*
X0122325Y0179300D03*
X0114825Y0166250D03*
X0108925Y0163000D03*
X0127325Y0161800D03*
X0134825Y0166250D03*
X0129825Y0134300D03*
X0085975Y0126800D03*
X0089825Y0166125D03*
X0086650Y0188150D03*
X0136575Y0211300D03*
X0141775Y0214300D03*
X0154925Y0209300D03*
X0158725Y0204950D03*
X0188565Y0214398D03*
X0199825Y0184300D03*
X0180825Y0169050D03*
X0219825Y0131800D03*
X0219825Y0127900D03*
X0219825Y0124000D03*
X0242275Y0124000D03*
X0242275Y0127900D03*
X0242275Y0131800D03*
X0349825Y0161800D03*
X0297325Y0241800D03*
X0140875Y0232550D03*
D26*
X0187325Y0234300D03*
X0307325Y0194300D03*
D27*
X0149825Y0154300D03*
D28*
X0079825Y0176800D03*
X0239825Y0261800D03*
X0282325Y0249300D03*
X0289825Y0276800D03*
X0312325Y0276800D03*
X0277950Y0218050D03*
X0256065Y0173517D03*
X0257325Y0151800D03*
X0322325Y0109300D03*
D29*
X0294825Y0106800D03*
X0294825Y0099300D03*
X0259825Y0089300D03*
X0237325Y0094300D03*
X0235298Y0091251D03*
X0237325Y0099300D03*
X0219825Y0136800D03*
X0147325Y0106800D03*
X0140487Y0122579D03*
X0117325Y0121800D03*
X0109825Y0121800D03*
X0104565Y0138050D03*
X0111326Y0141454D03*
X0129825Y0143050D03*
X0137898Y0139300D03*
X0087325Y0121800D03*
X0112325Y0096800D03*
X0102325Y0091800D03*
X0104825Y0069300D03*
X0129825Y0034300D03*
X0052325Y0186800D03*
X0045748Y0185223D03*
X0129825Y0229300D03*
X0214825Y0223727D03*
X0214825Y0194300D03*
D30*
X0233478Y0088867D02*
X0154825Y0088867D01*
X0233478Y0088867D02*
X0234067Y0088278D01*
X0236530Y0088278D01*
X0237552Y0089300D01*
X0259825Y0089300D01*
D31*
X0214825Y0194300D02*
X0214825Y0223727D01*
D32*
X0277950Y0218050D02*
X0322950Y0218050D01*
X0322337Y0111286D01*
X0324322Y0109300D01*
X0374057Y0109300D01*
X0322325Y0109300D02*
X0322337Y0111286D01*
X0122325Y0049300D02*
X0104256Y0049300D01*
X0079825Y0049300D01*
X0079825Y0121938D01*
X0079825Y0176800D01*
X0048388Y0110737D02*
X0043880Y0110737D01*
X0048388Y0110737D02*
X0052325Y0106800D01*
X0052325Y0055550D01*
X0049825Y0053050D01*
X0044943Y0053050D01*
X0043880Y0051987D01*
M02*
