G75*
%MOIN*%
%OFA0B0*%
%FSLAX25Y25*%
%IPPOS*%
%LPD*%
%AMOC8*
5,1,8,0,0,1.08239X$1,22.5*
%
%ADD10C,0.00600*%
%ADD11C,0.00800*%
%ADD12C,0.00500*%
D10*
X0155125Y0008168D02*
X0156193Y0007100D01*
X0158328Y0007100D01*
X0159396Y0008168D01*
X0159396Y0009235D01*
X0158328Y0010303D01*
X0156193Y0010303D01*
X0155125Y0011370D01*
X0155125Y0012438D01*
X0156193Y0013505D01*
X0158328Y0013505D01*
X0159396Y0012438D01*
X0161571Y0011370D02*
X0162638Y0011370D01*
X0162638Y0007100D01*
X0161571Y0007100D02*
X0163706Y0007100D01*
X0165868Y0007100D02*
X0165868Y0011370D01*
X0166935Y0011370D01*
X0168003Y0010303D01*
X0169070Y0011370D01*
X0170138Y0010303D01*
X0170138Y0007100D01*
X0168003Y0007100D02*
X0168003Y0010303D01*
X0172313Y0011370D02*
X0175516Y0011370D01*
X0176584Y0010303D01*
X0176584Y0008168D01*
X0175516Y0007100D01*
X0172313Y0007100D01*
X0172313Y0004965D02*
X0172313Y0011370D01*
X0178759Y0013505D02*
X0179826Y0013505D01*
X0179826Y0007100D01*
X0178759Y0007100D02*
X0180894Y0007100D01*
X0183056Y0008168D02*
X0183056Y0010303D01*
X0184123Y0011370D01*
X0186258Y0011370D01*
X0187326Y0010303D01*
X0187326Y0009235D01*
X0183056Y0009235D01*
X0183056Y0008168D02*
X0184123Y0007100D01*
X0186258Y0007100D01*
X0195947Y0007100D02*
X0199149Y0007100D01*
X0200217Y0008168D01*
X0199149Y0009235D01*
X0197014Y0009235D01*
X0195947Y0010303D01*
X0197014Y0011370D01*
X0200217Y0011370D01*
X0202392Y0011370D02*
X0205595Y0011370D01*
X0206662Y0010303D01*
X0206662Y0008168D01*
X0205595Y0007100D01*
X0202392Y0007100D01*
X0202392Y0004965D02*
X0202392Y0011370D01*
X0208838Y0010303D02*
X0208838Y0008168D01*
X0209905Y0007100D01*
X0212040Y0007100D01*
X0213108Y0009235D02*
X0208838Y0009235D01*
X0208838Y0010303D02*
X0209905Y0011370D01*
X0212040Y0011370D01*
X0213108Y0010303D01*
X0213108Y0009235D01*
X0215283Y0008168D02*
X0216351Y0007100D01*
X0219553Y0007100D01*
X0222796Y0008168D02*
X0223864Y0007100D01*
X0222796Y0008168D02*
X0222796Y0012438D01*
X0221729Y0011370D02*
X0223864Y0011370D01*
X0226026Y0011370D02*
X0226026Y0007100D01*
X0226026Y0009235D02*
X0228161Y0011370D01*
X0229228Y0011370D01*
X0231397Y0010303D02*
X0231397Y0008168D01*
X0232464Y0007100D01*
X0234600Y0007100D01*
X0235667Y0008168D01*
X0235667Y0010303D01*
X0234600Y0011370D01*
X0232464Y0011370D01*
X0231397Y0010303D01*
X0237842Y0011370D02*
X0241045Y0011370D01*
X0242113Y0010303D01*
X0242113Y0008168D01*
X0241045Y0007100D01*
X0237842Y0007100D01*
X0237842Y0004965D02*
X0237842Y0011370D01*
X0244288Y0010303D02*
X0245355Y0011370D01*
X0247491Y0011370D01*
X0248558Y0010303D01*
X0248558Y0007100D01*
X0250733Y0008168D02*
X0251801Y0007100D01*
X0253936Y0007100D01*
X0255004Y0008168D01*
X0255004Y0010303D01*
X0253936Y0011370D01*
X0251801Y0011370D01*
X0250733Y0010303D01*
X0250733Y0008168D01*
X0244288Y0007100D02*
X0244288Y0013505D01*
X0257179Y0011370D02*
X0259314Y0011370D01*
X0258246Y0012438D02*
X0258246Y0008168D01*
X0259314Y0007100D01*
X0261476Y0008168D02*
X0261476Y0010303D01*
X0262543Y0011370D01*
X0264679Y0011370D01*
X0265746Y0010303D01*
X0265746Y0008168D01*
X0264679Y0007100D01*
X0262543Y0007100D01*
X0261476Y0008168D01*
X0267921Y0007100D02*
X0267921Y0011370D01*
X0268989Y0011370D01*
X0270057Y0010303D01*
X0271124Y0011370D01*
X0272192Y0010303D01*
X0272192Y0007100D01*
X0270057Y0007100D02*
X0270057Y0010303D01*
X0274367Y0010303D02*
X0274367Y0008168D01*
X0275434Y0007100D01*
X0277570Y0007100D01*
X0278637Y0009235D02*
X0274367Y0009235D01*
X0274367Y0010303D02*
X0275434Y0011370D01*
X0277570Y0011370D01*
X0278637Y0010303D01*
X0278637Y0009235D01*
X0280812Y0011370D02*
X0282948Y0011370D01*
X0281880Y0012438D02*
X0281880Y0008168D01*
X0282948Y0007100D01*
X0285109Y0008168D02*
X0285109Y0010303D01*
X0286177Y0011370D01*
X0288312Y0011370D01*
X0289380Y0010303D01*
X0289380Y0009235D01*
X0285109Y0009235D01*
X0285109Y0008168D02*
X0286177Y0007100D01*
X0288312Y0007100D01*
X0291555Y0007100D02*
X0291555Y0011370D01*
X0291555Y0009235D02*
X0293690Y0011370D01*
X0294758Y0011370D01*
X0293825Y0014300D02*
X0285825Y0014300D01*
X0284825Y0015300D01*
X0284825Y0023300D01*
X0285825Y0024300D01*
X0284825Y0025300D01*
X0284825Y0033300D01*
X0285825Y0034300D01*
X0293825Y0034300D01*
X0294825Y0033300D01*
X0294825Y0025300D01*
X0293825Y0024300D01*
X0294825Y0023300D01*
X0294825Y0015300D01*
X0293825Y0014300D01*
X0303372Y0013505D02*
X0303372Y0007100D01*
X0303372Y0009235D02*
X0306574Y0009235D01*
X0307642Y0010303D01*
X0307642Y0012438D01*
X0306574Y0013505D01*
X0303372Y0013505D01*
X0309817Y0013505D02*
X0309817Y0007100D01*
X0309817Y0009235D02*
X0313020Y0009235D01*
X0314087Y0010303D01*
X0314087Y0012438D01*
X0313020Y0013505D01*
X0309817Y0013505D01*
X0311952Y0009235D02*
X0314087Y0007100D01*
X0316263Y0008168D02*
X0317330Y0007100D01*
X0319465Y0007100D01*
X0320533Y0008168D01*
X0320533Y0012438D01*
X0319465Y0013505D01*
X0317330Y0013505D01*
X0316263Y0012438D01*
X0316263Y0008168D01*
X0335599Y0011370D02*
X0337734Y0007100D01*
X0339869Y0011370D01*
X0342045Y0008168D02*
X0343112Y0008168D01*
X0343112Y0007100D01*
X0342045Y0007100D01*
X0342045Y0008168D01*
X0345267Y0007100D02*
X0349538Y0007100D01*
X0347403Y0007100D02*
X0347403Y0013505D01*
X0345267Y0011370D01*
X0351713Y0008168D02*
X0352780Y0008168D01*
X0352780Y0007100D01*
X0351713Y0007100D01*
X0351713Y0008168D01*
X0354936Y0008168D02*
X0359206Y0012438D01*
X0359206Y0008168D01*
X0358138Y0007100D01*
X0356003Y0007100D01*
X0354936Y0008168D01*
X0354936Y0012438D01*
X0356003Y0013505D01*
X0358138Y0013505D01*
X0359206Y0012438D01*
X0361381Y0008168D02*
X0362449Y0008168D01*
X0362449Y0007100D01*
X0361381Y0007100D01*
X0361381Y0008168D01*
X0364604Y0008168D02*
X0368874Y0012438D01*
X0368874Y0008168D01*
X0367807Y0007100D01*
X0365671Y0007100D01*
X0364604Y0008168D01*
X0364604Y0012438D01*
X0365671Y0013505D01*
X0367807Y0013505D01*
X0368874Y0012438D01*
X0219553Y0011370D02*
X0216351Y0011370D01*
X0215283Y0010303D01*
X0215283Y0008168D01*
X0162638Y0013505D02*
X0162638Y0014573D01*
X0283325Y0146800D02*
X0282325Y0147800D01*
X0282325Y0155800D01*
X0283325Y0156800D01*
X0291325Y0156800D01*
X0292325Y0155800D01*
X0293325Y0156800D01*
X0301325Y0156800D01*
X0302325Y0155800D01*
X0302325Y0147800D01*
X0301325Y0146800D01*
X0293325Y0146800D01*
X0292325Y0147800D01*
X0291325Y0146800D01*
X0283325Y0146800D01*
X0266325Y0261800D02*
X0258325Y0261800D01*
X0257325Y0262800D01*
X0256325Y0261800D01*
X0248325Y0261800D01*
X0247325Y0262800D01*
X0247325Y0270800D01*
X0248325Y0271800D01*
X0256325Y0271800D01*
X0257325Y0270800D01*
X0258325Y0271800D01*
X0266325Y0271800D01*
X0267325Y0270800D01*
X0267325Y0262800D01*
X0266325Y0261800D01*
D11*
X0337680Y0263572D02*
X0337680Y0160028D01*
X0056971Y0160028D01*
X0056971Y0263572D01*
X0337680Y0263572D01*
X0354806Y0282666D02*
X0354806Y0140934D01*
X0039845Y0140934D01*
X0039845Y0282666D01*
X0354806Y0282666D01*
D12*
X0264786Y0277554D02*
X0261783Y0277554D01*
X0263284Y0277554D02*
X0263284Y0273050D01*
X0260182Y0273050D02*
X0260182Y0276053D01*
X0258680Y0277554D01*
X0257179Y0276053D01*
X0257179Y0273050D01*
X0255578Y0273801D02*
X0254827Y0273050D01*
X0252575Y0273050D01*
X0252575Y0277554D01*
X0254827Y0277554D01*
X0255578Y0276803D01*
X0255578Y0276053D01*
X0254827Y0275302D01*
X0252575Y0275302D01*
X0254827Y0275302D02*
X0255578Y0274551D01*
X0255578Y0273801D01*
X0257179Y0275302D02*
X0260182Y0275302D01*
X0282575Y0145054D02*
X0284827Y0145054D01*
X0285578Y0144303D01*
X0285578Y0143553D01*
X0284827Y0142802D01*
X0282575Y0142802D01*
X0282575Y0140550D02*
X0282575Y0145054D01*
X0284827Y0142802D02*
X0285578Y0142051D01*
X0285578Y0141301D01*
X0284827Y0140550D01*
X0282575Y0140550D01*
X0287179Y0140550D02*
X0287179Y0143553D01*
X0288680Y0145054D01*
X0290182Y0143553D01*
X0290182Y0140550D01*
X0290182Y0142802D02*
X0287179Y0142802D01*
X0291783Y0145054D02*
X0294786Y0145054D01*
X0293284Y0145054D02*
X0293284Y0140550D01*
M02*
